<svg id="Layer_1" data-name="Layer 1" xmlns="http://www.w3.org/2000/svg" viewBox="0 0 181.64 387.44"><defs><style>.cls-1,.cls-8{fill:#fff;}.cls-2{fill:maroon;}.cls-3,.cls-4,.cls-5{fill:none;}.cls-3,.cls-4,.cls-5,.cls-8{stroke:#000;}.cls-3,.cls-4,.cls-8{stroke-miterlimit:10;}.cls-3,.cls-8{stroke-width:3px;}.cls-5{stroke-linecap:round;stroke-linejoin:round;stroke-width:0.5px;}.cls-6,.cls-7{fill:#ffd1fc;}.cls-7{opacity:0.11;}</style></defs><title>glass2</title><path d="M677.86,427.91c38.19,0,64.81,11.74,64.81,22.27s-26.62,22.27-64.81,22.27-64.81-11.74-64.81-22.27,26.62-22.27,64.81-22.27m0-3c-37.45,0-67.81,11.31-67.81,25.27s30.36,25.27,67.81,25.27,67.81-11.31,67.81-25.27-30.36-25.27-67.81-25.27Z" transform="translate(-592.86 -88)"/><path class="cls-1" d="M773,199.54a76.24,76.24,0,0,1-3.82,26.65h-49.7l12.14-91.8c8.56-4.72,13.67-10.68,13.67-17.17a13,13,0,0,0-1.17-5.33C754.8,122.64,771.86,147.8,773,199.54Z" transform="translate(-592.86 -88)"/><path class="cls-2" d="M769.16,226.18l-5.27,11.42,0,0h0a65.44,65.44,0,0,1-22.93,22.46l-.11,0a229.37,229.37,0,0,1-27.16,9.79l5.79-43.75Z" transform="translate(-592.86 -88)"/><path class="cls-1" d="M763.88,237.6l5.27-11.42A60.37,60.37,0,0,1,763.88,237.6Z" transform="translate(-592.86 -88)"/><path class="cls-1" d="M763.88,237.6a0,0,0,0,1,0,0Z" transform="translate(-592.86 -88)"/><path class="cls-1" d="M744.09,111.88a13,13,0,0,1,1.17,5.33c0,6.49-5.11,12.45-13.67,17.17L735.48,105A40.25,40.25,0,0,1,744.09,111.88Z" transform="translate(-592.86 -88)"/><path class="cls-1" d="M744.09,111.88a40.25,40.25,0,0,0-8.61-6.9l-3.89,29.39c-11.64,6.42-29.67,10.55-49.91,10.55-20,0-37.92-4-49.57-10.36L628.71,105s-4.68,3.64-10.59,12c.27-15.21,28.63-27.49,63.57-27.49C712.62,89.5,738.39,99.13,744.09,111.88Z" transform="translate(-592.86 -88)"/><path class="cls-1" d="M713.67,269.94a229.37,229.37,0,0,0,27.16-9.79l.11,0a101.14,101.14,0,0,1-27.42,11Z" transform="translate(-592.86 -88)"/><path d="M721.69,179.89a8.1,8.1,0,1,1-9.22-6.8A8.1,8.1,0,0,1,721.69,179.89Z" transform="translate(-592.86 -88)"/><path class="cls-2" d="M719.46,226.18l-5.79,43.75c-7.77,2.35-13.51,3.79-13.51,3.79l-14.4.8h-13l-2.21.19a139.57,139.57,0,0,1-22.76-4.63l-5.06-43.9Z" transform="translate(-592.86 -88)"/><path class="cls-1" d="M713.52,271.14,690.66,444.07l-4.89-43.2V274.94a110.78,110.78,0,0,0,14.4-1.19A133.76,133.76,0,0,0,713.52,271.14Z" transform="translate(-592.86 -88)"/><path class="cls-1" d="M700.17,273.75a110.78,110.78,0,0,1-14.4,1.19V400.87l4.89,43.2c-10.6,7.34-22.82,0-22.82,0l4.89-51.35V274.94s-.79-.06-2.21-.22l2.21-.19h13l14.4-.8Z" transform="translate(-592.86 -88)"/><path class="cls-1" d="M672.72,274.94V392.72l-4.89,51.35-20.08-174a139.57,139.57,0,0,0,22.76,4.63C671.93,274.88,672.72,274.94,672.72,274.94Z" transform="translate(-592.86 -88)"/><path d="M658.12,179.89a8.1,8.1,0,1,1-9.22-6.8A8.1,8.1,0,0,1,658.12,179.89Z" transform="translate(-592.86 -88)"/><path class="cls-2" d="M642.7,226.18l5.06,43.9c-19.68-5.75-44.9-18-51.6-43.9Z" transform="translate(-592.86 -88)"/><path class="cls-1" d="M632.12,134.57l10.57,91.62H596.15a53.64,53.64,0,0,1-1.68-12c-1.57-51.86,13-82.17,23.65-97.22a2,2,0,0,0,0,.22C618.11,123.79,623.35,129.82,632.12,134.57Z" transform="translate(-592.86 -88)"/><path class="cls-1" d="M628.71,105l3.42,29.58c-8.77-4.74-14-10.78-14-17.35a2,2,0,0,1,0-.22C624,108.63,628.71,105,628.71,105Z" transform="translate(-592.86 -88)"/><path class="cls-3" d="M667.83,444.07l4.89-51.35V274.94s-.79-.06-2.21-.22a139.57,139.57,0,0,1-22.76-4.63c-19.68-5.75-44.9-18-51.6-43.9a53.64,53.64,0,0,1-1.68-12c-1.57-51.86,13-82.17,23.65-97.22" transform="translate(-592.86 -88)"/><path class="cls-3" d="M763.87,237.64a0,0,0,0,0,0,0,60.37,60.37,0,0,0,5.27-11.42A76.24,76.24,0,0,0,773,199.54c-1.12-51.74-18.18-76.9-28.89-87.65" transform="translate(-592.86 -88)"/><path class="cls-3" d="M690.66,444.07l-4.89-43.2V274.94a110.78,110.78,0,0,0,14.4-1.19,133.76,133.76,0,0,0,13.35-2.61,101.14,101.14,0,0,0,27.42-11,65.44,65.44,0,0,0,22.93-22.46" transform="translate(-592.86 -88)"/><path class="cls-3" d="M744.09,111.88a13,13,0,0,1,1.17,5.33c0,6.49-5.11,12.45-13.67,17.17-11.64,6.42-29.67,10.55-49.91,10.55-20,0-37.92-4-49.57-10.36-8.77-4.74-14-10.78-14-17.35a2,2,0,0,1,0-.22c.27-15.21,28.63-27.49,63.57-27.49C712.62,89.5,738.39,99.13,744.09,111.88Z" transform="translate(-592.86 -88)"/><path class="cls-4" d="M658.12,179.89a8.1,8.1,0,1,1-9.22-6.8A8.1,8.1,0,0,1,658.12,179.89Z" transform="translate(-592.86 -88)"/><path class="cls-4" d="M721.69,179.89a8.1,8.1,0,1,1-9.22-6.8A8.1,8.1,0,0,1,721.69,179.89Z" transform="translate(-592.86 -88)"/><path class="cls-5" d="M596.15,226.18h173l-5.27,11.42,0,0h0a49.51,49.51,0,0,1-22.93,22.46l-.11,0a229.37,229.37,0,0,1-27.16,9.79c-7.77,2.35-13.51,3.79-13.51,3.79l-14.4.8h-13" transform="translate(-592.86 -88)"/><path class="cls-6" d="M642.43,225.35a1.5,1.5,0,0,0,0-3,1.5,1.5,0,0,0,0,3Z" transform="translate(-592.86 -88)"/><path class="cls-7" d="M737.78,221.47c.85,0-.69-1.38-.67-1.36q-1-1-2-1.87a3.65,3.65,0,0,0-1.16-.84c-.85,0,.69,1.38.67,1.36q1,1,2,1.87A3.65,3.65,0,0,0,737.78,221.47Z" transform="translate(-592.86 -88)"/><path class="cls-7" d="M738.27,225.5c.72,0-1.13-2.79-1.78-2.79S737.62,225.5,738.27,225.5Z" transform="translate(-592.86 -88)"/><path class="cls-7" d="M735.54,218.84a2,2,0,0,0-.82-1.14q-1.86-1.81-3.8-3.53T727,210.76a2,2,0,0,0-1.22-.7,2,2,0,0,0,.82,1.14q1.86,1.81,3.8,3.53t3.91,3.41A2,2,0,0,0,735.54,218.84Z" transform="translate(-592.86 -88)"/><path class="cls-7" d="M735.76,220.87a1.44,1.44,0,0,0-.53-1q-1.34-1.62-2.76-3.18t-2.88-3.07a.6.6,0,1,0-.44.4q1.34,1.62,2.76,3.18t2.88,3.07A1.44,1.44,0,0,0,735.76,220.87Z" transform="translate(-592.86 -88)"/><path class="cls-7" d="M738.45,221c.71,0-.35-1-.35-1-.45-.43-1.46-1.57-2.16-1.57s.35,1,.35,1C736.74,219.85,737.75,221,738.45,221Z" transform="translate(-592.86 -88)"/><path class="cls-7" d="M735.4,218.21a1.36,1.36,0,0,0-.63-.92q-1.5-1.38-3.06-2.68t-3.17-2.56a.58.58,0,1,0-.38.46q1.5,1.38,3.06,2.68t3.17,2.56A1.36,1.36,0,0,0,735.4,218.21Z" transform="translate(-592.86 -88)"/><path class="cls-7" d="M736.38,222.46a1.8,1.8,0,0,0-.58-1.17q-1.46-1.91-3-3.75t-3.13-3.65a.67.67,0,1,0-.46.38q1.46,1.91,3,3.75t3.13,3.65A1.8,1.8,0,0,0,736.38,222.46Z" transform="translate(-592.86 -88)"/><path class="cls-7" d="M737.36,219.6c.6,0-.16-.8-.2-.83-.35-.37-1.09-1.08-1.65-1.08s.16.8.2.83C736.06,218.9,736.8,219.6,737.36,219.6Z" transform="translate(-592.86 -88)"/><path class="cls-7" d="M736,220.42a2.48,2.48,0,0,0-.86-1.31q-2-2.13-4-4.19t-4.1-4.08a2.48,2.48,0,0,0-1.28-.89,2.48,2.48,0,0,0,.86,1.31q2,2.13,4,4.19t4.1,4.08A2.48,2.48,0,0,0,736,220.42Z" transform="translate(-592.86 -88)"/><path class="cls-7" d="M735.83,219.63c.9,0-.83-1.5-.8-1.48q-1.1-1.08-2.25-2.1a4.56,4.56,0,0,0-1.29-1c-.9,0,.83,1.5.8,1.48q1.1,1.08,2.25,2.1A4.56,4.56,0,0,0,735.83,219.63Z" transform="translate(-592.86 -88)"/><path class="cls-7" d="M738.25,219.5c.56,0-.13-.74-.16-.77a2.55,2.55,0,0,0-1.48-.84c-.56,0,.13.74.16.77A2.55,2.55,0,0,0,738.25,219.5Z" transform="translate(-592.86 -88)"/><path class="cls-7" d="M735.63,221.26A2,2,0,0,0,735,220q-1.6-2-3.29-4t-3.41-3.87a2,2,0,0,0-1.12-.85,2,2,0,0,0,.66,1.23q1.6,2,3.29,4t3.41,3.87A2,2,0,0,0,735.63,221.26Z" transform="translate(-592.86 -88)"/><path class="cls-7" d="M736.15,219.84c.85,0-.69-1.38-.67-1.36q-1-1-2-1.87a3.65,3.65,0,0,0-1.16-.84c-.85,0,.69,1.38.67,1.36q1,1,2,1.87A3.65,3.65,0,0,0,736.15,219.84Z" transform="translate(-592.86 -88)"/><path class="cls-7" d="M736.64,223.87c.72,0-1.13-2.79-1.78-2.79S736,223.87,736.64,223.87Z" transform="translate(-592.86 -88)"/><path class="cls-7" d="M733.91,217.21a2,2,0,0,0-.82-1.14q-1.86-1.81-3.8-3.53t-3.91-3.41a2,2,0,0,0-1.22-.7,2,2,0,0,0,.82,1.14q1.86,1.81,3.8,3.53t3.91,3.41A2,2,0,0,0,733.91,217.21Z" transform="translate(-592.86 -88)"/><path class="cls-7" d="M734.13,219.24a1.44,1.44,0,0,0-.53-1q-1.34-1.62-2.76-3.18T728,212a.6.6,0,1,0-.44.4q1.34,1.62,2.76,3.18t2.88,3.07A1.44,1.44,0,0,0,734.13,219.24Z" transform="translate(-592.86 -88)"/><path class="cls-7" d="M736.82,219.37c.71,0-.35-1-.35-1-.45-.43-1.46-1.57-2.16-1.57s.35,1,.35,1C735.11,218.22,736.12,219.37,736.82,219.37Z" transform="translate(-592.86 -88)"/><path class="cls-7" d="M733.77,216.58a1.36,1.36,0,0,0-.63-.92q-1.5-1.38-3.06-2.68t-3.17-2.56a.58.58,0,1,0-.38.46q1.5,1.38,3.06,2.68t3.17,2.56A1.36,1.36,0,0,0,733.77,216.58Z" transform="translate(-592.86 -88)"/><path class="cls-7" d="M734.75,220.83a1.8,1.8,0,0,0-.58-1.17q-1.46-1.91-3-3.75T728,212.26a.67.67,0,1,0-.46.38q1.46,1.91,3,3.75t3.13,3.65A1.8,1.8,0,0,0,734.75,220.83Z" transform="translate(-592.86 -88)"/><path class="cls-7" d="M735.73,218c.6,0-.16-.8-.2-.83-.35-.37-1.09-1.08-1.65-1.08s.16.8.2.83C734.43,217.27,735.17,218,735.73,218Z" transform="translate(-592.86 -88)"/><path class="cls-7" d="M734.4,218.79a2.48,2.48,0,0,0-.86-1.31q-2-2.13-4-4.19t-4.1-4.08a2.48,2.48,0,0,0-1.28-.89,2.48,2.48,0,0,0,.86,1.31q2,2.13,4,4.19t4.1,4.08A2.48,2.48,0,0,0,734.4,218.79Z" transform="translate(-592.86 -88)"/><path class="cls-7" d="M734.2,218c.9,0-.83-1.5-.8-1.48q-1.1-1.08-2.25-2.1a4.56,4.56,0,0,0-1.29-1c-.9,0,.83,1.5.8,1.48q1.1,1.08,2.25,2.1A4.56,4.56,0,0,0,734.2,218Z" transform="translate(-592.86 -88)"/><path class="cls-7" d="M736.62,217.87c.56,0-.13-.74-.16-.77a2.55,2.55,0,0,0-1.48-.84c-.56,0,.13.74.16.77A2.55,2.55,0,0,0,736.62,217.87Z" transform="translate(-592.86 -88)"/><path class="cls-7" d="M734,219.63a2,2,0,0,0-.66-1.23q-1.6-2-3.29-4t-3.41-3.87a2,2,0,0,0-1.12-.85,2,2,0,0,0,.66,1.23q1.6,2,3.29,4t3.41,3.87A2,2,0,0,0,734,219.63Z" transform="translate(-592.86 -88)"/><path class="cls-7" d="M732.89,218.21c.85,0-.69-1.38-.67-1.36q-1-1-2-1.87a3.65,3.65,0,0,0-1.16-.84c-.85,0,.69,1.38.67,1.36q1,1,2,1.87A3.65,3.65,0,0,0,732.89,218.21Z" transform="translate(-592.86 -88)"/><path class="cls-7" d="M733.38,222.24c.72,0-1.13-2.79-1.78-2.79S732.73,222.24,733.38,222.24Z" transform="translate(-592.86 -88)"/><path class="cls-7" d="M730.65,215.58a2,2,0,0,0-.82-1.14q-1.86-1.81-3.8-3.53t-3.91-3.41a2,2,0,0,0-1.22-.7,2,2,0,0,0,.82,1.14q1.86,1.81,3.8,3.53t3.91,3.41A2,2,0,0,0,730.65,215.58Z" transform="translate(-592.86 -88)"/><path class="cls-7" d="M730.87,217.61a1.44,1.44,0,0,0-.53-1Q729,215,727.58,213.4t-2.88-3.07a.6.6,0,1,0-.44.4q1.34,1.62,2.76,3.18T729.9,217A1.44,1.44,0,0,0,730.87,217.61Z" transform="translate(-592.86 -88)"/><path class="cls-7" d="M733.56,217.74c.71,0-.35-1-.35-1-.45-.43-1.46-1.57-2.16-1.57s.35,1,.35,1C731.85,216.59,732.86,217.74,733.56,217.74Z" transform="translate(-592.86 -88)"/><path class="cls-7" d="M730.51,215a1.36,1.36,0,0,0-.63-.92q-1.5-1.38-3.06-2.68t-3.17-2.56a.58.58,0,1,0-.38.46q1.5,1.38,3.06,2.68t3.17,2.56A1.36,1.36,0,0,0,730.51,215Z" transform="translate(-592.86 -88)"/><path class="cls-7" d="M731.49,219.2a1.8,1.8,0,0,0-.58-1.17q-1.46-1.91-3-3.75t-3.13-3.65a.67.67,0,1,0-.46.38q1.46,1.91,3,3.75t3.13,3.65A1.8,1.8,0,0,0,731.49,219.2Z" transform="translate(-592.86 -88)"/><path class="cls-7" d="M732.47,216.34c.6,0-.16-.8-.2-.83-.35-.37-1.09-1.08-1.65-1.08s.16.8.2.83C731.17,215.64,731.91,216.34,732.47,216.34Z" transform="translate(-592.86 -88)"/><path class="cls-7" d="M731.14,217.16a2.48,2.48,0,0,0-.86-1.31q-2-2.13-4-4.19t-4.1-4.08a2.48,2.48,0,0,0-1.28-.89,2.48,2.48,0,0,0,.86,1.31q2,2.13,4,4.19t4.1,4.08A2.48,2.48,0,0,0,731.14,217.16Z" transform="translate(-592.86 -88)"/><path class="cls-7" d="M730.94,216.37c.9,0-.83-1.5-.8-1.48q-1.1-1.08-2.25-2.1a4.56,4.56,0,0,0-1.29-1c-.9,0,.83,1.5.8,1.48q1.1,1.08,2.25,2.1A4.56,4.56,0,0,0,730.94,216.37Z" transform="translate(-592.86 -88)"/><path class="cls-7" d="M733.36,216.24c.56,0-.13-.74-.16-.77a2.55,2.55,0,0,0-1.48-.84c-.56,0,.13.74.16.77A2.55,2.55,0,0,0,733.36,216.24Z" transform="translate(-592.86 -88)"/><path class="cls-7" d="M730.74,218a2,2,0,0,0-.66-1.23q-1.6-2-3.29-4t-3.41-3.87a2,2,0,0,0-1.12-.85,2,2,0,0,0,.66,1.23q1.6,2,3.29,4t3.41,3.87A2,2,0,0,0,730.74,218Z" transform="translate(-592.86 -88)"/><path class="cls-7" d="M717.52,220.73l.58,1.31c.32.73.9-1,.9-1,.29-.72,1.29-2.61,1-3.42l-.36-1c-.27-.73-.94.85-.95.86C718.41,218.11,717.22,220.05,717.52,220.73Z" transform="translate(-592.86 -88)"/><path class="cls-7" d="M716.73,224.82l.54,1.48c.25.67.79-.73.78-.71.24-.61.87-1.91.62-2.59l-.44-1.22c-.23-.64-.79.6-.8.62C717.18,222.95,716.5,224.2,716.73,224.82Z" transform="translate(-592.86 -88)"/><path class="cls-7" d="M718.13,217.57l.57,1.52a2,2,0,0,0,.85-1.09q1.19-2.26,2.27-4.57T724,208.8a2,2,0,0,0,.31-1.35l-.25-1.2a2,2,0,0,0-.88,1q-1.25,2.19-2.4,4.44t-2.26,4.51A2,2,0,0,0,718.13,217.57Z" transform="translate(-592.86 -88)"/><path class="cls-7" d="M717.09,220l.57,1.52a1.66,1.66,0,0,0,.77-1q1-2.05,2-4.15t1.82-4.21a1.66,1.66,0,0,0,.23-1.23l-.22-1.15a1.62,1.62,0,0,0-.8.94q-1.1,2-2.1,4t-2,4.07A1.62,1.62,0,0,0,717.09,220Z" transform="translate(-592.86 -88)"/><path class="cls-7" d="M717.05,220.66l.53,1.49c.2.55.7-.35.73-.42.24-.42.7-1.35.53-1.86l-.45-1.27C718.17,218,716.86,220.11,717.05,220.66Z" transform="translate(-592.86 -88)"/><path class="cls-7" d="M717.85,217l.53,1.56a1.36,1.36,0,0,0,.77-.81q1-1.75,2-3.56c.49-.94,2.32-3.45,2.06-4.72l-.25-1.19a1.32,1.32,0,0,0-.79.76q-1.08,1.67-2.07,3.41C719.67,213.15,717.5,216,717.85,217Z" transform="translate(-592.86 -88)"/><path class="cls-7" d="M717.35,221.66l.57,1.53a2,2,0,0,0,.76-1.15q1-2.34,1.89-4.72t1.74-4.77a2,2,0,0,0,.2-1.37L722.3,210a1.93,1.93,0,0,0-.79,1.11q-1.06,2.27-2,4.58t-1.88,4.64A1.93,1.93,0,0,0,717.35,221.66Z" transform="translate(-592.86 -88)"/><path class="cls-7" d="M716,218.86l.56,1.34c.28.66,1.77-1.81,1.54-2.37l-.4-1C717.35,216.12,715.76,218.37,716,218.86Z" transform="translate(-592.86 -88)"/><path class="cls-7" d="M718,219.26l.58,1.53a2.44,2.44,0,0,0,.86-1.29q1.19-2.61,2.29-5.26t2.14-5.32a2.44,2.44,0,0,0,.31-1.52l-.24-1.24a2.4,2.4,0,0,0-.89,1.25q-1.26,2.55-2.42,5.14t-2.28,5.2A2.4,2.4,0,0,0,718,219.26Z" transform="translate(-592.86 -88)"/><path class="cls-7" d="M716.75,218.76l.56,1.44a16.73,16.73,0,0,0,1.59-2.3q.59-1.11,1.13-2.25a5.42,5.42,0,0,0,.63-1.64l-.31-1.36a.79.79,0,0,0-.63.49q-.79,1.16-1.49,2.37C717.9,216.07,716.43,217.93,716.75,218.76Z" transform="translate(-592.86 -88)"/><path class="cls-7" d="M716.37,218.94l.51,1.71c.21.7,1.3-.84,1.19-1.3l-.45-1.81C717.45,216.87,716.22,218.44,716.37,218.94Z" transform="translate(-592.86 -88)"/><path class="cls-7" d="M717.22,220.51l.57,1.58a2.32,2.32,0,0,0,.86-1.24q1.2-2.52,2.3-5.08t2.15-5.14a2.32,2.32,0,0,0,.32-1.47l-.23-1.26a2.28,2.28,0,0,0-.89,1.19q-1.26,2.45-2.43,5t-2.29,5A2.28,2.28,0,0,0,717.22,220.51Z" transform="translate(-592.86 -88)"/><path class="cls-7" d="M732.89,222c.85,0-.69-1.38-.67-1.36q-1-1-2-1.87a3.65,3.65,0,0,0-1.16-.84c-.85,0,.69,1.38.67,1.36q1,1,2,1.87A3.65,3.65,0,0,0,732.89,222Z" transform="translate(-592.86 -88)"/><path class="cls-7" d="M733.38,226c.72,0-1.13-2.79-1.78-2.79S732.73,226,733.38,226Z" transform="translate(-592.86 -88)"/><path class="cls-7" d="M730.65,219.39a2,2,0,0,0-.82-1.14q-1.86-1.81-3.8-3.53t-3.91-3.41a2,2,0,0,0-1.22-.7,2,2,0,0,0,.82,1.14q1.86,1.81,3.8,3.53t3.91,3.41A2,2,0,0,0,730.65,219.39Z" transform="translate(-592.86 -88)"/><path class="cls-7" d="M730.87,221.41a1.44,1.44,0,0,0-.53-1q-1.34-1.62-2.76-3.18t-2.88-3.07a.6.6,0,1,0-.44.4q1.34,1.62,2.76,3.18t2.88,3.07A1.44,1.44,0,0,0,730.87,221.41Z" transform="translate(-592.86 -88)"/><path class="cls-7" d="M733.56,221.54c.71,0-.35-1-.35-1-.45-.43-1.46-1.57-2.16-1.57s.35,1,.35,1C731.85,220.4,732.86,221.54,733.56,221.54Z" transform="translate(-592.86 -88)"/><path class="cls-7" d="M730.51,218.76a1.36,1.36,0,0,0-.63-.92q-1.5-1.38-3.06-2.68t-3.17-2.56a.58.58,0,1,0-.38.46q1.5,1.38,3.06,2.68t3.17,2.56A1.36,1.36,0,0,0,730.51,218.76Z" transform="translate(-592.86 -88)"/><path class="cls-7" d="M731.49,223a1.8,1.8,0,0,0-.58-1.17q-1.46-1.91-3-3.75t-3.13-3.65a.67.67,0,1,0-.46.38q1.46,1.91,3,3.75t3.13,3.65A1.8,1.8,0,0,0,731.49,223Z" transform="translate(-592.86 -88)"/><path class="cls-7" d="M732.47,220.15c.6,0-.16-.8-.2-.83-.35-.37-1.09-1.08-1.65-1.08s.16.8.2.83C731.17,219.44,731.91,220.15,732.47,220.15Z" transform="translate(-592.86 -88)"/><path class="cls-7" d="M731.14,221a2.48,2.48,0,0,0-.86-1.31q-2-2.13-4-4.19t-4.1-4.08a2.48,2.48,0,0,0-1.28-.89,2.48,2.48,0,0,0,.86,1.31q2,2.13,4,4.19t4.1,4.08A2.48,2.48,0,0,0,731.14,221Z" transform="translate(-592.86 -88)"/><path class="cls-7" d="M730.94,220.18c.9,0-.83-1.5-.8-1.48q-1.1-1.08-2.25-2.1a4.56,4.56,0,0,0-1.29-1c-.9,0,.83,1.5.8,1.48q1.1,1.08,2.25,2.1A4.56,4.56,0,0,0,730.94,220.18Z" transform="translate(-592.86 -88)"/><path class="cls-7" d="M733.36,220c.56,0-.13-.74-.16-.77a2.55,2.55,0,0,0-1.48-.84c-.56,0,.13.74.16.77A2.55,2.55,0,0,0,733.36,220Z" transform="translate(-592.86 -88)"/><path class="cls-7" d="M730.74,221.81a2,2,0,0,0-.66-1.23q-1.6-2-3.29-4t-3.41-3.87a2,2,0,0,0-1.12-.85,2,2,0,0,0,.66,1.23q1.6,2,3.29,4t3.41,3.87A2,2,0,0,0,730.74,221.81Z" transform="translate(-592.86 -88)"/><path class="cls-7" d="M731.26,229.62c.85,0-.69-1.38-.67-1.36q-1-1-2-1.87a3.65,3.65,0,0,0-1.16-.84c-.85,0,.69,1.38.67,1.36q1,1,2,1.87A3.65,3.65,0,0,0,731.26,229.62Z" transform="translate(-592.86 -88)"/><path class="cls-7" d="M731.75,233.65c.72,0-1.13-2.79-1.78-2.79S731.1,233.65,731.75,233.65Z" transform="translate(-592.86 -88)"/><path class="cls-7" d="M729,227a2,2,0,0,0-.82-1.14q-1.86-1.81-3.8-3.53t-3.91-3.41a2,2,0,0,0-1.22-.7,2,2,0,0,0,.82,1.14q1.86,1.81,3.8,3.53t3.91,3.41A2,2,0,0,0,729,227Z" transform="translate(-592.86 -88)"/><path class="cls-7" d="M729.24,229a1.44,1.44,0,0,0-.53-1q-1.34-1.62-2.76-3.18t-2.88-3.07a.6.6,0,1,0-.44.4q1.34,1.62,2.76,3.18t2.88,3.07A1.44,1.44,0,0,0,729.24,229Z" transform="translate(-592.86 -88)"/><path class="cls-7" d="M731.93,229.15c.71,0-.35-1-.35-1-.45-.43-1.46-1.57-2.16-1.57s.35,1,.35,1C730.22,228,731.23,229.15,731.93,229.15Z" transform="translate(-592.86 -88)"/><path class="cls-7" d="M728.88,226.36a1.36,1.36,0,0,0-.63-.92q-1.5-1.38-3.06-2.68T722,220.21a.58.58,0,1,0-.38.46q1.5,1.38,3.06,2.68t3.17,2.56A1.36,1.36,0,0,0,728.88,226.36Z" transform="translate(-592.86 -88)"/><path class="cls-7" d="M729.86,230.61a1.8,1.8,0,0,0-.58-1.17q-1.46-1.91-3-3.75T723.14,222a.67.67,0,1,0-.46.38q1.46,1.91,3,3.75t3.13,3.65A1.8,1.8,0,0,0,729.86,230.61Z" transform="translate(-592.86 -88)"/><path class="cls-7" d="M730.84,227.75c.6,0-.16-.8-.2-.83-.35-.37-1.09-1.08-1.65-1.08s.16.8.2.83C729.54,227,730.28,227.75,730.84,227.75Z" transform="translate(-592.86 -88)"/><path class="cls-7" d="M729.51,228.57a2.48,2.48,0,0,0-.86-1.31q-2-2.13-4-4.19t-4.1-4.08a2.48,2.48,0,0,0-1.28-.89,2.48,2.48,0,0,0,.86,1.31q2,2.13,4,4.19t4.1,4.08A2.48,2.48,0,0,0,729.51,228.57Z" transform="translate(-592.86 -88)"/><path class="cls-7" d="M729.31,227.78c.9,0-.83-1.5-.8-1.48q-1.1-1.08-2.25-2.1a4.56,4.56,0,0,0-1.29-1c-.9,0,.83,1.5.8,1.48q1.1,1.08,2.25,2.1A4.56,4.56,0,0,0,729.31,227.78Z" transform="translate(-592.86 -88)"/><path class="cls-7" d="M731.73,227.65c.56,0-.13-.74-.16-.77a2.55,2.55,0,0,0-1.48-.84c-.56,0,.13.74.16.77A2.55,2.55,0,0,0,731.73,227.65Z" transform="translate(-592.86 -88)"/><path class="cls-7" d="M729.11,229.41a2,2,0,0,0-.66-1.23q-1.6-2-3.29-4t-3.41-3.87a2,2,0,0,0-1.12-.85,2,2,0,0,0,.66,1.23q1.6,2,3.29,4t3.41,3.87A2,2,0,0,0,729.11,229.41Z" transform="translate(-592.86 -88)"/><path class="cls-7" d="M730.72,224.19c.85,0-.69-1.38-.67-1.36q-1-1-2-1.87a3.65,3.65,0,0,0-1.16-.84c-.85,0,.69,1.38.67,1.36q1,1,2,1.87A3.65,3.65,0,0,0,730.72,224.19Z" transform="translate(-592.86 -88)"/><path class="cls-7" d="M731.21,228.22c.72,0-1.13-2.79-1.78-2.79S730.55,228.22,731.21,228.22Z" transform="translate(-592.86 -88)"/><path class="cls-7" d="M728.48,221.56a2,2,0,0,0-.82-1.14q-1.86-1.81-3.8-3.53t-3.91-3.41a2,2,0,0,0-1.22-.7,2,2,0,0,0,.82,1.14q1.86,1.81,3.8,3.53t3.91,3.41A2,2,0,0,0,728.48,221.56Z" transform="translate(-592.86 -88)"/><path class="cls-7" d="M728.69,223.59a1.44,1.44,0,0,0-.53-1q-1.34-1.62-2.76-3.18t-2.88-3.07a.6.6,0,1,0-.44.4q1.34,1.62,2.76,3.18t2.88,3.07A1.44,1.44,0,0,0,728.69,223.59Z" transform="translate(-592.86 -88)"/><path class="cls-7" d="M731.39,223.71c.71,0-.35-1-.35-1-.45-.43-1.46-1.57-2.16-1.57s.35,1,.35,1C729.68,222.57,730.69,223.71,731.39,223.71Z" transform="translate(-592.86 -88)"/><path class="cls-7" d="M728.34,220.93a1.36,1.36,0,0,0-.63-.92q-1.5-1.38-3.06-2.68t-3.17-2.56a.58.58,0,1,0-.38.46q1.5,1.38,3.06,2.68t3.17,2.56A1.36,1.36,0,0,0,728.34,220.93Z" transform="translate(-592.86 -88)"/><path class="cls-7" d="M729.32,225.18a1.8,1.8,0,0,0-.58-1.17q-1.46-1.91-3-3.75t-3.13-3.65a.67.67,0,1,0-.46.38q1.46,1.91,3,3.75t3.13,3.65A1.8,1.8,0,0,0,729.32,225.18Z" transform="translate(-592.86 -88)"/><path class="cls-7" d="M730.3,222.32c.6,0-.16-.8-.2-.83-.35-.37-1.09-1.08-1.65-1.08s.16.8.2.83C729,221.61,729.74,222.32,730.3,222.32Z" transform="translate(-592.86 -88)"/><path class="cls-7" d="M729,223.13a2.48,2.48,0,0,0-.86-1.31q-2-2.13-4-4.19t-4.1-4.08a2.48,2.48,0,0,0-1.28-.89,2.48,2.48,0,0,0,.86,1.31q2,2.13,4,4.19t4.1,4.08A2.48,2.48,0,0,0,729,223.13Z" transform="translate(-592.86 -88)"/><path class="cls-7" d="M728.76,222.35c.9,0-.83-1.5-.8-1.48q-1.1-1.08-2.25-2.1a4.56,4.56,0,0,0-1.29-1c-.9,0,.83,1.5.8,1.48q1.1,1.08,2.25,2.1A4.56,4.56,0,0,0,728.76,222.35Z" transform="translate(-592.86 -88)"/><path class="cls-7" d="M731.19,222.22c.56,0-.13-.74-.16-.77a2.55,2.55,0,0,0-1.48-.84c-.56,0,.13.74.16.77A2.55,2.55,0,0,0,731.19,222.22Z" transform="translate(-592.86 -88)"/><path class="cls-7" d="M728.56,224a2,2,0,0,0-.66-1.23q-1.6-2-3.29-4t-3.41-3.87a2,2,0,0,0-1.12-.85,2,2,0,0,0,.66,1.23q1.6,2,3.29,4t3.41,3.87A2,2,0,0,0,728.56,224Z" transform="translate(-592.86 -88)"/><path class="cls-7" d="M732.35,218.76c.85,0-.69-1.38-.67-1.36q-1-1-2-1.87a3.65,3.65,0,0,0-1.16-.84c-.85,0,.69,1.38.67,1.36q1,1,2,1.87A3.65,3.65,0,0,0,732.35,218.76Z" transform="translate(-592.86 -88)"/><path class="cls-7" d="M732.84,222.79c.72,0-1.13-2.79-1.78-2.79S732.18,222.79,732.84,222.79Z" transform="translate(-592.86 -88)"/><path class="cls-7" d="M730.11,216.13a2,2,0,0,0-.82-1.14q-1.86-1.81-3.8-3.53T721.57,208a2,2,0,0,0-1.22-.7,2,2,0,0,0,.82,1.14Q723,210.29,725,212t3.91,3.41A2,2,0,0,0,730.11,216.13Z" transform="translate(-592.86 -88)"/><path class="cls-7" d="M730.32,218.15a1.44,1.44,0,0,0-.53-1q-1.34-1.62-2.76-3.18t-2.88-3.07a.6.6,0,1,0-.44.4q1.34,1.62,2.76,3.18t2.88,3.07A1.44,1.44,0,0,0,730.32,218.15Z" transform="translate(-592.86 -88)"/><path class="cls-7" d="M733,218.28c.71,0-.35-1-.35-1-.45-.43-1.46-1.57-2.16-1.57s.35,1,.35,1C731.31,217.14,732.32,218.28,733,218.28Z" transform="translate(-592.86 -88)"/><path class="cls-7" d="M730,215.5a1.36,1.36,0,0,0-.63-.92q-1.5-1.38-3.06-2.68t-3.17-2.56a.58.58,0,1,0-.38.46q1.5,1.38,3.06,2.68T729,215A1.36,1.36,0,0,0,730,215.5Z" transform="translate(-592.86 -88)"/><path class="cls-7" d="M730.95,219.74a1.8,1.8,0,0,0-.58-1.17q-1.46-1.91-3-3.75t-3.13-3.65a.67.67,0,1,0-.46.38q1.46,1.91,3,3.75t3.13,3.65A1.8,1.8,0,0,0,730.95,219.74Z" transform="translate(-592.86 -88)"/><path class="cls-7" d="M731.93,216.89c.6,0-.16-.8-.2-.83-.35-.37-1.09-1.08-1.65-1.08s.16.8.2.83C730.63,216.18,731.37,216.89,731.93,216.89Z" transform="translate(-592.86 -88)"/><path class="cls-7" d="M730.6,217.7a2.48,2.48,0,0,0-.86-1.31q-2-2.13-4-4.19t-4.1-4.08a2.48,2.48,0,0,0-1.28-.89,2.48,2.48,0,0,0,.86,1.31q2,2.13,4,4.19t4.1,4.08A2.48,2.48,0,0,0,730.6,217.7Z" transform="translate(-592.86 -88)"/><path class="cls-7" d="M730.39,216.91c.9,0-.83-1.5-.8-1.48q-1.1-1.08-2.25-2.1a4.56,4.56,0,0,0-1.29-1c-.9,0,.83,1.5.8,1.48q1.1,1.08,2.25,2.1A4.56,4.56,0,0,0,730.39,216.91Z" transform="translate(-592.86 -88)"/><path class="cls-7" d="M732.82,216.78c.56,0-.13-.74-.16-.77a2.55,2.55,0,0,0-1.48-.84c-.56,0,.13.74.16.77A2.55,2.55,0,0,0,732.82,216.78Z" transform="translate(-592.86 -88)"/><path class="cls-7" d="M730.19,218.55a2,2,0,0,0-.66-1.23q-1.6-2-3.29-4t-3.41-3.87a2,2,0,0,0-1.12-.85,2,2,0,0,0,.66,1.23q1.6,2,3.29,4t3.41,3.87A2,2,0,0,0,730.19,218.55Z" transform="translate(-592.86 -88)"/><path class="cls-7" d="M711.25,222l0,.51c.06.76,1.11-.5,1.13-.52.51-.55,2-1.82,2-2.65V219c0-.77-1.15.46-1.13.45C712.86,219.9,711.19,221.25,711.25,222Z" transform="translate(-592.86 -88)"/><path class="cls-7" d="M710.19,225.83l0,.58c0,.64.86-.27.85-.26a3.82,3.82,0,0,0,1.09-1.78l.1-.68c.1-.67-.93.35-.87.28A3.78,3.78,0,0,0,710.19,225.83Z" transform="translate(-592.86 -88)"/><path class="cls-7" d="M712.54,219.35l0,.56a2,2,0,0,0,1.2-.73q1.93-1.72,3.79-3.51t3.68-3.63a2,2,0,0,0,.78-1.16l.05-.28a2,2,0,0,0-1.2.7q-1.95,1.66-3.82,3.41t-3.72,3.52A2,2,0,0,0,712.54,219.35Z" transform="translate(-592.86 -88)"/><path class="cls-7" d="M711.22,221.52l0,.57a1.66,1.66,0,0,0,1-.68q1.64-1.6,3.19-3.28t3.08-3.39a1.66,1.66,0,0,0,.61-1.09l.05-.27a1.62,1.62,0,0,0-1.05.64q-1.65,1.54-3.22,3.16t-3.11,3.27A1.62,1.62,0,0,0,711.22,221.52Z" transform="translate(-592.86 -88)"/><path class="cls-7" d="M710.53,221.62l0,.59c0,.56.74,0,.8-.05a2.78,2.78,0,0,0,1.11-1.38l.11-.6c.1-.57-.79,0-.81.05C711.31,220.51,710.57,221.11,710.53,221.62Z" transform="translate(-592.86 -88)"/><path class="cls-7" d="M712.19,218.78v.58a1.45,1.45,0,0,0,1-.5q1.66-1.3,3.26-2.69t3.15-2.81a1.45,1.45,0,0,0,.66-1l.05-.28a1.42,1.42,0,0,0-1,.47q-1.67,1.24-3.28,2.57t-3.18,2.69A1.42,1.42,0,0,0,712.19,218.78Z" transform="translate(-592.86 -88)"/><path class="cls-7" d="M711.47,223l0,.57a1.84,1.84,0,0,0,1-.82q1.13-1.3,2.2-2.65,1.36-1.67,2.68-3.37a15.52,15.52,0,0,0,1.72-2.44l.12-.64a1.8,1.8,0,0,0-1,.79q-1.61,1.79-3.14,3.65t-3,3.75A1.8,1.8,0,0,0,711.47,223Z" transform="translate(-592.86 -88)"/><path class="cls-7" d="M709.67,219.74l0,.52c0,.76,2.66-1.12,2.66-1.73v-.33C712.37,217.43,709.64,219.14,709.67,219.74Z" transform="translate(-592.86 -88)"/><path class="cls-7" d="M712.4,220.83l0,.55a2.37,2.37,0,0,0,1.22-.91q2-2,3.83-4.15t3.71-4.25a2.37,2.37,0,0,0,.78-1.31l.06-.3a2.33,2.33,0,0,0-1.23.88q-2,2-3.86,4t-3.75,4.15A2.33,2.33,0,0,0,712.4,220.83Z" transform="translate(-592.86 -88)"/><path class="cls-7" d="M710.73,220.16v.58a.88.88,0,0,0,.8-.32q.85-.66,1.65-1.39,1-.88,2-1.81a6.17,6.17,0,0,0,1.27-1.38l0-.26c.14-.86-2.21,1.14-2.42,1.31-.84.68-1.67,1.38-2.47,2.11C711.31,219.28,710.73,219.7,710.73,220.16Z" transform="translate(-592.86 -88)"/><path class="cls-7" d="M709.86,219.8l-.06.59c-.08.76,1.67-.47,1.77-.9l.17-.67C711.88,218.25,709.93,219.18,709.86,219.8Z" transform="translate(-592.86 -88)"/><path class="cls-7" d="M711.43,222l0,.57a2.26,2.26,0,0,0,1.19-.89q1.89-2,3.7-4.06t3.59-4.16a2.26,2.26,0,0,0,.74-1.29l.06-.3a2.22,2.22,0,0,0-1.19.86q-1.91,1.94-3.74,3.95t-3.62,4.06A2.22,2.22,0,0,0,711.43,222Z" transform="translate(-592.86 -88)"/><path class="cls-7" d="M717.69,229.54l.55.86c.43.67.77-1.09.77-1.11.2-.77,1-2.81.55-3.59l-.31-.59c-.37-.7-.83,1-.83,1C718.23,226.73,717.29,228.91,717.69,229.54Z" transform="translate(-592.86 -88)"/><path class="cls-7" d="M717,233.6l.53,1c.34.64.72-.85.72-.83.18-.66.71-2.1.39-2.79l-.42-.89c-.31-.66-.75.8-.74.79C717.34,231.47,716.72,233,717,233.6Z" transform="translate(-592.86 -88)"/><path class="cls-7" d="M718,226.23l.58,1a2,2,0,0,0,.69-1.2q.85-2.4,1.6-4.83t1.45-4.88a2,2,0,0,0,.12-1.38l-.26-.75a1.94,1.94,0,0,0-.72,1.16q-.91,2.34-1.72,4.72t-1.57,4.78A1.94,1.94,0,0,0,718,226.23Z" transform="translate(-592.86 -88)"/><path class="cls-7" d="M717.08,228.75l.57,1a1.66,1.66,0,0,0,.64-1.07q.76-2.16,1.42-4.35T721,220a1.66,1.66,0,0,0,.07-1.25l-.23-.72a1.61,1.61,0,0,0-.67,1q-.83,2.09-1.56,4.23t-1.41,4.28A1.61,1.61,0,0,0,717.08,228.75Z" transform="translate(-592.86 -88)"/><path class="cls-7" d="M717.36,229.55l.51,1.07c.25.53.65-.44.67-.5a3,3,0,0,0,.27-1.87l-.42-1c-.23-.53-.66.38-.69.45C717.51,228.16,717.14,229.09,717.36,229.55Z" transform="translate(-592.86 -88)"/><path class="cls-7" d="M717.72,225.69l.55,1.06a1.33,1.33,0,0,0,.63-.91q.75-1.86,1.4-3.76c.36-1,1.74-3.67,1.32-4.92l-.26-.75a1.29,1.29,0,0,0-.66.86q-.81,1.8-1.51,3.64C718.89,221.64,717.21,224.7,717.72,225.69Z" transform="translate(-592.86 -88)"/><path class="cls-7" d="M717.39,230.38l.55,1.11a2,2,0,0,0,.62-1.25q.72-2.47,1.34-5t1.19-5a2,2,0,0,0,0-1.4l-.22-.78a2,2,0,0,0-.66,1.2q-.79,2.4-1.47,4.83T717.48,229A2,2,0,0,0,717.39,230.38Z" transform="translate(-592.86 -88)"/><path class="cls-7" d="M716.21,227.8l.52,1c.34.64,1.4-1.81,1.15-2.32l-.37-.76C717.18,225,715.94,227.31,716.21,227.8Z" transform="translate(-592.86 -88)"/><path class="cls-7" d="M717.92,228l.59,1a2.46,2.46,0,0,0,.69-1.4q.85-2.76,1.59-5.54t1.44-5.58a2.46,2.46,0,0,0,.11-1.55l-.25-.78a2.42,2.42,0,0,0-.72,1.36q-.91,2.71-1.72,5.44t-1.57,5.49A2.42,2.42,0,0,0,717.92,228Z" transform="translate(-592.86 -88)"/><path class="cls-7" d="M716.81,227.52l.54,1a.79.79,0,0,0,.52-.61q.39-.91.71-1.85.43-1.16.8-2.34a5.24,5.24,0,0,0,.39-1.68l-.25-.71c-.28-.81-1.35,1.88-1.44,2.09-.38.91-.79,1.83-1.09,2.78C716.87,226.58,716.59,227.11,716.81,227.52Z" transform="translate(-592.86 -88)"/><path class="cls-7" d="M716.69,227.87l.5,1.2c.27.64,1.1-.9,1-1.23l-.52-1.5C717.46,225.73,716.48,227.36,716.69,227.87Z" transform="translate(-592.86 -88)"/><path class="cls-7" d="M717.19,229.24l.57,1.07a2.33,2.33,0,0,0,.71-1.34q.89-2.65,1.67-5.34t1.51-5.38a2.33,2.33,0,0,0,.14-1.51l-.25-.8a2.29,2.29,0,0,0-.74,1.3q-.95,2.6-1.79,5.23t-1.64,5.28A2.29,2.29,0,0,0,717.19,229.24Z" transform="translate(-592.86 -88)"/><path class="cls-7" d="M731.81,230.17c.85,0-.69-1.38-.67-1.36q-1-1-2-1.87a3.65,3.65,0,0,0-1.16-.84c-.85,0,.69,1.38.67,1.36q1,1,2,1.87A3.65,3.65,0,0,0,731.81,230.17Z" transform="translate(-592.86 -88)"/><path class="cls-7" d="M732.29,234.2c.72,0-1.13-2.79-1.78-2.79S731.64,234.2,732.29,234.2Z" transform="translate(-592.86 -88)"/><path class="cls-7" d="M729.56,227.54a2,2,0,0,0-.82-1.14q-1.86-1.81-3.8-3.53T721,219.45a2,2,0,0,0-1.22-.7,2,2,0,0,0,.82,1.14q1.86,1.81,3.8,3.53t3.91,3.41A2,2,0,0,0,729.56,227.54Z" transform="translate(-592.86 -88)"/><path class="cls-7" d="M729.78,229.56a1.44,1.44,0,0,0-.53-1q-1.34-1.62-2.76-3.18t-2.88-3.07a.6.6,0,1,0-.44.4q1.34,1.62,2.76,3.18t2.88,3.07A1.44,1.44,0,0,0,729.78,229.56Z" transform="translate(-592.86 -88)"/><path class="cls-7" d="M732.47,229.69c.71,0-.35-1-.35-1-.45-.43-1.46-1.57-2.16-1.57s.35,1,.35,1C730.77,228.55,731.77,229.69,732.47,229.69Z" transform="translate(-592.86 -88)"/><path class="cls-7" d="M729.43,226.91a1.36,1.36,0,0,0-.63-.92q-1.5-1.38-3.06-2.68t-3.17-2.56a.58.58,0,1,0-.38.46q1.5,1.38,3.06,2.68t3.17,2.56A1.36,1.36,0,0,0,729.43,226.91Z" transform="translate(-592.86 -88)"/><path class="cls-7" d="M730.41,231.15a1.8,1.8,0,0,0-.58-1.17q-1.46-1.91-3-3.75t-3.13-3.65a.67.67,0,1,0-.46.38q1.46,1.91,3,3.75t3.13,3.65A1.8,1.8,0,0,0,730.41,231.15Z" transform="translate(-592.86 -88)"/><path class="cls-7" d="M731.38,228.3c.6,0-.16-.8-.2-.83-.35-.37-1.09-1.08-1.65-1.08s.16.8.2.83C730.08,227.59,730.83,228.3,731.38,228.3Z" transform="translate(-592.86 -88)"/><path class="cls-7" d="M730.06,229.11a2.48,2.48,0,0,0-.86-1.31q-2-2.13-4-4.19t-4.1-4.08a2.48,2.48,0,0,0-1.28-.89,2.48,2.48,0,0,0,.86,1.31q2,2.13,4,4.19t4.1,4.08A2.48,2.48,0,0,0,730.06,229.11Z" transform="translate(-592.86 -88)"/><path class="cls-7" d="M729.85,228.33c.9,0-.83-1.5-.8-1.48q-1.1-1.08-2.25-2.1a4.56,4.56,0,0,0-1.29-1c-.9,0,.83,1.5.8,1.48q1.1,1.08,2.25,2.1A4.56,4.56,0,0,0,729.85,228.33Z" transform="translate(-592.86 -88)"/><path class="cls-7" d="M732.28,228.19c.56,0-.13-.74-.16-.77a2.55,2.55,0,0,0-1.48-.84c-.56,0,.13.74.16.77A2.55,2.55,0,0,0,732.28,228.19Z" transform="translate(-592.86 -88)"/><path class="cls-7" d="M729.65,230a2,2,0,0,0-.66-1.23q-1.6-2-3.29-4t-3.41-3.87a2,2,0,0,0-1.12-.85,2,2,0,0,0,.66,1.23q1.6,2,3.29,4t3.41,3.87A2,2,0,0,0,729.65,230Z" transform="translate(-592.86 -88)"/><path class="cls-7" d="M719.54,233.86c4.31,1.8,9.8-.56,12.4-4.28l2-3.55,1.16-3.85-.33-4.23a11.91,11.91,0,0,0-2.45-5.46,13.25,13.25,0,0,0-3.91-4,17.58,17.58,0,0,0-3.61-1.48l-4,.58a12,12,0,0,0-5.21,2.8c-1.69,1.32-2.76,2-3.85,4.17a19.86,19.86,0,0,0-1.33,3.73,21,21,0,0,0,.86,4,17,17,0,0,0,8.06,9,9,9,0,0,0,9.32-.58,14.74,14.74,0,0,0,2.32-1.84,2.88,2.88,0,0,0,.94-1.4,5.42,5.42,0,0,0,1.16-4.43c0-.25-3.72,0-3.85.88q-.18,7.66-12.06,2.86a16.45,16.45,0,0,1-4-5.59q1-9.54,8.73-11.41,9.12,1.27,9.71,8.62c.34,3.68-1,8.34-4.24,10.46a5.78,5.78,0,0,1-6.3.35C720.73,229,718.75,233.53,719.54,233.86Z" transform="translate(-592.86 -88)"/><path class="cls-7" d="M718.86,237.9a10.69,10.69,0,0,0,7.52-.21,14.76,14.76,0,0,0,5.08-3.42,13.2,13.2,0,0,0,3.92-5.43l1.37-4.09a3.22,3.22,0,0,0-.44-2.51,13.66,13.66,0,0,0-2.55-6.53l-2.87-3.43a9.49,9.49,0,0,0-5.47-3.09,6.08,6.08,0,0,0-2.12-.62l-3.86,1.17a18.5,18.5,0,0,0-6.62,4.77c-1.45,1.76-3.55,4.61-3.45,7.08a20.16,20.16,0,0,0,1,4.1,23.84,23.84,0,0,0,2.19,3.92l2.95,3.2a9.35,9.35,0,0,0,5.52,2.89,3.21,3.21,0,0,0,2.13.48l3.18-.78a14,14,0,0,0,5.78-3.86c1.74-2.1,1.83-3.35,2.22-6.06.08-.53-.84-.73-1-.21a10.6,10.6,0,0,1-4.77,7.1q-7.1,4.37-12.2-.69l-2.9-2.9Q719.8,201.6,730.65,213c3.65,3.74,5.83,9.15,3.5,14.36-2.56,5.73-8.84,7.81-14.24,6.92C719.25,234.13,718.28,237.7,718.86,237.9Z" transform="translate(-592.86 -88)"/><path class="cls-7" d="M719.79,230.42a6.4,6.4,0,0,0,3.15,0,11.18,11.18,0,0,0,4.76-2.26l2.23-2.54a21.2,21.2,0,0,0,2.84-6.42c.15-3.2-2.69-6.84-5-8.68a8.22,8.22,0,0,0-6-2.35,7.07,7.07,0,0,0-4.35,1.84,8.25,8.25,0,0,0-3.2,3.46,10.54,10.54,0,0,0-1.63,6.05,11.33,11.33,0,0,0,5.61,7.53,10.39,10.39,0,0,0,6.07,1.63l2.37-.83a9.26,9.26,0,0,0,3.48-3.25,7.53,7.53,0,0,0,1.19-5.13c0-.32-.67-.7-.87-.83-1.56-1.07-3.27-1.95-4.93-2.86a19.53,19.53,0,0,0-3.15-1.63s-1.24-.45-.58.14l7.18,6.43-5.07-5.26-2.75,12.89,7.51-7.77-8.34,4.86,6.47-3.24-13.5-5.69,7.92,8.12-5.29-8.85,3.43,6.95,5.5-13.67-8.56,7.6,7-3.49-4.82,2,14,4.06L723,213.26q4.81,7.5,1.05,6.73l-.19,5.25.67-6.28c.05-.49-.06-.29-.33-.13l-.48.88q-.73,1.62-1.38,3.27c-.69,1.69-1.36,3.39-2,5.1C720.4,228,719.51,230.42,719.79,230.42Z" transform="translate(-592.86 -88)"/><path class="cls-7" d="M718.86,232.91a10,10,0,0,0,8.86-2.13l2.43-2.68a18,18,0,0,0,2.69-6.76c.15-3.31-2.16-7.07-4.62-9.09a8.87,8.87,0,0,0-10-1.27,7.65,7.65,0,0,0-3.54,2.65,10.5,10.5,0,0,0-2.42,5.46,11.79,11.79,0,0,0,3.94,8.43,9.37,9.37,0,0,0,5.62,2.55l2.49-.69a10.2,10.2,0,0,0,3.91-2.62,5.87,5.87,0,0,0,1.49-4.66c.07-.68-4.69-1.18-4.83-1.21a9.63,9.63,0,0,0-2.55-.31c-.26,0-.77,0-.38.35a1,1,0,0,1-1.31-.16q-1-.66-.06-1.68a2.19,2.19,0,0,0,.25-2.26q2.43,1.41,4.15-1.54l-1.48.74,2.49,1.53q2.06,4.7-1,6.06c-.93.35-1.74.47-1.94-1-.06-.42,0-.3-.33-.13l-.44.79q-.65,1.45-1.23,2.94C720.94,226.61,718.37,232.78,718.86,232.91Z" transform="translate(-592.86 -88)"/><path class="cls-7" d="M719.18,233.79c5,1.65,10-1.26,13.27-5a15.47,15.47,0,0,0,3-5.88,3.37,3.37,0,0,0,.7-2.25l-.5-4.15a12.77,12.77,0,0,0-2.84-5.66,12.14,12.14,0,0,0-4.35-4.18c-3.08-1.7-3.34-1.45-6-1a11.82,11.82,0,0,0-5.91,2.21l-3.2,2.66a11.22,11.22,0,0,0-3.42,7.17c0,2.36,1.87,6.21,3.29,8,2.54,3.14,5.9,5.9,10.07,6.3,1.75.17,4.81-1.07,6.22-2a17,17,0,0,0,2.59-2.11c1.76-2,1.89-3.29,2.36-5.91.15-.82-2.08,0-2.2.42q-4.38,12.71-15.22,5.32-9.23-12.77.39-18.08,6-4.38,12.81,1A11.36,11.36,0,0,1,732.8,215a9.14,9.14,0,0,1-.16,8.49,15.56,15.56,0,0,1-4.54,5.74,11.22,11.22,0,0,1-8.08,2.1C719.4,231.28,718.62,233.61,719.18,233.79Z" transform="translate(-592.86 -88)"/><path class="cls-7" d="M719.53,229.87a9,9,0,0,0,8.08-2l2.34-2.53a18.39,18.39,0,0,0,3-6.62c.18-3.29-2.45-7-4.79-9a7.77,7.77,0,0,0-6.07-2.48,7.18,7.18,0,0,0-4.46,1.59c-2.8,1.79-5.63,5.53-5.13,9.13a11.38,11.38,0,0,0,10.69,9.56l2.3-.65a9.26,9.26,0,0,0,3.49-2.79,6.87,6.87,0,0,0,1.48-4.88c.08-.72-5.48-1.57-5.64-1.6a12.78,12.78,0,0,0-3-.52c-.16,0-1-.06-.45.32l-1.1,9.32L725,220l-3.29,1.14h.87L714,215.44l7.08,5.62-2.24-5.17.55,2.12,2.25-7.91-2.55,7.3,8.5-6.86-6.35,4.28,4.46.59-.7-.69q3.17,7.12-.75,7.21-.77.22-.55-.89c0-.39-.09-.25-.32-.14l-.43.67q-.64,1.24-1.2,2.52C721.57,224.41,719.08,229.74,719.53,229.87Z" transform="translate(-592.86 -88)"/><path class="cls-7" d="M719.16,234.53a10,10,0,0,0,9.11-2.19c2.58-2.33,5-6.12,5.08-9.66.11-3.35-2.25-7.34-4.8-9.36a9,9,0,0,0-9.88-1.17,7.45,7.45,0,0,0-3.5,2.62,9.53,9.53,0,0,0,1.18,14.1,9.24,9.24,0,0,0,5.82,2.81l2.58-.73a10.66,10.66,0,0,0,4.07-2.77,5.79,5.79,0,0,0,1.4-4.79c.05-.76-4.66-1.54-4.88-1.59a10.14,10.14,0,0,0-2.6-.51c-.29,0-.77-.08-.42.32q1.59,2.4-1.56.15-1.48-1.3,0-3.53a1.21,1.21,0,0,1,.13-1.29q2.43,1.23,4.34-1.18l-1.24.55,2.18,1.82q2,4.65-1,5.8c-.94.29-1.23.24-1.94-.55l.1.34-.13-.94c-.06-.46,0-.32-.33-.11l-.43.91q-.62,1.67-1.18,3.36C721.12,227.38,718.64,234.4,719.16,234.53Z" transform="translate(-592.86 -88)"/><path class="cls-7" d="M718,232a10.2,10.2,0,0,0,6.93-.23,14.84,14.84,0,0,0,6.12-4.57l2.29-3.72,1.41-4.06-.47-4.07-1.57-3.78a22.6,22.6,0,0,0-2.45-3.23,20.77,20.77,0,0,0-3.14-2.47l-3.44-1.24a2.77,2.77,0,0,0-2.15.22A6.82,6.82,0,0,0,717.8,206a7.33,7.33,0,0,0-3.26,2,13.23,13.23,0,0,0-4.22,6.07,3.79,3.79,0,0,0-.24,3.83,7.94,7.94,0,0,0,1.29,3.88,15.46,15.46,0,0,0,4.91,6,8,8,0,0,0,3.5,1.86c2.32.86,1.39.8,3.58.48a13.11,13.11,0,0,0,5.9-2.38,5.24,5.24,0,0,0,2.28-2.23,6,6,0,0,0,1.7-4.58c.13-.57-.79,0-.83,0a3.12,3.12,0,0,0-1.31,1.34,9.38,9.38,0,0,1-2.13,3.89,9.54,9.54,0,0,1-3.29,2.07q-2.65,1.75-5.39-1.16a5.49,5.49,0,0,1-5.11-3.1,7.88,7.88,0,0,1-1.58-3,4,4,0,0,1,0-4.51,5.64,5.64,0,0,1,2.46-4.94,12.94,12.94,0,0,1,5.3-2.78l9.47,4.7,1.27,2.78.46,3a13.12,13.12,0,0,1-2.11,4.8c-2.35,3.86-6,6.66-11.25,5.67C718.55,229.57,717.51,231.87,718,232Z" transform="translate(-592.86 -88)"/><path class="cls-7" d="M719.73,232.15a7.46,7.46,0,0,0,3.32-.07,11.79,11.79,0,0,0,5-2.39l2.29-2.62a19.89,19.89,0,0,0,2.76-6.48c.12-3.3-2.9-7.22-5.36-9.07a8.54,8.54,0,0,0-6.07-2.19,6.93,6.93,0,0,0-4.27,2,8.55,8.55,0,0,0-3.15,3.59,8.83,8.83,0,0,0,3.84,13.38,11,11,0,0,0,6.13,1.74l2.45-.87a9.52,9.52,0,0,0,3.59-3.3,7.09,7.09,0,0,0,1.1-5.12c0-.35-.66-.74-.87-.9-1.58-1.19-3.32-2.19-5-3.22a21.19,21.19,0,0,0-3.2-1.86s-1.28-.53-.61.11l8.59,8.09-6.53-7-2.6,13.35,7.32-8.87-8.29,6,6.44-4.05L713.28,218l7.42,7.81L715.78,217l3,6.46,6.08-13.65-9,6.2,9.39-3.3-7.06,2,14.48,5.83L723.35,214l1.16,2.25-.07-.33q2,5.09-.38,4.16l-.13,6.06.57-7.16c0-.46-.07-.42-.33-.11l-.49,1q-.73,1.88-1.38,3.78c-.69,1.95-1.37,3.9-2,5.87C720.33,229.39,719.45,232.15,719.73,232.15Z" transform="translate(-592.86 -88)"/><path class="cls-7" d="M718.57,231.67c6.92,2.6,14.13-4.53,14.74-11.21.32-3.47-1.54-7.43-4-9.8a10.88,10.88,0,0,0-5.88-3.16,9.13,9.13,0,0,0-5.12,1,9.31,9.31,0,0,0-4.27,2.72,11.23,11.23,0,0,0-3,5.87l.65,3.54a13.48,13.48,0,0,0,3.75,5.76,14.6,14.6,0,0,0,6,3.05L724,229a9.59,9.59,0,0,0,4.31-2.46,6.05,6.05,0,0,0,1.72-4.9c0-.35-5.95.36-5.72,1.1q1.22,2.31-2.21.71a3.93,3.93,0,0,1-3.8-1.32,6.33,6.33,0,0,1-1.29-3.69c0-1.5,2.16-4.35,3.74-4.79l1.95-.26a22.48,22.48,0,0,0,3.37,1.22c3.53,1,3,5.55,2,8.3a5.16,5.16,0,0,1-3.47,3.53,2.87,2.87,0,0,1-3.14-1.13c-.25-.32-1.85,3.12-1.8,3S718,231.48,718.57,231.67Z" transform="translate(-592.86 -88)"/><path class="cls-7" d="M718.5,232.1a10.59,10.59,0,0,0,7-.35c4.65-1.74,7.82-6.11,9.46-10.6a2.72,2.72,0,0,0,.74-2.26l-.52-4a16.8,16.8,0,0,0-4.15-7.11c-2.88-3.16-7-4.71-11.13-3.24a15.82,15.82,0,0,0-7.87,5.81c-1.13,1.6-2.58,3.4-2.48,5.52l1,4a6.49,6.49,0,0,0,1,2,17.84,17.84,0,0,0,3.76,5,19.51,19.51,0,0,0,3.5,2.42,18.26,18.26,0,0,0,4.17,1,13.59,13.59,0,0,0,5.75-2l2.58-2a8.6,8.6,0,0,0,2.62-6.15c.15-.71-1.91.32-2,.83a7.53,7.53,0,0,1-2,4.57l-2,1.84q-23-7.76-12.8-16.57a11.83,11.83,0,0,1,4.28-2.56q4.89-2.63,10.21,1.77a10.47,10.47,0,0,1,2.84,4q2.31,3.68,0,8.18Q729,230,719.1,230.34C718.75,230.3,718,231.94,718.5,232.1Z" transform="translate(-592.86 -88)"/><path class="cls-7" d="M719,233.41a11,11,0,0,0,8.83-2.59l2.37-2.74a18.14,18.14,0,0,0,2.59-6.68c.09-3.39-2.68-7.34-5.24-9.3-3.28-2.51-6.87-2.85-10.25-.43-2.72,1.94-5.48,5.78-5.05,9.36a10.81,10.81,0,0,0,4.74,7.62,10.14,10.14,0,0,0,5.93,2l2.54-.84a9.81,9.81,0,0,0,3.77-3.1,6.45,6.45,0,0,0,1.16-5c0-.3-.63-.59-.81-.7a47.46,47.46,0,0,0-4.54-2.16,13.6,13.6,0,0,0-2.9-1.19c-.06,0-1.13-.28-.52.21L719.8,229.8l5.2-9.18-2.12,1.66.93-.51-10.49-.86,8.87,1.83-7.35-7.24,4.52,5.41-1.19-3.55.33,1.92,6-8.63L718,215.33l8,.63-1.84-.84,2.59,2.09-1.82-1.62q2.79,6.87-.62,6.23-.55.05-.59-.61l.08.37.11-.87c.06-.5-.06-.35-.33-.12l-.5,1q-.75,1.8-1.42,3.63C721.46,225.63,718.65,233.36,719,233.41Z" transform="translate(-592.86 -88)"/><path class="cls-7" d="M630.59,225.73a11.14,11.14,0,0,0,3.38,5.65,9.62,9.62,0,0,0,6.17,2.29,12.16,12.16,0,0,0,5.08-1.74,18.79,18.79,0,0,0,8.21-7.77A12.25,12.25,0,0,0,655.5,219l-.8-3.82a12.13,12.13,0,0,0-3-4.89,14.59,14.59,0,0,0-7.48-4.9,12.25,12.25,0,0,0-6.18.85A13,13,0,0,0,632.6,209c-2.3,2-4.67,4.64-4.71,7.9a12.88,12.88,0,0,0,1.6,5.16l2.31,3.48a17.44,17.44,0,0,0,5.7,5.4,8.61,8.61,0,0,0,4.78-.11,12.49,12.49,0,0,0,7-3.92,4.91,4.91,0,0,0,1.52-4.9,7.93,7.93,0,0,0-1.6-5.24,26.54,26.54,0,0,0-7-6.67.23.23,0,0,0-.35,0l-1.9,4c-.1.21.21.67.46.54,2.61-1.34,1.81-.45,2.79-3.19.23-.64-2.49,0-2.25.82l.39,1.31.06-.48-1.39.91.5.56q4.71-1.88,6.23,3.61a7.14,7.14,0,0,1,.43,5c-1,2.79-4.69,5-7.57,4.94a8.25,8.25,0,0,1-5.8-3.94,20,20,0,0,1-3.56-6.37c-.72-5.38,6-8.8,10.43-9.35a7.19,7.19,0,0,1,5.73,1,10.84,10.84,0,0,1,3.75,3.87l1.08,2.62a5.79,5.79,0,0,1-.64,5.35,14.05,14.05,0,0,1-9.1,7.3,4.6,4.6,0,0,1-5.38-1.32,9.87,9.87,0,0,1-2.86-5.19c-.2-.72-1,.65-1,.7C631.8,223.29,630.38,225,630.59,225.73Z" transform="translate(-592.86 -88)"/><path class="cls-7" d="M629.69,229.75c1.61,4.72,5.26,8.65,10.81,8.33,4-.23,8.16-3.27,10.8-6q1.38-1.59,2.65-3.27a18.08,18.08,0,0,0,3-7.4c0-2.46-2.22-6.25-3.69-8.08q-1.52-1.55-3.06-3.07a18,18,0,0,0-7.3-3.67c-2.39-.22-6.28,1.47-8.22,2.64a15.54,15.54,0,0,0-4.7,4,11,11,0,0,0-2.67,4c-.83,2.27-.61,3.55.17,5.79a8.4,8.4,0,0,0,1.22,2.63,40.16,40.16,0,0,0,5.64,6.82c2.95,2.56,3.49,2.94,7.08,2.5,4.36-.53,10-3.64,10.72-8.43.41-2.56-1.31-6-2.65-8-2.12-3.1-5.14-5.3-8.16-7.43-.1-.07-.59-.3-.66-.15L638,216.7c0,.1,0,.2.12.19,3.4-.22,2.32.44,4.25-1.44.23-.23-.28-.85-.61-.46l-.39-3.78-.66-.15-5.47,19.85-3.08-3.18,7-20q14.4-1.35,15.32,16.43a17.86,17.86,0,0,1-6.05,6.83,15.43,15.43,0,0,1-4.72,2.72,4.75,4.75,0,0,1-4.63.57c-3.85-.93-6.19-3.54-7.68-7.24C631.17,226.4,629.48,229.13,629.69,229.75Z" transform="translate(-592.86 -88)"/><path class="cls-7" d="M631.5,222.76c.87,3.15,2.53,6.36,6,7.19l2.9.37,2.78-1.15a16.73,16.73,0,0,0,5.59-5.21,10.69,10.69,0,0,0,1.59-2.65,15.15,15.15,0,0,0,1.69-4.46,11.45,11.45,0,0,0-2.61-5.64,14.65,14.65,0,0,0-6.28-4.14,3.22,3.22,0,0,0-3.15-.25,8.78,8.78,0,0,0-4.73,1.76,16.84,16.84,0,0,0-4.54,4.86A6.58,6.58,0,0,0,629.7,217a2.55,2.55,0,0,0,.39,2.45,10,10,0,0,0,3.85,4.89,11.23,11.23,0,0,0,4.61,1.71,10.34,10.34,0,0,0,5.72-1.22c1.51-.75,4.25-2.61,4.37-4.48l-.59-3-1.77-2.53c-1.74-2-5.24-3.17-7.57-4.27-.62-.29-3.62,4.84-3.66,4.9q-1.34,2-2.58,4.08a1.81,1.81,0,0,0-.45,1.23L635.6,227l.24-.21c2.64-3.18,4.11-7.44,5.63-11.24.09-.23.48-.95.28-1.21s-1.24,1.71-1.27,1.77c-.8,1.45-1.55,2.93-2.29,4.41-.5,1-1.64,2.61-1.71,3.77l-.08,1.29,4.54-9.36-2.23-5.61-6.37,10.05,5.52-5.26L634,218.44l14.59,1.91-9.34-7.09-8.54.19,7.66,9.18-3.07-7,1.9,5.21,4.49-14-5.29,10.75,3.74-3.12-1,.36,11.61,1.94-10.32-2.76q3.23,2.72,1.22,4.66a1.34,1.34,0,0,0-1.28-.89l.09.36a11.76,11.76,0,0,0-1-2.57,13,13,0,0,1-.59-3.34,2,2,0,0,0-1,.92q-1.55,2-3,4.08T632,221.49A2,2,0,0,0,631.5,222.76Z" transform="translate(-592.86 -88)"/><path class="cls-7" d="M630.33,225.11c.89,3.19,2.67,6.47,6.21,7.28l3,.33,3.1-1.21A19.45,19.45,0,0,0,649,226c1.37-1.77,3.62-5,3.44-7.32l-.87-3.3-1.63-2.81a13.22,13.22,0,0,0-6.35-4.37,4.12,4.12,0,0,0-3.19-.38,8.77,8.77,0,0,0-4.81,1.31,15.76,15.76,0,0,0-4.94,4.54,5.64,5.64,0,0,0-1.13,3.28,2.12,2.12,0,0,0,.35,2.26,7.52,7.52,0,0,0,1.12,2,16.35,16.35,0,0,1,1.91,3.42,9.62,9.62,0,0,0,3.59,3.83c1.61.78,4.93-.23,6.51-.87,1.78-.71,4.55-2.42,4.8-4.58l-.38-3.15L646,217.23c-1.41-2.07-4.31-3.43-6.41-4.61-.37-.21-.84,3.91-.83,3.8-.07.55-.74,3.33-.08,3.89l3.36,2.8q.3.2.31-.16a15.32,15.32,0,0,0,.79-7.79c-.11-.73.08-.66-.38-.61s-.72,3.14-.73,3.16l-.24,1.57q.06,3.13-2.19-1.35l2.64,4.55-2.52-9.64-.86,7.29c.36-.38,1.27-1.56,1.33-.35.12,2.38-4.14-1.61-3.67-1.06l.24,8.72q-2.61-7.74,1.94-12.09.57-1.17,1.61-.24,5.26-1.58,4.28,1a2.82,2.82,0,0,0,.09,2.18c-.19,1.59-1.07,3.46-2.79,3.87a4.68,4.68,0,0,1-3.39-.65l.12.32a26.58,26.58,0,0,0-1.28-2.8,12.65,12.65,0,0,1-.7-3.42,1.62,1.62,0,0,0-.91.83q-1.33,1.83-2.58,3.71t-2.45,3.8A1.62,1.62,0,0,0,630.33,225.11Z" transform="translate(-592.86 -88)"/><path class="cls-7" d="M630,225.56a12.17,12.17,0,0,0,4.64,6.34,8.54,8.54,0,0,0,4.39,1.56,6.23,6.23,0,0,0,5.22-.68,20.7,20.7,0,0,0,9.07-7.67l1.91-3.56a8.15,8.15,0,0,0,.18-7.77,17.77,17.77,0,0,0-6.15-7.73,11.85,11.85,0,0,0-5.15-2.54,12.87,12.87,0,0,0-6.43,1.12,16.9,16.9,0,0,0-8.64,6.19A10.31,10.31,0,0,0,627.3,216a12.05,12.05,0,0,0,1.63,5.16,9.47,9.47,0,0,0,1.44,2,31,31,0,0,0,4.28,5c.42.37,2.37,2.23,3.78,2.59,2.72.69,7.2-.59,9.38-2.19,1.67-1.22,4.15-3.36,4.41-5.5l-.37-4a12.29,12.29,0,0,0-3-5.16,34.38,34.38,0,0,0-6.95-6.12c-.19-.13-.38,0-.46.18l-2.61,5c-.08.16,0,.32.18.28a9.51,9.51,0,0,0,2.69-.62c.53-.34.94-1.46,1.11-1.74.27-.47-.15-.49-.5-.43a2.65,2.65,0,0,0-1.51,1.12l-1.67,1,0,.57q6.44-4.52,9.34,3.61,3.68,5.1-1.85,10.27l-2.55,1.36q-7.91,1.21-11.58-5c-6.1-10.08.21-15.46,7.43-17.08a6.39,6.39,0,0,1,6.56.83,11.74,11.74,0,0,1,3.66,3.16,11.48,11.48,0,0,1,2.68,4.12,5.7,5.7,0,0,1-.14,6.24,19.77,19.77,0,0,1-6.44,8,14.88,14.88,0,0,1-5.54,2.49l-2.77-.74c-3.11-1.13-5-3.81-6.31-6.69C631.28,223,629.83,225.09,630,225.56Z" transform="translate(-592.86 -88)"/><path class="cls-7" d="M631.19,222.21c.84,3.11,2.49,6.36,5.94,7.18l2.84.35,2.81-1a16.36,16.36,0,0,0,5.79-5c1.34-1.75,3.65-5,3.51-7.24a11.89,11.89,0,0,0-2.27-5.84,14.31,14.31,0,0,0-6.27-4.63,3.35,3.35,0,0,0-3.24-.38,9,9,0,0,0-4.89,1.62,16,16,0,0,0-4.73,4.83,6.17,6.17,0,0,0-1,3.54,2.37,2.37,0,0,0,.47,2.37c1.49,3,4,6.16,7.3,7.07a10.07,10.07,0,0,0,5.7-.71c1.64-.62,4.37-2.15,4.62-4.12l-.32-2.89L646,214.85c-1.49-2.08-4.72-3.62-6.83-4.92-.39-.24-2.16,5.24-2.13,5.13q-.71,2.07-1.32,4.17a1.54,1.54,0,0,0-.09,1.2l4,4.43.16-.24c2.05-3.14,2.38-6.78,2.87-10.67.07-.52.3-1.26-.24-.9l-.33.74q-.63,1.91-1.15,3.84l-.61,2.28q-.89,5.11-1.3-3.84l.8,6.41-.59-12.22-3.35,9.95,4-3.59-1.77,1,8.64,2.57-7.5-3.33L631,212.19l7.27,7.14a2.39,2.39,0,0,1,.27-3.26q5.57-3.09,3.92-.53a4.36,4.36,0,0,1,.85,3.16,1.87,1.87,0,0,1-1,1.61c-1.28,1-2.26,0-3.09-1.06a9.27,9.27,0,0,1-1.68-5.07,1.35,1.35,0,0,0-.9.66q-1.33,1.53-2.58,3.12t-2.46,3.22A1.35,1.35,0,0,0,631.19,222.21Z" transform="translate(-592.86 -88)"/><path class="cls-7" d="M630.58,226.69c.91,3.24,2.71,6.58,6.32,7.41l3.1.34,3.22-1.22a19.68,19.68,0,0,0,6.43-5.85c1.35-1.83,3.51-5.08,3.3-7.44l-1-3.45-1.71-2.89c-3.31-4.21-9.4-6.21-14.23-3.3a15.85,15.85,0,0,0-4.86,4.55,5.54,5.54,0,0,0-1.18,3.21,2.2,2.2,0,0,0,.26,2.27,7.76,7.76,0,0,0,1,2,21.58,21.58,0,0,1,1.86,3.63c.92,1.56,2.08,3.35,3.77,4.18s5.08-.29,6.69-1c1.83-.78,4.6-2.6,4.79-4.85l-.54-3.36-1.54-2.74c-1.48-2.08-4.25-3.35-6.43-4.47-.43-.22-1,3.19-1,3.14-.1.5-.86,2.77-.28,3.29l3.3,3q.27.14.31-.16c.27-.72,1.62-7.15,1.2-7.26s-.12-.27-.46.11a8,8,0,0,0-.82,2.41l-.35,1.32q-.08,2.33-1.81-.55l2.18,3.58L640,214l-1.24,6.1q.66-1.26,1.29-.41.7.34.33,1.13c-.93,1.75-3.51-1-3.83-1.31l.6,9.56q.24-6.48.82-12.94a1.58,1.58,0,0,1,1.48-1.43l1.08.35q5.62-1.19,4.27,2a3.54,3.54,0,0,1,0,2.54,3.36,3.36,0,0,1-1.25,2.18c-1.6,1.38-3.2,1-4.87.09l.13.35a28.34,28.34,0,0,0-1.31-2.88,12.82,12.82,0,0,1-.7-3.46,1.88,1.88,0,0,0-.91,1q-1.3,2.1-2.51,4.26T631,225.4A1.88,1.88,0,0,0,630.58,226.69Z" transform="translate(-592.86 -88)"/><path class="cls-7" d="M629,223.72a12.29,12.29,0,0,0,4.41,6.36,8.29,8.29,0,0,0,4.26,1.63,6,6,0,0,0,5.12-.58,20.8,20.8,0,0,0,9-7.42,13.58,13.58,0,0,0,2.48-5.3q.34-1,.58-2a10.51,10.51,0,0,0-1.69-5.4,14.89,14.89,0,0,0-8.39-7.52,7,7,0,0,0-5.87-.47,16.33,16.33,0,0,0-9.85,6.41c-1.62,2.53-2.28,4.84-1.22,7.81l.85,2.09a41.29,41.29,0,0,0,4.61,6.93l2.95,2.58a11.86,11.86,0,0,0,3.26.26,12.88,12.88,0,0,0,3.56-.6c2-.67,4.42-1.71,5.82-3.37l2-3a19.2,19.2,0,0,0-.11-2c-.14-2.43-.12-2.78-1.74-5.38-2-3.21-5.08-5.37-8.09-7.5q-.22-.18-.34.07l-1.71,5.09c-.11.32.8.92,1,.73,1.77-1.34,1.62-1.4,2.29-3.75.17-.59-.26-.49-.63-.24s-1.6,1.41-1.44,1.83l.43,1.14.56-1-2.06,1,1,.9,1.67-1.91-.34.07a25.38,25.38,0,0,1,4.19,3.4l1.83,9.69q-11.87,6.1-15.34-3.13l-1.89-3.87c-.71-3.06,2-6,4.26-7.76a10.83,10.83,0,0,1,9.91-1.92,11.38,11.38,0,0,1,6.43,5.25c2.32,4,.33,8-2.28,11.16a13.33,13.33,0,0,1-3.7,3.42,5.73,5.73,0,0,1-5.45,1.35,4.73,4.73,0,0,1-4.8-1.53,10.24,10.24,0,0,1-3.46-5.41C630.79,221.06,628.84,223.24,629,223.72Z" transform="translate(-592.86 -88)"/><path class="cls-7" d="M631.37,224.36c.93,3.33,2.6,6.29,6.17,7.32l3,.39a11.7,11.7,0,0,0,4.23-2.26,19,19,0,0,0,5.31-5.89l1.36-2.82a4.06,4.06,0,0,0,.33-4.63,12.15,12.15,0,0,0-4.71-6.3l-2.65-1.47a4.83,4.83,0,0,0-4.55-.61,12,12,0,0,0-7.06,4.14,15.56,15.56,0,0,0-2.92,5,3.83,3.83,0,0,0,.17,3.67,11.33,11.33,0,0,0,1.74,3.29,10.56,10.56,0,0,0,10.49,3.13,10.79,10.79,0,0,0,5.32-3.14c1.74-1.9,1.42-3.63.55-5.77-1.53-3.76-6.18-5.29-9.51-6.66-.73-.3-3.69,3.77-3.85,4s-3.63,3.6-3.27,4.45l2.8,6.64.26-.15a35,35,0,0,0,6.72-10.68c.15-.4,0-.26-.29-.2l-.58.63q-.92,1.21-1.77,2.46c-.89,1.28-1.77,2.56-2.61,3.87a4.08,4.08,0,0,0-.87,1.85l0,.86,5.52-8.05-2-5.65-6.8,8.31,7.5-5.57-5.64,3.6,4.94,9.65,3.16-12.17-11-.55,7.11,8.79-2.87-7,1.58,4.84,4.85-13.49-5.93,9.21,8.07-1.66-3-1.34,1.33,1.75-.17-.29c.41,1.23,1,3.36-.74,3l.24.28q-.12-1.05-1-1.16l.1.4-.12-1a4.19,4.19,0,0,1-.85-1.65,13.44,13.44,0,0,1-.57-3.4,2.37,2.37,0,0,0-1,1.12q-1.56,2.35-3,4.76t-2.9,4.84A2.37,2.37,0,0,0,631.37,224.36Z" transform="translate(-592.86 -88)"/><path class="cls-7" d="M629.93,223.81c1,3.21,2.72,6.09,6.14,7.15,2.64.82,5.13-.05,7.47-1.29a18.37,18.37,0,0,0,6.41-5.53l1.72-3a5.56,5.56,0,0,0,.74-5,13.23,13.23,0,0,0-3.89-7.53l-2.7-2.08a5.92,5.92,0,0,0-5-1.28,13.2,13.2,0,0,0-8.37,3.27,13,13,0,0,0-3.5,4.89c-1,2.66.58,4.46,1.75,6.66a34.5,34.5,0,0,0,3,5.53,11.6,11.6,0,0,0,2.31,2.14c1.32.76,4.12.28,5.62,0a8.63,8.63,0,0,0,5.61-4.09,4.3,4.3,0,0,0,.66-4.5l-1.23-2.9c-1.53-2.53-4.12-4.28-6.47-5.94-.28-.2-.28,3.43-.29,3.3,0,.29-.19,3.11.47,3.28l2.07.56a.39.39,0,0,0,.26-.41c0-.11.86-7.07-.31-5.09a7.06,7.06,0,0,0-.5,1.9,13.86,13.86,0,0,0-.28,1.53q0,1.53-2.08-.31l2.73,3L640.52,211l-.14,5.9c2.67.35,3.17,2,2.09,4.65q-1.52,4.31-7.1-.84a22.08,22.08,0,0,1-.49-4.82,1.28,1.28,0,0,1,.77-1.51,2.72,2.72,0,0,0,1.38-1.72,4.63,4.63,0,0,1,3.36-1.36,34.51,34.51,0,0,0,3.6.66c4.93,1.73,3.35,9.26.08,11.73a6.93,6.93,0,0,1-4.09,1.44,3.25,3.25,0,0,1-3.38-1.69,9.94,9.94,0,0,1-2.17-5.28c0-.25-2.62,2.7-2.55,2.61C631.52,221.19,629.69,223,629.93,223.81Z" transform="translate(-592.86 -88)"/><path class="cls-7" d="M629.33,223.8c1.86,4.57,5.32,8.57,10.87,8.25,2.23-.13,5.18-1.65,6.95-2.84a22.76,22.76,0,0,0,7.83-9.46q.64-1.95,1.17-3.92l-.94-3.76c-1.53-4.41-5.64-7.69-9.85-9.24a7.57,7.57,0,0,0-6.06-.42,17,17,0,0,0-7.42,3.61c-2.2,2-4.79,4.86-4.69,8.07.15,4.78,3.55,9,6.71,12.24,2.65,2.76,2.45,2.69,5.07,2.75a11.25,11.25,0,0,0,5-.7,13.69,13.69,0,0,0,5.78-3.66,15.21,15.21,0,0,0,2-3.33c.73-2.24-.82-5.4-1.88-7.28-1.86-3.33-5.29-5.63-8.31-7.77a.22.22,0,0,0-.35.06l-2.31,5.45c-.14.33.22.56.5.44,2.39-1,2.21-.9,3.2-3.52.23-.6-.92.07-.87,0-.32.2-1.45,1-1.41,1.45l.09,1.12.77-.77-2.19,1.15.65.36q4.18-2.75,6.56,1.16L640.41,228a11.54,11.54,0,0,1-8.48-6.37L629.11,216c-.7-4.16,4.34-7.52,7.47-9a14.12,14.12,0,0,1,6.6-1,11,11,0,0,1,4.31,1.71,11.32,11.32,0,0,1,3.74,2.91,4.94,4.94,0,0,1,1.78,5.51,6.65,6.65,0,0,1-1.79,6.16,15.72,15.72,0,0,1-3.69,4.06c-3.07,2.66-7,4.76-11.12,2.72-2.8-1.38-4.26-3.76-5.58-6.53C630.47,221.8,629.16,223.39,629.33,223.8Z" transform="translate(-592.86 -88)"/><path class="cls-7" d="M630.49,225.59c.95,3.38,2.66,6.38,6.31,7.37l3.08.33a12.63,12.63,0,0,0,4.47-2.42,18.68,18.68,0,0,0,5.55-6.16,16.09,16.09,0,0,0,2.08-5.94c.17-2.45-2.28-5.52-4-7.07a10.35,10.35,0,0,0-3.85-2.58l-3-.9-3.26.52a9.68,9.68,0,0,0-4.21,2.6c-1.72,1.53-3.73,3.73-4.27,6.06l-.32,2.5,1,2.3a14.54,14.54,0,0,0,3.92,4.71,7.32,7.32,0,0,0,5.8,1.64,10.61,10.61,0,0,0,5.75-2.45c2-1.73,2.95-3.77,1.66-6.47-1.77-3.71-5.21-5.37-8.77-7.06-.57-.27-2.52,3.5-2.57,3.59-.24.4-2.36,3.23-1.92,4l3.28,5.5q.13.39.35,0c2-2.52,2.86-5.74,3.95-8.7.6-1.63-.44-.44-.87.36-.59,1.09-1.14,2.21-1.68,3.33-.31.64-1.29,2.11-1.19,2.87l.14,1.14,3-6.78-2.64.93.21.77v-6.73L634.26,220l6.11-3.3-2.94,1.06,6.25-.39-5,0,6.62,4.23-6.06-4.29q-.37.09-.42-.22a34.07,34.07,0,0,0-3.66-6.7l1.41,7,.64-3-.52,1.82,2.09-1.56,1.78-.46,2,.85a3.57,3.57,0,0,1,.52,4,1.9,1.9,0,0,1-1.7,1.41c-.77,0-1.1-.51-1.82-.76l.1.38a20.68,20.68,0,0,0-1.17-2.79,13.26,13.26,0,0,1-.65-3.45,2.26,2.26,0,0,0-1,1.07q-1.54,2.27-3,4.61T631,224.19A2.26,2.26,0,0,0,630.49,225.59Z" transform="translate(-592.86 -88)"/><path class="cls-5" d="M667.83,271.26" transform="translate(-592.86 -88)"/><line class="cls-8" x1="72.12" y1="158.81" x2="97.39" y2="158.81"/></svg>
