<svg id="Layer_1" data-name="Layer 1" xmlns="http://www.w3.org/2000/svg" viewBox="0 0 177.03 379.86"><defs><style>.cls-1{fill:#ffd1fc;opacity:0.11;}.cls-2{fill:#fff;}.cls-3{fill:maroon;}.cls-4,.cls-5{fill:none;stroke:#000;stroke-miterlimit:10;}.cls-4{stroke-width:3px;}</style></defs><title>glass3</title><path class="cls-1" d="M737.78,221.47c.85,0-.69-1.38-.67-1.36q-1-1-2-1.87a3.65,3.65,0,0,0-1.16-.84c-.85,0,.69,1.38.67,1.36q1,1,2,1.87A3.65,3.65,0,0,0,737.78,221.47Z" transform="translate(-595.48 -91)"/><path class="cls-1" d="M738.27,225.5c.72,0-1.13-2.79-1.78-2.79S737.62,225.5,738.27,225.5Z" transform="translate(-595.48 -91)"/><path class="cls-1" d="M735.54,218.84a2,2,0,0,0-.82-1.14q-1.86-1.81-3.8-3.53T727,210.76a2,2,0,0,0-1.22-.7,2,2,0,0,0,.82,1.14q1.86,1.81,3.8,3.53t3.91,3.41A2,2,0,0,0,735.54,218.84Z" transform="translate(-595.48 -91)"/><path class="cls-1" d="M735.76,220.87a1.44,1.44,0,0,0-.53-1q-1.34-1.62-2.76-3.18t-2.88-3.07a.6.6,0,1,0-.44.4q1.34,1.62,2.76,3.18t2.88,3.07A1.44,1.44,0,0,0,735.76,220.87Z" transform="translate(-595.48 -91)"/><path class="cls-1" d="M738.45,221c.71,0-.35-1-.35-1-.45-.43-1.46-1.57-2.16-1.57s.35,1,.35,1C736.74,219.85,737.75,221,738.45,221Z" transform="translate(-595.48 -91)"/><path class="cls-1" d="M735.4,218.21a1.36,1.36,0,0,0-.63-.92q-1.5-1.38-3.06-2.68t-3.17-2.56a.58.58,0,1,0-.38.46q1.5,1.38,3.06,2.68t3.17,2.56A1.36,1.36,0,0,0,735.4,218.21Z" transform="translate(-595.48 -91)"/><path class="cls-1" d="M736.38,222.46a1.8,1.8,0,0,0-.58-1.17q-1.46-1.91-3-3.75t-3.13-3.65a.67.67,0,1,0-.46.38q1.46,1.91,3,3.75t3.13,3.65A1.8,1.8,0,0,0,736.38,222.46Z" transform="translate(-595.48 -91)"/><path class="cls-1" d="M737.36,219.6c.6,0-.16-.8-.2-.83-.35-.37-1.09-1.08-1.65-1.08s.16.8.2.83C736.06,218.9,736.8,219.6,737.36,219.6Z" transform="translate(-595.48 -91)"/><path class="cls-1" d="M736,220.42a2.48,2.48,0,0,0-.86-1.31q-2-2.13-4-4.19t-4.1-4.08a2.48,2.48,0,0,0-1.28-.89,2.48,2.48,0,0,0,.86,1.31q2,2.13,4,4.19t4.1,4.08A2.48,2.48,0,0,0,736,220.42Z" transform="translate(-595.48 -91)"/><path class="cls-1" d="M735.83,219.63c.9,0-.83-1.5-.8-1.48q-1.1-1.08-2.25-2.1a4.56,4.56,0,0,0-1.29-1c-.9,0,.83,1.5.8,1.48q1.1,1.08,2.25,2.1A4.56,4.56,0,0,0,735.83,219.63Z" transform="translate(-595.48 -91)"/><path class="cls-1" d="M738.25,219.5c.56,0-.13-.74-.16-.77a2.55,2.55,0,0,0-1.48-.84c-.56,0,.13.74.16.77A2.55,2.55,0,0,0,738.25,219.5Z" transform="translate(-595.48 -91)"/><path class="cls-1" d="M735.63,221.26A2,2,0,0,0,735,220q-1.6-2-3.29-4t-3.41-3.87a2,2,0,0,0-1.12-.85,2,2,0,0,0,.66,1.23q1.6,2,3.29,4t3.41,3.87A2,2,0,0,0,735.63,221.26Z" transform="translate(-595.48 -91)"/><path class="cls-1" d="M736.15,219.84c.85,0-.69-1.38-.67-1.36q-1-1-2-1.87a3.65,3.65,0,0,0-1.16-.84c-.85,0,.69,1.38.67,1.36q1,1,2,1.87A3.65,3.65,0,0,0,736.15,219.84Z" transform="translate(-595.48 -91)"/><path class="cls-1" d="M736.64,223.87c.72,0-1.13-2.79-1.78-2.79S736,223.87,736.64,223.87Z" transform="translate(-595.48 -91)"/><path class="cls-1" d="M733.91,217.21a2,2,0,0,0-.82-1.14q-1.86-1.81-3.8-3.53t-3.91-3.41a2,2,0,0,0-1.22-.7,2,2,0,0,0,.82,1.14q1.86,1.81,3.8,3.53t3.91,3.41A2,2,0,0,0,733.91,217.21Z" transform="translate(-595.48 -91)"/><path class="cls-1" d="M734.13,219.24a1.44,1.44,0,0,0-.53-1q-1.34-1.62-2.76-3.18T728,212a.6.6,0,1,0-.44.4q1.34,1.62,2.76,3.18t2.88,3.07A1.44,1.44,0,0,0,734.13,219.24Z" transform="translate(-595.48 -91)"/><path class="cls-1" d="M736.82,219.37c.71,0-.35-1-.35-1-.45-.43-1.46-1.57-2.16-1.57s.35,1,.35,1C735.11,218.22,736.12,219.37,736.82,219.37Z" transform="translate(-595.48 -91)"/><path class="cls-1" d="M733.77,216.58a1.36,1.36,0,0,0-.63-.92q-1.5-1.38-3.06-2.68t-3.17-2.56a.58.58,0,1,0-.38.46q1.5,1.38,3.06,2.68t3.17,2.56A1.36,1.36,0,0,0,733.77,216.58Z" transform="translate(-595.48 -91)"/><path class="cls-1" d="M734.75,220.83a1.8,1.8,0,0,0-.58-1.17q-1.46-1.91-3-3.75T728,212.26a.67.67,0,1,0-.46.38q1.46,1.91,3,3.75t3.13,3.65A1.8,1.8,0,0,0,734.75,220.83Z" transform="translate(-595.48 -91)"/><path class="cls-1" d="M735.73,218c.6,0-.16-.8-.2-.83-.35-.37-1.09-1.08-1.65-1.08s.16.8.2.83C734.43,217.27,735.17,218,735.73,218Z" transform="translate(-595.48 -91)"/><path class="cls-1" d="M734.4,218.79a2.48,2.48,0,0,0-.86-1.31q-2-2.13-4-4.19t-4.1-4.08a2.48,2.48,0,0,0-1.28-.89,2.48,2.48,0,0,0,.86,1.31q2,2.13,4,4.19t4.1,4.08A2.48,2.48,0,0,0,734.4,218.79Z" transform="translate(-595.48 -91)"/><path class="cls-1" d="M734.2,218c.9,0-.83-1.5-.8-1.48q-1.1-1.08-2.25-2.1a4.56,4.56,0,0,0-1.29-1c-.9,0,.83,1.5.8,1.48q1.1,1.08,2.25,2.1A4.56,4.56,0,0,0,734.2,218Z" transform="translate(-595.48 -91)"/><path class="cls-1" d="M736.62,217.87c.56,0-.13-.74-.16-.77a2.55,2.55,0,0,0-1.48-.84c-.56,0,.13.74.16.77A2.55,2.55,0,0,0,736.62,217.87Z" transform="translate(-595.48 -91)"/><path class="cls-1" d="M734,219.63a2,2,0,0,0-.66-1.23q-1.6-2-3.29-4t-3.41-3.87a2,2,0,0,0-1.12-.85,2,2,0,0,0,.66,1.23q1.6,2,3.29,4t3.41,3.87A2,2,0,0,0,734,219.63Z" transform="translate(-595.48 -91)"/><path class="cls-1" d="M732.89,218.21c.85,0-.69-1.38-.67-1.36q-1-1-2-1.87a3.65,3.65,0,0,0-1.16-.84c-.85,0,.69,1.38.67,1.36q1,1,2,1.87A3.65,3.65,0,0,0,732.89,218.21Z" transform="translate(-595.48 -91)"/><path class="cls-1" d="M733.38,222.24c.72,0-1.13-2.79-1.78-2.79S732.73,222.24,733.38,222.24Z" transform="translate(-595.48 -91)"/><path class="cls-1" d="M730.65,215.58a2,2,0,0,0-.82-1.14q-1.86-1.81-3.8-3.53t-3.91-3.41a2,2,0,0,0-1.22-.7,2,2,0,0,0,.82,1.14q1.86,1.81,3.8,3.53t3.91,3.41A2,2,0,0,0,730.65,215.58Z" transform="translate(-595.48 -91)"/><path class="cls-1" d="M730.87,217.61a1.44,1.44,0,0,0-.53-1Q729,215,727.58,213.4t-2.88-3.07a.6.6,0,1,0-.44.4q1.34,1.62,2.76,3.18T729.9,217A1.44,1.44,0,0,0,730.87,217.61Z" transform="translate(-595.48 -91)"/><path class="cls-1" d="M733.56,217.74c.71,0-.35-1-.35-1-.45-.43-1.46-1.57-2.16-1.57s.35,1,.35,1C731.85,216.59,732.86,217.74,733.56,217.74Z" transform="translate(-595.48 -91)"/><path class="cls-1" d="M730.51,215a1.36,1.36,0,0,0-.63-.92q-1.5-1.38-3.06-2.68t-3.17-2.56a.58.58,0,1,0-.38.46q1.5,1.38,3.06,2.68t3.17,2.56A1.36,1.36,0,0,0,730.51,215Z" transform="translate(-595.48 -91)"/><path class="cls-1" d="M731.49,219.2a1.8,1.8,0,0,0-.58-1.17q-1.46-1.91-3-3.75t-3.13-3.65a.67.67,0,1,0-.46.38q1.46,1.91,3,3.75t3.13,3.65A1.8,1.8,0,0,0,731.49,219.2Z" transform="translate(-595.48 -91)"/><path class="cls-1" d="M732.47,216.34c.6,0-.16-.8-.2-.83-.35-.37-1.09-1.08-1.65-1.08s.16.8.2.83C731.17,215.64,731.91,216.34,732.47,216.34Z" transform="translate(-595.48 -91)"/><path class="cls-1" d="M731.14,217.16a2.48,2.48,0,0,0-.86-1.31q-2-2.13-4-4.19t-4.1-4.08a2.48,2.48,0,0,0-1.28-.89,2.48,2.48,0,0,0,.86,1.31q2,2.13,4,4.19t4.1,4.08A2.48,2.48,0,0,0,731.14,217.16Z" transform="translate(-595.48 -91)"/><path class="cls-1" d="M730.94,216.37c.9,0-.83-1.5-.8-1.48q-1.1-1.08-2.25-2.1a4.56,4.56,0,0,0-1.29-1c-.9,0,.83,1.5.8,1.48q1.1,1.08,2.25,2.1A4.56,4.56,0,0,0,730.94,216.37Z" transform="translate(-595.48 -91)"/><path class="cls-1" d="M733.36,216.24c.56,0-.13-.74-.16-.77a2.55,2.55,0,0,0-1.48-.84c-.56,0,.13.74.16.77A2.55,2.55,0,0,0,733.36,216.24Z" transform="translate(-595.48 -91)"/><path class="cls-1" d="M730.74,218a2,2,0,0,0-.66-1.23q-1.6-2-3.29-4t-3.41-3.87a2,2,0,0,0-1.12-.85,2,2,0,0,0,.66,1.23q1.6,2,3.29,4t3.41,3.87A2,2,0,0,0,730.74,218Z" transform="translate(-595.48 -91)"/><path class="cls-1" d="M717.52,220.73l.58,1.31c.32.73.9-1,.9-1,.29-.72,1.29-2.61,1-3.42l-.36-1c-.27-.73-.94.85-.95.86C718.41,218.11,717.22,220.05,717.52,220.73Z" transform="translate(-595.48 -91)"/><path class="cls-1" d="M716.73,224.82l.54,1.48c.25.67.79-.73.78-.71.24-.61.87-1.91.62-2.59l-.44-1.22c-.23-.64-.79.6-.8.62C717.18,222.95,716.5,224.2,716.73,224.82Z" transform="translate(-595.48 -91)"/><path class="cls-1" d="M718.13,217.57l.57,1.52a2,2,0,0,0,.85-1.09q1.19-2.26,2.27-4.57T724,208.8a2,2,0,0,0,.31-1.35l-.25-1.2a2,2,0,0,0-.88,1q-1.25,2.19-2.4,4.44t-2.26,4.51A2,2,0,0,0,718.13,217.57Z" transform="translate(-595.48 -91)"/><path class="cls-1" d="M717.09,220l.57,1.52a1.66,1.66,0,0,0,.77-1q1-2.05,2-4.15t1.82-4.21a1.66,1.66,0,0,0,.23-1.23l-.22-1.15a1.62,1.62,0,0,0-.8.94q-1.1,2-2.1,4t-2,4.07A1.62,1.62,0,0,0,717.09,220Z" transform="translate(-595.48 -91)"/><path class="cls-1" d="M717.05,220.66l.53,1.49c.2.55.7-.35.73-.42.24-.42.7-1.35.53-1.86l-.45-1.27C718.17,218,716.86,220.11,717.05,220.66Z" transform="translate(-595.48 -91)"/><path class="cls-1" d="M717.85,217l.53,1.56a1.36,1.36,0,0,0,.77-.81q1-1.75,2-3.56c.49-.94,2.32-3.45,2.06-4.72l-.25-1.19a1.32,1.32,0,0,0-.79.76q-1.08,1.67-2.07,3.41C719.67,213.15,717.5,216,717.85,217Z" transform="translate(-595.48 -91)"/><path class="cls-1" d="M717.35,221.66l.57,1.53a2,2,0,0,0,.76-1.15q1-2.34,1.89-4.72t1.74-4.77a2,2,0,0,0,.2-1.37L722.3,210a1.93,1.93,0,0,0-.79,1.11q-1.06,2.27-2,4.58t-1.88,4.64A1.93,1.93,0,0,0,717.35,221.66Z" transform="translate(-595.48 -91)"/><path class="cls-1" d="M716,218.86l.56,1.34c.28.66,1.77-1.81,1.54-2.37l-.4-1C717.35,216.12,715.76,218.37,716,218.86Z" transform="translate(-595.48 -91)"/><path class="cls-1" d="M718,219.26l.58,1.53a2.44,2.44,0,0,0,.86-1.29q1.19-2.61,2.29-5.26t2.14-5.32a2.44,2.44,0,0,0,.31-1.52l-.24-1.24a2.4,2.4,0,0,0-.89,1.25q-1.26,2.55-2.42,5.14t-2.28,5.2A2.4,2.4,0,0,0,718,219.26Z" transform="translate(-595.48 -91)"/><path class="cls-1" d="M716.75,218.76l.56,1.44a16.73,16.73,0,0,0,1.59-2.3q.59-1.11,1.13-2.25a5.42,5.42,0,0,0,.63-1.64l-.31-1.36a.79.79,0,0,0-.63.49q-.79,1.16-1.49,2.37C717.9,216.07,716.43,217.93,716.75,218.76Z" transform="translate(-595.48 -91)"/><path class="cls-1" d="M716.37,218.94l.51,1.71c.21.7,1.3-.84,1.19-1.3l-.45-1.81C717.45,216.87,716.22,218.44,716.37,218.94Z" transform="translate(-595.48 -91)"/><path class="cls-1" d="M717.22,220.51l.57,1.58a2.32,2.32,0,0,0,.86-1.24q1.2-2.52,2.3-5.08t2.15-5.14a2.32,2.32,0,0,0,.32-1.47l-.23-1.26a2.28,2.28,0,0,0-.89,1.19q-1.26,2.45-2.43,5t-2.29,5A2.28,2.28,0,0,0,717.22,220.51Z" transform="translate(-595.48 -91)"/><path class="cls-1" d="M732.89,222c.85,0-.69-1.38-.67-1.36q-1-1-2-1.87a3.65,3.65,0,0,0-1.16-.84c-.85,0,.69,1.38.67,1.36q1,1,2,1.87A3.65,3.65,0,0,0,732.89,222Z" transform="translate(-595.48 -91)"/><path class="cls-1" d="M733.38,226c.72,0-1.13-2.79-1.78-2.79S732.73,226,733.38,226Z" transform="translate(-595.48 -91)"/><path class="cls-1" d="M730.65,219.39a2,2,0,0,0-.82-1.14q-1.86-1.81-3.8-3.53t-3.91-3.41a2,2,0,0,0-1.22-.7,2,2,0,0,0,.82,1.14q1.86,1.81,3.8,3.53t3.91,3.41A2,2,0,0,0,730.65,219.39Z" transform="translate(-595.48 -91)"/><path class="cls-1" d="M730.87,221.41a1.44,1.44,0,0,0-.53-1q-1.34-1.62-2.76-3.18t-2.88-3.07a.6.6,0,1,0-.44.4q1.34,1.62,2.76,3.18t2.88,3.07A1.44,1.44,0,0,0,730.87,221.41Z" transform="translate(-595.48 -91)"/><path class="cls-1" d="M733.56,221.54c.71,0-.35-1-.35-1-.45-.43-1.46-1.57-2.16-1.57s.35,1,.35,1C731.85,220.4,732.86,221.54,733.56,221.54Z" transform="translate(-595.48 -91)"/><path class="cls-1" d="M730.51,218.76a1.36,1.36,0,0,0-.63-.92q-1.5-1.38-3.06-2.68t-3.17-2.56a.58.58,0,1,0-.38.46q1.5,1.38,3.06,2.68t3.17,2.56A1.36,1.36,0,0,0,730.51,218.76Z" transform="translate(-595.48 -91)"/><path class="cls-1" d="M731.49,223a1.8,1.8,0,0,0-.58-1.17q-1.46-1.91-3-3.75t-3.13-3.65a.67.67,0,1,0-.46.38q1.46,1.91,3,3.75t3.13,3.65A1.8,1.8,0,0,0,731.49,223Z" transform="translate(-595.48 -91)"/><path class="cls-1" d="M732.47,220.15c.6,0-.16-.8-.2-.83-.35-.37-1.09-1.08-1.65-1.08s.16.8.2.83C731.17,219.44,731.91,220.15,732.47,220.15Z" transform="translate(-595.48 -91)"/><path class="cls-1" d="M731.14,221a2.48,2.48,0,0,0-.86-1.31q-2-2.13-4-4.19t-4.1-4.08a2.48,2.48,0,0,0-1.28-.89,2.48,2.48,0,0,0,.86,1.31q2,2.13,4,4.19t4.1,4.08A2.48,2.48,0,0,0,731.14,221Z" transform="translate(-595.48 -91)"/><path class="cls-1" d="M730.94,220.18c.9,0-.83-1.5-.8-1.48q-1.1-1.08-2.25-2.1a4.56,4.56,0,0,0-1.29-1c-.9,0,.83,1.5.8,1.48q1.1,1.08,2.25,2.1A4.56,4.56,0,0,0,730.94,220.18Z" transform="translate(-595.48 -91)"/><path class="cls-1" d="M733.36,220c.56,0-.13-.74-.16-.77a2.55,2.55,0,0,0-1.48-.84c-.56,0,.13.74.16.77A2.55,2.55,0,0,0,733.36,220Z" transform="translate(-595.48 -91)"/><path class="cls-1" d="M730.74,221.81a2,2,0,0,0-.66-1.23q-1.6-2-3.29-4t-3.41-3.87a2,2,0,0,0-1.12-.85,2,2,0,0,0,.66,1.23q1.6,2,3.29,4t3.41,3.87A2,2,0,0,0,730.74,221.81Z" transform="translate(-595.48 -91)"/><path class="cls-1" d="M731.26,229.62c.85,0-.69-1.38-.67-1.36q-1-1-2-1.87a3.65,3.65,0,0,0-1.16-.84c-.85,0,.69,1.38.67,1.36q1,1,2,1.87A3.65,3.65,0,0,0,731.26,229.62Z" transform="translate(-595.48 -91)"/><path class="cls-1" d="M731.75,233.65c.72,0-1.13-2.79-1.78-2.79S731.1,233.65,731.75,233.65Z" transform="translate(-595.48 -91)"/><path class="cls-1" d="M729,227a2,2,0,0,0-.82-1.14q-1.86-1.81-3.8-3.53t-3.91-3.41a2,2,0,0,0-1.22-.7,2,2,0,0,0,.82,1.14q1.86,1.81,3.8,3.53t3.91,3.41A2,2,0,0,0,729,227Z" transform="translate(-595.48 -91)"/><path class="cls-1" d="M729.24,229a1.44,1.44,0,0,0-.53-1q-1.34-1.62-2.76-3.18t-2.88-3.07a.6.6,0,1,0-.44.4q1.34,1.62,2.76,3.18t2.88,3.07A1.44,1.44,0,0,0,729.24,229Z" transform="translate(-595.48 -91)"/><path class="cls-1" d="M731.93,229.15c.71,0-.35-1-.35-1-.45-.43-1.46-1.57-2.16-1.57s.35,1,.35,1C730.22,228,731.23,229.15,731.93,229.15Z" transform="translate(-595.48 -91)"/><path class="cls-1" d="M728.88,226.36a1.36,1.36,0,0,0-.63-.92q-1.5-1.38-3.06-2.68T722,220.21a.58.58,0,1,0-.38.46q1.5,1.38,3.06,2.68t3.17,2.56A1.36,1.36,0,0,0,728.88,226.36Z" transform="translate(-595.48 -91)"/><path class="cls-1" d="M729.86,230.61a1.8,1.8,0,0,0-.58-1.17q-1.46-1.91-3-3.75T723.14,222a.67.67,0,1,0-.46.38q1.46,1.91,3,3.75t3.13,3.65A1.8,1.8,0,0,0,729.86,230.61Z" transform="translate(-595.48 -91)"/><path class="cls-1" d="M730.84,227.75c.6,0-.16-.8-.2-.83-.35-.37-1.09-1.08-1.65-1.08s.16.8.2.83C729.54,227,730.28,227.75,730.84,227.75Z" transform="translate(-595.48 -91)"/><path class="cls-1" d="M729.51,228.57a2.48,2.48,0,0,0-.86-1.31q-2-2.13-4-4.19t-4.1-4.08a2.48,2.48,0,0,0-1.28-.89,2.48,2.48,0,0,0,.86,1.31q2,2.13,4,4.19t4.1,4.08A2.48,2.48,0,0,0,729.51,228.57Z" transform="translate(-595.48 -91)"/><path class="cls-1" d="M729.31,227.78c.9,0-.83-1.5-.8-1.48q-1.1-1.08-2.25-2.1a4.56,4.56,0,0,0-1.29-1c-.9,0,.83,1.5.8,1.48q1.1,1.08,2.25,2.1A4.56,4.56,0,0,0,729.31,227.78Z" transform="translate(-595.48 -91)"/><path class="cls-1" d="M731.73,227.65c.56,0-.13-.74-.16-.77a2.55,2.55,0,0,0-1.48-.84c-.56,0,.13.74.16.77A2.55,2.55,0,0,0,731.73,227.65Z" transform="translate(-595.48 -91)"/><path class="cls-1" d="M729.11,229.41a2,2,0,0,0-.66-1.23q-1.6-2-3.29-4t-3.41-3.87a2,2,0,0,0-1.12-.85,2,2,0,0,0,.66,1.23q1.6,2,3.29,4t3.41,3.87A2,2,0,0,0,729.11,229.41Z" transform="translate(-595.48 -91)"/><path class="cls-1" d="M730.72,224.19c.85,0-.69-1.38-.67-1.36q-1-1-2-1.87a3.65,3.65,0,0,0-1.16-.84c-.85,0,.69,1.38.67,1.36q1,1,2,1.87A3.65,3.65,0,0,0,730.72,224.19Z" transform="translate(-595.48 -91)"/><path class="cls-1" d="M731.21,228.22c.72,0-1.13-2.79-1.78-2.79S730.55,228.22,731.21,228.22Z" transform="translate(-595.48 -91)"/><path class="cls-1" d="M728.48,221.56a2,2,0,0,0-.82-1.14q-1.86-1.81-3.8-3.53t-3.91-3.41a2,2,0,0,0-1.22-.7,2,2,0,0,0,.82,1.14q1.86,1.81,3.8,3.53t3.91,3.41A2,2,0,0,0,728.48,221.56Z" transform="translate(-595.48 -91)"/><path class="cls-1" d="M728.69,223.59a1.44,1.44,0,0,0-.53-1q-1.34-1.62-2.76-3.18t-2.88-3.07a.6.6,0,1,0-.44.4q1.34,1.62,2.76,3.18t2.88,3.07A1.44,1.44,0,0,0,728.69,223.59Z" transform="translate(-595.48 -91)"/><path class="cls-1" d="M731.39,223.71c.71,0-.35-1-.35-1-.45-.43-1.46-1.57-2.16-1.57s.35,1,.35,1C729.68,222.57,730.69,223.71,731.39,223.71Z" transform="translate(-595.48 -91)"/><path class="cls-1" d="M728.34,220.93a1.36,1.36,0,0,0-.63-.92q-1.5-1.38-3.06-2.68t-3.17-2.56a.58.58,0,1,0-.38.46q1.5,1.38,3.06,2.68t3.17,2.56A1.36,1.36,0,0,0,728.34,220.93Z" transform="translate(-595.48 -91)"/><path class="cls-1" d="M729.32,225.18a1.8,1.8,0,0,0-.58-1.17q-1.46-1.91-3-3.75t-3.13-3.65a.67.67,0,1,0-.46.38q1.46,1.91,3,3.75t3.13,3.65A1.8,1.8,0,0,0,729.32,225.18Z" transform="translate(-595.48 -91)"/><path class="cls-1" d="M730.3,222.32c.6,0-.16-.8-.2-.83-.35-.37-1.09-1.08-1.65-1.08s.16.8.2.83C729,221.61,729.74,222.32,730.3,222.32Z" transform="translate(-595.48 -91)"/><path class="cls-1" d="M729,223.13a2.48,2.48,0,0,0-.86-1.31q-2-2.13-4-4.19t-4.1-4.08a2.48,2.48,0,0,0-1.28-.89,2.48,2.48,0,0,0,.86,1.31q2,2.13,4,4.19t4.1,4.08A2.48,2.48,0,0,0,729,223.13Z" transform="translate(-595.48 -91)"/><path class="cls-1" d="M728.76,222.35c.9,0-.83-1.5-.8-1.48q-1.1-1.08-2.25-2.1a4.56,4.56,0,0,0-1.29-1c-.9,0,.83,1.5.8,1.48q1.1,1.08,2.25,2.1A4.56,4.56,0,0,0,728.76,222.35Z" transform="translate(-595.48 -91)"/><path class="cls-1" d="M731.19,222.22c.56,0-.13-.74-.16-.77a2.55,2.55,0,0,0-1.48-.84c-.56,0,.13.74.16.77A2.55,2.55,0,0,0,731.19,222.22Z" transform="translate(-595.48 -91)"/><path class="cls-1" d="M728.56,224a2,2,0,0,0-.66-1.23q-1.6-2-3.29-4t-3.41-3.87a2,2,0,0,0-1.12-.85,2,2,0,0,0,.66,1.23q1.6,2,3.29,4t3.41,3.87A2,2,0,0,0,728.56,224Z" transform="translate(-595.48 -91)"/><path class="cls-1" d="M732.35,218.76c.85,0-.69-1.38-.67-1.36q-1-1-2-1.87a3.65,3.65,0,0,0-1.16-.84c-.85,0,.69,1.38.67,1.36q1,1,2,1.87A3.65,3.65,0,0,0,732.35,218.76Z" transform="translate(-595.48 -91)"/><path class="cls-1" d="M732.84,222.79c.72,0-1.13-2.79-1.78-2.79S732.18,222.79,732.84,222.79Z" transform="translate(-595.48 -91)"/><path class="cls-1" d="M730.11,216.13a2,2,0,0,0-.82-1.14q-1.86-1.81-3.8-3.53T721.57,208a2,2,0,0,0-1.22-.7,2,2,0,0,0,.82,1.14Q723,210.29,725,212t3.91,3.41A2,2,0,0,0,730.11,216.13Z" transform="translate(-595.48 -91)"/><path class="cls-1" d="M730.32,218.15a1.44,1.44,0,0,0-.53-1q-1.34-1.62-2.76-3.18t-2.88-3.07a.6.6,0,1,0-.44.4q1.34,1.62,2.76,3.18t2.88,3.07A1.44,1.44,0,0,0,730.32,218.15Z" transform="translate(-595.48 -91)"/><path class="cls-1" d="M733,218.28c.71,0-.35-1-.35-1-.45-.43-1.46-1.57-2.16-1.57s.35,1,.35,1C731.31,217.14,732.32,218.28,733,218.28Z" transform="translate(-595.48 -91)"/><path class="cls-1" d="M730,215.5a1.36,1.36,0,0,0-.63-.92q-1.5-1.38-3.06-2.68t-3.17-2.56a.58.58,0,1,0-.38.46q1.5,1.38,3.06,2.68T729,215A1.36,1.36,0,0,0,730,215.5Z" transform="translate(-595.48 -91)"/><path class="cls-1" d="M730.95,219.74a1.8,1.8,0,0,0-.58-1.17q-1.46-1.91-3-3.75t-3.13-3.65a.67.67,0,1,0-.46.38q1.46,1.91,3,3.75t3.13,3.65A1.8,1.8,0,0,0,730.95,219.74Z" transform="translate(-595.48 -91)"/><path class="cls-1" d="M731.93,216.89c.6,0-.16-.8-.2-.83-.35-.37-1.09-1.08-1.65-1.08s.16.8.2.83C730.63,216.18,731.37,216.89,731.93,216.89Z" transform="translate(-595.48 -91)"/><path class="cls-1" d="M730.6,217.7a2.48,2.48,0,0,0-.86-1.31q-2-2.13-4-4.19t-4.1-4.08a2.48,2.48,0,0,0-1.28-.89,2.48,2.48,0,0,0,.86,1.31q2,2.13,4,4.19t4.1,4.08A2.48,2.48,0,0,0,730.6,217.7Z" transform="translate(-595.48 -91)"/><path class="cls-1" d="M730.39,216.91c.9,0-.83-1.5-.8-1.48q-1.1-1.08-2.25-2.1a4.56,4.56,0,0,0-1.29-1c-.9,0,.83,1.5.8,1.48q1.1,1.08,2.25,2.1A4.56,4.56,0,0,0,730.39,216.91Z" transform="translate(-595.48 -91)"/><path class="cls-1" d="M732.82,216.78c.56,0-.13-.74-.16-.77a2.55,2.55,0,0,0-1.48-.84c-.56,0,.13.74.16.77A2.55,2.55,0,0,0,732.82,216.78Z" transform="translate(-595.48 -91)"/><path class="cls-1" d="M730.19,218.55a2,2,0,0,0-.66-1.23q-1.6-2-3.29-4t-3.41-3.87a2,2,0,0,0-1.12-.85,2,2,0,0,0,.66,1.23q1.6,2,3.29,4t3.41,3.87A2,2,0,0,0,730.19,218.55Z" transform="translate(-595.48 -91)"/><path class="cls-1" d="M711.25,222l0,.51c.06.76,1.11-.5,1.13-.52.51-.55,2-1.82,2-2.65V219c0-.77-1.15.46-1.13.45C712.86,219.9,711.19,221.25,711.25,222Z" transform="translate(-595.48 -91)"/><path class="cls-1" d="M710.19,225.83l0,.58c0,.64.86-.27.85-.26a3.82,3.82,0,0,0,1.09-1.78l.1-.68c.1-.67-.93.35-.87.28A3.78,3.78,0,0,0,710.19,225.83Z" transform="translate(-595.48 -91)"/><path class="cls-1" d="M712.54,219.35l0,.56a2,2,0,0,0,1.2-.73q1.93-1.72,3.79-3.51t3.68-3.63a2,2,0,0,0,.78-1.16l.05-.28a2,2,0,0,0-1.2.7q-1.95,1.66-3.82,3.41t-3.72,3.52A2,2,0,0,0,712.54,219.35Z" transform="translate(-595.48 -91)"/><path class="cls-1" d="M711.22,221.52l0,.57a1.66,1.66,0,0,0,1-.68q1.64-1.6,3.19-3.28t3.08-3.39a1.66,1.66,0,0,0,.61-1.09l.05-.27a1.62,1.62,0,0,0-1.05.64q-1.65,1.54-3.22,3.16t-3.11,3.27A1.62,1.62,0,0,0,711.22,221.52Z" transform="translate(-595.48 -91)"/><path class="cls-1" d="M710.53,221.62l0,.59c0,.56.74,0,.8-.05a2.78,2.78,0,0,0,1.11-1.38l.11-.6c.1-.57-.79,0-.81.05C711.31,220.51,710.57,221.11,710.53,221.62Z" transform="translate(-595.48 -91)"/><path class="cls-1" d="M712.19,218.78v.58a1.45,1.45,0,0,0,1-.5q1.66-1.3,3.26-2.69t3.15-2.81a1.45,1.45,0,0,0,.66-1l.05-.28a1.42,1.42,0,0,0-1,.47q-1.67,1.24-3.28,2.57t-3.18,2.69A1.42,1.42,0,0,0,712.19,218.78Z" transform="translate(-595.48 -91)"/><path class="cls-1" d="M711.47,223l0,.57a1.84,1.84,0,0,0,1-.82q1.13-1.3,2.2-2.65,1.36-1.67,2.68-3.37a15.52,15.52,0,0,0,1.72-2.44l.12-.64a1.8,1.8,0,0,0-1,.79q-1.61,1.79-3.14,3.65t-3,3.75A1.8,1.8,0,0,0,711.47,223Z" transform="translate(-595.48 -91)"/><path class="cls-1" d="M709.67,219.74l0,.52c0,.76,2.66-1.12,2.66-1.73v-.33C712.37,217.43,709.64,219.14,709.67,219.74Z" transform="translate(-595.48 -91)"/><path class="cls-1" d="M712.4,220.83l0,.55a2.37,2.37,0,0,0,1.22-.91q2-2,3.83-4.15t3.71-4.25a2.37,2.37,0,0,0,.78-1.31l.06-.3a2.33,2.33,0,0,0-1.23.88q-2,2-3.86,4t-3.75,4.15A2.33,2.33,0,0,0,712.4,220.83Z" transform="translate(-595.48 -91)"/><path class="cls-1" d="M710.73,220.16v.58a.88.88,0,0,0,.8-.32q.85-.66,1.65-1.39,1-.88,2-1.81a6.17,6.17,0,0,0,1.27-1.38l0-.26c.14-.86-2.21,1.14-2.42,1.31-.84.68-1.67,1.38-2.47,2.11C711.31,219.28,710.73,219.7,710.73,220.16Z" transform="translate(-595.48 -91)"/><path class="cls-1" d="M709.86,219.8l-.06.59c-.08.76,1.67-.47,1.77-.9l.17-.67C711.88,218.25,709.93,219.18,709.86,219.8Z" transform="translate(-595.48 -91)"/><path class="cls-1" d="M711.43,222l0,.57a2.26,2.26,0,0,0,1.19-.89q1.89-2,3.7-4.06t3.59-4.16a2.26,2.26,0,0,0,.74-1.29l.06-.3a2.22,2.22,0,0,0-1.19.86q-1.91,1.94-3.74,3.95t-3.62,4.06A2.22,2.22,0,0,0,711.43,222Z" transform="translate(-595.48 -91)"/><path class="cls-1" d="M717.69,229.54l.55.86c.43.67.77-1.09.77-1.11.2-.77,1-2.81.55-3.59l-.31-.59c-.37-.7-.83,1-.83,1C718.23,226.73,717.29,228.91,717.69,229.54Z" transform="translate(-595.48 -91)"/><path class="cls-1" d="M717,233.6l.53,1c.34.64.72-.85.72-.83.18-.66.71-2.1.39-2.79l-.42-.89c-.31-.66-.75.8-.74.79C717.34,231.47,716.72,233,717,233.6Z" transform="translate(-595.48 -91)"/><path class="cls-1" d="M718,226.23l.58,1a2,2,0,0,0,.69-1.2q.85-2.4,1.6-4.83t1.45-4.88a2,2,0,0,0,.12-1.38l-.26-.75a1.94,1.94,0,0,0-.72,1.16q-.91,2.34-1.72,4.72t-1.57,4.78A1.94,1.94,0,0,0,718,226.23Z" transform="translate(-595.48 -91)"/><path class="cls-1" d="M717.08,228.75l.57,1a1.66,1.66,0,0,0,.64-1.07q.76-2.16,1.42-4.35T721,220a1.66,1.66,0,0,0,.07-1.25l-.23-.72a1.61,1.61,0,0,0-.67,1q-.83,2.09-1.56,4.23t-1.41,4.28A1.61,1.61,0,0,0,717.08,228.75Z" transform="translate(-595.48 -91)"/><path class="cls-1" d="M717.36,229.55l.51,1.07c.25.53.65-.44.67-.5a3,3,0,0,0,.27-1.87l-.42-1c-.23-.53-.66.38-.69.45C717.51,228.16,717.14,229.09,717.36,229.55Z" transform="translate(-595.48 -91)"/><path class="cls-1" d="M717.72,225.69l.55,1.06a1.33,1.33,0,0,0,.63-.91q.75-1.86,1.4-3.76c.36-1,1.74-3.67,1.32-4.92l-.26-.75a1.29,1.29,0,0,0-.66.86q-.81,1.8-1.51,3.64C718.89,221.64,717.21,224.7,717.72,225.69Z" transform="translate(-595.48 -91)"/><path class="cls-1" d="M717.39,230.38l.55,1.11a2,2,0,0,0,.62-1.25q.72-2.47,1.34-5t1.19-5a2,2,0,0,0,0-1.4l-.22-.78a2,2,0,0,0-.66,1.2q-.79,2.4-1.47,4.83T717.48,229A2,2,0,0,0,717.39,230.38Z" transform="translate(-595.48 -91)"/><path class="cls-1" d="M716.21,227.8l.52,1c.34.64,1.4-1.81,1.15-2.32l-.37-.76C717.18,225,715.94,227.31,716.21,227.8Z" transform="translate(-595.48 -91)"/><path class="cls-1" d="M717.92,228l.59,1a2.46,2.46,0,0,0,.69-1.4q.85-2.76,1.59-5.54t1.44-5.58a2.46,2.46,0,0,0,.11-1.55l-.25-.78a2.42,2.42,0,0,0-.72,1.36q-.91,2.71-1.72,5.44t-1.57,5.49A2.42,2.42,0,0,0,717.92,228Z" transform="translate(-595.48 -91)"/><path class="cls-1" d="M716.81,227.52l.54,1a.79.79,0,0,0,.52-.61q.39-.91.71-1.85.43-1.16.8-2.34a5.24,5.24,0,0,0,.39-1.68l-.25-.71c-.28-.81-1.35,1.88-1.44,2.09-.38.91-.79,1.83-1.09,2.78C716.87,226.58,716.59,227.11,716.81,227.52Z" transform="translate(-595.48 -91)"/><path class="cls-1" d="M716.69,227.87l.5,1.2c.27.64,1.1-.9,1-1.23l-.52-1.5C717.46,225.73,716.48,227.36,716.69,227.87Z" transform="translate(-595.48 -91)"/><path class="cls-1" d="M717.19,229.24l.57,1.07a2.33,2.33,0,0,0,.71-1.34q.89-2.65,1.67-5.34t1.51-5.38a2.33,2.33,0,0,0,.14-1.51l-.25-.8a2.29,2.29,0,0,0-.74,1.3q-.95,2.6-1.79,5.23t-1.64,5.28A2.29,2.29,0,0,0,717.19,229.24Z" transform="translate(-595.48 -91)"/><path class="cls-1" d="M731.81,230.17c.85,0-.69-1.38-.67-1.36q-1-1-2-1.87a3.65,3.65,0,0,0-1.16-.84c-.85,0,.69,1.38.67,1.36q1,1,2,1.87A3.65,3.65,0,0,0,731.81,230.17Z" transform="translate(-595.48 -91)"/><path class="cls-1" d="M732.29,234.2c.72,0-1.13-2.79-1.78-2.79S731.64,234.2,732.29,234.2Z" transform="translate(-595.48 -91)"/><path class="cls-1" d="M729.56,227.54a2,2,0,0,0-.82-1.14q-1.86-1.81-3.8-3.53T721,219.45a2,2,0,0,0-1.22-.7,2,2,0,0,0,.82,1.14q1.86,1.81,3.8,3.53t3.91,3.41A2,2,0,0,0,729.56,227.54Z" transform="translate(-595.48 -91)"/><path class="cls-1" d="M729.78,229.56a1.44,1.44,0,0,0-.53-1q-1.34-1.62-2.76-3.18t-2.88-3.07a.6.6,0,1,0-.44.4q1.34,1.62,2.76,3.18t2.88,3.07A1.44,1.44,0,0,0,729.78,229.56Z" transform="translate(-595.48 -91)"/><path class="cls-1" d="M732.47,229.69c.71,0-.35-1-.35-1-.45-.43-1.46-1.57-2.16-1.57s.35,1,.35,1C730.77,228.55,731.77,229.69,732.47,229.69Z" transform="translate(-595.48 -91)"/><path class="cls-1" d="M729.43,226.91a1.36,1.36,0,0,0-.63-.92q-1.5-1.38-3.06-2.68t-3.17-2.56a.58.58,0,1,0-.38.46q1.5,1.38,3.06,2.68t3.17,2.56A1.36,1.36,0,0,0,729.43,226.91Z" transform="translate(-595.48 -91)"/><path class="cls-1" d="M730.41,231.15a1.8,1.8,0,0,0-.58-1.17q-1.46-1.91-3-3.75t-3.13-3.65a.67.67,0,1,0-.46.38q1.46,1.91,3,3.75t3.13,3.65A1.8,1.8,0,0,0,730.41,231.15Z" transform="translate(-595.48 -91)"/><path class="cls-1" d="M731.38,228.3c.6,0-.16-.8-.2-.83-.35-.37-1.09-1.08-1.65-1.08s.16.8.2.83C730.08,227.59,730.83,228.3,731.38,228.3Z" transform="translate(-595.48 -91)"/><path class="cls-1" d="M730.06,229.11a2.48,2.48,0,0,0-.86-1.31q-2-2.13-4-4.19t-4.1-4.08a2.48,2.48,0,0,0-1.28-.89,2.48,2.48,0,0,0,.86,1.31q2,2.13,4,4.19t4.1,4.08A2.48,2.48,0,0,0,730.06,229.11Z" transform="translate(-595.48 -91)"/><path class="cls-1" d="M729.85,228.33c.9,0-.83-1.5-.8-1.48q-1.1-1.08-2.25-2.1a4.56,4.56,0,0,0-1.29-1c-.9,0,.83,1.5.8,1.48q1.1,1.08,2.25,2.1A4.56,4.56,0,0,0,729.85,228.33Z" transform="translate(-595.48 -91)"/><path class="cls-1" d="M732.28,228.19c.56,0-.13-.74-.16-.77a2.55,2.55,0,0,0-1.48-.84c-.56,0,.13.74.16.77A2.55,2.55,0,0,0,732.28,228.19Z" transform="translate(-595.48 -91)"/><path class="cls-1" d="M729.65,230a2,2,0,0,0-.66-1.23q-1.6-2-3.29-4t-3.41-3.87a2,2,0,0,0-1.12-.85,2,2,0,0,0,.66,1.23q1.6,2,3.29,4t3.41,3.87A2,2,0,0,0,729.65,230Z" transform="translate(-595.48 -91)"/><path class="cls-1" d="M719.54,233.86c4.31,1.8,9.8-.56,12.4-4.28l2-3.55,1.16-3.85-.33-4.23a11.91,11.91,0,0,0-2.45-5.46,13.25,13.25,0,0,0-3.91-4,17.58,17.58,0,0,0-3.61-1.48l-4,.58a12,12,0,0,0-5.21,2.8c-1.69,1.32-2.76,2-3.85,4.17a19.86,19.86,0,0,0-1.33,3.73,21,21,0,0,0,.86,4,17,17,0,0,0,8.06,9,9,9,0,0,0,9.32-.58,14.74,14.74,0,0,0,2.32-1.84,2.88,2.88,0,0,0,.94-1.4,5.42,5.42,0,0,0,1.16-4.43c0-.25-3.72,0-3.85.88q-.18,7.66-12.06,2.86a16.45,16.45,0,0,1-4-5.59q1-9.54,8.73-11.41,9.12,1.27,9.71,8.62c.34,3.68-1,8.34-4.24,10.46a5.78,5.78,0,0,1-6.3.35C720.73,229,718.75,233.53,719.54,233.86Z" transform="translate(-595.48 -91)"/><path class="cls-1" d="M718.86,237.9a10.69,10.69,0,0,0,7.52-.21,14.76,14.76,0,0,0,5.08-3.42,13.2,13.2,0,0,0,3.92-5.43l1.37-4.09a3.22,3.22,0,0,0-.44-2.51,13.66,13.66,0,0,0-2.55-6.53l-2.87-3.43a9.49,9.49,0,0,0-5.47-3.09,6.08,6.08,0,0,0-2.12-.62l-3.86,1.17a18.5,18.5,0,0,0-6.62,4.77c-1.45,1.76-3.55,4.61-3.45,7.08a20.16,20.16,0,0,0,1,4.1,23.84,23.84,0,0,0,2.19,3.92l2.95,3.2a9.35,9.35,0,0,0,5.52,2.89,3.21,3.21,0,0,0,2.13.48l3.18-.78a14,14,0,0,0,5.78-3.86c1.74-2.1,1.83-3.35,2.22-6.06.08-.53-.84-.73-1-.21a10.6,10.6,0,0,1-4.77,7.1q-7.1,4.37-12.2-.69l-2.9-2.9Q719.8,201.6,730.65,213c3.65,3.74,5.83,9.15,3.5,14.36-2.56,5.73-8.84,7.81-14.24,6.92C719.25,234.13,718.28,237.7,718.86,237.9Z" transform="translate(-595.48 -91)"/><path class="cls-1" d="M719.79,230.42a6.4,6.4,0,0,0,3.15,0,11.18,11.18,0,0,0,4.76-2.26l2.23-2.54a21.2,21.2,0,0,0,2.84-6.42c.15-3.2-2.69-6.84-5-8.68a8.22,8.22,0,0,0-6-2.35,7.07,7.07,0,0,0-4.35,1.84,8.25,8.25,0,0,0-3.2,3.46,10.54,10.54,0,0,0-1.63,6.05,11.33,11.33,0,0,0,5.61,7.53,10.39,10.39,0,0,0,6.07,1.63l2.37-.83a9.26,9.26,0,0,0,3.48-3.25,7.53,7.53,0,0,0,1.19-5.13c0-.32-.67-.7-.87-.83-1.56-1.07-3.27-1.95-4.93-2.86a19.53,19.53,0,0,0-3.15-1.63s-1.24-.45-.58.14l7.18,6.43-5.07-5.26-2.75,12.89,7.51-7.77-8.34,4.86,6.47-3.24-13.5-5.69,7.92,8.12-5.29-8.85,3.43,6.95,5.5-13.67-8.56,7.6,7-3.49-4.82,2,14,4.06L723,213.26q4.81,7.5,1.05,6.73l-.19,5.25.67-6.28c.05-.49-.06-.29-.33-.13l-.48.88q-.73,1.62-1.38,3.27c-.69,1.69-1.36,3.39-2,5.1C720.4,228,719.51,230.42,719.79,230.42Z" transform="translate(-595.48 -91)"/><path class="cls-1" d="M718.86,232.91a10,10,0,0,0,8.86-2.13l2.43-2.68a18,18,0,0,0,2.69-6.76c.15-3.31-2.16-7.07-4.62-9.09a8.87,8.87,0,0,0-10-1.27,7.65,7.65,0,0,0-3.54,2.65,10.5,10.5,0,0,0-2.42,5.46,11.79,11.79,0,0,0,3.94,8.43,9.37,9.37,0,0,0,5.62,2.55l2.49-.69a10.2,10.2,0,0,0,3.91-2.62,5.87,5.87,0,0,0,1.49-4.66c.07-.68-4.69-1.18-4.83-1.21a9.63,9.63,0,0,0-2.55-.31c-.26,0-.77,0-.38.35a1,1,0,0,1-1.31-.16q-1-.66-.06-1.68a2.19,2.19,0,0,0,.25-2.26q2.43,1.41,4.15-1.54l-1.48.74,2.49,1.53q2.06,4.7-1,6.06c-.93.35-1.74.47-1.94-1-.06-.42,0-.3-.33-.13l-.44.79q-.65,1.45-1.23,2.94C720.94,226.61,718.37,232.78,718.86,232.91Z" transform="translate(-595.48 -91)"/><path class="cls-1" d="M719.18,233.79c5,1.65,10-1.26,13.27-5a15.47,15.47,0,0,0,3-5.88,3.37,3.37,0,0,0,.7-2.25l-.5-4.15a12.77,12.77,0,0,0-2.84-5.66,12.14,12.14,0,0,0-4.35-4.18c-3.08-1.7-3.34-1.45-6-1a11.82,11.82,0,0,0-5.91,2.21l-3.2,2.66a11.22,11.22,0,0,0-3.42,7.17c0,2.36,1.87,6.21,3.29,8,2.54,3.14,5.9,5.9,10.07,6.3,1.75.17,4.81-1.07,6.22-2a17,17,0,0,0,2.59-2.11c1.76-2,1.89-3.29,2.36-5.91.15-.82-2.08,0-2.2.42q-4.38,12.71-15.22,5.32-9.23-12.77.39-18.08,6-4.38,12.81,1A11.36,11.36,0,0,1,732.8,215a9.14,9.14,0,0,1-.16,8.49,15.56,15.56,0,0,1-4.54,5.74,11.22,11.22,0,0,1-8.08,2.1C719.4,231.28,718.62,233.61,719.18,233.79Z" transform="translate(-595.48 -91)"/><path class="cls-1" d="M719.53,229.87a9,9,0,0,0,8.08-2l2.34-2.53a18.39,18.39,0,0,0,3-6.62c.18-3.29-2.45-7-4.79-9a7.77,7.77,0,0,0-6.07-2.48,7.18,7.18,0,0,0-4.46,1.59c-2.8,1.79-5.63,5.53-5.13,9.13a11.38,11.38,0,0,0,10.69,9.56l2.3-.65a9.26,9.26,0,0,0,3.49-2.79,6.87,6.87,0,0,0,1.48-4.88c.08-.72-5.48-1.57-5.64-1.6a12.78,12.78,0,0,0-3-.52c-.16,0-1-.06-.45.32l-1.1,9.32L725,220l-3.29,1.14h.87L714,215.44l7.08,5.62-2.24-5.17.55,2.12,2.25-7.91-2.55,7.3,8.5-6.86-6.35,4.28,4.46.59-.7-.69q3.17,7.12-.75,7.21-.77.22-.55-.89c0-.39-.09-.25-.32-.14l-.43.67q-.64,1.24-1.2,2.52C721.57,224.41,719.08,229.74,719.53,229.87Z" transform="translate(-595.48 -91)"/><path class="cls-1" d="M719.16,234.53a10,10,0,0,0,9.11-2.19c2.58-2.33,5-6.12,5.08-9.66.11-3.35-2.25-7.34-4.8-9.36a9,9,0,0,0-9.88-1.17,7.45,7.45,0,0,0-3.5,2.62,9.53,9.53,0,0,0,1.18,14.1,9.24,9.24,0,0,0,5.82,2.81l2.58-.73a10.66,10.66,0,0,0,4.07-2.77,5.79,5.79,0,0,0,1.4-4.79c.05-.76-4.66-1.54-4.88-1.59a10.14,10.14,0,0,0-2.6-.51c-.29,0-.77-.08-.42.32q1.59,2.4-1.56.15-1.48-1.3,0-3.53a1.21,1.21,0,0,1,.13-1.29q2.43,1.23,4.34-1.18l-1.24.55,2.18,1.82q2,4.65-1,5.8c-.94.29-1.23.24-1.94-.55l.1.34-.13-.94c-.06-.46,0-.32-.33-.11l-.43.91q-.62,1.67-1.18,3.36C721.12,227.38,718.64,234.4,719.16,234.53Z" transform="translate(-595.48 -91)"/><path class="cls-1" d="M718,232a10.2,10.2,0,0,0,6.93-.23,14.84,14.84,0,0,0,6.12-4.57l2.29-3.72,1.41-4.06-.47-4.07-1.57-3.78a22.6,22.6,0,0,0-2.45-3.23,20.77,20.77,0,0,0-3.14-2.47l-3.44-1.24a2.77,2.77,0,0,0-2.15.22A6.82,6.82,0,0,0,717.8,206a7.33,7.33,0,0,0-3.26,2,13.23,13.23,0,0,0-4.22,6.07,3.79,3.79,0,0,0-.24,3.83,7.94,7.94,0,0,0,1.29,3.88,15.46,15.46,0,0,0,4.91,6,8,8,0,0,0,3.5,1.86c2.32.86,1.39.8,3.58.48a13.11,13.11,0,0,0,5.9-2.38,5.24,5.24,0,0,0,2.28-2.23,6,6,0,0,0,1.7-4.58c.13-.57-.79,0-.83,0a3.12,3.12,0,0,0-1.31,1.34,9.38,9.38,0,0,1-2.13,3.89,9.54,9.54,0,0,1-3.29,2.07q-2.65,1.75-5.39-1.16a5.49,5.49,0,0,1-5.11-3.1,7.88,7.88,0,0,1-1.58-3,4,4,0,0,1,0-4.51,5.64,5.64,0,0,1,2.46-4.94,12.94,12.94,0,0,1,5.3-2.78l9.47,4.7,1.27,2.78.46,3a13.12,13.12,0,0,1-2.11,4.8c-2.35,3.86-6,6.66-11.25,5.67C718.55,229.57,717.51,231.87,718,232Z" transform="translate(-595.48 -91)"/><path class="cls-1" d="M719.73,232.15a7.46,7.46,0,0,0,3.32-.07,11.79,11.79,0,0,0,5-2.39l2.29-2.62a19.89,19.89,0,0,0,2.76-6.48c.12-3.3-2.9-7.22-5.36-9.07a8.54,8.54,0,0,0-6.07-2.19,6.93,6.93,0,0,0-4.27,2,8.55,8.55,0,0,0-3.15,3.59,8.83,8.83,0,0,0,3.84,13.38,11,11,0,0,0,6.13,1.74l2.45-.87a9.52,9.52,0,0,0,3.59-3.3,7.09,7.09,0,0,0,1.1-5.12c0-.35-.66-.74-.87-.9-1.58-1.19-3.32-2.19-5-3.22a21.19,21.19,0,0,0-3.2-1.86s-1.28-.53-.61.11l8.59,8.09-6.53-7-2.6,13.35,7.32-8.87-8.29,6,6.44-4.05L713.28,218l7.42,7.81L715.78,217l3,6.46,6.08-13.65-9,6.2,9.39-3.3-7.06,2,14.48,5.83L723.35,214l1.16,2.25-.07-.33q2,5.09-.38,4.16l-.13,6.06.57-7.16c0-.46-.07-.42-.33-.11l-.49,1q-.73,1.88-1.38,3.78c-.69,1.95-1.37,3.9-2,5.87C720.33,229.39,719.45,232.15,719.73,232.15Z" transform="translate(-595.48 -91)"/><path class="cls-1" d="M718.57,231.67c6.92,2.6,14.13-4.53,14.74-11.21.32-3.47-1.54-7.43-4-9.8a10.88,10.88,0,0,0-5.88-3.16,9.13,9.13,0,0,0-5.12,1,9.31,9.31,0,0,0-4.27,2.72,11.23,11.23,0,0,0-3,5.87l.65,3.54a13.48,13.48,0,0,0,3.75,5.76,14.6,14.6,0,0,0,6,3.05L724,229a9.59,9.59,0,0,0,4.31-2.46,6.05,6.05,0,0,0,1.72-4.9c0-.35-5.95.36-5.72,1.1q1.22,2.31-2.21.71a3.93,3.93,0,0,1-3.8-1.32,6.33,6.33,0,0,1-1.29-3.69c0-1.5,2.16-4.35,3.74-4.79l1.95-.26a22.48,22.48,0,0,0,3.37,1.22c3.53,1,3,5.55,2,8.3a5.16,5.16,0,0,1-3.47,3.53,2.87,2.87,0,0,1-3.14-1.13c-.25-.32-1.85,3.12-1.8,3S718,231.48,718.57,231.67Z" transform="translate(-595.48 -91)"/><path class="cls-1" d="M718.5,232.1a10.59,10.59,0,0,0,7-.35c4.65-1.74,7.82-6.11,9.46-10.6a2.72,2.72,0,0,0,.74-2.26l-.52-4a16.8,16.8,0,0,0-4.15-7.11c-2.88-3.16-7-4.71-11.13-3.24a15.82,15.82,0,0,0-7.87,5.81c-1.13,1.6-2.58,3.4-2.48,5.52l1,4a6.49,6.49,0,0,0,1,2,17.84,17.84,0,0,0,3.76,5,19.51,19.51,0,0,0,3.5,2.42,18.26,18.26,0,0,0,4.17,1,13.59,13.59,0,0,0,5.75-2l2.58-2a8.6,8.6,0,0,0,2.62-6.15c.15-.71-1.91.32-2,.83a7.53,7.53,0,0,1-2,4.57l-2,1.84q-23-7.76-12.8-16.57a11.83,11.83,0,0,1,4.28-2.56q4.89-2.63,10.21,1.77a10.47,10.47,0,0,1,2.84,4q2.31,3.68,0,8.18Q729,230,719.1,230.34C718.75,230.3,718,231.94,718.5,232.1Z" transform="translate(-595.48 -91)"/><path class="cls-1" d="M719,233.41a11,11,0,0,0,8.83-2.59l2.37-2.74a18.14,18.14,0,0,0,2.59-6.68c.09-3.39-2.68-7.34-5.24-9.3-3.28-2.51-6.87-2.85-10.25-.43-2.72,1.94-5.48,5.78-5.05,9.36a10.81,10.81,0,0,0,4.74,7.62,10.14,10.14,0,0,0,5.93,2l2.54-.84a9.81,9.81,0,0,0,3.77-3.1,6.45,6.45,0,0,0,1.16-5c0-.3-.63-.59-.81-.7a47.46,47.46,0,0,0-4.54-2.16,13.6,13.6,0,0,0-2.9-1.19c-.06,0-1.13-.28-.52.21L719.8,229.8l5.2-9.18-2.12,1.66.93-.51-10.49-.86,8.87,1.83-7.35-7.24,4.52,5.41-1.19-3.55.33,1.92,6-8.63L718,215.33l8,.63-1.84-.84,2.59,2.09-1.82-1.62q2.79,6.87-.62,6.23-.55.05-.59-.61l.08.37.11-.87c.06-.5-.06-.35-.33-.12l-.5,1q-.75,1.8-1.42,3.63C721.46,225.63,718.65,233.36,719,233.41Z" transform="translate(-595.48 -91)"/><path class="cls-2" d="M678.32,469.35c-35,0-64.56-10.59-64.56-23.12s29.56-23.11,64.56-23.11,64.56,10.58,64.56,23.11S713.32,469.35,678.32,469.35Z" transform="translate(-595.48 -91)"/><path d="M678.32,424.62c37.16,0,63.06,11.39,63.06,21.61s-25.9,21.61-63.06,21.61-63.06-11.39-63.06-21.61,25.9-21.61,63.06-21.61m0-3c-36.48,0-66.06,11-66.06,24.61s29.57,24.61,66.06,24.61,66.06-11,66.06-24.61-29.57-24.61-66.06-24.61Z" transform="translate(-595.48 -91)"/><path class="cls-2" d="M771,199.69q.07,3.28-.09,6.35l-49.31-1.13,9.08-68.7c8.34-4.6,13.32-10.4,13.32-16.72a12.6,12.6,0,0,0-1.15-5.19C753.28,124.78,769.9,149.29,771,199.69Z" transform="translate(-595.48 -91)"/><path class="cls-3" d="M721.59,204.92,770.89,206c-2.07,41.55-33.78,57.37-57.84,63.4Z" transform="translate(-595.48 -91)"/><path class="cls-2" d="M742.83,114.3a12.6,12.6,0,0,1,1.15,5.19c0,6.32-5,12.12-13.32,16.72l3.79-28.63A38.85,38.85,0,0,1,742.83,114.3Z" transform="translate(-595.48 -91)"/><path class="cls-2" d="M742.83,114.3a38.85,38.85,0,0,0-8.38-6.72l-3.79,28.63c-11.34,6.26-28.9,10.27-48.62,10.27-19.53,0-36.93-3.94-48.28-10.09l-3.33-28.82s-4.57,3.55-10.31,11.7c.26-14.81,27.89-26.78,61.93-26.78C712.17,92.5,737.28,101.88,742.83,114.3Z" transform="translate(-595.48 -91)"/><path d="M721,180.56a7.89,7.89,0,1,1-9-6.62A7.87,7.87,0,0,1,721,180.56Z" transform="translate(-595.48 -91)"/><path class="cls-2" d="M713.06,269.44,690.79,437.9,686,395.82V273.14A121.37,121.37,0,0,0,713.06,269.44Z" transform="translate(-595.48 -91)"/><path class="cls-3" d="M713.06,269.44a121.37,121.37,0,0,1-27,3.7v-.4h-12.7l-2.15.18A136.13,136.13,0,0,1,649,268.41l-7.54-65.32,80.13,1.83Z" transform="translate(-595.48 -91)"/><path class="cls-2" d="M673.32,273.14V387.88l-4.76,50L649,268.41a136.13,136.13,0,0,0,22.17,4.51C672.55,273.08,673.32,273.14,673.32,273.14Z" transform="translate(-595.48 -91)"/><path d="M659.08,180.56a7.89,7.89,0,1,1-9-6.62A7.87,7.87,0,0,1,659.08,180.56Z" transform="translate(-595.48 -91)"/><path class="cls-3" d="M641.46,203.09,649,268.41c-21.92-6.4-50.9-21.14-51.91-54.43q-.19-6.17-.06-11.91h.06Z" transform="translate(-595.48 -91)"/><path class="cls-2" d="M633.77,136.4l7.69,66.69-44.37-1H597c.82-43.31,13.59-69.33,23.1-82.79a1.93,1.93,0,0,0,0,.21C620.12,125.89,625.23,131.78,633.77,136.4Z" transform="translate(-595.48 -91)"/><path class="cls-2" d="M630.44,107.58l3.33,28.82c-8.54-4.62-13.65-10.5-13.65-16.9a1.93,1.93,0,0,1,0-.21C625.87,111.13,630.44,107.58,630.44,107.58Z" transform="translate(-595.48 -91)"/><path class="cls-4" d="M668.55,437.9l4.76-50V273.14s-.77-.06-2.15-.21A136.13,136.13,0,0,1,649,268.41c-21.92-6.4-50.9-21.14-51.91-54.43q-.19-6.17-.06-11.91c.82-43.31,13.59-69.33,23.1-82.79" transform="translate(-595.48 -91)"/><path class="cls-4" d="M690.79,437.9,686,395.82V273.14a121.37,121.37,0,0,0,27-3.7c24.06-6,55.76-21.84,57.84-63.4q.15-3.07.09-6.35c-1.08-50.4-17.7-74.91-28.15-85.39" transform="translate(-595.48 -91)"/><path class="cls-4" d="M742.83,114.3a12.6,12.6,0,0,1,1.15,5.19c0,6.32-5,12.12-13.32,16.72-11.34,6.26-28.9,10.27-48.62,10.27-19.53,0-36.93-3.94-48.28-10.09-8.54-4.62-13.65-10.5-13.65-16.9a1.93,1.93,0,0,1,0-.21c.26-14.81,27.89-26.78,61.93-26.78C712.17,92.5,737.28,101.88,742.83,114.3Z" transform="translate(-595.48 -91)"/><path class="cls-5" d="M659.08,180.56a7.89,7.89,0,1,1-9-6.62A7.87,7.87,0,0,1,659.08,180.56Z" transform="translate(-595.48 -91)"/><path class="cls-5" d="M721,180.56a7.89,7.89,0,1,1-9-6.62A7.87,7.87,0,0,1,721,180.56Z" transform="translate(-595.48 -91)"/><path class="cls-4" d="M699.61,224.59a18.68,18.68,0,0,1-34.83.33" transform="translate(-595.48 -91)"/><line class="cls-4" x1="77.84" y1="181.74" x2="90.54" y2="181.74"/><polyline class="cls-4" points="1.61 111.08 45.98 112.09 126.11 113.92 175.42 115.05 175.5 115.05"/><path class="cls-1" d="M729,212.8a11.23,11.23,0,0,0,4.16,6.21c2.57,1.86,5.8,1.73,8.63.66a20.57,20.57,0,0,0,8.82-6.92,12.24,12.24,0,0,0,2.46-5,5.78,5.78,0,0,0-.23-5.55,16.14,16.14,0,0,0-7-8.43,6.57,6.57,0,0,0-5.33-1.2,12.14,12.14,0,0,0-6,1.35,17.06,17.06,0,0,0-6.24,4.87,8.67,8.67,0,0,0-.32,10.17,24.77,24.77,0,0,0,5.35,6c1.89,1.4,3.86,2.7,6.28,2.89,2.23.18,4,.11,5.88-1.34a9,9,0,0,0,2.94-3.51l.75-1.57a8.36,8.36,0,0,0-1-5.52c-1.65-3.83-4.52-6.36-7.74-8.89a.23.23,0,0,0-.35,0l-1.81,3.76c-.09.18.14.72.4.59,2.64-1.25,1.83-.38,2.85-3.07.25-.66-2.47-.06-2.24.72l.37,1.26.1-.47-1.37.87.42.63q5-1,6.2,4.76l.71,2.72q-13.2,6.49-17.07-4.13l0-1.67c.29-3.42,4.23-5.55,7.11-6.71a14.35,14.35,0,0,1,6.77-.77,7.2,7.2,0,0,1,3.18,1.82,10.11,10.11,0,0,1,3.8,7,4.44,4.44,0,0,1-.81,3.91,10.59,10.59,0,0,1-2.65,3.5,12.36,12.36,0,0,1-7.64,3.81,3.55,3.55,0,0,1-4-1.44,9.47,9.47,0,0,1-2.77-5c-.2-.72-1,.65-1,.7C730.17,210.35,728.75,212.11,729,212.8Z" transform="translate(-595.48 -91)"/><path class="cls-1" d="M728.06,216.81c1.59,4.65,5.22,8.46,10.67,8.14,4-.23,8.1-3.25,10.72-6q1.38-1.57,2.64-3.24a18,18,0,0,0,3-7.34c0-2.37-2.19-6.14-3.58-7.91a20.25,20.25,0,0,0-3.1-3.17,17.81,17.81,0,0,0-7.22-3.65,19.74,19.74,0,0,0-4.22.79,20.19,20.19,0,0,0-7.15,4.22c-3.22,2.94-5.6,6.7-4,11.12a20.65,20.65,0,0,0,1.27,2.75,37.55,37.55,0,0,0,5.8,6.1,19.2,19.2,0,0,0,3.67,2.25c3.45,1.37,6.61,1.31,9.59-.86a10.1,10.1,0,0,0,4-5.61c.52-2.61-1.12-6.14-2.41-8.24-2.12-3.45-5.15-6-8.29-8.44,0,0-.45-.35-.49-.26l-2.64,5.88c0,.07.08.16.14.16,3.28,0,2.24.58,4.14-1.08.24-.21-.26-.83-.61-.46l-.4-4.07-.59-.34q11.82,26.57-1.64,21.15-16.52-6.56.11-23.92l7.42,1q14.71,11.88,3.19,21a15.61,15.61,0,0,1-4.59,3,14.05,14.05,0,0,1-4.77,1.7c-4.32,0-7.49-3.78-9-7.4C729.55,213.46,727.85,216.2,728.06,216.81Z" transform="translate(-595.48 -91)"/><path class="cls-1" d="M729.87,209.82c.86,3.09,2.51,6.21,5.93,7l2.86.36,2.75-1.15a16.6,16.6,0,0,0,5.51-5.16,10.68,10.68,0,0,0,1.57-2.62,15.2,15.2,0,0,0,1.68-4.41,11.34,11.34,0,0,0-2.58-5.57,14.53,14.53,0,0,0-6.19-4.1,3.15,3.15,0,0,0-3.11-.25,8.66,8.66,0,0,0-4.66,1.75,16.7,16.7,0,0,0-4.48,4.8A6.55,6.55,0,0,0,728.1,204a2.54,2.54,0,0,0,.39,2.44,10.41,10.41,0,0,0,3.93,5,11.65,11.65,0,0,0,4.64,1.87,9.74,9.74,0,0,0,6-1.09c1.51-.82,4-2.67,4.13-4.58l-.63-3-1.83-2.52c-1.78-2-5.34-3.08-7.69-4.14-.58-.26-3.26,5.23-3.27,5.25q-1.18,2.14-2.25,4.33a1.84,1.84,0,0,0-.35,1.28L735,214.3l.22-.24c2.44-3.24,3.61-7.9,5-11.54.09-.23.42-1,.22-1.23s-1.14,1.79-1.17,1.85c-.72,1.5-1.39,3-2,4.56-.45,1-1.48,2.71-1.49,3.88v1.3l3.87-9.69-2.5-4.84-5.57,10.29,5.09-5.62-3.23,3.32,8.25-5.3-6.66,3.36,11.92,3.22-9.13-6.69,1.62,12.14,1.13-10.17-11.3-2.41,7.63,9.21-3.08-6.95,1.88,5.22L740,194l-5.31,10.74,3.68-3.12-1,.36,11.56,1.85-10.34-2.73q3.25,2.61,1.3,4.53a1.17,1.17,0,0,0-1.17-.91l.1.36a10,10,0,0,0-.91-2.5,12.51,12.51,0,0,1-.56-3.24,2,2,0,0,0-1,.92q-1.55,2-3,4.08t-2.88,4.18A2,2,0,0,0,729.87,209.82Z" transform="translate(-595.48 -91)"/><path class="cls-1" d="M728.7,212.17c.88,3.13,2.64,6.32,6.12,7.1l3,.32,3.06-1.21a19.3,19.3,0,0,0,6.27-5.43c1.35-1.75,3.57-4.94,3.4-7.23a12.43,12.43,0,0,0-2.46-6,13,13,0,0,0-6.23-4.32,4,4,0,0,0-3.14-.38,8.65,8.65,0,0,0-4.73,1.28,15.55,15.55,0,0,0-4.87,4.47A5.63,5.63,0,0,0,728,204a2.1,2.1,0,0,0,.34,2.25,29.44,29.44,0,0,0,3.43,5.27,13.05,13.05,0,0,0,4,3.76,6.93,6.93,0,0,0,6.07-.21c1.68-.88,4.07-2.68,4.21-4.79l-.49-3.11L744,204.54c-1.46-2-4.3-3.46-6.4-4.69-.39-.23-1.17,3.83-1.15,3.73-.08.39-1,3.42-.41,3.88l3.43,2.52q.27.21.33-.13a15.14,15.14,0,0,0,1.37-7.69c-.05-.74.13-.65-.33-.64s-1,3.08-1,3.1l-.36,1.55q-.19,3-1.87-1.43l2.12,4.64-2-9.31-1.48,7.22a1.47,1.47,0,0,1,2.35-.28l3.45-.31a4.43,4.43,0,0,0-4.66.21q-2.12-2.51.26-5.06l1,.4q5.36-1.5,3.92,1.38a3.42,3.42,0,0,1,0,2.49,3.22,3.22,0,0,1-1.16,2.15c-1.54,1.39-3,.93-4.63.11l.12.32a21.32,21.32,0,0,0-1.21-2.73,12.15,12.15,0,0,1-.66-3.32,1.62,1.62,0,0,0-.91.83q-1.33,1.83-2.58,3.71t-2.45,3.8A1.62,1.62,0,0,0,728.7,212.17Z" transform="translate(-595.48 -91)"/><path class="cls-1" d="M728.38,212.63c1.3,3.39,3.45,6.39,7.2,7.43l3.42.57a16.19,16.19,0,0,0,6.85-2.83,21.79,21.79,0,0,0,7.51-9.26,8.1,8.1,0,0,0,.19-7.7l-1.87-3.56a17.28,17.28,0,0,0-5.77-5.26,6.51,6.51,0,0,0-5.67-1.22c-4.83.41-9.95,2.76-12.75,6.92a11,11,0,0,0-1.32,2.56,7.39,7.39,0,0,0,.14,5.51c.78,2.38,2.18,3.87,3.87,5.68a17.76,17.76,0,0,0,8.29,5.45c3,.78,5,.76,7.65-.89a11,11,0,0,0,2.69-2.32c2-2.45,2.15-3.85,1.36-7-1.3-5.19-5.86-8.88-9.87-11.94-.2-.15-.38.07-.46.21l-2.78,4.73c-.07.11.12.28.23.26,3.08-.61,2.41.09,3.75-2.23.54-.94-1.84,0-2,.6l-1.48,1,.16.36q4.83-2.93,7.09,1.71,2.13,17.1-5.92,13.54a16,16,0,0,1-7.85-5.34q-6.72-8.08-1-12a14.48,14.48,0,0,1,4.63-3,18,18,0,0,1,7.42-1.62,14.59,14.59,0,0,1,7.34,5.65,10.48,10.48,0,0,1,2,4.39,4.35,4.35,0,0,1-.58,4.65,19.56,19.56,0,0,1-6.38,7.92,14.74,14.74,0,0,1-5.48,2.45l-2.73-.73c-3-1.11-4.9-3.69-6.2-6.5C729.65,210.05,728.2,212.16,728.38,212.63Z" transform="translate(-595.48 -91)"/><path class="cls-1" d="M729.57,209.27c.83,3,2.46,6.21,5.85,7l2.81.34,2.78-1a16.23,16.23,0,0,0,5.71-5c1.32-1.73,3.61-4.93,3.48-7.16a11.77,11.77,0,0,0-2.24-5.77,14.16,14.16,0,0,0-6.18-4.59,3.28,3.28,0,0,0-3.2-.39,8.86,8.86,0,0,0-4.82,1.59,15.78,15.78,0,0,0-4.67,4.76,6.16,6.16,0,0,0-1,3.52,2.36,2.36,0,0,0,.46,2.36c1.6,3.22,4.47,6.51,8,7.67a8.23,8.23,0,0,0,5.83-.64c1.62-.78,4-2.52,4.2-4.51a8.33,8.33,0,0,0-2-5.48c-1.58-2.08-4.91-3.58-7.1-4.86-.38-.22-2,5.36-1.93,5.24q-.63,2.11-1.16,4.25a1.55,1.55,0,0,0,0,1.2c3.37,3.33,3.83,5.77,5,2.08a49.44,49.44,0,0,0,1.86-9.88q0-.48-.22-.19a1.17,1.17,0,0,0-.43.85q-.42,1.36-.76,2.73-.45,1.71-.85,3.44-.76,5.19-1.48-3.91l1,6.43-.91-11.92-3,10.13a9.25,9.25,0,0,1,3-2.82l-.78.3,8.72,2.33.21-.56-16.33-7.7,7.27,7.14a2.41,2.41,0,0,1,.11-3.16q5.47-3,3.76-.62l.76,1.54a3.21,3.21,0,0,1-.38,2.77c-1,1.26-2.63.27-3.39-.73a9.11,9.11,0,0,1-1.61-4.91,1.35,1.35,0,0,0-.9.66q-1.33,1.53-2.58,3.12T730,208.25A1.35,1.35,0,0,0,729.57,209.27Z" transform="translate(-595.48 -91)"/><path class="cls-1" d="M729,213.76c.89,3.18,2.68,6.43,6.22,7.23l3.06.33,3.19-1.22a19.54,19.54,0,0,0,6.34-5.8c1.33-1.81,3.47-5,3.26-7.35l-1-3.41-1.68-2.85c-3.25-4.16-9.23-6.14-14-3.28a15.63,15.63,0,0,0-4.79,4.47,5.53,5.53,0,0,0-1.19,3.18,2.18,2.18,0,0,0,.25,2.26,26.79,26.79,0,0,0,3.25,5.49,13.51,13.51,0,0,0,4.1,4,6.35,6.35,0,0,0,3.82.58,3,3,0,0,0,2.51-.73c1.72-1,4.18-2.89,4.25-5.1l-.66-3.31-1.62-2.7c-1.52-2-4.26-3.34-6.45-4.51-.14-.07-2.76,5.77-1.88,6.44l3.35,2.56q.25.16.33-.12c1-2.28,1.13-3.9,1.72-6.7.26-1.2-.48-.32-.76.23a21.65,21.65,0,0,0-.93,2.37c-.14.4-.75,1.61-.56,2l.51,1.18.72-4.29L738,205.89l1.68,3.67L738,201.27l-1.78,6.1a1.13,1.13,0,0,1,1.8-.24q1.59.24.12.92l.16.25.78.8-.24-.82-.64-.79-.25-.21q-1.5,1.05-1.61-2a2.09,2.09,0,0,0-.26-2.66l.28.64c.73-1.38,1-1.5,2.49-1Q744,201,743,203.56a2.76,2.76,0,0,0,0,2.17c-.21,1.55-1.1,3.35-2.8,3.71a4.51,4.51,0,0,1-3.33-.74l.13.35a22.85,22.85,0,0,0-1.23-2.81,12.33,12.33,0,0,1-.66-3.36,1.88,1.88,0,0,0-.91,1q-1.3,2.1-2.51,4.26t-2.37,4.34A1.88,1.88,0,0,0,729,213.76Z" transform="translate(-595.48 -91)"/><path class="cls-1" d="M727.38,210.78c.86,2.45,2,4.77,4.34,6.2,2.92,1.81,6,2.45,9.27,1a20.54,20.54,0,0,0,7.64-5.81c2-2.34,4.15-5.47,4.31-8.65.12-2.42-1.23-5.11-2.5-7.13-1.74-2.78-5.83-5.92-9.13-6.49a11.13,11.13,0,0,0-5.95.87,12,12,0,0,0-5.22,2.81c-2.1,1.93-4.78,4.86-4.48,8a12.59,12.59,0,0,0,2.69,6.34c2.59,3.42,5.54,6.83,10,7.69a12.39,12.39,0,0,0,3.18.12,9,9,0,0,0,4.33-2.2,7.51,7.51,0,0,0,3.22-3.86c.73-2.31-.42-5.7-1.64-7.62-2.07-3.25-5-5.63-8-7.93q-.23-.16-.34.09l-1.71,4.94c-.14.41.72,1.11,1.09.82,1.67-1.26,1.49-1.34,2.12-3.58.22-.79-.52-.34-.81-.08s-1.42,1.25-1.16,1.83l.41.89.5-1-2,1,1,1q3.83-1.71,5.64,1.85a13.75,13.75,0,0,1,2.95,5.3l-3.59,6.29a4.81,4.81,0,0,1-4.9.46,22.39,22.39,0,0,1-8.78-8,3.2,3.2,0,0,1-1.25-3,12,12,0,0,1,4.39-6.29,9,9,0,0,1,4-1.82,9.68,9.68,0,0,1,9.34,2c4,3.56,5,7.37,1.44,13a15.92,15.92,0,0,1-7.49,6.07c-5.34,2-9.16-2.67-10.73-6.86C729.16,208.13,727.21,210.31,727.38,210.78Z" transform="translate(-595.48 -91)"/><path class="cls-1" d="M729.74,211.43c.92,3.27,2.57,6.15,6.08,7.15l3,.38a11.64,11.64,0,0,0,4.18-2.25,18.06,18.06,0,0,0,5.23-5.83,16.45,16.45,0,0,0,2.22-5.79c.21-2.31-2.43-5.37-4-6.8a10.65,10.65,0,0,0-3.76-2.47l-2.85-.92-3.28.63a9.77,9.77,0,0,0-4.12,2.67c-1.68,1.55-3.59,3.73-4.11,6l-.31,2.46.94,2.38a10.69,10.69,0,0,0,10.52,5.86,9.75,9.75,0,0,0,5.75-2.63c1.94-1.78,2.89-3.8,1.43-6.45-2.07-3.75-5.88-5.08-9.65-6.6-.67-.27-3.38,4.35-3.46,4.47-.24.35-3.29,4.09-2.84,4.89L734,214.5l.24-.19a45.34,45.34,0,0,0,5.88-11.26q.13-.58-.31-.17a12.2,12.2,0,0,0-1.46,2.21q-1.29,2.19-2.51,4.42a12.2,12.2,0,0,0-1.14,2.39v1.24l4.68-8.64-2.41-5.24-6,9.22,5.3-4.87-3.66,2.8,9.44,8L740.09,202l-.44,2.55.36-1.2L729.22,202l7.08,8.82-2.87-7,1.56,4.85,4.76-13.47-5.94,9.2,6.91-3.19-2.31.35,3.33,1.11-3-1.33,1.34,1.71-.17-.29c.38,1.09,1.05,3.31-.64,2.86l.24.28q-.08-1.05-.88-1.16l.1.4-.09-1a4,4,0,0,1-.81-1.6,13,13,0,0,1-.54-3.29,2.37,2.37,0,0,0-1,1.12q-1.56,2.35-3,4.76t-2.9,4.84A2.37,2.37,0,0,0,729.74,211.43Z" transform="translate(-595.48 -91)"/><path class="cls-1" d="M728.31,210.88c.9,3,2.71,6.15,6,7,4.79,1.19,9.59-2,12.6-5.47,1.58-1.82,3.87-5,3.84-7.46a13.64,13.64,0,0,0-2-6.52,13.84,13.84,0,0,0-6.31-5.4,3.89,3.89,0,0,0-3.38-.6,9.79,9.79,0,0,0-5.27,1.24,16,16,0,0,0-5.39,4.61,5.51,5.51,0,0,0-1.23,3.43,2.49,2.49,0,0,0,.3,2.37,27,27,0,0,0,3.44,5.84,15.16,15.16,0,0,0,4.4,4.42,7.63,7.63,0,0,0,6.32.16c1.93-.78,4.39-2.44,4.74-4.72a9.88,9.88,0,0,0-1.38-6.09c-1.35-2.47-4.19-4.37-6.39-6-.25-.18-.2,3.57-.21,3.45,0,.06,0,3.46.55,3.41l1.74-.16a.39.39,0,0,0,.26-.41c0-.11.9-7-.29-5.09a7,7,0,0,0-.51,1.89,13.81,13.81,0,0,0-.3,1.53q0,1.53-2.06-.34l2.74,3.07L739,198.36v6.15a2.78,2.78,0,0,1,1.85.88q2.2,4.71-1.34,4.42-5.76,1.37-5.85-8.14A2.26,2.26,0,0,0,735,200.4a3.21,3.21,0,0,1,1.9-1.67,4.87,4.87,0,0,1,3.77.08c1.79.31,3.19.76,4.07,2.59.75,1.55.44,4.18-.07,5.77a7.29,7.29,0,0,1-4.41,4.44,6.06,6.06,0,0,1-4.06,0l-1.28-1.32a9.43,9.43,0,0,1-2.09-5.12c0-.25-2.62,2.7-2.55,2.61C729.9,208.26,728.06,210.05,728.31,210.88Z" transform="translate(-595.48 -91)"/><path class="cls-1" d="M727.7,210.87c1.47,3.6,3.51,6.26,7.36,7.58,2.57.89,4.38.49,6.84-.48a21.64,21.64,0,0,0,9.18-7.64,14.1,14.1,0,0,0,2.57-5.45q.35-1,.61-2a10.75,10.75,0,0,0-1.89-5.44,12.39,12.39,0,0,0-3.68-4.6,12.56,12.56,0,0,0-5.09-2.87,7.48,7.48,0,0,0-6-.43c-3.65.72-8,3.25-10,6.42-1,1.53-2.11,3.39-2,5.29a13.06,13.06,0,0,0,1.39,4.94l2.73,3.3a15.58,15.58,0,0,0,3.12,3,14.32,14.32,0,0,0,6.52,3.14c2.38.31,3.93.26,6.08-1.17a11,11,0,0,0,3.58-3.67,4.48,4.48,0,0,0,1-1.66,8.92,8.92,0,0,0-1.08-5.85c-1.91-4.41-5.35-7.28-9.09-10.13a.23.23,0,0,0-.35.06l-2.16,5.54c-.09.23.24.41.41.35,2.22-.82,2.17-.67,3.07-3.08.43-1.15-2.29.56-2.17,1.25l.17,1,.73-.73-1.86.92.34.46q4.38-2.59,6.49,1.67l2,2.77q1.75,19.59-15.89,4.58l-3.07-5c-1-4,4.47-7.47,7.41-8.78a11.39,11.39,0,0,1,10.75.72,11.15,11.15,0,0,1,3.68,2.89,4.89,4.89,0,0,1,1.73,5.45,6.59,6.59,0,0,1-1.79,6.08,15.56,15.56,0,0,1-3.66,4c-3,2.62-6.92,4.69-11,2.7-2.74-1.34-4.18-3.67-5.48-6.37C728.84,208.87,727.53,210.46,727.7,210.87Z" transform="translate(-595.48 -91)"/><path class="cls-1" d="M728.86,212.65c.9,3.21,2.65,6.43,6.22,7.2l3,.32,3-1.4a18.92,18.92,0,0,0,5.95-5.79c1.2-1.77,3.22-5,3-7.22l-1-3.24-1.76-2.71a13.57,13.57,0,0,0-6.4-4,3.47,3.47,0,0,0-3.07-.19,8,8,0,0,0-4.52,1.73,17.77,17.77,0,0,0-4.51,5,6.25,6.25,0,0,0-1.12,3.39A2.38,2.38,0,0,0,728,208c1.48,3.48,4.35,6.7,8.06,7.81a8.35,8.35,0,0,0,6.15-.92c1.62-.9,4.08-2.76,4.17-4.84l-.67-3.22L744,204.24c-1.68-2-4.87-3.21-7.18-4.27-.54-.25-2.33,3.84-2.35,3.89-.2.4-2.18,3.53-1.67,4.22L736.3,213q.16.39.35,0c1.84-2.56,2.57-6.09,3.54-9,.06-.18.28-.77.08-1s-.9,1.3-.93,1.37c-.53,1.13-1,2.28-1.49,3.44-.29.71-1.14,2.14-1,2.95L737,212l2.49-7.05-2.66.95.26.78-.23-6.38L733,207.94l5.84-3.69-3.09,1.21,5.08,9.84-2-11.12-.46,1.3.18-.28-.88,1,.09.9.69-1.6.13-.3-5-7.72,1.39,7,.6-3-.53,1.82,1.41-2.21-1.26,1.77c1-.62,2.33-1.65,3.61-1.62l1.95.76a3.51,3.51,0,0,1,.55,3.89,1.83,1.83,0,0,1-1.65,1.38c-.76,0-1-.5-1.74-.75l.1.38a17.1,17.1,0,0,0-1.1-2.72,12.77,12.77,0,0,1-.62-3.35,2.26,2.26,0,0,0-1,1.07q-1.54,2.27-3,4.61t-2.85,4.69A2.26,2.26,0,0,0,728.86,212.65Z" transform="translate(-595.48 -91)"/><path class="cls-1" d="M614.63,215.18a11.23,11.23,0,0,0,4.16,6.21c2.57,1.86,5.8,1.73,8.63.66a20.57,20.57,0,0,0,8.82-6.92,12.24,12.24,0,0,0,2.46-5,5.78,5.78,0,0,0-.23-5.55,16.14,16.14,0,0,0-7-8.43,6.57,6.57,0,0,0-5.33-1.2,12.14,12.14,0,0,0-6,1.35,17.06,17.06,0,0,0-6.24,4.87,8.67,8.67,0,0,0-.32,10.17,24.77,24.77,0,0,0,5.35,6c1.89,1.4,3.86,2.7,6.29,2.89,2.23.18,4,.11,5.88-1.34a9,9,0,0,0,2.94-3.51l.75-1.57a8.36,8.36,0,0,0-1-5.52c-1.65-3.83-4.52-6.36-7.74-8.89a.23.23,0,0,0-.35,0l-1.81,3.76c-.09.18.14.72.4.59,2.64-1.25,1.83-.38,2.85-3.07.25-.66-2.47-.06-2.24.72l.37,1.26.1-.47-1.37.87.42.63q5-1,6.2,4.76l.71,2.72q-13.2,6.49-17.07-4.13l0-1.67c.29-3.42,4.23-5.55,7.11-6.71a14.35,14.35,0,0,1,6.77-.77,7.2,7.2,0,0,1,3.18,1.82,10.11,10.11,0,0,1,3.8,7,4.44,4.44,0,0,1-.81,3.91,10.59,10.59,0,0,1-2.65,3.5,12.36,12.36,0,0,1-7.64,3.81,3.55,3.55,0,0,1-4-1.44,9.47,9.47,0,0,1-2.77-5c-.2-.72-1,.65-1,.7C615.83,212.74,614.41,214.49,614.63,215.18Z" transform="translate(-595.48 -91)"/><path class="cls-1" d="M613.72,219.19c1.59,4.65,5.22,8.46,10.67,8.14,4-.23,8.1-3.25,10.72-6q1.38-1.57,2.64-3.24a18,18,0,0,0,3-7.34c0-2.36-2.19-6.14-3.58-7.91a20.25,20.25,0,0,0-3.1-3.17,17.81,17.81,0,0,0-7.22-3.65,19.74,19.74,0,0,0-4.22.79,20.19,20.19,0,0,0-7.15,4.22c-3.22,2.94-5.6,6.7-4,11.12a20.65,20.65,0,0,0,1.27,2.75,37.55,37.55,0,0,0,5.8,6.1,19.2,19.2,0,0,0,3.67,2.25c3.45,1.37,6.61,1.31,9.59-.86a10.1,10.1,0,0,0,4-5.61c.52-2.61-1.12-6.14-2.41-8.24-2.12-3.45-5.15-6-8.29-8.44,0,0-.45-.35-.49-.26L622,205.78c0,.07.08.16.14.16,3.28,0,2.24.58,4.14-1.08.24-.21-.26-.83-.61-.46l-.4-4.07-.59-.34q11.82,26.57-1.64,21.15-16.52-6.56.11-23.92l7.42,1q14.71,11.88,3.19,21a15.61,15.61,0,0,1-4.59,3,14.05,14.05,0,0,1-4.77,1.7c-4.32,0-7.49-3.78-9-7.4C615.21,215.85,613.51,218.58,613.72,219.19Z" transform="translate(-595.48 -91)"/><path class="cls-1" d="M615.53,212.2c.86,3.09,2.51,6.21,5.93,7l2.86.36,2.75-1.15a16.6,16.6,0,0,0,5.51-5.16,10.68,10.68,0,0,0,1.57-2.62,15.21,15.21,0,0,0,1.68-4.41,11.34,11.34,0,0,0-2.58-5.57,14.53,14.53,0,0,0-6.19-4.1,3.15,3.15,0,0,0-3.11-.25,8.66,8.66,0,0,0-4.66,1.75,16.7,16.7,0,0,0-4.48,4.8,6.55,6.55,0,0,0-1.06,3.53,2.54,2.54,0,0,0,.39,2.44,10.41,10.41,0,0,0,3.93,5,11.65,11.65,0,0,0,4.64,1.87,9.74,9.74,0,0,0,6-1.09c1.51-.82,4-2.67,4.13-4.58l-.63-3-1.83-2.52c-1.78-2-5.34-3.08-7.69-4.14-.58-.26-3.26,5.23-3.27,5.25q-1.18,2.14-2.25,4.33a1.84,1.84,0,0,0-.35,1.28l3.81,5.47.22-.24c2.44-3.24,3.61-7.9,5-11.54.09-.23.42-1,.22-1.23s-1.14,1.79-1.17,1.85c-.72,1.5-1.39,3-2,4.56-.45,1-1.48,2.71-1.49,3.88v1.3l3.87-9.69-2.5-4.84L617.13,211l5.09-5.62L619,208.71l8.25-5.3-6.66,3.36L632.5,210l-9.13-6.69L625,215.44l1.13-10.17-11.3-2.41,7.63,9.21-3.08-6.95,1.88,5.22,4.4-13.94-5.31,10.74L624,204l-1,.36,11.56,1.85-10.34-2.73q3.25,2.61,1.3,4.53a1.17,1.17,0,0,0-1.17-.91l.1.36a10,10,0,0,0-.91-2.5,12.52,12.52,0,0,1-.56-3.24,2,2,0,0,0-1,.92q-1.55,2-3,4.08t-2.88,4.18A2,2,0,0,0,615.53,212.2Z" transform="translate(-595.48 -91)"/><path class="cls-1" d="M614.36,214.55c.88,3.13,2.64,6.32,6.12,7.1l3,.32,3.06-1.21a19.3,19.3,0,0,0,6.27-5.43c1.35-1.75,3.57-4.94,3.4-7.23a12.43,12.43,0,0,0-2.46-6,13,13,0,0,0-6.24-4.32,4,4,0,0,0-3.14-.38,8.65,8.65,0,0,0-4.73,1.28,15.55,15.55,0,0,0-4.87,4.47,5.63,5.63,0,0,0-1.13,3.26,2.1,2.1,0,0,0,.34,2.25,29.47,29.47,0,0,0,3.43,5.27,13.05,13.05,0,0,0,4,3.76,6.93,6.93,0,0,0,6.07-.21c1.68-.88,4.07-2.68,4.21-4.79l-.49-3.11-1.49-2.61c-1.46-2-4.3-3.46-6.4-4.69-.39-.23-1.17,3.83-1.15,3.73-.08.39-1,3.42-.41,3.88l3.43,2.52q.27.21.33-.13a15.14,15.14,0,0,0,1.37-7.69c-.05-.74.13-.65-.33-.64s-1,3.08-1,3.1l-.36,1.55q-.19,3-1.87-1.43l2.12,4.64-2-9.31-1.48,7.22a1.47,1.47,0,0,1,2.35-.28l3.45-.31a4.43,4.43,0,0,0-4.66.21q-2.12-2.51.26-5.06l1,.4q5.36-1.5,3.92,1.38a3.42,3.42,0,0,1,0,2.49,3.22,3.22,0,0,1-1.16,2.15c-1.54,1.39-3,.93-4.63.11l.12.32a21.3,21.3,0,0,0-1.21-2.73,12.16,12.16,0,0,1-.66-3.32,1.62,1.62,0,0,0-.91.83q-1.33,1.83-2.58,3.71t-2.45,3.8A1.62,1.62,0,0,0,614.36,214.55Z" transform="translate(-595.48 -91)"/><path class="cls-1" d="M614,215c1.3,3.39,3.45,6.39,7.2,7.43l3.42.57a16.19,16.19,0,0,0,6.85-2.83,21.79,21.79,0,0,0,7.51-9.26,8.1,8.1,0,0,0,.19-7.7l-1.87-3.56a17.28,17.28,0,0,0-5.77-5.26,6.51,6.51,0,0,0-5.67-1.22c-4.83.41-9.95,2.76-12.75,6.92a11,11,0,0,0-1.32,2.56,7.39,7.39,0,0,0,.14,5.51c.78,2.38,2.18,3.87,3.87,5.68a17.76,17.76,0,0,0,8.29,5.45c3,.78,5,.76,7.65-.89a11,11,0,0,0,2.69-2.32c2-2.45,2.15-3.85,1.36-7-1.3-5.19-5.86-8.88-9.87-11.94-.2-.15-.38.07-.46.21l-2.78,4.73c-.07.11.12.28.23.26,3.08-.61,2.41.09,3.75-2.23.54-.94-1.84,0-2,.6l-1.48,1,.16.36q4.83-2.93,7.09,1.71,2.13,17.1-5.92,13.54a16,16,0,0,1-7.85-5.34q-6.72-8.08-1-12a14.48,14.48,0,0,1,4.63-3,18,18,0,0,1,7.42-1.62,14.59,14.59,0,0,1,7.34,5.65,10.48,10.48,0,0,1,2,4.39,4.34,4.34,0,0,1-.58,4.65,19.56,19.56,0,0,1-6.38,7.92,14.73,14.73,0,0,1-5.48,2.45l-2.73-.73c-3-1.11-4.9-3.69-6.2-6.5C615.31,212.43,613.86,214.54,614,215Z" transform="translate(-595.48 -91)"/><path class="cls-1" d="M615.23,211.65c.83,3,2.46,6.21,5.85,7l2.81.34,2.78-1a16.24,16.24,0,0,0,5.71-5c1.32-1.73,3.61-4.93,3.48-7.16a11.77,11.77,0,0,0-2.24-5.77,14.16,14.16,0,0,0-6.18-4.59,3.28,3.28,0,0,0-3.2-.39,8.86,8.86,0,0,0-4.82,1.59,15.78,15.78,0,0,0-4.67,4.76,6.16,6.16,0,0,0-1,3.52,2.36,2.36,0,0,0,.46,2.36c1.6,3.22,4.47,6.51,8,7.67a8.23,8.23,0,0,0,5.83-.64c1.62-.78,4-2.52,4.2-4.51a8.33,8.33,0,0,0-2-5.48c-1.58-2.08-4.91-3.58-7.1-4.86-.38-.22-2,5.36-1.93,5.24q-.63,2.11-1.16,4.25a1.55,1.55,0,0,0,0,1.2c3.37,3.33,3.83,5.76,5,2.08a49.44,49.44,0,0,0,1.86-9.88q0-.48-.22-.19a1.17,1.17,0,0,0-.43.85q-.42,1.36-.76,2.73-.45,1.71-.85,3.44-.76,5.19-1.48-3.91l1,6.43-.91-11.92-3,10.13a9.25,9.25,0,0,1,3-2.82l-.78.3,8.72,2.33.21-.56-16.33-7.7,7.27,7.14a2.41,2.41,0,0,1,.11-3.16q5.47-3,3.76-.62l.76,1.54a3.21,3.21,0,0,1-.38,2.77c-1,1.26-2.63.27-3.39-.73a9.11,9.11,0,0,1-1.61-4.91,1.35,1.35,0,0,0-.9.66q-1.33,1.53-2.58,3.12t-2.46,3.22A1.35,1.35,0,0,0,615.23,211.65Z" transform="translate(-595.48 -91)"/><path class="cls-1" d="M614.61,216.14c.89,3.18,2.68,6.43,6.22,7.23l3.06.33,3.19-1.22a19.54,19.54,0,0,0,6.34-5.8c1.33-1.81,3.47-5,3.26-7.35l-1-3.41L634,203.07c-3.25-4.16-9.23-6.14-14-3.28a15.63,15.63,0,0,0-4.79,4.47,5.53,5.53,0,0,0-1.19,3.18,2.18,2.18,0,0,0,.25,2.26,26.8,26.8,0,0,0,3.25,5.49,13.51,13.51,0,0,0,4.1,4,6.35,6.35,0,0,0,3.82.58,3,3,0,0,0,2.51-.73c1.72-1,4.18-2.89,4.25-5.1l-.66-3.31-1.62-2.7c-1.52-2-4.26-3.34-6.45-4.51-.14-.07-2.76,5.77-1.88,6.44l3.35,2.56q.25.16.33-.12c1-2.28,1.13-3.9,1.72-6.7.26-1.2-.48-.32-.76.23a21.65,21.65,0,0,0-.93,2.37c-.14.4-.75,1.61-.56,2l.51,1.18.72-4.29-2.39,1.12,1.68,3.67-1.67-8.29-1.78,6.1a1.13,1.13,0,0,1,1.8-.24q1.59.24.12.92l.16.25.78.8-.24-.82-.64-.79-.25-.21q-1.5,1.05-1.61-2a2.09,2.09,0,0,0-.26-2.66l.28.64c.73-1.38,1-1.5,2.49-1q5.21-1.19,4.18,1.37a2.76,2.76,0,0,0,0,2.17c-.21,1.55-1.1,3.35-2.8,3.71a4.51,4.51,0,0,1-3.33-.74l.13.35a22.85,22.85,0,0,0-1.23-2.81,12.34,12.34,0,0,1-.66-3.36,1.88,1.88,0,0,0-.91,1q-1.3,2.1-2.51,4.26T615,214.85A1.88,1.88,0,0,0,614.61,216.14Z" transform="translate(-595.48 -91)"/><path class="cls-1" d="M613,213.16c.86,2.45,2,4.77,4.34,6.2,2.92,1.81,6,2.45,9.27,1a20.55,20.55,0,0,0,7.64-5.81c2-2.34,4.15-5.47,4.31-8.65.12-2.42-1.23-5.11-2.5-7.13-1.74-2.78-5.84-5.92-9.13-6.49a11.13,11.13,0,0,0-5.95.87,12,12,0,0,0-5.22,2.81c-2.1,1.93-4.78,4.86-4.48,8A12.59,12.59,0,0,0,614,210.3c2.59,3.42,5.54,6.83,10,7.69a12.39,12.39,0,0,0,3.18.12,9,9,0,0,0,4.33-2.2,7.5,7.5,0,0,0,3.21-3.86c.73-2.31-.42-5.7-1.64-7.62-2.07-3.25-5-5.63-8-7.93q-.23-.16-.34.09L623,201.53c-.14.41.72,1.11,1.09.82,1.67-1.26,1.49-1.34,2.12-3.58.22-.79-.52-.34-.81-.08s-1.42,1.25-1.16,1.83l.41.89.5-1-2,1,1,1q3.83-1.71,5.64,1.85a13.75,13.75,0,0,1,3,5.3l-3.59,6.29a4.81,4.81,0,0,1-4.9.46,22.39,22.39,0,0,1-8.78-8,3.2,3.2,0,0,1-1.25-3,12,12,0,0,1,4.39-6.29,9,9,0,0,1,4-1.82,9.68,9.68,0,0,1,9.34,2c4,3.56,5,7.37,1.44,13a15.92,15.92,0,0,1-7.49,6.07c-5.34,2-9.16-2.67-10.73-6.86C614.82,210.51,612.87,212.69,613,213.16Z" transform="translate(-595.48 -91)"/><path class="cls-1" d="M615.4,213.81c.92,3.27,2.57,6.15,6.08,7.15l3,.38a11.63,11.63,0,0,0,4.18-2.25,18.07,18.07,0,0,0,5.24-5.83,16.45,16.45,0,0,0,2.22-5.79c.21-2.31-2.43-5.37-4-6.8a10.65,10.65,0,0,0-3.76-2.47l-2.85-.92-3.28.63a9.77,9.77,0,0,0-4.12,2.67c-1.68,1.55-3.59,3.73-4.11,6l-.31,2.46.94,2.38a10.69,10.69,0,0,0,10.52,5.86,9.75,9.75,0,0,0,5.75-2.63c1.94-1.78,2.89-3.8,1.43-6.45-2.07-3.75-5.88-5.08-9.65-6.6-.67-.27-3.38,4.35-3.46,4.47-.24.35-3.29,4.09-2.84,4.89l3.33,5.89.24-.19a45.37,45.37,0,0,0,5.88-11.26q.13-.58-.31-.17a12.2,12.2,0,0,0-1.46,2.21q-1.29,2.19-2.51,4.42a12.2,12.2,0,0,0-1.14,2.39v1.24l4.68-8.64-2.41-5.24-6,9.22,5.3-4.87-3.66,2.8,9.44,8-1.93-12.34-.44,2.55.36-1.2-10.79-1.35,7.08,8.82-2.87-7,1.56,4.85,4.76-13.47-5.94,9.2,6.91-3.19-2.31.35,3.33,1.11-3-1.33,1.34,1.71-.17-.29c.38,1.09,1.05,3.31-.64,2.86l.24.28q-.08-1.05-.88-1.16l.1.4-.09-1a4,4,0,0,1-.81-1.6,13,13,0,0,1-.54-3.29,2.37,2.37,0,0,0-1,1.12q-1.56,2.35-3,4.76t-2.9,4.84A2.37,2.37,0,0,0,615.4,213.81Z" transform="translate(-595.48 -91)"/><path class="cls-1" d="M614,213.26c.9,3,2.71,6.15,6,7,4.79,1.19,9.59-2,12.6-5.47,1.58-1.82,3.87-5,3.84-7.46a13.64,13.64,0,0,0-2-6.52,13.85,13.85,0,0,0-6.31-5.4,3.89,3.89,0,0,0-3.38-.6,9.79,9.79,0,0,0-5.27,1.24,16,16,0,0,0-5.39,4.61,5.51,5.51,0,0,0-1.23,3.43,2.49,2.49,0,0,0,.3,2.37,27.05,27.05,0,0,0,3.44,5.84,15.16,15.16,0,0,0,4.4,4.42,7.63,7.63,0,0,0,6.32.16c1.93-.78,4.39-2.44,4.74-4.72a9.88,9.88,0,0,0-1.38-6.09c-1.35-2.47-4.19-4.37-6.39-6-.25-.18-.2,3.57-.21,3.45,0,.06,0,3.46.55,3.41l1.74-.16a.39.39,0,0,0,.26-.41c0-.11.9-7-.29-5.09a7,7,0,0,0-.51,1.89,13.81,13.81,0,0,0-.3,1.53q0,1.53-2.06-.34l2.74,3.07-1.59-6.64v6.15a2.78,2.78,0,0,1,1.85.88q2.2,4.71-1.34,4.42-5.76,1.37-5.85-8.14a2.26,2.26,0,0,0,1.35-1.28,3.21,3.21,0,0,1,1.9-1.67,4.87,4.87,0,0,1,3.77.08c1.79.31,3.19.76,4.07,2.59.75,1.55.44,4.18-.07,5.77A7.29,7.29,0,0,1,625.9,214a6.06,6.06,0,0,1-4.06,0l-1.28-1.32a9.43,9.43,0,0,1-2.09-5.12c0-.25-2.62,2.7-2.55,2.61C615.56,210.64,613.72,212.43,614,213.26Z" transform="translate(-595.48 -91)"/><path class="cls-1" d="M613.36,213.25c1.47,3.6,3.52,6.26,7.36,7.58,2.57.89,4.38.49,6.83-.48a21.65,21.65,0,0,0,9.18-7.64,14.1,14.1,0,0,0,2.57-5.45q.35-1,.61-2a10.75,10.75,0,0,0-1.89-5.44,12.39,12.39,0,0,0-3.68-4.6,12.56,12.56,0,0,0-5.09-2.87,7.48,7.48,0,0,0-6-.43c-3.65.72-8,3.25-10,6.42-1,1.53-2.11,3.39-2,5.29a13.07,13.07,0,0,0,1.39,4.94l2.73,3.3a15.58,15.58,0,0,0,3.12,3A14.32,14.32,0,0,0,625,218c2.38.31,3.93.26,6.08-1.17a11,11,0,0,0,3.58-3.67,4.48,4.48,0,0,0,1-1.66,8.91,8.91,0,0,0-1.08-5.85c-1.91-4.41-5.35-7.28-9.09-10.13a.23.23,0,0,0-.35.06L623,201.11c-.09.23.24.41.41.35,2.22-.82,2.17-.67,3.07-3.08.43-1.15-2.29.56-2.17,1.25l.17,1,.73-.73-1.86.92.34.46q4.38-2.59,6.49,1.67l2,2.77q1.75,19.59-15.89,4.58l-3.07-5c-1-4,4.47-7.47,7.41-8.78a11.39,11.39,0,0,1,10.75.72,11.15,11.15,0,0,1,3.68,2.89,4.89,4.89,0,0,1,1.73,5.45,6.59,6.59,0,0,1-1.79,6.08,15.55,15.55,0,0,1-3.66,4c-3,2.62-6.92,4.69-11,2.7-2.74-1.34-4.18-3.67-5.48-6.37C614.5,211.25,613.19,212.84,613.36,213.25Z" transform="translate(-595.48 -91)"/><path class="cls-1" d="M614.52,215c.9,3.21,2.65,6.43,6.22,7.2l3,.32,3-1.4a18.92,18.92,0,0,0,5.95-5.79c1.2-1.77,3.22-5,3-7.22l-1-3.24L633,202.19a13.57,13.57,0,0,0-6.4-4,3.47,3.47,0,0,0-3.07-.19,8,8,0,0,0-4.52,1.73,17.77,17.77,0,0,0-4.51,5,6.26,6.26,0,0,0-1.12,3.39,2.38,2.38,0,0,0,.33,2.39c1.48,3.48,4.35,6.7,8.06,7.81a8.35,8.35,0,0,0,6.15-.92c1.62-.9,4.08-2.76,4.17-4.84l-.67-3.22-1.75-2.63c-1.68-2-4.87-3.21-7.18-4.27-.54-.25-2.33,3.84-2.35,3.89-.2.4-2.18,3.53-1.67,4.22l3.54,4.88q.16.39.35,0c1.84-2.56,2.57-6.09,3.54-9,.06-.18.28-.77.08-1s-.9,1.3-.93,1.37c-.53,1.13-1,2.28-1.49,3.44-.29.71-1.14,2.14-1,2.95l.15,1.18,2.49-7.05-2.66.95.26.78-.23-6.38-3.81,7.68,5.84-3.69-3.09,1.21,5.08,9.84-2-11.12-.46,1.3.18-.28-.88,1,.09.9.69-1.6.13-.3-5-7.72,1.39,7,.6-3-.53,1.82,1.41-2.21-1.26,1.77c1-.62,2.33-1.65,3.61-1.62l1.95.76a3.51,3.51,0,0,1,.55,3.89,1.83,1.83,0,0,1-1.65,1.38c-.76,0-1-.5-1.74-.75l.1.38a17.12,17.12,0,0,0-1.1-2.72,12.77,12.77,0,0,1-.62-3.35,2.26,2.26,0,0,0-1,1.07q-1.54,2.27-3,4.61T615,213.64A2.26,2.26,0,0,0,614.52,215Z" transform="translate(-595.48 -91)"/></svg>
