<svg id="Layer_1" data-name="Layer 1" xmlns="http://www.w3.org/2000/svg" viewBox="0 0 178.87 381.46"><defs><style>.cls-1{fill:#fff;}.cls-2,.cls-3{fill:none;stroke:#000;stroke-miterlimit:10;}.cls-2{stroke-width:3px;}.cls-4,.cls-5{fill:#ffd1fc;}.cls-5{opacity:0.11;}</style></defs><title>glass1</title><path d="M677.57,425c37.57,0,63.76,11.53,63.76,21.88s-26.18,21.88-63.76,21.88-63.76-11.53-63.76-21.88S640,425,677.57,425m0-3c-36.87,0-66.76,11.14-66.76,24.88s29.89,24.88,66.76,24.88,66.76-11.14,66.76-24.88S714.44,422,677.57,422Z" transform="translate(-593.86 -90.24)"/><path class="cls-1" d="M771.21,200.07c1,46.81-33,64.1-58.54,70.49l17.8-134.63c8.43-4.65,13.46-10.51,13.46-16.9a12.73,12.73,0,0,0-1.16-5.25C753.32,124.37,770.12,149.14,771.21,200.07Z" transform="translate(-593.86 -90.24)"/><path class="cls-1" d="M742.76,113.78a12.73,12.73,0,0,1,1.16,5.25c0,6.39-5,12.25-13.46,16.9L734.29,107A39.26,39.26,0,0,1,742.76,113.78Z" transform="translate(-593.86 -90.24)"/><path class="cls-1" d="M742.76,113.78a39.26,39.26,0,0,0-8.47-6.79l-3.83,28.94c-11.46,6.32-29.21,10.38-49.13,10.38-19.73,0-37.33-4-48.8-10.2L629.18,107s-4.61,3.59-10.42,11.83c.25-15,28.17-27.07,62.58-27.07C711.78,91.74,737.15,101.22,742.76,113.78Z" transform="translate(-593.86 -90.24)"/><path d="M720.72,180.73a8,8,0,1,1-9.08-6.69A8,8,0,0,1,720.72,180.73Z" transform="translate(-593.86 -90.24)"/><path class="cls-1" d="M712.67,270.56,690.16,440.81l-4.81-42.53v-124A122.65,122.65,0,0,0,712.67,270.56Z" transform="translate(-593.86 -90.24)"/><path class="cls-1" d="M685.35,398.28l4.81,42.53c-10.43,7.22-22.47,0-22.47,0l4.81-50.55v-116s-.78-.06-2.17-.22l2.17-.18h12.84V398.28Z" transform="translate(-593.86 -90.24)"/><path class="cls-1" d="M672.51,274.3v116l-4.81,50.55L647.93,269.52a137.41,137.41,0,0,0,22.4,4.56C671.73,274.24,672.51,274.3,672.51,274.3Z" transform="translate(-593.86 -90.24)"/><path d="M658.13,180.73a8,8,0,1,1-9.08-6.69A8,8,0,0,1,658.13,180.73Z" transform="translate(-593.86 -90.24)"/><path class="cls-1" d="M632.54,136.11l15.39,133.41c-22.16-6.47-51.44-21.37-52.46-55-1.55-51.05,12.81-80.89,23.28-95.7a1.81,1.81,0,0,0,0,.21C618.74,125.49,623.9,131.44,632.54,136.11Z" transform="translate(-593.86 -90.24)"/><path class="cls-1" d="M629.18,107l3.36,29.12c-8.63-4.67-13.79-10.62-13.79-17.08a1.81,1.81,0,0,1,0-.21C624.56,110.58,629.18,107,629.18,107Z" transform="translate(-593.86 -90.24)"/><path class="cls-2" d="M667.69,440.81l4.81-50.55v-116s-.78-.06-2.17-.22a137.41,137.41,0,0,1-22.4-4.56c-22.16-6.47-51.44-21.37-52.46-55-1.55-51.05,12.81-80.89,23.28-95.7" transform="translate(-593.86 -90.24)"/><path class="cls-2" d="M690.16,440.81l-4.81-42.53v-124a122.65,122.65,0,0,0,27.32-3.74c25.51-6.39,59.54-23.68,58.54-70.49-1.09-50.93-17.89-75.7-28.45-86.29" transform="translate(-593.86 -90.24)"/><path class="cls-2" d="M742.76,113.78a12.73,12.73,0,0,1,1.16,5.25c0,6.39-5,12.25-13.46,16.9-11.46,6.32-29.21,10.38-49.13,10.38-19.73,0-37.33-4-48.8-10.2-8.63-4.67-13.79-10.62-13.79-17.08a1.81,1.81,0,0,1,0-.21c.25-15,28.17-27.07,62.58-27.07C711.78,91.74,737.15,101.22,742.76,113.78Z" transform="translate(-593.86 -90.24)"/><path class="cls-3" d="M658.13,180.73a8,8,0,1,1-9.08-6.69A8,8,0,0,1,658.13,180.73Z" transform="translate(-593.86 -90.24)"/><path class="cls-3" d="M720.72,180.73a8,8,0,1,1-9.08-6.69A8,8,0,0,1,720.72,180.73Z" transform="translate(-593.86 -90.24)"/><line class="cls-2" x1="78.65" y1="183.65" x2="91.49" y2="183.65"/><path class="cls-2" d="M667.82,231.5a23.66,23.66,0,0,1,10.6-4.56c8.29-1.54,15.65.66,16.44,4.92" transform="translate(-593.86 -90.24)"/><path class="cls-4" d="M642.68,225.52a1.5,1.5,0,0,0,0-3,1.5,1.5,0,0,0,0,3Z" transform="translate(-593.86 -90.24)"/><path class="cls-5" d="M736.71,221.82c.85,0-.69-1.38-.67-1.36q-1-1-2-1.87a3.65,3.65,0,0,0-1.16-.84c-.85,0,.69,1.38.67,1.36q1,1,2,1.87A3.65,3.65,0,0,0,736.71,221.82Z" transform="translate(-593.86 -90.24)"/><path class="cls-5" d="M737.2,225.85c.72,0-1.13-2.79-1.78-2.79S736.55,225.85,737.2,225.85Z" transform="translate(-593.86 -90.24)"/><path class="cls-5" d="M734.47,219.19a2,2,0,0,0-.82-1.14q-1.86-1.81-3.8-3.53t-3.91-3.41a2,2,0,0,0-1.22-.7,2,2,0,0,0,.82,1.14q1.86,1.81,3.8,3.53t3.91,3.41A2,2,0,0,0,734.47,219.19Z" transform="translate(-593.86 -90.24)"/><path class="cls-5" d="M734.69,221.22a1.44,1.44,0,0,0-.53-1q-1.34-1.62-2.76-3.18t-2.88-3.07a.6.6,0,1,0-.44.4q1.34,1.62,2.76,3.18t2.88,3.07A1.44,1.44,0,0,0,734.69,221.22Z" transform="translate(-593.86 -90.24)"/><path class="cls-5" d="M737.38,221.34c.71,0-.35-1-.35-1-.45-.43-1.46-1.57-2.16-1.57s.35,1,.35,1C735.67,220.2,736.68,221.34,737.38,221.34Z" transform="translate(-593.86 -90.24)"/><path class="cls-5" d="M734.33,218.56a1.36,1.36,0,0,0-.63-.92q-1.5-1.38-3.06-2.68t-3.17-2.56a.58.58,0,1,0-.38.46q1.5,1.38,3.06,2.68t3.17,2.56A1.36,1.36,0,0,0,734.33,218.56Z" transform="translate(-593.86 -90.24)"/><path class="cls-5" d="M735.31,222.81a1.8,1.8,0,0,0-.58-1.17q-1.46-1.91-3-3.75t-3.13-3.65a.67.67,0,1,0-.46.38q1.46,1.91,3,3.75t3.13,3.65A1.8,1.8,0,0,0,735.31,222.81Z" transform="translate(-593.86 -90.24)"/><path class="cls-5" d="M736.29,220c.6,0-.16-.8-.2-.83-.35-.37-1.09-1.08-1.65-1.08s.16.8.2.83C735,219.24,735.73,220,736.29,220Z" transform="translate(-593.86 -90.24)"/><path class="cls-5" d="M735,220.76a2.48,2.48,0,0,0-.86-1.31q-2-2.13-4-4.19t-4.1-4.08a2.48,2.48,0,0,0-1.28-.89,2.48,2.48,0,0,0,.86,1.31q2,2.13,4,4.19t4.1,4.08A2.48,2.48,0,0,0,735,220.76Z" transform="translate(-593.86 -90.24)"/><path class="cls-5" d="M734.76,220c.9,0-.83-1.5-.8-1.48q-1.1-1.08-2.25-2.1a4.56,4.56,0,0,0-1.29-1c-.9,0,.83,1.5.8,1.48q1.1,1.08,2.25,2.1A4.56,4.56,0,0,0,734.76,220Z" transform="translate(-593.86 -90.24)"/><path class="cls-5" d="M737.18,219.85c.56,0-.13-.74-.16-.77a2.55,2.55,0,0,0-1.48-.84c-.56,0,.13.74.16.77A2.55,2.55,0,0,0,737.18,219.85Z" transform="translate(-593.86 -90.24)"/><path class="cls-5" d="M734.56,221.61a2,2,0,0,0-.66-1.23q-1.6-2-3.29-4t-3.41-3.87a2,2,0,0,0-1.12-.85,2,2,0,0,0,.66,1.23q1.6,2,3.29,4t3.41,3.87A2,2,0,0,0,734.56,221.61Z" transform="translate(-593.86 -90.24)"/><path class="cls-5" d="M730.3,214.19l5-.17-4.17-.14.9.49a4.47,4.47,0,0,1,.9,3.75,6.1,6.1,0,0,1-.46,2.61,20.73,20.73,0,0,1-1.34,3.72A10.52,10.52,0,0,1,728,227a2.7,2.7,0,0,1-2.71.24q-3.37-.58-3.66-5.11l.34,1.36a45.28,45.28,0,0,1,4-17.2l-.68,1.27,1.4-1.7-.7.6,2.1-.67a2.29,2.29,0,0,1,2.28,1.27c4.54,4.68.43,11.64-2.42,17.11a3.39,3.39,0,0,0-.24,1.94c.18.27.35.44.59.07a22.18,22.18,0,0,0,3.27-5.42,23.38,23.38,0,0,0,2.31-6.28c.31-.91.66-1.82.92-2.74.85-3.13.27-6.18-2.54-7.95a3.94,3.94,0,0,0-4.48-.27,9.27,9.27,0,0,0-3.1,3.67c-1.3,2.52-1.85,5.55-2.62,8.31-.85,3-1.58,6.25-1,9.4l.93,3a3.19,3.19,0,0,0,1.22,1,2.37,2.37,0,0,0,1.29.93l2.39.07a11.23,11.23,0,0,0,4.58-2,18.44,18.44,0,0,0,3-3.89c1.3-1.87,2.82-4.29,3-6.62.14-2,0-2.27-1.24-3.85-.56-.74-3.14-.11-3.77,0a5.19,5.19,0,0,0-1.92.3S729.77,214.09,730.3,214.19Z" transform="translate(-593.86 -90.24)"/><path class="cls-5" d="M736.39,216.39a17.75,17.75,0,0,1-1.32,6.16,15.59,15.59,0,0,1-7,8.71q-9.94-6.21-5.94-13.43a47,47,0,0,1,2.81-5.95,13.51,13.51,0,0,1,2.86-4.81q9.44,3.58,6.31,10.26a35.64,35.64,0,0,1-7.45,11.44c-.3.35.13,1.83.6,1.29,2.38-2.75,3.88-4.17,5.55-7.45a31,31,0,0,0,3.33-9.13,7.22,7.22,0,0,0-.57-4.67,11.62,11.62,0,0,0-1.72-2.25c-.66-.67-2.7-2-3.79-1.87a3.66,3.66,0,0,0-2.29,1.38,22.81,22.81,0,0,0-3.55,5.66,45.82,45.82,0,0,0-2.81,5.93,25.53,25.53,0,0,0-2,6.46c0,1.07.73,5.79,1.3,6.75,2.1,3.51,6.82,3.39,10,1.45a12.32,12.32,0,0,0,2.45-2.57,26.62,26.62,0,0,0,4-5.72c.82-1.62,2.51-6.11.68-7.81C737.5,216,736.43,215.91,736.39,216.39Z" transform="translate(-593.86 -90.24)"/><path class="cls-5" d="M733.37,212.82l.52,1.55-12.65-1,7.53,11.1.28.21a56.92,56.92,0,0,0,.15-19.81q0-.73-.34-.09l-4.52,6.37c-.22.32-.11.86-.07,1.21.19,1.89.63,3.77,1,5.63a19.67,19.67,0,0,0,.79,3.47c.06.16.36,1.14.49.35a11.46,11.46,0,0,0,3.13-4.08,14,14,0,0,1,2.47-5.07,4.61,4.61,0,0,0,.62-5,5.75,5.75,0,0,0-3.64-3.18c-.32-.19-2.13,6.56-2.09,6.4q-.7,2.57-1.28,5.16a2.14,2.14,0,0,0-.07,1.44q2,1.6,3.91,3.26l-3.06-12.31c-2,3-4,5.66-4.8,9.3a10.18,10.18,0,0,0,0,5.86,4.25,4.25,0,0,0,4,1.94,11.22,11.22,0,0,0,3.32-.85l3.34-3.95a6.65,6.65,0,0,0,1.92-4.52,6.49,6.49,0,0,0-.45-3.33c-.22-.73-6.69.15-6.81.15q-2.68.19-5.35.5a2.18,2.18,0,0,0-1.4.41l-.87,1.12a2.33,2.33,0,0,0,1.51.06q2.77-.35,5.53-.81t5.5-1A2.33,2.33,0,0,0,733.37,212.82Z" transform="translate(-593.86 -90.24)"/><path class="cls-5" d="M732.38,214.47l1.35-.2-9-.33,8.93,3.35-7.23-3.4q1.29,1.69,2.49,3.44l-1.07-1.76.69,4.35-.06-2.19-4.28,9.69,5-6.84a34.73,34.73,0,0,0-5.28-5.86l2.59,4.37-2-6.59,1.09,5-.54-7.14-.21,6.18.85-7.82-1.22,6.19,2-7.64-2.24,6.14,3.39-7.19-4.12,6.54,6.06,5.33-2.78-6.72,1.64,9.29-.55-6.2a63.64,63.64,0,0,0-.8,9.75q.09.48.34.07a7.8,7.8,0,0,0,.57-2q.32-1.48.58-3a10.12,10.12,0,0,1,1.75-4.5,14.64,14.64,0,0,0,2.1-4.52c.1-2.81-2.22-4.43-4.59-5-.69-.15-1.7,2.22-2,2.69q-.77,1.29-1.5,2.61a7.67,7.67,0,0,0-.88,1.9,17.2,17.2,0,0,1-.82,4.58,58.16,58.16,0,0,1-.78,5.89,3.8,3.8,0,0,0,5.24,4.61,8.77,8.77,0,0,0,2.47-1.1q1.7-2.13,3.29-4.35c1.63-2.59,2.26-5.15,1.11-8-.31-.77-4.38-.54-4.76-.55-.8,0-4-.58-4.78.2l-.91.92c-.25.25,3.69.17,2.66.21A54.77,54.77,0,0,0,732.38,214.47Z" transform="translate(-593.86 -90.24)"/><path class="cls-5" d="M732.39,213.33q3.07,4.72.67,8.81a10.8,10.8,0,0,1-4.32,5.47l-2.15.51q-6.91-8.55-2.9-16.28.7-3.73,5.19-3.08,5.07-3.68,4.92,1.28v2.49a39.94,39.94,0,0,1-6.94,12.63c-.28.4.36,1.27.82.7,3.51-4.44,6.7-9.21,7.86-14.88.6-2.94.65-5.69-1.79-7.91-1.57-1.44-3.7-2.32-5.57-1a10.12,10.12,0,0,0-2.27,2.68q-.84,1.69-1.66,3.4a43.91,43.91,0,0,0-2.53,5.89c-1.15,3.08-2.42,6.62-1.67,10,.51,2.3,1.11,4.26,3.54,5.26a6.59,6.59,0,0,0,2.82.36,12.17,12.17,0,0,0,4.89-1.52,2.73,2.73,0,0,0,1.24-1.51q1.65-2.1,3.13-4.32c1.29-2.12,2.93-5.42,2.3-8.1-.26-1.12-.32-1.68-1.4-2s-2.91.18-3.87.45C732.29,212.76,731.24,213.34,732.39,213.33Z" transform="translate(-593.86 -90.24)"/><path class="cls-5" d="M733.33,212l-.22,1.71-9.36-.3,1.49.4-1-.51a17.9,17.9,0,0,0,3.1,2.82l5,3.53-6.68-12,.78,9.69.77-12.83-2.12,9.88,3.14-10L724,214.26l2.75,7c.3.77.49-.77.48-.67l1.28-1.51q.33-.72.62-1.45a9,9,0,0,0,.87-2.71,6.33,6.33,0,0,1,1.73-3.67l1-2.56-.46-2.32c-.63-1.74-2.28-2.62-3.85-3.25a1.75,1.75,0,0,0-.75,1.05A23.52,23.52,0,0,0,722,217.33a10.57,10.57,0,0,0,.08,5.84,4.66,4.66,0,0,0,5.65,1.48c2-.74,3.55-3,4.75-4.67a8.48,8.48,0,0,0,1.42-7.85c-.2-.66-5.62.39-5.72.4q-2.24.29-4.47.69a1.62,1.62,0,0,0-1.15.46l-.89,1a1.76,1.76,0,0,0,1.29,0q2.33-.43,4.65-1t4.61-1.12A1.76,1.76,0,0,0,733.33,212Z" transform="translate(-593.86 -90.24)"/><path class="cls-5" d="M732.83,215.61l2.12,3.15-8.31-4.58a59.29,59.29,0,0,1,3.81,5.65l-2.39-3.9.74,4.76-.11-2.47-4.32,10.63,5-7.7a10.72,10.72,0,0,0-5.57-2.8l3.86,2.38-2.15-3.3,1.13,2.05-1.67-5.82.87,4.27-.34-6.36-.36,5.35,1-7-1,4.26,1.72-5.71-2.87,5.88,6.93,1.74-5.47-6.9,4.31,9.7-2.6-7.06,1.73,10.24-.67-7-.74,9.88c0-.24-.09,1.67.35.82a23.51,23.51,0,0,0,2.57-6.32,6.17,6.17,0,0,0,.28-1.77,6,6,0,0,1,1.49-3.92l.82-2.4L732.2,209c-.82-1.66-2.41-2.22-4.05-2.43-.79-.1-2.24,2.64-2.48,3-.39.58-2.12,2.51-1.86,3.42l1.42,5-.84-4.72q-.72,2.48-1.24,5a37.32,37.32,0,0,1-.86,5.84,4,4,0,0,0,2.1,5,3.9,3.9,0,0,0,3,0,9.77,9.77,0,0,0,2.63-1q1.76-2.2,3.44-4.47c1.72-2.67,2.35-5.35,1.07-8.3-.37-.86-4.35-1-4.86-1-.68-.09-4.23-1-5-.28l-.92.91c-.26.26,3.72.54,2.69.47A38.79,38.79,0,0,0,732.83,215.61Z" transform="translate(-593.86 -90.24)"/><path class="cls-5" d="M731.17,212.32q3.61,5.38.33,10.18-5.11,9.41-11.79-2.94l.09,1.76a43.79,43.79,0,0,1,2.43-8.72,71.06,71.06,0,0,1,3.53-7.91l-.69,1c1.75-1.75,4.59-1.91,6.1.41l-.28,8.89a43.46,43.46,0,0,1-4.7,8.76c-.25.41.21,1.18.54.72A43.06,43.06,0,0,0,732.48,214a23.52,23.52,0,0,0,1.42-4.86l.33-2.8a6.16,6.16,0,0,0-2.94-4.89c-.82-.52-1.89-1.31-2.93-1-1.77.47-2.94,2.25-3.83,3.73A49.4,49.4,0,0,0,722,209.5c-1.34,3-2.76,6.35-3,9.66-.21,3.1-.14,7.72,3.65,8.81a9.81,9.81,0,0,0,7.76-1.46,10.13,10.13,0,0,0,2.09-2.82l2-3a24.09,24.09,0,0,0,1.61-3.34,9.54,9.54,0,0,0,.45-4.67c-.23-1.12-.39-1.64-1.43-2s-3,.56-3.71.87C731,211.78,730.08,212.37,731.17,212.32Z" transform="translate(-593.86 -90.24)"/><path class="cls-5" d="M732,214.45l1.62-.21-13.4-.45,8.85,12.14q.39.56.33-.12l.75-6.76-2.6-3.34,2.84,4.92q.36.52.33-.11l-1.26-14q0-.68-.34-.08l-4,5c-.26.32-.14,1-.12,1.31.12,2.08.48,4.16.78,6.23a23.45,23.45,0,0,0,.66,3.85c0,.13.33,1.31.47.42a11.21,11.21,0,0,0,3-4.12,13.4,13.4,0,0,1,2.4-5.14,4.48,4.48,0,0,0,.51-4.95,5.45,5.45,0,0,0-2.29-2.47c-.37-.28-3,5.16-2.91,5.06-.16.32-2.81,4.71-2.23,5.39a4.84,4.84,0,0,0,2.39,2.06q1.46.83,2.85,1.79L727,209.8c-2.07,3-4.17,5.58-5,9.22a10.66,10.66,0,0,0-.11,6,4.17,4.17,0,0,0,4,2.06,12.76,12.76,0,0,0,3.49-.85q1.68-2.07,3.38-4.12a6.63,6.63,0,0,0,1.86-4.65,6,6,0,0,0-.61-3.34,2.22,2.22,0,0,0-1.44-.33q-2.72-.15-5.44-.19t-5.44,0a2.22,2.22,0,0,0-1.45.27l-.92,1.12c-.19.24,5.15.07,3.81.13C726.11,214.91,729.1,214.83,732,214.45Z" transform="translate(-593.86 -90.24)"/><path class="cls-5" d="M730.37,213.42l3.56-.63-6.22.44,2.55.4-1.57-.35c2.93,2.11,1.4,6.88.43,9.5l.53-1.11-1.49,2.1.81-1-1.3.72.63-.17a22.57,22.57,0,0,1-2.12-.81A24.41,24.41,0,0,1,723.81,211l.1,3.59.52-7.31-.92,5.05,1.5-5.58-1.37,4.08,2.64-6.54-2.41,5.16,3.14-5-3.08,4.29,2.13-2-1.3,1a3.79,3.79,0,0,1,3.94,1.16l-1-.74.87,1.46-.54-1.13a22,22,0,0,1-.95,14.57c-.15.62.29.76.56.2.57-1.16,1.19-2.31,1.68-3.51,1.37-3.35,2-7.11,3-10.59a2.54,2.54,0,0,0,.06-2.39,2.64,2.64,0,0,0-.9-2,5.23,5.23,0,0,0-2.94-2c-1.68-.45-2.71,1-3.4,2.31a29.77,29.77,0,0,0-2.39,6.14,32.78,32.78,0,0,0-1.11,6.64,22.33,22.33,0,0,0,0,6,2.19,2.19,0,0,0,1.4,2.32,1.61,1.61,0,0,0,1.32.94,6.81,6.81,0,0,0,2.23,0c2.52-.54,3.85-2.26,5.22-4.22,2.21-3.16,4.08-6.66,2.73-10.51-.28-.8-6.51.13-7,.46l-.94.66c-.41.29.17.32.37.35A13,13,0,0,0,730.37,213.42Z" transform="translate(-593.86 -90.24)"/><path class="cls-5" d="M731.66,211.94q4.37,9.68-3.41,14.41-6.36,2.14-8.2-7.4l-.06,1.39a45,45,0,0,1,2.67-8.86q.69-1.66,1.44-3.29a23.9,23.9,0,0,1,1.33-2.75l2.93-1.77,4.28,2.21c4.19,3.49-4.33,15.07-6.32,17.94-.29.42.43.75.72.38a27,27,0,0,0,4.17-6,18.15,18.15,0,0,0,2.14-4.39,17.17,17.17,0,0,0,1.57-4.95l.4-2.92a6.49,6.49,0,0,0-3.1-5.1c-.77-.49-2.09-1.26-3.07-1.1-1.62.27-2.76,1.83-3.62,3.08a41.7,41.7,0,0,0-3.82,7.72,29,29,0,0,0-2.33,8.18,12.19,12.19,0,0,0,0,3.41,18.3,18.3,0,0,0,1.15,3.46c2,3.34,7.48,2.54,10.14.83a6,6,0,0,0,1.31-1.54c1.71-2.17,4.06-4.81,4.85-7.47a11.8,11.8,0,0,0,.51-5c-.24-1.7-.28-1.66-1.42-2.15-.78-.33-2.61.52-3.32.77C732.93,211,730.79,211.85,731.66,211.94Z" transform="translate(-593.86 -90.24)"/><path class="cls-5" d="M731.71,215l1.5-.2L722.54,214l10.16,6-8.2-6.28,4.18,12.26.58-.13-1-7.52-.06,1,4.45-7.68-9.79,1.94,3.7,10.84q.16.58.35,0a14.68,14.68,0,0,0,2.7-4.89,9.81,9.81,0,0,1,2.1-5.36,4.26,4.26,0,0,0,.34-4.85,4.79,4.79,0,0,0-3.64-2.65l-.25.19a28.12,28.12,0,0,0-6.31,13.22,11.61,11.61,0,0,0-.21,6l2,1.86a5.47,5.47,0,0,0,3.87-.19,3.17,3.17,0,0,0,2.53-1.77q1.28-1.61,2.51-3.25c1.7-2.61,2.2-5.19.94-8.06a1.59,1.59,0,0,0-1.16-.39q-2.22-.27-4.45-.43t-4.46-.27a1.59,1.59,0,0,0-1.2.21l-.93,1c-.23.26,4.26.34,3.11.33A52.41,52.41,0,0,0,731.71,215Z" transform="translate(-593.86 -90.24)"/><path class="cls-5" d="M735.11,220.22c.85,0-.69-1.38-.67-1.36q-1-1-2-1.87a3.65,3.65,0,0,0-1.16-.84c-.85,0,.69,1.38.67,1.36q1,1,2,1.87A3.65,3.65,0,0,0,735.11,220.22Z" transform="translate(-593.86 -90.24)"/><path class="cls-5" d="M735.6,224.24c.72,0-1.13-2.79-1.78-2.79S734.94,224.24,735.6,224.24Z" transform="translate(-593.86 -90.24)"/><path class="cls-5" d="M732.87,217.59a2,2,0,0,0-.82-1.14q-1.86-1.81-3.8-3.53t-3.91-3.41a2,2,0,0,0-1.22-.7,2,2,0,0,0,.82,1.14q1.86,1.81,3.8,3.53t3.91,3.41A2,2,0,0,0,732.87,217.59Z" transform="translate(-593.86 -90.24)"/><path class="cls-5" d="M733.08,219.61a1.44,1.44,0,0,0-.53-1q-1.34-1.62-2.76-3.18t-2.88-3.07a.6.6,0,1,0-.44.4q1.34,1.62,2.76,3.18t2.88,3.07A1.44,1.44,0,0,0,733.08,219.61Z" transform="translate(-593.86 -90.24)"/><path class="cls-5" d="M735.78,219.74c.71,0-.35-1-.35-1-.45-.43-1.46-1.57-2.16-1.57s.35,1,.35,1C734.07,218.6,735.08,219.74,735.78,219.74Z" transform="translate(-593.86 -90.24)"/><path class="cls-5" d="M732.73,217a1.36,1.36,0,0,0-.63-.92q-1.5-1.38-3.06-2.68t-3.17-2.56a.58.58,0,1,0-.38.46q1.5,1.38,3.06,2.68t3.17,2.56A1.36,1.36,0,0,0,732.73,217Z" transform="translate(-593.86 -90.24)"/><path class="cls-5" d="M733.71,221.2a1.8,1.8,0,0,0-.58-1.17q-1.46-1.91-3-3.75T727,212.64a.67.67,0,1,0-.46.38q1.46,1.91,3,3.75t3.13,3.65A1.8,1.8,0,0,0,733.71,221.2Z" transform="translate(-593.86 -90.24)"/><path class="cls-5" d="M734.69,218.35c.6,0-.16-.8-.2-.83-.35-.37-1.09-1.08-1.65-1.08s.16.8.2.83C733.39,217.64,734.13,218.35,734.69,218.35Z" transform="translate(-593.86 -90.24)"/><path class="cls-5" d="M733.36,219.16a2.48,2.48,0,0,0-.86-1.31q-2-2.13-4-4.19t-4.1-4.08a2.48,2.48,0,0,0-1.28-.89A2.48,2.48,0,0,0,724,210q2,2.13,4,4.19t4.1,4.08A2.48,2.48,0,0,0,733.36,219.16Z" transform="translate(-593.86 -90.24)"/><path class="cls-5" d="M733.15,218.37c.9,0-.83-1.5-.8-1.48q-1.1-1.08-2.25-2.1a4.56,4.56,0,0,0-1.29-1c-.9,0,.83,1.5.8,1.48q1.1,1.08,2.25,2.1A4.56,4.56,0,0,0,733.15,218.37Z" transform="translate(-593.86 -90.24)"/><path class="cls-5" d="M735.58,218.24c.56,0-.13-.74-.16-.77a2.55,2.55,0,0,0-1.48-.84c-.56,0,.13.74.16.77A2.55,2.55,0,0,0,735.58,218.24Z" transform="translate(-593.86 -90.24)"/><path class="cls-5" d="M733,220a2,2,0,0,0-.66-1.23q-1.6-2-3.29-4t-3.41-3.87a2,2,0,0,0-1.12-.85,2,2,0,0,0,.66,1.23q1.6,2,3.29,4t3.41,3.87A2,2,0,0,0,733,220Z" transform="translate(-593.86 -90.24)"/><path class="cls-5" d="M731.9,218.61c.85,0-.69-1.38-.67-1.36q-1-1-2-1.87a3.65,3.65,0,0,0-1.16-.84c-.85,0,.69,1.38.67,1.36q1,1,2,1.87A3.65,3.65,0,0,0,731.9,218.61Z" transform="translate(-593.86 -90.24)"/><path class="cls-5" d="M732.39,222.64c.72,0-1.13-2.79-1.78-2.79S731.73,222.64,732.39,222.64Z" transform="translate(-593.86 -90.24)"/><path class="cls-5" d="M729.66,216a2,2,0,0,0-.82-1.14Q727,213,725,211.31t-3.91-3.41a2,2,0,0,0-1.22-.7,2,2,0,0,0,.82,1.14q1.86,1.81,3.8,3.53t3.91,3.41A2,2,0,0,0,729.66,216Z" transform="translate(-593.86 -90.24)"/><path class="cls-5" d="M729.87,218a1.44,1.44,0,0,0-.53-1q-1.34-1.62-2.76-3.18t-2.88-3.07a.6.6,0,1,0-.44.4q1.34,1.62,2.76,3.18t2.88,3.07A1.44,1.44,0,0,0,729.87,218Z" transform="translate(-593.86 -90.24)"/><path class="cls-5" d="M732.57,218.13c.71,0-.35-1-.35-1-.45-.43-1.46-1.57-2.16-1.57s.35,1,.35,1C730.86,217,731.87,218.13,732.57,218.13Z" transform="translate(-593.86 -90.24)"/><path class="cls-5" d="M729.52,215.35a1.36,1.36,0,0,0-.63-.92q-1.5-1.38-3.06-2.68t-3.17-2.56a.58.58,0,1,0-.38.46q1.5,1.38,3.06,2.68t3.17,2.56A1.36,1.36,0,0,0,729.52,215.35Z" transform="translate(-593.86 -90.24)"/><path class="cls-5" d="M730.5,219.6a1.8,1.8,0,0,0-.58-1.17q-1.46-1.91-3-3.75T723.77,211a.67.67,0,1,0-.46.38q1.46,1.91,3,3.75t3.13,3.65A1.8,1.8,0,0,0,730.5,219.6Z" transform="translate(-593.86 -90.24)"/><path class="cls-5" d="M731.48,216.74c.6,0-.16-.8-.2-.83-.35-.37-1.1-1.08-1.65-1.08s.16.8.2.83C730.18,216,730.92,216.74,731.48,216.74Z" transform="translate(-593.86 -90.24)"/><path class="cls-5" d="M730.15,217.55a2.48,2.48,0,0,0-.86-1.31q-2-2.13-4-4.19t-4.1-4.08a2.48,2.48,0,0,0-1.28-.89,2.48,2.48,0,0,0,.86,1.31q2,2.13,4,4.19t4.1,4.08A2.48,2.48,0,0,0,730.15,217.55Z" transform="translate(-593.86 -90.24)"/><path class="cls-5" d="M729.94,216.77c.9,0-.83-1.5-.8-1.48q-1.1-1.08-2.25-2.1a4.56,4.56,0,0,0-1.29-1c-.9,0,.83,1.5.8,1.48q1.1,1.08,2.25,2.1A4.56,4.56,0,0,0,729.94,216.77Z" transform="translate(-593.86 -90.24)"/><path class="cls-5" d="M732.37,216.64c.56,0-.13-.74-.16-.77a2.55,2.55,0,0,0-1.48-.84c-.56,0,.13.74.16.77A2.55,2.55,0,0,0,732.37,216.64Z" transform="translate(-593.86 -90.24)"/><path class="cls-5" d="M729.74,218.4a2,2,0,0,0-.66-1.23q-1.6-2-3.29-4t-3.41-3.87a2,2,0,0,0-1.12-.85,2,2,0,0,0,.66,1.23q1.6,2,3.29,4t3.41,3.87A2,2,0,0,0,729.74,218.4Z" transform="translate(-593.86 -90.24)"/><path class="cls-5" d="M716.53,221.13l.57,1.29c.32.73.9-1,.9-1,.29-.72,1.29-2.61,1-3.42l-.35-.94c-.27-.73-.94.85-.95.86C717.42,218.5,716.22,220.45,716.53,221.13Z" transform="translate(-593.86 -90.24)"/><path class="cls-5" d="M715.73,225.22l.54,1.46c.25.67.79-.73.78-.71.24-.61.87-1.9.62-2.58l-.44-1.2c-.23-.64-.79.6-.8.62C716.19,223.34,715.5,224.59,715.73,225.22Z" transform="translate(-593.86 -90.24)"/><path class="cls-5" d="M717.14,218l.57,1.5a2,2,0,0,0,.85-1.09q1.19-2.26,2.27-4.57t2.13-4.64a2,2,0,0,0,.31-1.35l-.24-1.17a2,2,0,0,0-.88,1q-1.25,2.19-2.4,4.44t-2.26,4.51A2,2,0,0,0,717.14,218Z" transform="translate(-593.86 -90.24)"/><path class="cls-5" d="M716.1,220.41l.56,1.5a1.66,1.66,0,0,0,.77-1q1-2.05,2-4.15t1.82-4.21a1.66,1.66,0,0,0,.23-1.23l-.21-1.13a1.62,1.62,0,0,0-.8.94q-1.1,2-2.1,4t-2,4.07A1.62,1.62,0,0,0,716.1,220.41Z" transform="translate(-593.86 -90.24)"/><path class="cls-5" d="M716.06,221.06l.52,1.47c.2.55.7-.35.73-.42.24-.42.7-1.35.53-1.85L717.4,219C717.18,218.36,715.86,220.51,716.06,221.06Z" transform="translate(-593.86 -90.24)"/><path class="cls-5" d="M716.86,217.43l.53,1.53a1.36,1.36,0,0,0,.77-.81q1-1.75,2-3.56c.5-.94,2.32-3.45,2.06-4.72l-.24-1.17a1.32,1.32,0,0,0-.79.76q-1.08,1.67-2.07,3.41C718.68,213.54,716.5,216.38,716.86,217.43Z" transform="translate(-593.86 -90.24)"/><path class="cls-5" d="M716.36,222.06l.56,1.51a2,2,0,0,0,.76-1.15q1-2.34,1.89-4.72t1.74-4.77a2,2,0,0,0,.2-1.37l-.21-1.17a1.93,1.93,0,0,0-.79,1.11q-1.06,2.27-2,4.58t-1.88,4.64A1.93,1.93,0,0,0,716.36,222.06Z" transform="translate(-593.86 -90.24)"/><path class="cls-5" d="M715,219.26l.55,1.32c.28.66,1.77-1.81,1.54-2.37l-.39-1C716.36,216.52,714.76,218.76,715,219.26Z" transform="translate(-593.86 -90.24)"/><path class="cls-5" d="M717,219.65l.58,1.51a2.44,2.44,0,0,0,.86-1.29q1.19-2.61,2.29-5.26t2.14-5.32a2.44,2.44,0,0,0,.31-1.52l-.23-1.21a2.4,2.4,0,0,0-.89,1.25q-1.26,2.55-2.42,5.14t-2.28,5.2A2.4,2.4,0,0,0,717,219.65Z" transform="translate(-593.86 -90.24)"/><path class="cls-5" d="M715.76,219.15l.56,1.42a16.74,16.74,0,0,0,1.59-2.3q.59-1.11,1.13-2.25a5.42,5.42,0,0,0,.63-1.64l-.3-1.34a.79.79,0,0,0-.63.49q-.79,1.16-1.49,2.37C716.91,216.46,715.44,218.33,715.76,219.15Z" transform="translate(-593.86 -90.24)"/><path class="cls-5" d="M715.38,219.34l.5,1.69c.21.7,1.3-.84,1.19-1.3l-.43-1.79C716.46,217.27,715.23,218.83,715.38,219.34Z" transform="translate(-593.86 -90.24)"/><path class="cls-5" d="M716.23,220.9l.56,1.56a2.32,2.32,0,0,0,.86-1.24q1.2-2.52,2.3-5.08T722.1,211a2.32,2.32,0,0,0,.32-1.47l-.22-1.23a2.28,2.28,0,0,0-.89,1.19q-1.26,2.45-2.43,5t-2.29,5A2.28,2.28,0,0,0,716.23,220.9Z" transform="translate(-593.86 -90.24)"/><path class="cls-5" d="M731.9,222.36c.85,0-.69-1.38-.67-1.36q-1-1-2-1.87a3.65,3.65,0,0,0-1.16-.84c-.85,0,.69,1.38.67,1.36q1,1,2,1.87A3.65,3.65,0,0,0,731.9,222.36Z" transform="translate(-593.86 -90.24)"/><path class="cls-5" d="M732.39,226.38c.72,0-1.13-2.79-1.78-2.79S731.73,226.38,732.39,226.38Z" transform="translate(-593.86 -90.24)"/><path class="cls-5" d="M729.66,219.73a2,2,0,0,0-.82-1.14q-1.86-1.81-3.8-3.53t-3.91-3.41a2,2,0,0,0-1.22-.7,2,2,0,0,0,.82,1.14q1.86,1.81,3.8,3.53t3.91,3.41A2,2,0,0,0,729.66,219.73Z" transform="translate(-593.86 -90.24)"/><path class="cls-5" d="M729.87,221.75a1.44,1.44,0,0,0-.53-1q-1.34-1.62-2.76-3.18t-2.88-3.07a.6.6,0,1,0-.44.4q1.34,1.62,2.76,3.18t2.88,3.07A1.44,1.44,0,0,0,729.87,221.75Z" transform="translate(-593.86 -90.24)"/><path class="cls-5" d="M732.57,221.88c.71,0-.35-1-.35-1-.45-.43-1.46-1.57-2.16-1.57s.35,1,.35,1C730.86,220.74,731.87,221.88,732.57,221.88Z" transform="translate(-593.86 -90.24)"/><path class="cls-5" d="M729.52,219.09a1.36,1.36,0,0,0-.63-.92q-1.5-1.38-3.06-2.68t-3.17-2.56a.58.58,0,1,0-.38.46q1.5,1.38,3.06,2.68t3.17,2.56A1.36,1.36,0,0,0,729.52,219.09Z" transform="translate(-593.86 -90.24)"/><path class="cls-5" d="M730.5,223.34a1.8,1.8,0,0,0-.58-1.17q-1.46-1.91-3-3.75t-3.13-3.65a.67.67,0,1,0-.46.38q1.46,1.91,3,3.75t3.13,3.65A1.8,1.8,0,0,0,730.5,223.34Z" transform="translate(-593.86 -90.24)"/><path class="cls-5" d="M731.48,220.49c.6,0-.16-.8-.2-.83-.35-.37-1.1-1.08-1.65-1.08s.16.8.2.83C730.18,219.78,730.92,220.49,731.48,220.49Z" transform="translate(-593.86 -90.24)"/><path class="cls-5" d="M730.15,221.3a2.48,2.48,0,0,0-.86-1.31q-2-2.13-4-4.19t-4.1-4.08a2.48,2.48,0,0,0-1.28-.89,2.48,2.48,0,0,0,.86,1.31q2,2.13,4,4.19t4.1,4.08A2.48,2.48,0,0,0,730.15,221.3Z" transform="translate(-593.86 -90.24)"/><path class="cls-5" d="M729.94,220.51c.9,0-.83-1.5-.8-1.48q-1.1-1.08-2.25-2.1a4.56,4.56,0,0,0-1.29-1c-.9,0,.83,1.5.8,1.48q1.1,1.08,2.25,2.1A4.56,4.56,0,0,0,729.94,220.51Z" transform="translate(-593.86 -90.24)"/><path class="cls-5" d="M732.37,220.38c.56,0-.13-.74-.16-.77a2.55,2.55,0,0,0-1.48-.84c-.56,0,.13.74.16.77A2.55,2.55,0,0,0,732.37,220.38Z" transform="translate(-593.86 -90.24)"/><path class="cls-5" d="M729.74,222.15a2,2,0,0,0-.66-1.23q-1.6-2-3.29-4t-3.41-3.87a2,2,0,0,0-1.12-.85,2,2,0,0,0,.66,1.23q1.6,2,3.29,4t3.41,3.87A2,2,0,0,0,729.74,222.15Z" transform="translate(-593.86 -90.24)"/><path class="cls-5" d="M730.29,229.84c.85,0-.69-1.38-.67-1.36q-1-1-2-1.87a3.65,3.65,0,0,0-1.16-.84c-.85,0,.69,1.38.67,1.36q1,1,2,1.87A3.65,3.65,0,0,0,730.29,229.84Z" transform="translate(-593.86 -90.24)"/><path class="cls-5" d="M730.78,233.87c.72,0-1.13-2.79-1.78-2.79S730.13,233.87,730.78,233.87Z" transform="translate(-593.86 -90.24)"/><path class="cls-5" d="M728.05,227.22a2,2,0,0,0-.82-1.14q-1.86-1.81-3.8-3.53t-3.91-3.41a2,2,0,0,0-1.22-.7,2,2,0,0,0,.82,1.14q1.86,1.81,3.8,3.53t3.91,3.41A2,2,0,0,0,728.05,227.22Z" transform="translate(-593.86 -90.24)"/><path class="cls-5" d="M728.27,229.24a1.44,1.44,0,0,0-.53-1Q726.4,226.59,725,225T722.1,222a.6.6,0,1,0-.44.4q1.34,1.62,2.76,3.18t2.88,3.07A1.44,1.44,0,0,0,728.27,229.24Z" transform="translate(-593.86 -90.24)"/><path class="cls-5" d="M731,229.37c.71,0-.35-1-.35-1-.45-.43-1.46-1.57-2.16-1.57s.35,1,.35,1C729.25,228.23,730.26,229.37,731,229.37Z" transform="translate(-593.86 -90.24)"/><path class="cls-5" d="M727.91,226.58a1.36,1.36,0,0,0-.63-.92q-1.5-1.38-3.06-2.68T721,220.43a.58.58,0,1,0-.38.46q1.5,1.38,3.06,2.68t3.17,2.56A1.36,1.36,0,0,0,727.91,226.58Z" transform="translate(-593.86 -90.24)"/><path class="cls-5" d="M728.89,230.83a1.8,1.8,0,0,0-.58-1.17q-1.46-1.91-3-3.75t-3.13-3.65a.67.67,0,1,0-.46.38q1.46,1.91,3,3.75t3.13,3.65A1.8,1.8,0,0,0,728.89,230.83Z" transform="translate(-593.86 -90.24)"/><path class="cls-5" d="M729.87,228c.6,0-.16-.8-.2-.83-.35-.37-1.1-1.08-1.65-1.08s.16.8.2.83C728.57,227.27,729.32,228,729.87,228Z" transform="translate(-593.86 -90.24)"/><path class="cls-5" d="M728.55,228.79a2.48,2.48,0,0,0-.86-1.31q-2-2.13-4-4.19t-4.1-4.08a2.48,2.48,0,0,0-1.28-.89,2.48,2.48,0,0,0,.86,1.31q2,2.13,4,4.19t4.1,4.08A2.48,2.48,0,0,0,728.55,228.79Z" transform="translate(-593.86 -90.24)"/><path class="cls-5" d="M728.34,228c.9,0-.83-1.5-.8-1.48q-1.1-1.08-2.25-2.1a4.56,4.56,0,0,0-1.29-1c-.9,0,.83,1.5.8,1.48Q725.9,226,727,227A4.56,4.56,0,0,0,728.34,228Z" transform="translate(-593.86 -90.24)"/><path class="cls-5" d="M730.76,227.87c.56,0-.13-.74-.16-.77a2.55,2.55,0,0,0-1.48-.84c-.56,0,.13.74.16.77A2.55,2.55,0,0,0,730.76,227.87Z" transform="translate(-593.86 -90.24)"/><path class="cls-5" d="M728.14,229.64a2,2,0,0,0-.66-1.23q-1.6-2-3.29-4t-3.41-3.87a2,2,0,0,0-1.12-.85,2,2,0,0,0,.66,1.23q1.6,2,3.29,4t3.41,3.87A2,2,0,0,0,728.14,229.64Z" transform="translate(-593.86 -90.24)"/><path class="cls-5" d="M729.76,224.49c.85,0-.69-1.38-.67-1.36q-1-1-2-1.87a3.65,3.65,0,0,0-1.16-.84c-.85,0,.69,1.38.67,1.36q1,1,2,1.87A3.65,3.65,0,0,0,729.76,224.49Z" transform="translate(-593.86 -90.24)"/><path class="cls-5" d="M730.25,228.52c.72,0-1.13-2.79-1.78-2.79S729.59,228.52,730.25,228.52Z" transform="translate(-593.86 -90.24)"/><path class="cls-5" d="M727.52,221.87a2,2,0,0,0-.82-1.14q-1.86-1.81-3.8-3.53T719,213.78a2,2,0,0,0-1.22-.7,2,2,0,0,0,.82,1.14q1.86,1.81,3.8,3.53t3.91,3.41A2,2,0,0,0,727.52,221.87Z" transform="translate(-593.86 -90.24)"/><path class="cls-5" d="M727.73,223.89a1.44,1.44,0,0,0-.53-1q-1.34-1.62-2.76-3.18t-2.88-3.07a.6.6,0,1,0-.44.4q1.34,1.62,2.76,3.18t2.88,3.07A1.44,1.44,0,0,0,727.73,223.89Z" transform="translate(-593.86 -90.24)"/><path class="cls-5" d="M730.43,224c.71,0-.35-1-.35-1-.45-.43-1.46-1.57-2.16-1.57s.35,1,.35,1C728.72,222.88,729.73,224,730.43,224Z" transform="translate(-593.86 -90.24)"/><path class="cls-5" d="M727.38,221.23a1.36,1.36,0,0,0-.63-.92q-1.5-1.38-3.06-2.68t-3.17-2.56a.58.58,0,1,0-.38.46q1.5,1.38,3.06,2.68t3.17,2.56A1.36,1.36,0,0,0,727.38,221.23Z" transform="translate(-593.86 -90.24)"/><path class="cls-5" d="M728.36,225.48a1.8,1.8,0,0,0-.58-1.17q-1.46-1.91-3-3.75t-3.13-3.65a.67.67,0,1,0-.46.38q1.46,1.91,3,3.75t3.13,3.65A1.8,1.8,0,0,0,728.36,225.48Z" transform="translate(-593.86 -90.24)"/><path class="cls-5" d="M729.34,222.62c.6,0-.16-.8-.2-.83-.35-.37-1.1-1.08-1.65-1.08s.16.8.2.83C728,221.92,728.78,222.62,729.34,222.62Z" transform="translate(-593.86 -90.24)"/><path class="cls-5" d="M728,223.44a2.48,2.48,0,0,0-.86-1.31q-2-2.13-4-4.19t-4.1-4.08a2.48,2.48,0,0,0-1.28-.89,2.48,2.48,0,0,0,.86,1.31q2,2.13,4,4.19t4.1,4.08A2.48,2.48,0,0,0,728,223.44Z" transform="translate(-593.86 -90.24)"/><path class="cls-5" d="M727.8,222.65c.9,0-.83-1.5-.8-1.48q-1.1-1.08-2.25-2.1a4.56,4.56,0,0,0-1.29-1c-.9,0,.83,1.5.8,1.48q1.1,1.08,2.25,2.1A4.56,4.56,0,0,0,727.8,222.65Z" transform="translate(-593.86 -90.24)"/><path class="cls-5" d="M730.23,222.52c.56,0-.13-.74-.16-.77a2.55,2.55,0,0,0-1.48-.84c-.56,0,.13.74.16.77A2.55,2.55,0,0,0,730.23,222.52Z" transform="translate(-593.86 -90.24)"/><path class="cls-5" d="M727.6,224.29a2,2,0,0,0-.66-1.23q-1.6-2-3.29-4t-3.41-3.87a2,2,0,0,0-1.12-.85,2,2,0,0,0,.66,1.23q1.6,2,3.29,4t3.41,3.87A2,2,0,0,0,727.6,224.29Z" transform="translate(-593.86 -90.24)"/><path class="cls-5" d="M731.36,219.15c.85,0-.69-1.38-.67-1.36q-1-1-2-1.87a3.65,3.65,0,0,0-1.16-.84c-.85,0,.69,1.38.67,1.36q1,1,2,1.87A3.65,3.65,0,0,0,731.36,219.15Z" transform="translate(-593.86 -90.24)"/><path class="cls-5" d="M731.85,223.17c.72,0-1.13-2.79-1.78-2.79S731.2,223.17,731.85,223.17Z" transform="translate(-593.86 -90.24)"/><path class="cls-5" d="M729.12,216.52a2,2,0,0,0-.82-1.14q-1.86-1.81-3.8-3.53t-3.91-3.41a2,2,0,0,0-1.22-.7,2,2,0,0,0,.82,1.14q1.86,1.81,3.8,3.53t3.91,3.41A2,2,0,0,0,729.12,216.52Z" transform="translate(-593.86 -90.24)"/><path class="cls-5" d="M729.34,218.54a1.44,1.44,0,0,0-.53-1q-1.34-1.62-2.76-3.18t-2.88-3.07a.6.6,0,1,0-.44.4q1.34,1.62,2.76,3.18t2.88,3.07A1.44,1.44,0,0,0,729.34,218.54Z" transform="translate(-593.86 -90.24)"/><path class="cls-5" d="M732,218.67c.71,0-.35-1-.35-1-.45-.43-1.46-1.57-2.16-1.57s.35,1,.35,1C730.32,217.53,731.33,218.67,732,218.67Z" transform="translate(-593.86 -90.24)"/><path class="cls-5" d="M729,215.88a1.36,1.36,0,0,0-.63-.92q-1.5-1.38-3.06-2.68t-3.17-2.56a.58.58,0,1,0-.38.46q1.5,1.38,3.06,2.68t3.17,2.56A1.36,1.36,0,0,0,729,215.88Z" transform="translate(-593.86 -90.24)"/><path class="cls-5" d="M730,220.13a1.8,1.8,0,0,0-.58-1.17q-1.46-1.91-3-3.75t-3.13-3.65a.67.67,0,1,0-.46.38q1.46,1.91,3,3.75t3.13,3.65A1.8,1.8,0,0,0,730,220.13Z" transform="translate(-593.86 -90.24)"/><path class="cls-5" d="M730.94,217.28c.6,0-.16-.8-.2-.83-.35-.37-1.1-1.08-1.65-1.08s.16.8.2.83C729.64,216.57,730.39,217.28,730.94,217.28Z" transform="translate(-593.86 -90.24)"/><path class="cls-5" d="M729.62,218.09a2.48,2.48,0,0,0-.86-1.31q-2-2.13-4-4.19t-4.1-4.08a2.48,2.48,0,0,0-1.28-.89,2.48,2.48,0,0,0,.86,1.31q2,2.13,4,4.19t4.1,4.08A2.48,2.48,0,0,0,729.62,218.09Z" transform="translate(-593.86 -90.24)"/><path class="cls-5" d="M729.41,217.3c.9,0-.83-1.5-.8-1.48q-1.1-1.08-2.25-2.1a4.56,4.56,0,0,0-1.29-1c-.9,0,.83,1.5.8,1.48q1.1,1.08,2.25,2.1A4.56,4.56,0,0,0,729.41,217.3Z" transform="translate(-593.86 -90.24)"/><path class="cls-5" d="M731.83,217.17c.56,0-.13-.74-.16-.77a2.55,2.55,0,0,0-1.48-.84c-.56,0,.13.74.16.77A2.55,2.55,0,0,0,731.83,217.17Z" transform="translate(-593.86 -90.24)"/><path class="cls-5" d="M729.21,218.94a2,2,0,0,0-.66-1.23q-1.6-2-3.29-4t-3.41-3.87a2,2,0,0,0-1.12-.85,2,2,0,0,0,.66,1.23q1.6,2,3.29,4t3.41,3.87A2,2,0,0,0,729.21,218.94Z" transform="translate(-593.86 -90.24)"/><path class="cls-5" d="M710.3,222.31l0,.5c.06.76,1.11-.49,1.13-.52.51-.54,2-1.82,2-2.65v-.27c0-.77-1.15.46-1.13.45C711.9,220.24,710.24,221.59,710.3,222.31Z" transform="translate(-593.86 -90.24)"/><path class="cls-5" d="M709.24,226.17l0,.57c0,.64.87-.27.85-.26a3.82,3.82,0,0,0,1.09-1.79l.1-.67c.1-.67-.93.35-.87.28A3.78,3.78,0,0,0,709.24,226.17Z" transform="translate(-593.86 -90.24)"/><path class="cls-5" d="M711.59,219.69l0,.55a2,2,0,0,0,1.2-.73q1.93-1.72,3.79-3.51t3.68-3.63a2,2,0,0,0,.78-1.16l.05-.27a2,2,0,0,0-1.2.7Q718,213.29,716.1,215t-3.72,3.52A2,2,0,0,0,711.59,219.69Z" transform="translate(-593.86 -90.24)"/><path class="cls-5" d="M710.26,221.86l0,.56a1.66,1.66,0,0,0,1-.68q1.64-1.6,3.2-3.28t3.08-3.39a1.66,1.66,0,0,0,.61-1.09l.05-.26a1.62,1.62,0,0,0-1.05.64q-1.65,1.54-3.22,3.16t-3.11,3.27A1.62,1.62,0,0,0,710.26,221.86Z" transform="translate(-593.86 -90.24)"/><path class="cls-5" d="M709.57,222l0,.58c0,.56.74,0,.8-.05a2.79,2.79,0,0,0,1.11-1.38l.11-.59c.1-.57-.79,0-.81.05C710.35,220.84,709.62,221.45,709.57,222Z" transform="translate(-593.86 -90.24)"/><path class="cls-5" d="M711.24,219.12v.57a1.45,1.45,0,0,0,1-.5q1.66-1.3,3.26-2.69t3.15-2.81a1.45,1.45,0,0,0,.66-1l0-.27a1.42,1.42,0,0,0-1,.47q-1.67,1.24-3.28,2.57t-3.18,2.69A1.42,1.42,0,0,0,711.24,219.12Z" transform="translate(-593.86 -90.24)"/><path class="cls-5" d="M710.52,223.35l0,.56a1.84,1.84,0,0,0,1-.82q1.13-1.3,2.21-2.65,1.36-1.67,2.68-3.37a15.51,15.51,0,0,0,1.72-2.44l.12-.64a1.8,1.8,0,0,0-1,.79q-1.61,1.79-3.14,3.65t-3,3.75A1.8,1.8,0,0,0,710.52,223.35Z" transform="translate(-593.86 -90.24)"/><path class="cls-5" d="M708.72,220.08l0,.51c0,.76,2.66-1.12,2.66-1.73v-.33C711.42,217.77,708.69,219.48,708.72,220.08Z" transform="translate(-593.86 -90.24)"/><path class="cls-5" d="M711.45,221.17l0,.54a2.37,2.37,0,0,0,1.22-.91q2-2,3.83-4.15t3.71-4.25a2.37,2.37,0,0,0,.78-1.31l.06-.29a2.33,2.33,0,0,0-1.23.88q-2,2-3.86,4t-3.75,4.15A2.33,2.33,0,0,0,711.45,221.17Z" transform="translate(-593.86 -90.24)"/><path class="cls-5" d="M709.78,220.5v.57a.88.88,0,0,0,.8-.32q.85-.66,1.65-1.39,1-.88,2-1.81a6.17,6.17,0,0,0,1.27-1.38l0-.26c.14-.86-2.21,1.14-2.42,1.31-.84.68-1.67,1.38-2.47,2.11C710.35,219.62,709.78,220,709.78,220.5Z" transform="translate(-593.86 -90.24)"/><path class="cls-5" d="M708.91,220.14l-.06.58c-.08.76,1.67-.47,1.77-.9l.17-.66C710.93,218.59,709,219.52,708.91,220.14Z" transform="translate(-593.86 -90.24)"/><path class="cls-5" d="M710.48,222.32l0,.56a2.26,2.26,0,0,0,1.19-.89q1.89-2,3.7-4.06t3.59-4.16a2.26,2.26,0,0,0,.74-1.29l.06-.3a2.22,2.22,0,0,0-1.19.86q-1.91,1.94-3.74,3.95t-3.62,4.06A2.22,2.22,0,0,0,710.48,222.32Z" transform="translate(-593.86 -90.24)"/><path class="cls-5" d="M716.72,229.81l.55.85c.43.67.77-1.09.77-1.11.2-.77,1-2.8.55-3.59l-.3-.58c-.37-.7-.83,1-.83,1C717.26,227,716.32,229.18,716.72,229.81Z" transform="translate(-593.86 -90.24)"/><path class="cls-5" d="M716.08,233.87l.53,1c.34.64.72-.84.72-.83.18-.66.71-2.1.39-2.79l-.41-.88c-.31-.66-.75.81-.74.79C716.37,231.74,715.75,233.25,716.08,233.87Z" transform="translate(-593.86 -90.24)"/><path class="cls-5" d="M717,226.5l.57,1a2,2,0,0,0,.69-1.2q.85-2.4,1.6-4.83t1.45-4.88a2,2,0,0,0,.12-1.38l-.25-.74a1.94,1.94,0,0,0-.72,1.16q-.91,2.34-1.72,4.72t-1.57,4.78A1.94,1.94,0,0,0,717,226.5Z" transform="translate(-593.86 -90.24)"/><path class="cls-5" d="M716.11,229l.56,1a1.66,1.66,0,0,0,.64-1.07q.76-2.16,1.42-4.35t1.27-4.4a1.66,1.66,0,0,0,.07-1.25l-.22-.71a1.61,1.61,0,0,0-.67,1q-.83,2.09-1.55,4.23t-1.41,4.28A1.61,1.61,0,0,0,716.11,229Z" transform="translate(-593.86 -90.24)"/><path class="cls-5" d="M716.39,229.82l.5,1.06c.25.53.65-.44.67-.5a3,3,0,0,0,.27-1.87l-.41-.95c-.23-.53-.66.38-.69.45C716.54,228.43,716.17,229.36,716.39,229.82Z" transform="translate(-593.86 -90.24)"/><path class="cls-5" d="M716.75,226l.54,1a1.33,1.33,0,0,0,.63-.91q.75-1.86,1.4-3.76c.36-1,1.74-3.67,1.32-4.92l-.25-.74a1.29,1.29,0,0,0-.66.86q-.81,1.8-1.51,3.64C717.93,221.91,716.24,225,716.75,226Z" transform="translate(-593.86 -90.24)"/><path class="cls-5" d="M716.42,230.65l.54,1.09a2,2,0,0,0,.63-1.25q.73-2.47,1.34-5t1.19-5a2,2,0,0,0,0-1.4l-.22-.76a2,2,0,0,0-.66,1.2q-.79,2.4-1.47,4.83t-1.32,4.88A2,2,0,0,0,716.42,230.65Z" transform="translate(-593.86 -90.24)"/><path class="cls-5" d="M715.24,228.08l.52,1c.34.64,1.4-1.8,1.15-2.31l-.37-.75C716.21,225.3,715,227.58,715.24,228.08Z" transform="translate(-593.86 -90.24)"/><path class="cls-5" d="M717,228.25l.58,1a2.46,2.46,0,0,0,.69-1.4q.85-2.75,1.59-5.54t1.44-5.58a2.46,2.46,0,0,0,.11-1.55l-.25-.77a2.42,2.42,0,0,0-.72,1.36q-.91,2.71-1.72,5.44t-1.57,5.49A2.42,2.42,0,0,0,717,228.25Z" transform="translate(-593.86 -90.24)"/><path class="cls-5" d="M715.84,227.79l.53,1a.79.79,0,0,0,.52-.61q.39-.91.71-1.85.43-1.16.8-2.34a5.24,5.24,0,0,0,.39-1.68l-.24-.7c-.28-.81-1.35,1.88-1.44,2.09-.38.91-.79,1.83-1.09,2.78C715.9,226.85,715.62,227.38,715.84,227.79Z" transform="translate(-593.86 -90.24)"/><path class="cls-5" d="M715.72,228.14l.49,1.18c.27.64,1.1-.9,1-1.23l-.51-1.48C716.49,226,715.51,227.63,715.72,228.14Z" transform="translate(-593.86 -90.24)"/><path class="cls-5" d="M716.22,229.51l.57,1.05a2.33,2.33,0,0,0,.71-1.34q.89-2.65,1.67-5.34t1.52-5.38a2.33,2.33,0,0,0,.14-1.51l-.24-.78a2.29,2.29,0,0,0-.74,1.3q-.95,2.6-1.79,5.23T716.39,228A2.29,2.29,0,0,0,716.22,229.51Z" transform="translate(-593.86 -90.24)"/><path class="cls-5" d="M730.83,230.38c.85,0-.69-1.38-.67-1.36q-1-1-2-1.87a3.65,3.65,0,0,0-1.16-.84c-.85,0,.69,1.38.67,1.36q1,1,2,1.87A3.65,3.65,0,0,0,730.83,230.38Z" transform="translate(-593.86 -90.24)"/><path class="cls-5" d="M731.32,234.41c.72,0-1.13-2.79-1.78-2.79S730.66,234.41,731.32,234.41Z" transform="translate(-593.86 -90.24)"/><path class="cls-5" d="M728.59,227.75a2,2,0,0,0-.82-1.14q-1.86-1.81-3.8-3.53t-3.91-3.41a2,2,0,0,0-1.22-.7,2,2,0,0,0,.82,1.14q1.86,1.81,3.8,3.53t3.91,3.41A2,2,0,0,0,728.59,227.75Z" transform="translate(-593.86 -90.24)"/><path class="cls-5" d="M728.8,229.78a1.44,1.44,0,0,0-.53-1q-1.34-1.62-2.76-3.18t-2.88-3.07a.6.6,0,1,0-.44.4q1.34,1.62,2.76,3.18t2.88,3.07A1.44,1.44,0,0,0,728.8,229.78Z" transform="translate(-593.86 -90.24)"/><path class="cls-5" d="M731.5,229.9c.71,0-.35-1-.35-1-.45-.43-1.46-1.57-2.16-1.57s.35,1,.35,1C729.79,228.76,730.8,229.9,731.5,229.9Z" transform="translate(-593.86 -90.24)"/><path class="cls-5" d="M728.45,227.12a1.36,1.36,0,0,0-.63-.92q-1.5-1.38-3.06-2.68T721.58,221a.58.58,0,1,0-.38.46q1.5,1.38,3.06,2.68t3.17,2.56A1.36,1.36,0,0,0,728.45,227.12Z" transform="translate(-593.86 -90.24)"/><path class="cls-5" d="M729.43,231.37a1.8,1.8,0,0,0-.58-1.17q-1.46-1.91-3-3.75t-3.13-3.65a.67.67,0,1,0-.46.38q1.46,1.91,3,3.75t3.13,3.65A1.8,1.8,0,0,0,729.43,231.37Z" transform="translate(-593.86 -90.24)"/><path class="cls-5" d="M730.41,228.51c.6,0-.16-.8-.2-.83-.35-.37-1.1-1.08-1.65-1.08s.16.8.2.83C729.11,227.8,729.85,228.51,730.41,228.51Z" transform="translate(-593.86 -90.24)"/><path class="cls-5" d="M729.08,229.32a2.48,2.48,0,0,0-.86-1.31q-2-2.13-4-4.19t-4.1-4.08a2.48,2.48,0,0,0-1.28-.89,2.48,2.48,0,0,0,.86,1.31q2,2.13,4,4.19t4.1,4.08A2.48,2.48,0,0,0,729.08,229.32Z" transform="translate(-593.86 -90.24)"/><path class="cls-5" d="M728.87,228.54c.9,0-.83-1.5-.8-1.48Q727,226,725.82,225a4.56,4.56,0,0,0-1.29-1c-.9,0,.83,1.5.8,1.48q1.1,1.08,2.25,2.1A4.56,4.56,0,0,0,728.87,228.54Z" transform="translate(-593.86 -90.24)"/><path class="cls-5" d="M731.3,228.41c.56,0-.13-.74-.16-.77a2.55,2.55,0,0,0-1.48-.84c-.56,0,.13.74.16.77A2.55,2.55,0,0,0,731.3,228.41Z" transform="translate(-593.86 -90.24)"/><path class="cls-5" d="M728.67,230.17a2,2,0,0,0-.66-1.23q-1.6-2-3.29-4t-3.41-3.87a2,2,0,0,0-1.12-.85,2,2,0,0,0,.66,1.23q1.6,2,3.29,4t3.41,3.87A2,2,0,0,0,728.67,230.17Z" transform="translate(-593.86 -90.24)"/><path class="cls-5" d="M718.53,234.06c2.89,1.67,6.41.89,9.14-.86a15.89,15.89,0,0,0,5.27-6.24l1.4-3.82a17.19,17.19,0,0,0-2.13-8.33,16.06,16.06,0,0,0-5.33-5.9,31.16,31.16,0,0,0-3.4-1.47,10.6,10.6,0,0,0-5.64,1.56c-3.69,1.81-7.62,5.41-7.94,9.86-.24,3.3,1.91,6.45,4.06,8.71,3,3.09,6.89,5.3,11.26,4a11.25,11.25,0,0,0,5-2.91,6.69,6.69,0,0,0,1.94-5.51c0-.26-3.63,0-3.73.84a2.76,2.76,0,0,1-1.41,3,4.07,4.07,0,0,1-3,2,8,8,0,0,1-4.66-.65c-2.22-.88-5.84-4-6.42-6.49l.24-5.44a9.92,9.92,0,0,1,3.09-3.4c3.38-2.73,7.84-4.56,11.7.66l1.7,2.9a6.61,6.61,0,0,1,.43,6.36,5.65,5.65,0,0,1-2.73,5.27l-2.65,1.55c-1.61.78-3.22,1.32-4.66-.35-.29-.33-1.13,2.32-1.1,2.22C718.83,231.88,718,233.76,718.53,234.06Z" transform="translate(-593.86 -90.24)"/><path class="cls-5" d="M717.86,238.1a9.1,9.1,0,0,0,7.1.49,13.57,13.57,0,0,0,6.63-4.88,22.83,22.83,0,0,0,3.28-6.09,5,5,0,0,0,.81-2.24l-1.06-4.54a19.45,19.45,0,0,0-8.73-10.46l-3.83-1.55a2.17,2.17,0,0,0-2,.63,16.43,16.43,0,0,0-6.57,4.13c-2.22,2.23-4.68,5.36-4.77,8.68a6.84,6.84,0,0,0,1,3.94,17.62,17.62,0,0,0,6.79,7.52c1.87,1.15,3.49,2.25,5.92,2.22a14.92,14.92,0,0,0,6.13-2.1,15.47,15.47,0,0,0,2.63-2.18c1.69-2,1.75-3.21,2.1-5.8.06-.44-.84-.62-.94-.25q-1.76,8-8.91,7.16a6.71,6.71,0,0,1-7.73-1.36l-2.87-2.55,13-17.78L728,221.5q6.51,8.23.41,11.66a7,7,0,0,1-4,2,8.5,8.5,0,0,1-5.47-.75C718.51,234.25,717.16,237.73,717.86,238.1Z" transform="translate(-593.86 -90.24)"/><path class="cls-5" d="M718.79,230.62a5.34,5.34,0,0,0,3.26.63,11.71,11.71,0,0,0,5.34-1.55,10.09,10.09,0,0,0,2.71-4.38,14.67,14.67,0,0,0,1.36-5.07c0-4-2.76-7.29-6-9.17a10.75,10.75,0,0,0-4.39-1.74,9.55,9.55,0,0,0-5.57,2.55,11.63,11.63,0,0,0-3.56,8.13,10.25,10.25,0,0,0,3.1,5.66,12.73,12.73,0,0,0,5.6,3l3.22.42a9.24,9.24,0,0,0,4.64-2.18,8.68,8.68,0,0,0,2.75-4.25,20.51,20.51,0,0,0,.08-2.9,1.68,1.68,0,0,0-.51-1,48.49,48.49,0,0,0-3.48-3.7,13.86,13.86,0,0,0-2.29-2.19s-1-.69-.57,0l6,9-4-7.07,3.14,9.33-1.84-7.44-3.89,12,6.53-8.28-7.95,6.31,5.56-4.08-8.28,3.6,6.29-2.06L712.28,220,722,226l-7.37-7.2,5.21,5.75,1.22-14.78-4.35,11,2.18-2.54-.88.73,13.07,1.45-10.54-3.48,6.55,12.61-3.48-11.1-.27,1.14.14-.32-.41.63.37,1,.07-1.61c0-.48,0-.3-.33-.13l-.48.88q-.73,1.62-1.38,3.27C721.19,223.59,718.41,230.55,718.79,230.62Z" transform="translate(-593.86 -90.24)"/><path class="cls-5" d="M717.85,233.12a4.8,4.8,0,0,0,3.39.74A11,11,0,0,0,726.7,232l2.14-2.79a16.46,16.46,0,0,0,1.91-6.48,14.21,14.21,0,0,0-3.86-9.3,10.76,10.76,0,0,0-5.36-3,7.68,7.68,0,0,0-4.47,1.2,7.82,7.82,0,0,0-3.53,2.76,11.26,11.26,0,0,0-2.34,5.72,11.42,11.42,0,0,0,4.62,8.15,11.74,11.74,0,0,0,6,2.26l2.57-.7a9.35,9.35,0,0,0,3.88-2.88,6.32,6.32,0,0,0,1.27-5c0-.78-4.26-1.51-4.52-1.58a9,9,0,0,0-2.42-.5c-.18,0-.82-.05-.4.32q2.65,2.84,1.54,1.84-3.44,2.73-4.32.06a4.14,4.14,0,0,0-.7-4.38,1.2,1.2,0,0,1,1.68.18q2.32-1.11,3.06.93a3.17,3.17,0,0,1-.78,2.93,1.24,1.24,0,0,1-.16,1.66q-.47.37-.61-.19v1.17l.23-1.55c.07-.45-.1-.25-.33-.13l-.44.79q-.65,1.45-1.23,2.94C719.9,226.9,717.23,232.81,717.85,233.12Z" transform="translate(-593.86 -90.24)"/><path class="cls-5" d="M718.18,234a8.87,8.87,0,0,0,6.82.38,15,15,0,0,0,7.73-6.45c1.16-1.77,2.92-4.12,2.95-6.26q-.19-1.15-.4-2.3a12.62,12.62,0,0,0-2.26-6.18l-2.74-3.42a11.35,11.35,0,0,0-5.24-3.32,2.71,2.71,0,0,0-2.07-.74l-3.78.83a15.83,15.83,0,0,0-7.71,6.4c-1.1,1.69-2.08,3-2.14,5.28a9.65,9.65,0,0,0,1.07,4,17,17,0,0,0,8.38,8.55,10.34,10.34,0,0,0,3.92,1.11,12.81,12.81,0,0,0,5.8-1.81,13.76,13.76,0,0,0,2.65-2c1.75-1.91,1.87-3.18,2.34-5.74.14-.79-2,.07-2.11.54q-3.37,9.57-11.82,6.58-16.1-19.91,6.25-20.26c3,1.92,6.2,5.34,7.18,8.78q1.2,5.42-2.24,8.88a14.53,14.53,0,0,1-4.48,4.25,7.91,7.91,0,0,1-7.26.52C718.51,231.33,717.6,233.71,718.18,234Z" transform="translate(-593.86 -90.24)"/><path class="cls-5" d="M718.53,230.07a4.61,4.61,0,0,0,3.17.72,10.87,10.87,0,0,0,5.23-1.58,13.56,13.56,0,0,0,4.1-9.05,12.24,12.24,0,0,0-3.86-8.78,12.47,12.47,0,0,0-5.62-3,7.9,7.9,0,0,0-4.54,1.5,8.08,8.08,0,0,0-3.46,3,10.77,10.77,0,0,0-2,5.75l1,3.26a11.74,11.74,0,0,0,4.41,4.74,12.12,12.12,0,0,0,6.12,1.77l2.48-.7a9.55,9.55,0,0,0,3.86-3.13,7.24,7.24,0,0,0,1.39-5.32c0-.27-.45-.53-.63-.65a32.53,32.53,0,0,0-3.68-1.92,9.73,9.73,0,0,0-2.37-1c-.12,0-.89-.23-.47.23l3.09,4.67-.54-1.71-3.18,9.31,4.29-6.64q-6.62,4.39-8.79-1.68-.08-1.5.56-.87,1.48,1.2,3.36-1.09-1.73,2.13.93,3.9l-.1-1q-.37,1.58-.93.79v1l.22-1.36c.06-.39-.11-.24-.32-.14l-.43.67q-.64,1.24-1.2,2.52C720.53,224.69,718,229.79,718.53,230.07Z" transform="translate(-593.86 -90.24)"/><path class="cls-5" d="M718.16,234.74a4.85,4.85,0,0,0,3.45.79,11,11,0,0,0,5.64-1.88l2.24-3a17.25,17.25,0,0,0,1.81-6.74,15.07,15.07,0,0,0-4.24-9.51,10.12,10.12,0,0,0-5.31-2.82,7.3,7.3,0,0,0-4.38,1.15,7.44,7.44,0,0,0-3.44,2.73,11.74,11.74,0,0,0-2.31,5.77,11.24,11.24,0,0,0,4.32,8.16,12.2,12.2,0,0,0,6.05,2.51l2.64-.72a9.76,9.76,0,0,0,4-2.93,6.11,6.11,0,0,0,1.22-5c0-.26-.55-.47-.72-.55a32.67,32.67,0,0,0-3.93-1.37,9.77,9.77,0,0,0-2.5-.69c-.17,0-.87-.11-.43.29q3.08,2.85-2.69,2.28a1.33,1.33,0,0,1,0-1.79l-.26-3.92a4.45,4.45,0,0,0,3.4.42,1.88,1.88,0,0,1,.79,1.85,2.49,2.49,0,0,1-.72,2.26,1.32,1.32,0,0,1-.25,1.62q-.49.32-.59-.26v1.32l.22-1.7c.06-.5-.11-.27-.33-.11l-.43.91q-.62,1.67-1.18,3.36c-.58,1.73-1.15,3.47-1.67,5.22C718.56,232.45,717.81,234.56,718.16,234.74Z" transform="translate(-593.86 -90.24)"/><path class="cls-5" d="M717,232.25a8.08,8.08,0,0,0,5.28.73,9.72,9.72,0,0,0,4.5-1.53,19,19,0,0,0,5.88-6.76,23.74,23.74,0,0,0,1.72-4.34,21.77,21.77,0,0,0-.68-4.16c-.72-2.71-1.55-3.53-3.06-5.39a16.21,16.21,0,0,0-4.7-4.17l-3.76-1.45a9.94,9.94,0,0,0-5.53,1.45c-2.67,1.3-5.42,3.5-6.55,6.38l-1,3.45.88,3.94a16.27,16.27,0,0,0,4.58,6.62c2.77,2.2,5.83,3.69,9.39,2.67a21.46,21.46,0,0,0,3-1.12,7.39,7.39,0,0,0,3.5-3,5.72,5.72,0,0,0,1.64-4.46c.12-.57-.77-.07-.83,0-.45.25-1.21.76-1.37,1.28l-.57,1.92a5.84,5.84,0,0,1-2.32,2.41,4.47,4.47,0,0,1-4.74.82q-3.06,1.34-4.95-.82a13.37,13.37,0,0,1-4.45-6.47l-.56-3.16a6.75,6.75,0,0,1,1.66-3.42,10.4,10.4,0,0,1,4.33-3.41,8.29,8.29,0,0,1,4.16-1l2.9,1.09L731.07,224l-7.9,6.57a6.61,6.61,0,0,1-5-.72C717.66,229.61,716.47,232,717,232.25Z" transform="translate(-593.86 -90.24)"/><path class="cls-5" d="M718.72,232.35a5.65,5.65,0,0,0,3.39.64,11.92,11.92,0,0,0,5.53-1.64,10.83,10.83,0,0,0,2.79-4.67,14.44,14.44,0,0,0,1.3-5.17c-.14-4.07-3.13-7.54-6.52-9.37a10.26,10.26,0,0,0-4.4-1.56,8.8,8.8,0,0,0-5.34,2.6,12.35,12.35,0,0,0-3.39,8.27,9.62,9.62,0,0,0,2.92,5.47,13.15,13.15,0,0,0,5.55,3.07l3.25.53a9.8,9.8,0,0,0,4.81-2.3,8.74,8.74,0,0,0,2.8-4.37,18.57,18.57,0,0,0,0-2.94,2,2,0,0,0-.51-1.05c-1.07-1.49-2.35-2.86-3.55-4.24a18.46,18.46,0,0,0-2.34-2.52s-1.06-.82-.59-.05l6.19,10-4.11-8.33-2.69,15.45,6.68-9.63-6.26,5.66,3.89-3.19-9.81,5.1,7.85-3.37-13.76-3.26,9.78,5.61L714.76,220l5,5.06-5.31-8.79L718,223.4l2.83-12.46-5.17,9.56,4.23-3.12-1,.24,11.53,3.7L720.67,217l6.7,14.08-3.82-12.6-.26,1.13.14-.37-.2.29.18,1.44.08-1.83c0-.46-.06-.43-.33-.11l-.49,1q-.73,1.88-1.38,3.78C721.13,224.28,718.32,232.27,718.72,232.35Z" transform="translate(-593.86 -90.24)"/><path class="cls-5" d="M717.56,231.88c6.35,3.57,13-3.92,13.68-9.8a15.21,15.21,0,0,0-3.36-10.38,11.36,11.36,0,0,0-5.68-3.81,9.17,9.17,0,0,0-5.07,1.23A9.53,9.53,0,0,0,713,212a10.78,10.78,0,0,0-2.77,6l.79,3.52a13.27,13.27,0,0,0,4.07,5.59,11.18,11.18,0,0,0,6.15,2.5l2.63-.45a9.23,9.23,0,0,0,4.24-2.62,6.31,6.31,0,0,0,1.58-5.1c.06-.63-5.46.16-5.27.62.67,1.58.41,3.16-1.46,3.14l-1-.25a3.52,3.52,0,0,1-2.7-.43,5.12,5.12,0,0,1-2.9-3.6c-.34-1.32,0-4.09.95-5.12a5.13,5.13,0,0,1,4.38-1.57,5,5,0,0,1,3.75,1.84,11.73,11.73,0,0,1,.25,7.63q-.31,2.13-3,2.55c-.81.54-1.83,1.14-2.11-.47-.14-.83-1.46,1.87-1.54,2C718.87,228.16,717,231.56,717.56,231.88Z" transform="translate(-593.86 -90.24)"/><path class="cls-5" d="M717.49,232.3A8.82,8.82,0,0,0,723,233a10.76,10.76,0,0,0,4.67-1.55c2.23-1.39,4.69-4.7,5.78-7a29.07,29.07,0,0,0,1.72-4.41,19.4,19.4,0,0,0-.71-4.41,27,27,0,0,0-1.84-3.91,13.15,13.15,0,0,0-4.38-4.58,11.26,11.26,0,0,0-5.49-2.72l-4,.71a11.66,11.66,0,0,0-5.08,3.09,13.81,13.81,0,0,0-3.66,4.64l-1,3.37a3.65,3.65,0,0,0,.51,2.09,15.74,15.74,0,0,0,5.44,8.58,23.63,23.63,0,0,0,3.43,2.19l3.53,1a3.47,3.47,0,0,0,1.56-.25,13.84,13.84,0,0,0,4.34-1.49l2.56-1.9a8,8,0,0,0,2.58-5.94c.14-.68-1.88.45-2,1a6.56,6.56,0,0,1-1.88,4.18q-24.6-4.28-15-13.83l2.52-2a14.18,14.18,0,0,1,6.11-2.12,11.26,11.26,0,0,1,4.46,2.26,12.6,12.6,0,0,1,3.86,3.66l-7,17.46-2.36.27a6.22,6.22,0,0,1-3.38-.83C717.74,230.34,717,232.05,717.49,232.3Z" transform="translate(-593.86 -90.24)"/><path class="cls-5" d="M718,233.61a5.46,5.46,0,0,0,3.5.65,11.63,11.63,0,0,0,5.59-1.84l2.18-3.05a17.69,17.69,0,0,0,1.83-6.86,12.72,12.72,0,0,0-4.79-8.85,11.54,11.54,0,0,0-5.63-2.45,6.82,6.82,0,0,0-4.2,1.49,7.62,7.62,0,0,0-3.21,3.07,13.3,13.3,0,0,0-2,5.93,10.6,10.6,0,0,0,5.13,7.62,13.5,13.5,0,0,0,6.29,1.9l2.68-.85a10.31,10.31,0,0,0,4-3.35,6.73,6.73,0,0,0,1.18-5.31c0-.33-.36-.64-.57-.85a42.67,42.67,0,0,0-3.64-3.07,12.36,12.36,0,0,0-2.37-1.78s-1-.52-.54.09l5.32,6.8-3.7-5.51-2.44,13.5,4.53-9.64-9.28,4.6,3.92-.86-9.43-3.16,8.33,3.47L720,213.57l-2.65,5.81a2.48,2.48,0,0,1,3.12-1.08q2.1-.44,1.13.69l.19.26,1.63,1.57-.62-.86,2.06,6.62-1.45-6.07-.43,1,.15-.34q-.35.47-.5,0l-.08,1.43.3-1.7c.09-.5-.07-.34-.33-.12l-.5,1q-.75,1.8-1.42,3.63C720.43,225.91,717.35,233.35,718,233.61Z" transform="translate(-593.86 -90.24)"/><path class="cls-5" d="M630.93,226a10.94,10.94,0,0,0,3.35,5.56,9.56,9.56,0,0,0,6.12,2.26,12.11,12.11,0,0,0,5-1.73,18.69,18.69,0,0,0,8.16-7.72,12.19,12.19,0,0,0,2.06-5.16l-.79-3.8a12.08,12.08,0,0,0-2.92-4.87,14.47,14.47,0,0,0-7.4-4.89,12.2,12.2,0,0,0-6.15.84,13,13,0,0,0-5.45,2.74c-2.3,2-4.65,4.61-4.7,7.85a12.86,12.86,0,0,0,1.59,5.14l2.29,3.47a17.35,17.35,0,0,0,5.65,5.4,8.57,8.57,0,0,0,4.75-.1,12.44,12.44,0,0,0,6.94-3.89c2.52-2.8,1.87-7.18-.06-10.1a26.4,26.4,0,0,0-6.94-6.66.23.23,0,0,0-.35,0l-1.92,3.92c-.1.21.2.68.45.55,2.59-1.34,1.79-.45,2.77-3.18.23-.65-2.49,0-2.25.8l.4,1.31.06-.48-1.37.91.5.57q4.71-1.79,6.16,3.66a7.12,7.12,0,0,1,.37,5c-1,2.77-4.66,4.91-7.53,4.89a8.18,8.18,0,0,1-5.74-4,20,20,0,0,1-3.51-6.36c-.69-5.36,6-8.72,10.4-9.25a7,7,0,0,1,5.67,1,10.72,10.72,0,0,1,3.68,3.86l1,2.61a5.86,5.86,0,0,1-.65,5.32,13.87,13.87,0,0,1-9,7.22,4.56,4.56,0,0,1-5.32-1.31,9.63,9.63,0,0,1-2.8-5.09c-.2-.72-1,.65-1,.7C632.13,223.6,630.71,225.35,630.93,226Z" transform="translate(-593.86 -90.24)"/><path class="cls-5" d="M630,230.05a13.48,13.48,0,0,0,2.62,4.84,11,11,0,0,0,1.92,1.65l2.67,1.22,3.51.51,3.76-1.09,3.63-2a16.26,16.26,0,0,0,4.62-4.43,12.26,12.26,0,0,0,2.34-3.49,9,9,0,0,0,1.49-3.68,5.15,5.15,0,0,0,.53-2c0-.31-1.18-3.9-1.31-4.19-.24-.53-2-3.26-2.32-3.72A19.18,19.18,0,0,0,645,207.6c-2.54-.93-1.32-.8-4-.29a17.89,17.89,0,0,0-6,2.19,19.91,19.91,0,0,0-6,5.52,9.69,9.69,0,0,0-1.88,5.24,13.13,13.13,0,0,0,1.8,5.46,33.38,33.38,0,0,0,2.79,3.79l2.9,3.14,3.44,2.39a9.21,9.21,0,0,0,3.61.11,14.57,14.57,0,0,0,6.45-2.47,10.59,10.59,0,0,0,3.41-4.08c1.14-2.24.92-1.22.53-3.83s-.06-1.59-1.3-4a9.75,9.75,0,0,0-2.34-3.5,37.08,37.08,0,0,0-6.75-5.91c-.1-.07-.6-.26-.67-.11l-2.73,5.63c0,.1,0,.21.12.2,3.33-.2,2.29.45,4.18-1.39.24-.23-.27-.86-.6-.48l-.25-3.75-.67-.11-5.53,19.77-3-3.17,7-19.87q14.32-1.32,15.21,16.36a17.82,17.82,0,0,1-6,6.79,15.39,15.39,0,0,1-4.7,2.7,4.72,4.72,0,0,1-4.6.57c-3.79-.92-6.13-3.48-7.6-7.13C631.5,226.7,629.81,229.44,630,230.05Z" transform="translate(-593.86 -90.24)"/><path class="cls-5" d="M631.83,223.06c.89,3.22,2.51,6.09,6,7.08l2.88.36a10.7,10.7,0,0,0,4-2,17.14,17.14,0,0,0,5.16-5.56l1.4-2.77,1-3c.25-2.25-2.15-5.2-3.69-6.62a10.79,10.79,0,0,0-3.69-2.56L642,206.88l-3.37.56a9.87,9.87,0,0,0-4.26,2.56c-1.77,1.52-3.71,3.66-4.18,6l-.25,2.49,1,2.39a10,10,0,0,0,10.26,5.24,10.6,10.6,0,0,0,5.33-2.46c1.91-1.63,3.1-3.5,1.77-6.1-1.88-3.69-5.74-5.09-9.29-6.77-.62-.29-3.62,4.83-3.66,4.89q-1.34,2-2.58,4.07a1.81,1.81,0,0,0-.45,1.23l3.53,6.15.24-.21c2.65-3.15,4.12-7.41,5.65-11.19.09-.23.48-.94.29-1.21s-1.24,1.71-1.27,1.76c-.8,1.45-1.56,2.92-2.3,4.4-.5,1-1.64,2.61-1.72,3.76l-.08,1.27,4.57-9.34L639,210.82l-6.37,10,5.51-5.25-3.83,3.07,14.56,1.9-9.33-7.12-8.45.28,7.64,9.2-3.07-7,1.88,5.21L642,207.25,636.69,218l3.7-3.12-1,.36L651,217.12l-10.33-2.74q3.24,2.65,1.27,4.58a1.23,1.23,0,0,0-1.21-.9l.1.36a10.67,10.67,0,0,0-.94-2.53,12.7,12.7,0,0,1-.57-3.28,2,2,0,0,0-1,.92q-1.55,2-3,4.08t-2.88,4.18A2,2,0,0,0,631.83,223.06Z" transform="translate(-593.86 -90.24)"/><path class="cls-5" d="M630.66,225.41c.88,3.15,2.65,6.38,6.16,7.17l3,.32,3.07-1.21a19.36,19.36,0,0,0,6.3-5.45c1.36-1.75,3.59-5,3.42-7.27l-.86-3.27-1.61-2.79a13.11,13.11,0,0,0-6.28-4.34,4.06,4.06,0,0,0-3.16-.38,8.7,8.7,0,0,0-4.76,1.29A15.63,15.63,0,0,0,631,214a5.63,5.63,0,0,0-1.13,3.27,2.11,2.11,0,0,0,.34,2.25,7.56,7.56,0,0,0,1.12,2,16.57,16.57,0,0,1,1.89,3.38,9.48,9.48,0,0,0,3.55,3.76c1.6.77,4.88-.23,6.45-.85,1.77-.71,4.52-2.39,4.76-4.53l-.37-3.13-1.4-2.61c-1.4-2-4.27-3.41-6.35-4.59-.37-.21-.86,3.91-.84,3.8-.07.54-.76,3.34-.09,3.89l3.36,2.77q.29.2.31-.16a15.39,15.39,0,0,0,.83-7.78c-.11-.73.08-.66-.38-.61s-.74,3.15-.74,3.17l-.25,1.57q0,3.14-2.17-1.38l2.61,4.57L640,213.12l-.89,7.29c.34-.37,1.18-1.55,1.28-.42.2,2.41-4.23-1.94-3.55-1.12l.23,8.72q-2.45-7.6,2-11.94.54-1.13,1.54-.2,5.18-1.54,4.16,1a2.59,2.59,0,0,0,.09,2.15c-.18,1.56-1,3.42-2.74,3.81a4.57,4.57,0,0,1-3.32-.67l.12.32a23.24,23.24,0,0,0-1.24-2.76,12.36,12.36,0,0,1-.68-3.36,1.62,1.62,0,0,0-.91.83q-1.33,1.83-2.58,3.71t-2.45,3.8A1.62,1.62,0,0,0,630.66,225.41Z" transform="translate(-593.86 -90.24)"/><path class="cls-5" d="M630.34,225.87a12.45,12.45,0,0,0,4.6,6.25c6.81,4.77,14.6-1.2,18.57-6.77a18.18,18.18,0,0,0,3-7.36l-.88-3.91c-1.21-3.79-4.35-6.84-7.68-8.84a8.9,8.9,0,0,0-7.87-1L636,205.67a15,15,0,0,0-7.16,6.61c-1.66,3.24-1.2,6,.53,9.21a25.37,25.37,0,0,0,7.34,8.12c2.07,1.49,1.31,1.33,3.54,1.38a13,13,0,0,0,9.1-3.27c1.47-1.28,2.58-2,3.13-4.29.81-3.33-1.29-6.78-3.27-9.21a34.25,34.25,0,0,0-6.89-6.14c-.19-.14-.38.05-.46.2l-2.65,4.85c-.08.15,0,.34.17.3,3.11-.68,2.41,0,3.76-2.33.27-.47-.13-.5-.49-.44a2.64,2.64,0,0,0-1.55,1.09l-1.57,1,.06.44q6.46-4.14,9.21,3.85,3.62,5.11-1.9,10.21a11.06,11.06,0,0,1-3.91,1.74q-3.73,1.57-7.16-2.08-7.64-6.34-2.45-17.23a14.46,14.46,0,0,1,5.1-2.49,13.49,13.49,0,0,1,5.61-1,14.65,14.65,0,0,1,5.25,3.19,15.2,15.2,0,0,1,3.71,5.34l.84,3.07a17.89,17.89,0,0,1-2.64,6.16,19,19,0,0,1-4.77,4.94l-2.76,1.58a5.07,5.07,0,0,1-5.49.16c-3.07-1.27-4.89-3.63-6.24-6.58C631.61,223.29,630.16,225.4,630.34,225.87Z" transform="translate(-593.86 -90.24)"/><path class="cls-5" d="M631.52,222.51c.83,3.07,2.47,6.27,5.89,7.07l2.82.34,2.79-1a16.28,16.28,0,0,0,5.74-5c1.33-1.74,3.63-4.95,3.49-7.2A11.82,11.82,0,0,0,650,211a14.22,14.22,0,0,0-6.22-4.61,3.31,3.31,0,0,0-3.21-.38,8.91,8.91,0,0,0-4.85,1.6A15.85,15.85,0,0,0,631,212.4a6.16,6.16,0,0,0-1,3.53,2.36,2.36,0,0,0,.47,2.37c1.48,3,3.92,6.09,7.25,7a10.05,10.05,0,0,0,5.65-.71c1.63-.62,4.34-2.13,4.59-4.09a8,8,0,0,0-1.74-5.38c-1.47-2.06-4.68-3.6-6.78-4.89-.38-.24-2.16,5.24-2.12,5.13q-.71,2.07-1.32,4.18a1.54,1.54,0,0,0-.09,1.2c3.32,3.65,3.71,6.31,5,2.52a49.58,49.58,0,0,0,2.09-9.82q0-.48-.22-.2a1.17,1.17,0,0,0-.45.84q-.45,1.34-.82,2.71-.49,1.7-.93,3.41-.89,5.13-1.31-3.87l.8,6.42-.58-12.19-3.35,10,3.93-3.62-1.77,1,8.61,2.52L639.45,217l.53,1.35.28-.21-8.91-5.69,7.27,7.14a2.4,2.4,0,0,1,.17-3.2q5.51-3.06,3.82-.58a4.3,4.3,0,0,1,.86,3.11,1.81,1.81,0,0,1-1,1.59c-1.26,1-2.2,0-3-1.06a9.17,9.17,0,0,1-1.64-5,1.35,1.35,0,0,0-.9.66q-1.33,1.53-2.58,3.12T632,221.49A1.35,1.35,0,0,0,631.52,222.51Z" transform="translate(-593.86 -90.24)"/><path class="cls-5" d="M630.91,227c.9,3.21,2.69,6.49,6.26,7.3l3.07.34,3.2-1.22a19.6,19.6,0,0,0,6.38-5.82c1.34-1.81,3.49-5,3.27-7.39l-1-3.43-1.7-2.86c-3.27-4.18-9.29-6.17-14.08-3.29a15.72,15.72,0,0,0-4.82,4.5,5.54,5.54,0,0,0-1.18,3.19,2.19,2.19,0,0,0,.26,2.26,7.79,7.79,0,0,0,1,2,21.85,21.85,0,0,1,1.85,3.59c.92,1.54,2.05,3.3,3.73,4.12s5-.28,6.64-1c1.81-.77,4.57-2.58,4.75-4.81l-.54-3.34-1.53-2.72c-1.46-2.06-4.21-3.32-6.37-4.44-.43-.22-1,3.19-1,3.14-.1.49-.88,2.78-.3,3.3l3.3,2.94q.27.14.31-.16c.27-.71,1.65-7.14,1.23-7.25s-.11-.27-.46.11a8.07,8.07,0,0,0-.83,2.42l-.35,1.32q-.09,2.34-1.79-.58l2.15,3.6-2.09-8.64-1.26,6.1q.63-1.26,1.25-.44.66.32.32,1.09c-.9,1.74-3.47-1.08-3.72-1.37l.59,9.57q.31-6.43.91-12.83a1.45,1.45,0,0,1,1.4-1.35l1,.37q5.53-1.16,4.12,1.91a3.46,3.46,0,0,1,0,2.51,3.27,3.27,0,0,1-1.22,2.15c-1.57,1.36-3.15.94-4.78.06l.13.35a24.87,24.87,0,0,0-1.26-2.84,12.53,12.53,0,0,1-.68-3.4,1.88,1.88,0,0,0-.91,1q-1.3,2.1-2.51,4.26t-2.37,4.34A1.88,1.88,0,0,0,630.91,227Z" transform="translate(-593.86 -90.24)"/><path class="cls-5" d="M629.33,224a12.1,12.1,0,0,0,4.36,6.27c6.62,4.83,14.27-.91,18.27-6.34,1.16-1.58,3-5.19,3.06-7.25.13-3.8-2.5-7.43-5.09-9.94a16,16,0,0,0-6.64-3.62l-4.06.23a15.19,15.19,0,0,0-10.47,7.56,6.39,6.39,0,0,0-1.18,3.93,13,13,0,0,0,1,3.67A24.82,24.82,0,0,0,635,227.7c1.77,1.56,1,1.32,3.23,1.49a10.94,10.94,0,0,0,5-.44,10.11,10.11,0,0,0,4.58-2.36,7.77,7.77,0,0,0,3.29-4q0-1-.1-2c-.13-2.42-.11-2.77-1.7-5.38-2-3.21-5-5.38-8-7.53q-.22-.17-.34.08l-1.75,5c-.11.32.83.91,1.07.72,1.73-1.32,1.58-1.39,2.24-3.71.17-.59-.26-.49-.63-.24s-1.61,1.41-1.44,1.82l.45,1.13.55-1-2,1,1,.89,1.76-1.88-.34.08a25.63,25.63,0,0,1,4.09,3.45q5.87,7.58.56,10.48-5,4-12-.53a35.92,35.92,0,0,1-3-5.4,4.77,4.77,0,0,1-1-3.29A11,11,0,0,1,650.24,212a7.64,7.64,0,0,1,1.13,8.11l-1.62,2.9a16.12,16.12,0,0,1-7.52,6.11c-5.39,2-9.23-2.71-10.81-6.93C631.12,221.37,629.17,223.55,629.33,224Z" transform="translate(-593.86 -90.24)"/><path class="cls-5" d="M631.7,224.67c.92,3.29,2.59,6.21,6.12,7.22l3,.38A11.66,11.66,0,0,0,645,230a18.9,18.9,0,0,0,5.26-5.85l1.35-2.8a4,4,0,0,0,.33-4.6,12.1,12.1,0,0,0-4.67-6.26L644.64,209a4.76,4.76,0,0,0-4.51-.61,12,12,0,0,0-7,4.11,15.54,15.54,0,0,0-2.91,4.94,3.82,3.82,0,0,0,.16,3.66,11.31,11.31,0,0,0,1.73,3.28,10.56,10.56,0,0,0,10.45,3,10.75,10.75,0,0,0,5.28-3.12c1.73-1.89,1.42-3.61.55-5.74-1.52-3.74-6.15-5.26-9.46-6.63-.73-.3-3.68,3.77-3.84,4s-3.62,3.6-3.27,4.44l2.77,6.59.26-.15a35,35,0,0,0,6.73-10.63c.15-.4-.05-.26-.29-.2l-.59.63q-.92,1.21-1.78,2.46c-.89,1.28-1.78,2.56-2.62,3.87a4.07,4.07,0,0,0-.88,1.85l0,.84,5.53-8-2-5.63-6.79,8.29,7.48-5.57-5.64,3.6,4.95,9.58,3.16-12.16-10.92-.46,7.09,8.8-2.87-7,1.57,4.84,4.8-13.48-5.94,9.2,8-1.7-3-1.34,1.33,1.73-.17-.29c.39,1.15,1,3.33-.68,2.91l.24.28q-.09-1.05-.91-1.16l.1.4-.1-1a4.1,4.1,0,0,1-.83-1.62,13.16,13.16,0,0,1-.55-3.34,2.37,2.37,0,0,0-1,1.12q-1.56,2.35-3,4.76t-2.9,4.84A2.37,2.37,0,0,0,631.7,224.67Z" transform="translate(-593.86 -90.24)"/><path class="cls-5" d="M630.26,224.12c.95,3.17,2.7,6,6.08,7,2.62.81,5.09-.06,7.41-1.29a18.27,18.27,0,0,0,6.36-5.48l1.71-2.94a5.53,5.53,0,0,0,.74-5,13.18,13.18,0,0,0-3.84-7.49l-2.67-2.07a5.84,5.84,0,0,0-5-1.28,13.1,13.1,0,0,0-8.31,3.23,12.89,12.89,0,0,0-3.49,4.85c-1,2.66.58,4.45,1.74,6.64a34.17,34.17,0,0,0,3,5.47,11.43,11.43,0,0,0,2.29,2.12c1.31.75,4.08.29,5.58,0a8.55,8.55,0,0,0,5.57-4.06,4.29,4.29,0,0,0,.67-4.47l-1.21-2.88c-1.51-2.51-4.07-4.25-6.39-5.91-.28-.2-.28,3.44-.28,3.31,0,.27-.18,3.14.47,3.29l2.06.49a.4.4,0,0,0,.26-.41c0-.11.86-7.08-.31-5.09a7.09,7.09,0,0,0-.49,1.9,13.93,13.93,0,0,0-.28,1.53q0,1.54-2.08-.34l2.74,3-1.75-7-.13,5.92c2.66.32,3,2,2,4.57q-1.48,4.25-7-.89a21.83,21.83,0,0,1-.44-4.75,1.26,1.26,0,0,1,.77-1.49,2.68,2.68,0,0,0,1.36-1.7,4.53,4.53,0,0,1,3.31-1.33,33.16,33.16,0,0,0,3.54.67c4.84,1.73,3.24,9.19,0,11.61a6.82,6.82,0,0,1-4.05,1.4,3.17,3.17,0,0,1-3.3-1.68,9.76,9.76,0,0,1-2.12-5.19c0-.25-2.62,2.7-2.55,2.61C631.86,221.5,630,223.29,630.26,224.12Z" transform="translate(-593.86 -90.24)"/><path class="cls-5" d="M629.66,224.11c1.85,4.53,5.29,8.45,10.79,8.14,2.22-.13,5.16-1.64,6.91-2.83a22.68,22.68,0,0,0,7.8-9.41q.66-1.93,1.17-3.9l-.93-3.74c-1.51-4.39-5.59-7.65-9.78-9.2a7.51,7.51,0,0,0-6-.42,16.86,16.86,0,0,0-7.37,3.57c-2.19,2-4.77,4.82-4.67,8,.15,4.74,3.51,8.91,6.63,12.19,2.66,2.8,2.41,2.66,5,2.75a11.11,11.11,0,0,0,5-.67,13.61,13.61,0,0,0,5.77-3.61,15.18,15.18,0,0,0,2-3.31c.74-2.23-.8-5.39-1.84-7.28-1.84-3.33-5.23-5.64-8.23-7.8a.22.22,0,0,0-.35.06l-2.33,5.41c-.15.35.25.52.51.41,2.35-1,2.17-.87,3.14-3.46.22-.6-.92.07-.87,0-.3.19-1.48,1-1.43,1.44l.13,1.09.77-.76-2,1.06.51.41,4.32-.85a7.18,7.18,0,0,1,3.35,7.41q4,6.29-2.93,7.32a9.1,9.1,0,0,1-7,2.17l.45.17a21.71,21.71,0,0,1-4.48-4.89,23.59,23.59,0,0,1-4.1-7.39l2.29-5.31a10.65,10.65,0,0,1,3.72-2.78,14.15,14.15,0,0,1,8-1.78c2.67.23,6.31,2.59,8,4.6l1.78,2.5a8,8,0,0,1-.93,7.51,21.7,21.7,0,0,1-5.91,6.77,6.91,6.91,0,0,1-5.74,1.88,5.12,5.12,0,0,1-5.07-.9,15,15,0,0,1-4.4-5.89C630.8,222.11,629.49,223.7,629.66,224.11Z" transform="translate(-593.86 -90.24)"/><path class="cls-5" d="M630.82,225.89c.94,3.34,2.65,6.3,6.26,7.27l3.06.32a12.59,12.59,0,0,0,4.44-2.41,18.64,18.64,0,0,0,5.51-6.13,16,16,0,0,0,2.07-5.91c.17-2.43-2.27-5.49-4-7a10.28,10.28,0,0,0-3.82-2.56l-2.93-.9-3.24.52a9.62,9.62,0,0,0-4.17,2.59c-1.71,1.52-3.7,3.71-4.25,6l-.32,2.49,1,2.3a14,14,0,0,0,3.9,4.67,7.36,7.36,0,0,0,5.77,1.59,10.54,10.54,0,0,0,5.71-2.43c2-1.72,2.93-3.74,1.65-6.43-1.76-3.68-5.17-5.33-8.7-7-.56-.27-2.51,3.51-2.56,3.59-.24.4-2.35,3.24-1.91,4l3.28,5.44q.13.39.35,0c2-2.5,2.85-5.73,3.94-8.67.61-1.63-.44-.43-.87.36-.59,1.09-1.14,2.21-1.67,3.33-.31.64-1.28,2.11-1.19,2.87l.14,1.12,3-6.78-2.63.92.21.77v-6.69l-4.23,7.18,6.06-3.33L637.7,218l6.23-.4-5,0,6.6,4.19-6.06-4.29a.27.27,0,0,1-.32-.25,30.18,30.18,0,0,0-3.68-6.56l1.4,7,.62-3-.52,1.82,1.43-2.2-1.26,1.77c1-.62,2.35-1.65,3.64-1.61l2,.79a3.53,3.53,0,0,1,.54,3.92,1.86,1.86,0,0,1-1.67,1.39c-.76,0-1.07-.51-1.77-.75l.1.38a18.45,18.45,0,0,0-1.13-2.75,13,13,0,0,1-.63-3.39,2.26,2.26,0,0,0-1,1.07q-1.54,2.27-3,4.61t-2.85,4.69A2.26,2.26,0,0,0,630.82,225.89Z" transform="translate(-593.86 -90.24)"/></svg>
