<?xml version="1.0" encoding="utf-8"?>
<!-- Generator: Adobe Illustrator 21.1.0, SVG Export Plug-In . SVG Version: 6.00 Build 0)  -->
<svg version="1.1" id="Layer_1" xmlns="http://www.w3.org/2000/svg" xmlns:xlink="http://www.w3.org/1999/xlink" x="0px" y="0px"
	 viewBox="0 0 997.7 214" style="enable-background:new 0 0 997.7 214;" xml:space="preserve">
<style type="text/css">
	.st0{fill:none;stroke:#000000;stroke-width:3;stroke-miterlimit:10;}
	.st1{fill:#FFD1FC;}
	.st2{stroke:#000000;stroke-width:3;stroke-miterlimit:10;}
	.st3{fill:#800000;}
	.st4{fill:#800000;stroke:#800000;stroke-width:3;stroke-miterlimit:10;}
	.st5{stroke:#000000;stroke-miterlimit:10;}
</style>
<title>spritesheet wine</title>
<line class="st0" x1="31.2" y1="162.1" x2="31.2" y2="162.1"/>
<path class="st1" d="M29.1,166.1"/>
<line class="st0" x1="31" y1="161.5" x2="31" y2="161.5"/>
<path class="st1" d="M28.9,165.5"/>
<path class="st0" d="M48.8,123.5l0,8.7c0,0,0.2,4.3,0,4.8c-0.2,0.5-1.8,2.3-1.8,2.3l-3.7,3.7c0,0-1.3,1.4-1.4,2.8
	c-0.1,1.5-0.1,16.2-0.1,16.2l-0.1,27.9l0,9.1"/>
<ellipse transform="matrix(4.886881e-03 -1 1 4.886881e-03 -71.6791 175.8695)" class="st2" cx="52.5" cy="123.9" rx="1.2" ry="3.6"/>
<line class="st0" x1="62.7" y1="165.1" x2="62.7" y2="165.1"/>
<line class="st0" x1="62.9" y1="162.5" x2="41.8" y2="162.4"/>
<line class="st0" x1="41.7" y1="178.2" x2="62.9" y2="178.4"/>
<polygon class="st1" points="41.9,162.5 41.8,178 62.6,178.2 62.7,162.6 "/>
<path class="st1" d="M43.2,165.5"/>
<path class="st3" d="M48.7,133.1l7.3,0l0,4l6.1,6.9c0.3,0.5,0.5,1,0.7,1.5c0.1,0.5-0.3,16.7-0.3,16.7l-20.8-0.1l0.1-12.8l-0.1-3.9
	l1-2.5l2.5-2.3l1.6-1.7l1.2-1.4l0.7-0.9L48.7,133.1z"/>
<path class="st3" d="M41.7,178l20.8,0.1l-0.1,20.6l-3.6-1.9l-3.8-0.7l-3-0.2c0,0-2.6-0.2-3,0s-0.7-0.1-0.7-0.1l-1.5,0.5l-1.9,0.4
	l-1.9,0.7l-0.8,0.5l-0.8,0.9"/>
<path class="st0" d="M54.7,172.8c-0.2,0.7-0.6,1.3-1.2,1.6c-1.2,0.7-2.7,0.2-3.3-0.9c0,0,0-0.1,0-0.1"/>
<path class="st0" d="M48.6,123l0,8.7c0,0,0.2,4.3,0,4.8c-0.2,0.5-1.8,2.3-1.8,2.3l-3.7,3.7c0,0-1.3,1.4-1.4,2.8
	c-0.1,1.5-0.1,16.2-0.1,16.2l-0.1,27.9l0,9.1"/>
<path class="st0" d="M62.6,198.9l0-9.1l0.1-27.9c0,0,0.2-14.7,0.1-16.2s-1.4-2.9-1.4-2.9l-3.6-3.8c0,0-1.5-1.8-1.8-2.3
	c-0.2-0.5,0-4.8,0-4.8l0-8.7"/>
<path class="st4" d="M62.4,199.1c0,1.9-4.8,3.5-10.6,3.4S41.2,201,41.2,199s4.8-3.5,10.6-3.4S62.4,197.2,62.4,199.1z"/>
<ellipse transform="matrix(4.886881e-03 -1 1 4.886881e-03 -71.3263 175.0852)" class="st2" cx="52.3" cy="123.4" rx="1.2" ry="3.6"/>
<line class="st0" x1="62.5" y1="164.5" x2="62.5" y2="164.5"/>
<line class="st0" x1="62.7" y1="161.9" x2="41.5" y2="161.8"/>
<line class="st0" x1="41.5" y1="177.6" x2="62.6" y2="177.8"/>
<polygon class="st1" points="41.7,161.9 41.6,177.4 62.4,177.6 62.5,162 "/>
<path class="st1" d="M43,164.9"/>
<path class="st3" d="M48.6,132.7l7.3,0l0,4l6.1,6.9c0.3,0.5,0.5,1,0.7,1.5c0.1,0.5-0.3,16.7-0.3,16.7l-20.8-0.1l0.1-12.8l-0.1-3.9
	l1-2.5l2.5-2.3l1.6-1.7l1.2-1.4l0.7-0.9L48.6,132.7z"/>
<path class="st3" d="M41.5,177.5l20.8,0.1l-0.1,20.6l-3.6-1.9l-3.8-0.7l-3-0.2c0,0-2.6-0.2-3,0c-0.3,0.3-0.7-0.1-0.7-0.1l-1.5,0.5
	l-1.9,0.4l-1.9,0.7l-0.8,0.5l-0.8,0.9"/>
<path class="st0" d="M53.8,171.5c-0.2,0.7-0.6,1.3-1.2,1.6c-1.2,0.7-2.7,0.2-3.3-0.9c0,0,0-0.1,0-0.1"/>
<ellipse transform="matrix(4.886881e-03 -1 1 4.886881e-03 -118.6361 213.3253)" class="st5" cx="47.9" cy="166.3" rx="1.1" ry="1"/>
<ellipse transform="matrix(4.886881e-03 -1 1 4.886881e-03 -111.3978 220.6615)" class="st5" cx="55.2" cy="166.3" rx="1.1" ry="1"/>
<polyline class="st0" points="43.1,211.7 47.8,211.7 43.6,206.5 48.3,202.4 "/>
<polyline class="st0" points="59.3,211.8 54.6,211.8 58.8,206.6 54.1,202.4 "/>
<line class="st0" x1="67.3" y1="146.8" x2="67.3" y2="146.8"/>
<path class="st1" d="M65.2,150.8"/>
<line class="st0" x1="67.1" y1="146.2" x2="67.1" y2="146.2"/>
<path class="st1" d="M65,150.2"/>
<line class="st0" x1="105.6" y1="67.8" x2="105.6" y2="67.8"/>
<line class="st0" x1="105.4" y1="67.3" x2="105.4" y2="67.3"/>
<path class="st0" d="M140.2,70.1l0,8.7c0,0,0.2,4.4,0,4.8c-0.2,0.5-1.9,2.3-1.9,2.3l-3.9,3.8c0,0-1.4,1.4-1.5,2.9
	c-0.1,1.5-0.1,16.3-0.1,16.3l-0.1,28.2l0,9.2"/>
<ellipse transform="matrix(4.712313e-03 -1 1 4.712313e-03 72.9155 214.3776)" class="st2" cx="144.2" cy="70.6" rx="1.2" ry="3.8"/>
<line class="st0" x1="105.6" y1="41.9" x2="105.6" y2="41.9"/>
<line class="st0" x1="155.1" y1="109.4" x2="132.8" y2="109.3"/>
<line class="st0" x1="132.7" y1="125.3" x2="155.1" y2="125.5"/>
<polygon class="st1" points="132.9,109.4 132.8,125.1 154.8,125.3 154.9,109.5 "/>
<path class="st3" d="M140.1,79.8l7.8,0l0,4l6.4,7c0.3,0.5,0.5,1,0.7,1.5c0.1,0.5-0.3,16.9-0.3,16.9l-22-0.1l0.1-12.9l-0.1-3.9
	l1.1-2.5l2.6-2.4l1.7-1.7l1.3-1.4l0.7-0.9L140.1,79.8z"/>
<path class="st3" d="M132.8,125.1l22,0.1l-0.1,20.8l-3.8-1.9l-4-0.7l-3.2-0.2c0,0-2.8-0.2-3.1,0c-0.4,0.3-0.7-0.1-0.7-0.1l-1.6,0.5
	l-2,0.4l-2,0.7l-0.8,0.5l-0.9,0.9"/>
<path class="st0" d="M146.4,119.9c-0.2,0.7-0.6,1.3-1.3,1.7c-1.3,0.7-2.8,0.2-3.6-1"/>
<path class="st0" d="M140,69.6l0,8.7c0,0,0.2,4.4,0,4.8c-0.2,0.5-1.9,2.3-1.9,2.3l-3.9,3.8c0,0-1.4,1.4-1.5,2.9
	c-0.1,1.5-0.1,16.3-0.1,16.3l-0.1,28.2l0,9.2"/>
<path class="st0" d="M154.7,146.2l0-9.2l0.1-28.2c0,0,0.2-14.8,0.1-16.3c-0.1-1.5-1.5-2.9-1.5-2.9l-3.8-3.8c0,0-1.6-1.8-1.8-2.3
	c-0.2-0.5,0-4.8,0-4.8l0-8.7"/>
<ellipse transform="matrix(4.712313e-03 -1 1 4.712313e-03 -3.6823 289.0897)" class="st4" cx="143.4" cy="146.4" rx="3.5" ry="11.2"/>
<ellipse transform="matrix(4.712313e-03 -1 1 4.712313e-03 73.2644 213.5739)" class="st2" cx="143.9" cy="70" rx="1.2" ry="3.8"/>
<line class="st0" x1="105.4" y1="41.4" x2="105.4" y2="41.4"/>
<line class="st0" x1="154.9" y1="108.9" x2="132.6" y2="108.7"/>
<line class="st0" x1="132.5" y1="124.7" x2="154.8" y2="125"/>
<polygon class="st1" points="132.7,108.9 132.6,124.5 154.6,124.7 154.7,109 "/>
<path class="st3" d="M140,79.4l7.8,0l0,4l6.4,7c0.3,0.5,0.5,1,0.7,1.5c0.1,0.5-0.3,16.9-0.3,16.9l-22-0.1l0.1-12.9l-0.1-3.9l1.1-2.5
	l2.7-2.4l1.7-1.7l1.3-1.4l0.7-0.9L140,79.4z"/>
<path class="st3" d="M132.6,124.6l22,0.1l-0.1,20.8l-3.8-1.9l-4-0.7l-3.1-0.2c0,0-2.8-0.2-3.1,0c-0.4,0.3-0.7-0.1-0.7-0.1l-1.6,0.5
	l-2,0.4l-2,0.7l-0.8,0.5l-0.9,0.9"/>
<path class="st0" d="M145.5,118.5c-0.2,0.7-0.6,1.3-1.3,1.7c-1.3,0.7-2.8,0.2-3.6-1"/>
<ellipse transform="matrix(4.712313e-03 -1 1 4.712313e-03 25.3161 251.982)" class="st5" cx="139.2" cy="113.3" rx="1.1" ry="1.1"/>
<ellipse transform="matrix(4.712313e-03 -1 1 4.712313e-03 32.9471 259.7152)" class="st5" cx="146.9" cy="113.3" rx="1.1" ry="1.1"/>
<polyline class="st0" points="147.6,149.7 147.6,162 152,162 "/>
<polyline class="st0" points="139.3,149.7 139.3,162 134.9,162 "/>
<path class="st0" d="M274.2,12.4l-5.2,7c0,0-2.4,3.7-2.9,3.9c-0.5,0.2-2.9,0.7-2.9,0.7l-5.3,0.8c0,0-1.9,0.3-2.9,1.4
	s-9.7,13.2-9.7,13.2l-16.7,22.7l-5.5,7.4"/>
<ellipse transform="matrix(0.5936 -0.8048 0.8048 0.5936 100.513 229.186)" class="st2" cx="277.2" cy="15.1" rx="1.2" ry="3.8"/>
<line class="st0" x1="245.4" y1="38.8" x2="245.4" y2="38.8"/>
<line class="st0" x1="263.1" y1="52.9" x2="245.1" y2="39.7"/>
<line class="st0" x1="235.7" y1="52.6" x2="253.6" y2="65.9"/>
<polygon class="st1" points="245.2,39.9 235.9,52.4 253.5,65.6 262.9,52.9 "/>
<path class="st1" d="M241.3,40.8"/>
<path class="st3" d="M268.5,20.2l6.2,4.6l-2.4,3.2l1.1,9.4c-0.1,0.6-0.2,1.1-0.3,1.7c-0.2,0.4-10.2,13.5-10.2,13.5l-17.7-13.1
	l7.6-10.4L255,26l2.3-1.4l3.5-0.4l2.4-0.4l1.8-0.4l1.1-0.3L268.5,20.2z"/>
<path class="st3" d="M235.8,52.5l17.7,13l-12.4,16.8l-1.9-3.8l-2.8-2.9l-2.4-2c0,0-2.1-1.8-2.6-1.8s-0.5-0.5-0.5-0.5l-1.6-0.6
	l-1.9-0.8l-2-0.6l-1-0.1l-1.3,0.3"/>
<path class="st0" d="M249.9,56.2c-0.6,0.5-1.3,0.7-2,0.6c-1.4-0.2-2.4-1.5-2.3-2.9"/>
<path class="st0" d="M274.4,11.8l-5.2,7c0,0-2.4,3.7-2.9,3.9s-2.9,0.7-2.9,0.7l-5.3,0.8c0,0-1.9,0.3-2.9,1.4
	c-1,1.1-9.7,13.2-9.7,13.2l-16.7,22.7l-5.5,7.4"/>
<path class="st0" d="M241.1,82.4l5.5-7.4l16.7-22.7c0,0,8.9-11.9,9.7-13.2s0.5-3.2,0.5-3.2l-0.8-5.3c0,0-0.2-2.4-0.1-3
	c0.1-0.5,2.9-3.9,2.9-3.9l5.2-7"/>
<ellipse transform="matrix(0.5936 -0.8048 0.8048 0.5936 33.1605 217.4029)" class="st4" cx="231.8" cy="75.9" rx="3.5" ry="11.2"/>
<ellipse transform="matrix(0.5936 -0.8048 0.8048 0.5936 101.0583 229.0661)" class="st2" cx="277.3" cy="14.5" rx="1.2" ry="3.8"/>
<line class="st0" x1="245.5" y1="38.2" x2="245.5" y2="38.2"/>
<line class="st0" x1="263.3" y1="52.3" x2="245.3" y2="39.1"/>
<line class="st0" x1="235.8" y1="52" x2="253.7" y2="65.3"/>
<polygon class="st1" points="245.3,39.3 236,51.8 253.7,65 263,52.3 "/>
<path class="st1" d="M241.5,40.2"/>
<path class="st3" d="M268.6,19.8l6.2,4.6l-2.4,3.2l1.1,9.4c-0.1,0.6-0.2,1.1-0.3,1.7C273,39.2,263,52.2,263,52.2l-17.7-13l7.6-10.4
	l2.2-3.2l2.3-1.4l3.5-0.4l2.4-0.4l1.8-0.4l1.1-0.3L268.6,19.8z"/>
<path class="st3" d="M236,51.9l17.7,13l-12.4,16.8l-1.9-3.8l-2.8-2.9l-2.4-2c0,0-2.1-1.8-2.6-1.8c-0.5,0-0.5-0.5-0.5-0.5l-1.6-0.6
	l-1.9-0.8l-2-0.6l-1-0.1l-1.3,0.3"/>
<path class="st0" d="M250,54.6c-0.6,0.5-1.3,0.7-2,0.6c-1.4-0.2-2.4-1.5-2.3-2.9"/>
<ellipse transform="matrix(0.5936 -0.8048 0.8048 0.5936 63.2302 218.5657)" class="st5" cx="248" cy="46.7" rx="1.1" ry="1.1"/>
<ellipse transform="matrix(0.5936 -0.8048 0.8048 0.5936 62.0769 225.4118)" class="st5" cx="254.2" cy="51.2" rx="1.1" ry="1.1"/>
<polyline class="st0" points="233.3,81 226,91 229.6,93.6 "/>
<polyline class="st0" points="226.6,76.1 219.3,86.1 215.8,83.5 "/>
<path class="st0" d="M448.9,99l-0.1-8.7c0,0-0.3-4.4,0-4.8c0.2-0.5,1.8-2.3,1.8-2.3l3.8-3.8c0,0,1.4-1.4,1.5-2.9s-0.1-16.3-0.1-16.3
	l-0.2-28.2l-0.1-9.2"/>
<ellipse transform="matrix(1 -6.283144e-03 6.283144e-03 1 -0.6108 2.7975)" class="st2" cx="444.9" cy="98.6" rx="3.8" ry="1.2"/>
<line class="st0" x1="456.2" y1="60.6" x2="456.2" y2="60.6"/>
<line class="st0" x1="433.5" y1="59.9" x2="455.8" y2="59.7"/>
<line class="st0" x1="455.7" y1="43.7" x2="433.4" y2="43.8"/>
<polygon class="st1" points="455.7,59.6 455.6,44 433.7,44 433.8,59.8 "/>
<path class="st1" d="M476.5-56.5"/>
<path class="st3" d="M448.9,89.3l-7.8,0v-4l-6.5-6.9c-0.3-0.5-0.5-1-0.7-1.5C433.7,76.4,434,60,434,60l22-0.1l0.1,12.9l0.1,3.9
	l-1,2.5l-2.6,2.4l-1.6,1.8l-1.3,1.4l-0.7,0.9L448.9,89.3z"/>
<path class="st3" d="M455.7,43.9l-22,0.1l-0.1-20.8l3.8,1.9l4,0.6l3.2,0.2c0,0,2.8,0.2,3.1-0.1c0.3-0.3,0.7,0.1,0.7,0.1l1.6-0.5
	l2-0.5l1.9-0.7l0.8-0.5l0.9-1"/>
<path class="st0" d="M442.1,49.3c0.2-0.7,0.6-1.3,1.3-1.7c1.3-0.7,2.8-0.3,3.6,1"/>
<path class="st0" d="M449.1,99.6l-0.1-8.7c0,0-0.3-4.4,0-4.8s1.8-2.3,1.8-2.3l3.8-3.8c0,0,1.4-1.4,1.5-2.9s-0.1-16.3-0.1-16.3
	l-0.2-28.2l-0.1-9.2"/>
<path class="st0" d="M433.5,22.7l0.1,9.2l0.2,28.2c0,0,0,14.8,0.1,16.3s1.5,2.9,1.5,2.9l3.9,3.8c0,0,1.6,1.8,1.9,2.3s0,4.8,0,4.8
	l0.1,8.7"/>
<ellipse transform="matrix(1 -6.283144e-03 6.283144e-03 1 -0.1343 2.7955)" class="st4" cx="444.9" cy="22.8" rx="11.2" ry="3.5"/>
<ellipse transform="matrix(1 -6.283144e-03 6.283144e-03 1 -0.6144 2.799)" class="st2" cx="445.2" cy="99.2" rx="3.8" ry="1.2"/>
<line class="st0" x1="456.5" y1="61.2" x2="456.5" y2="61.2"/>
<line class="st0" x1="433.8" y1="60.4" x2="456.1" y2="60.3"/>
<line class="st0" x1="456" y1="44.3" x2="433.7" y2="44.3"/>
<polygon class="st1" points="456,60.2 455.9,44.5 433.9,44.6 434,60.3 "/>
<path class="st1" d="M476.7-55.9"/>
<path class="st3" d="M448.9,89.7l-7.8,0v-4l-6.5-6.9c-0.3-0.5-0.5-1-0.7-1.5c-0.1-0.5,0.1-16.9,0.1-16.9l22-0.1l0.1,12.9l0.1,3.9
	l-1,2.5l-2.6,2.4l-1.6,1.8l-1.3,1.4L449,86L448.9,89.7z"/>
<path class="st3" d="M455.9,44.5l-22,0.1l-0.1-20.8l3.8,1.9l4,0.6l3.2,0.2c0,0,2.8,0.2,3.1-0.1c0.3-0.3,0.7,0.1,0.7,0.1l1.6-0.5
	l2-0.5l1.9-0.7l0.8-0.5l0.9-1"/>
<path class="st0" d="M443,50.7c0.2-0.7,0.6-1.3,1.3-1.7c1.3-0.7,2.8-0.3,3.6,1"/>
<ellipse transform="matrix(1 -6.283144e-03 6.283144e-03 1 -0.342 2.8245)" class="st5" cx="449.4" cy="55.8" rx="1.1" ry="1.1"/>
<ellipse transform="matrix(1 -6.283144e-03 6.283144e-03 1 -0.3425 2.7762)" class="st5" cx="441.7" cy="55.9" rx="1.1" ry="1.1"/>
<polyline class="st0" points="440.6,19.5 440.5,7.2 436.1,7.2 "/>
<polyline class="st0" points="448.9,19.4 448.7,7.1 453.2,7 "/>
<path class="st0" d="M392.8,180.6l-8.1-3.4c0,0-4.1-1.5-4.4-1.9c-0.3-0.4-1.4-2.6-1.4-2.6l-2-5c0,0-0.7-1.8-2.1-2.5
	c-1.3-0.7-15-6.3-15-6.3l-26-10.9l-8.5-3.6"/>
<ellipse transform="matrix(0.3882 -0.9216 0.9216 0.3882 69.4664 472.8972)" class="st2" cx="390.9" cy="184.1" rx="3.8" ry="1.2"/>
<line class="st0" x1="360.4" y1="158.8" x2="360.4" y2="158.8"/>
<line class="st0" x1="350.8" y1="179.3" x2="359.5" y2="158.8"/>
<line class="st0" x1="344.7" y1="152.6" x2="335.9" y2="173.1"/>
<polygon class="st1" points="359.3,158.8 344.9,152.8 336.3,173 350.8,179.1 "/>
<path class="st1" d="M357.5,155.3"/>
<path class="st3" d="M383.9,176.8l-3,7.1l-3.7-1.6l-8.9,3.3c-0.6,0.1-1.1,0.1-1.7,0.1c-0.5-0.1-15.5-6.8-15.5-6.8l8.5-20.2l11.9,5
	l3.6,1.4l1.9,1.9l1.2,3.4l1,2.2l0.8,1.7l0.6,1L383.9,176.8z"/>
<path class="st3" d="M344.9,152.7l-8.5,20.3l-19.2-8.1l3.3-2.8l2.1-3.4l1.4-2.8c0,0,1.3-2.5,1.2-2.9c-0.1-0.4,0.3-0.6,0.3-0.6
	l0.2-1.7l0.4-2l0.1-2.1l-0.1-0.9l-0.5-1.2"/>
<path class="st0" d="M344.5,167.3c-0.6-0.4-1-1.1-1-1.8c-0.1-1.4,0.9-2.7,2.3-2.9"/>
<path class="st0" d="M393.4,180.7l-8.1-3.4c0,0-4.1-1.5-4.4-1.9c-0.3-0.4-1.4-2.6-1.4-2.6l-2-5c0,0-0.7-1.8-2.1-2.5
	c-1.3-0.7-15-6.3-15-6.3l-26-10.9l-8.5-3.6"/>
<path class="st0" d="M317,164.9l8.5,3.6l26,10.9c0,0,13.6,5.9,15,6.3c1.4,0.5,3.2-0.3,3.2-0.3l5-2.1c0,0,2.3-0.8,2.8-0.8
	c0.5,0,4.4,1.9,4.4,1.9l8.1,3.4"/>
<ellipse transform="matrix(0.3882 -0.9216 0.9216 0.3882 54.275 390.3864)" class="st4" cx="321.1" cy="154.3" rx="11.2" ry="3.5"/>
<ellipse transform="matrix(0.3882 -0.9216 0.9216 0.3882 69.8391 473.4745)" class="st2" cx="391.5" cy="184.1" rx="3.8" ry="1.2"/>
<line class="st0" x1="361" y1="158.8" x2="361" y2="158.8"/>
<line class="st0" x1="351.4" y1="179.4" x2="360.1" y2="158.8"/>
<line class="st0" x1="345.3" y1="152.6" x2="336.6" y2="173.1"/>
<polygon class="st1" points="359.9,158.8 345.5,152.8 336.9,173 351.4,179.1 "/>
<path class="st1" d="M358.1,155.3"/>
<path class="st3" d="M384.3,176.9l-3,7.1l-3.7-1.6l-8.9,3.3c-0.6,0.1-1.1,0.1-1.7,0.1c-0.5-0.1-15.5-6.8-15.5-6.8l8.5-20.2l11.9,5
	l3.6,1.4l1.9,1.9l1.2,3.4l1,2.2l0.8,1.7l0.6,1L384.3,176.9z"/>
<path class="st3" d="M345.5,152.7l-8.5,20.2l-19.2-8.1l3.3-2.8l2.1-3.4l1.4-2.8c0,0,1.3-2.5,1.2-2.9c-0.1-0.4,0.3-0.6,0.3-0.6
	l0.2-1.7l0.4-2l0.1-2.1l-0.1-0.9l-0.5-1.2"/>
<path class="st0" d="M346.1,167c-0.6-0.4-1-1.1-1-1.8c-0.1-1.4,0.9-2.7,2.3-2.9"/>
<ellipse transform="matrix(0.3882 -0.9216 0.9216 0.3882 65.7716 425.4761)" class="st5" cx="353.3" cy="163.2" rx="1.1" ry="1.1"/>
<ellipse transform="matrix(0.3882 -0.9216 0.9216 0.3882 57.4035 427.0701)" class="st5" cx="350.3" cy="170.3" rx="1.1" ry="1.1"/>
<polyline class="st0" points="316.5,157 305.1,152.2 303.4,156.3 "/>
<polyline class="st0" points="319.7,149.3 308.3,144.6 310,140.5 "/>
<path class="st3" d="M444,103.5l-1.7,6.8c0,0-0.4,3.3,2.3,3.5c2.7,0.2,2.3-3.1,2.3-3.1L444,103.5z"/>
<path class="st3" d="M446.9,115.9l-1.7,6.8c0,0-0.4,3.3,2.3,3.5c2.7,0.2,2.3-3.1,2.3-3.1L446.9,115.9z"/>
<path class="st3" d="M440,117.4l-1.7,6.8c0,0-0.4,3.3,2.3,3.5c2.7,0.2,2.3-3.1,2.3-3.1L440,117.4z"/>
<path class="st3" d="M444.6,128.3l-1.7,6.8c0,0-0.4,3.3,2.3,3.5c2.7,0.2,2.3-3.1,2.3-3.1L444.6,128.3z"/>
<line class="st0" x1="540.5" y1="34.7" x2="540.5" y2="34.7"/>
<path class="st1" d="M539,30.5"/>
<line class="st0" x1="541.1" y1="34.9" x2="541.1" y2="34.9"/>
<path class="st1" d="M539.5,30.7"/>
<path class="st0" d="M582.8,83.7l-6.4-5.9c0,0-3.4-2.8-3.6-3.3c-0.2-0.5-0.4-2.9-0.4-2.9l-0.2-5.4c0,0-0.1-2-1.1-3.1
	c-1-1.1-12-11.1-12-11.1L538.3,33l-6.8-6.2"/>
<ellipse transform="matrix(0.6767 -0.7362 0.7362 0.6767 123.8471 454.7646)" class="st2" cx="579.8" cy="86.3" rx="3.8" ry="1.2"/>
<line class="st0" x1="559.7" y1="52.2" x2="559.7" y2="52.2"/>
<line class="st0" x1="543.7" y1="68.3" x2="558.8" y2="51.9"/>
<line class="st0" x1="547" y1="41.1" x2="531.8" y2="57.4"/>
<polygon class="st1" points="558.6,51.9 547.1,41.3 532.2,57.4 543.8,68.1 "/>
<path class="st1" d="M558.1,48"/>
<path class="st3" d="M575.7,77.1l-5.2,5.7l-2.9-2.7l-9.5,0c-0.6-0.1-1.1-0.3-1.6-0.5c-0.4-0.2-12.3-11.6-12.3-11.6l14.9-16.2
	l9.5,8.7l3,2.6l1.2,2.5l0,3.6l0.2,2.4l0.2,1.9l0.2,1.1L575.7,77.1z"/>
<path class="st3" d="M547.1,41.2l-14.9,16.2l-15.3-14.1l4-1.5l3.2-2.5l2.3-2.2c0,0,2.1-1.9,2.1-2.3s0.5-0.5,0.5-0.5l0.7-1.5l1-1.8
	l0.8-1.9l0.2-0.9l-0.1-1.3"/>
<path class="st0" d="M541.8,54.8c-0.4-0.6-0.5-1.4-0.4-2.1c0.3-1.4,1.7-2.3,3.1-1.9"/>
<path class="st0" d="M583.4,83.9l-6.4-5.9c0,0-3.4-2.8-3.6-3.3c-0.2-0.5-0.4-2.9-0.4-2.9l-0.2-5.4c0,0-0.1-2-1.1-3.1
	c-1-1.1-12-11.1-12-11.1l-20.7-19.1l-6.8-6.2"/>
<path class="st0" d="M516.8,43.3l6.8,6.2l20.7,19.1c0,0,10.8,10.1,12,11.1c1.2,0.9,3.1,0.8,3.1,0.8l5.4-0.3c0,0,2.5,0,3,0.2
	s3.6,3.3,3.6,3.3l6.4,5.9"/>
<ellipse transform="matrix(0.6767 -0.7362 0.7362 0.6767 143.8936 397.1747)" class="st4" cx="524.2" cy="34.7" rx="11.2" ry="3.5"/>
<ellipse transform="matrix(0.6767 -0.7362 0.7362 0.6767 123.8744 455.2624)" class="st2" cx="580.4" cy="86.6" rx="3.8" ry="1.2"/>
<line class="st0" x1="560.3" y1="52.4" x2="560.3" y2="52.4"/>
<line class="st0" x1="544.3" y1="68.5" x2="559.4" y2="52.1"/>
<line class="st0" x1="547.6" y1="41.3" x2="532.4" y2="57.6"/>
<polygon class="st1" points="559.2,52.1 547.7,41.5 532.7,57.6 544.3,68.3 "/>
<path class="st1" d="M558.7,48.2"/>
<path class="st3" d="M576,77.4l-5.2,5.7l-2.9-2.7l-9.5,0c-0.6-0.1-1.1-0.3-1.6-0.5c-0.4-0.2-12.3-11.6-12.3-11.6l14.9-16.2l9.5,8.7
	l3,2.6l1.2,2.5l0,3.6l0.2,2.4l0.2,1.9l0.2,1.1L576,77.4z"/>
<path class="st3" d="M547.7,41.4l-14.9,16.2l-15.3-14.1l4-1.5l3.2-2.5l2.3-2.2c0,0,2.1-1.9,2.1-2.3c0-0.5,0.5-0.5,0.5-0.5l0.7-1.5
	l1-1.8l0.8-1.9l0.2-0.9l-0.1-1.3"/>
<path class="st0" d="M543.4,55.1c-0.4-0.6-0.5-1.4-0.4-2.1c0.3-1.4,1.7-2.3,3.1-1.9"/>
<ellipse transform="matrix(0.6767 -0.7362 0.7362 0.6767 138.5519 423.4763)" class="st5" cx="551.5" cy="54" rx="1.1" ry="1.1"/>
<ellipse transform="matrix(0.6767 -0.7362 0.7362 0.6767 132.6916 421.4757)" class="st5" cx="546.3" cy="59.6" rx="1.1" ry="1.1"/>
<polyline class="st0" points="519,35.6 509.9,27.3 506.9,30.6 "/>
<polyline class="st0" points="524.5,29.5 515.4,21.2 518.4,17.9 "/>
<line class="st0" x1="626.3" y1="92.7" x2="626.3" y2="92.7"/>
<path class="st1" d="M621.9,93.6"/>
<line class="st0" x1="626.6" y1="92.1" x2="626.6" y2="92.1"/>
<path class="st1" d="M622.2,93"/>
<path class="st0" d="M681.2,58.5l-6.8,5.4c0,0-3.3,2.9-3.8,3c-0.5,0.1-3,0-3,0l-5.4-0.6c0,0-1.9-0.2-3.2,0.6S646.3,77,646.3,77
	l-22,17.6l-7.2,5.7"/>
<ellipse transform="matrix(0.7823 -0.623 0.623 0.7823 110.2942 439.1448)" class="st2" cx="683.3" cy="61.8" rx="1.2" ry="3.8"/>
<line class="st0" x1="646.5" y1="76.4" x2="646.5" y2="76.4"/>
<line class="st0" x1="659.9" y1="94.7" x2="646" y2="77.3"/>
<line class="st0" x1="633.5" y1="87.2" x2="647.3" y2="104.7"/>
<polygon class="st1" points="646,77.4 633.8,87.2 647.4,104.4 659.7,94.6 "/>
<path class="st1" d="M642,77.3"/>
<path class="st3" d="M673.6,64.5l4.8,6.1l-3.2,2.5l-1.4,9.4c-0.2,0.5-0.5,1-0.8,1.5c-0.3,0.4-13.4,10.4-13.4,10.4L646,77.1l10.1-8
	l3-2.5l2.6-0.8l3.5,0.6l2.4,0.2l1.9,0.1l1.2,0L673.6,64.5z"/>
<path class="st3" d="M633.7,87.2l13.7,17.2l-16.3,13l-0.9-4.2l-2-3.5l-1.8-2.6c0,0-1.6-2.3-2-2.4c-0.4-0.1-0.4-0.6-0.4-0.6l-1.4-1
	l-1.6-1.3l-1.8-1.1l-0.9-0.3l-1.3-0.1"/>
<path class="st0" d="M646.3,94.5c-0.7,0.3-1.4,0.3-2.1,0c-1.3-0.6-2-2.1-1.4-3.4"/>
<path class="st0" d="M681.5,57.9l-6.8,5.4c0,0-3.3,2.9-3.8,3c-0.5,0.1-3,0-3,0l-5.4-0.6c0,0-1.9-0.2-3.2,0.6
	c-1.2,0.8-12.8,10.2-12.8,10.2l-22,17.5l-7.2,5.7"/>
<path class="st0" d="M631,117.4l7.2-5.7l22-17.6c0,0,11.7-9.2,12.8-10.2c1.1-1,1.3-3,1.3-3l0.6-5.4c0,0,0.4-2.4,0.6-2.9
	c0.2-0.5,3.8-3,3.8-3l6.8-5.4"/>
<ellipse transform="matrix(0.7823 -0.623 0.623 0.7823 68.086 412.2485)" class="st4" cx="623.8" cy="108.7" rx="3.5" ry="11.2"/>
<ellipse transform="matrix(0.7823 -0.623 0.623 0.7823 110.6962 439.2177)" class="st2" cx="683.6" cy="61.3" rx="1.2" ry="3.8"/>
<line class="st0" x1="646.8" y1="75.9" x2="646.8" y2="75.9"/>
<line class="st0" x1="660.2" y1="94.2" x2="646.3" y2="76.7"/>
<line class="st0" x1="633.8" y1="86.7" x2="647.6" y2="104.2"/>
<polygon class="st1" points="646.3,76.9 634.1,86.6 647.7,103.9 660,94.1 "/>
<path class="st1" d="M642.4,76.8"/>
<path class="st3" d="M673.9,64.1l4.8,6.1l-3.2,2.5l-1.4,9.4c-0.2,0.5-0.5,1-0.8,1.5C673.1,84,660,94,660,94l-13.7-17.2l10.1-8l3-2.5
	l2.6-0.8l3.5,0.6l2.4,0.2l1.9,0.1l1.2,0L673.9,64.1z"/>
<path class="st3" d="M634,86.6l13.7,17.2l-16.3,13l-0.9-4.2l-2-3.5l-1.8-2.6c0,0-1.6-2.3-2-2.4c-0.4-0.1-0.4-0.6-0.4-0.6l-1.4-1
	l-1.6-1.3l-1.8-1.1l-0.9-0.3l-1.3-0.1"/>
<path class="st0" d="M646.8,92.9c-0.7,0.3-1.4,0.3-2.1,0c-1.3-0.6-2-2.1-1.4-3.4"/>
<ellipse transform="matrix(0.7823 -0.623 0.623 0.7823 88.0823 421.4874)" class="st5" cx="647" cy="84.7" rx="1.1" ry="1.1"/>
<ellipse transform="matrix(0.7823 -0.623 0.623 0.7823 85.3775 425.7896)" class="st5" cx="651.8" cy="90.8" rx="1.1" ry="1.1"/>
<polyline class="st0" points="623.8,114.1 614.2,121.8 617,125.3 "/>
<polyline class="st0" points="618.7,107.6 609,115.4 606.3,111.9 "/>
<line class="st0" x1="690.9" y1="120.2" x2="690.9" y2="120.2"/>
<path class="st1" d="M695.8,122.2"/>
<line class="st0" x1="690.6" y1="119.6" x2="690.6" y2="119.6"/>
<path class="st1" d="M695.6,121.6"/>
<path class="st0" d="M743.6,118.7l0,8.7c0,0,0.2,4.4,0,4.8c-0.2,0.5-1.9,2.3-1.9,2.3l-3.9,3.8c0,0-1.4,1.4-1.5,2.9
	c-0.1,1.5-0.1,16.3-0.1,16.3l-0.1,28.2l0,9.2"/>
<ellipse transform="matrix(4.712313e-03 -1 1 4.712313e-03 624.8682 866.0751)" class="st2" cx="747.5" cy="119.1" rx="1.2" ry="3.8"/>
<line class="st0" x1="690.9" y1="94.2" x2="690.9" y2="94.2"/>
<line class="st0" x1="758.5" y1="158" x2="736.2" y2="157.9"/>
<line class="st0" x1="736.1" y1="173.9" x2="758.4" y2="174.1"/>
<polygon class="st1" points="736.3,158 736.2,173.6 758.2,173.9 758.3,158.1 "/>
<path class="st1" d="M695.8,96.3"/>
<path class="st3" d="M743.5,128.4l7.8,0l0,4l6.4,7c0.3,0.5,0.5,1,0.7,1.5c0.1,0.5-0.3,16.9-0.3,16.9l-22-0.1l0.1-12.9L736,141
	l1.1-2.5l2.7-2.4l1.7-1.7l1.3-1.4l0.7-0.9L743.5,128.4z"/>
<path class="st3" d="M736.2,173.7l22,0.1l-0.1,20.8l-3.8-1.9l-4-0.7l-3.2-0.2c0,0-2.8-0.2-3.1,0c-0.4,0.3-0.7-0.1-0.7-0.1l-1.6,0.5
	l-2,0.4l-2,0.7l-0.8,0.5l-0.9,0.9"/>
<path class="st0" d="M749.8,168.5c-0.2,0.7-0.6,1.3-1.3,1.7c-1.3,0.7-2.8,0.2-3.6-1"/>
<path class="st0" d="M743.4,118.1l0,8.7c0,0,0.2,4.4,0,4.8c-0.2,0.5-1.9,2.3-1.9,2.3l-3.9,3.8c0,0-1.4,1.4-1.5,2.9
	c-0.1,1.5-0.1,16.3-0.1,16.3l-0.1,28.2l0,9.2"/>
<path class="st0" d="M758.1,194.8l0-9.2l0.1-28.2c0,0,0.2-14.8,0.1-16.3s-1.5-2.9-1.5-2.9l-3.8-3.8c0,0-1.6-1.8-1.8-2.3
	c-0.2-0.5,0-4.8,0-4.8l0-8.7"/>
<ellipse transform="matrix(4.712313e-03 -1 1 4.712313e-03 548.2665 940.7871)" class="st4" cx="746.7" cy="195" rx="3.5" ry="11.2"/>
<ellipse transform="matrix(4.712313e-03 -1 1 4.712313e-03 625.2151 865.2694)" class="st2" cx="747.3" cy="118.6" rx="1.2" ry="3.8"/>
<line class="st0" x1="690.6" y1="93.7" x2="690.6" y2="93.7"/>
<line class="st0" x1="758.3" y1="157.4" x2="736" y2="157.3"/>
<line class="st0" x1="735.9" y1="173.3" x2="758.2" y2="173.5"/>
<polygon class="st1" points="736.1,157.4 736,173.1 758,173.3 758,157.5 "/>
<path class="st1" d="M695.6,95.7"/>
<path class="st3" d="M743.4,128l7.8,0l0,4l6.4,7c0.3,0.5,0.5,1,0.7,1.5c0.1,0.5-0.3,16.9-0.3,16.9l-22-0.1l0.1-12.9l-0.1-3.9
	l1.1-2.5l2.7-2.4l1.7-1.7l1.3-1.4l0.7-0.9L743.4,128z"/>
<path class="st3" d="M735.9,173.1l22,0.1l-0.1,20.8l-3.8-1.9l-4-0.7l-3.2-0.2c0,0-2.8-0.2-3.1,0c-0.4,0.3-0.7-0.1-0.7-0.1l-1.6,0.5
	l-2,0.4l-2,0.7l-0.8,0.5l-0.9,0.9"/>
<path class="st0" d="M748.9,167.1c-0.2,0.7-0.6,1.3-1.3,1.7c-1.3,0.7-2.8,0.2-3.6-1"/>
<ellipse transform="matrix(4.712313e-03 -1 1 4.712313e-03 577.2649 903.6795)" class="st5" cx="742.6" cy="161.8" rx="1.1" ry="1.1"/>
<ellipse transform="matrix(4.712313e-03 -1 1 4.712313e-03 584.8978 911.4108)" class="st5" cx="750.3" cy="161.9" rx="1.1" ry="1.1"/>
<polyline class="st0" points="751,198.3 751,210.6 755.4,210.6 "/>
<polyline class="st0" points="742.7,198.3 742.7,210.6 738.3,210.6 "/>
<line class="st0" x1="830.1" y1="184.4" x2="830.1" y2="184.4"/>
<path class="st1" d="M828,188.4"/>
<line class="st0" x1="829.9" y1="183.8" x2="829.9" y2="183.8"/>
<path class="st1" d="M827.8,187.8"/>
<path class="st0" d="M837.9,120.2l0,8.7c0,0,0.2,4.4,0,4.8c-0.2,0.5-1.9,2.3-1.9,2.3l-3.9,3.8c0,0-1.4,1.4-1.5,2.9
	c-0.1,1.5-0.1,16.3-0.1,16.3l-0.1,28.2l0,9.2"/>
<ellipse transform="matrix(4.712313e-03 -1 1 4.712313e-03 717.245 961.7921)" class="st2" cx="841.8" cy="120.6" rx="1.2" ry="3.8"/>
<line class="st0" x1="830.1" y1="158.5" x2="830.1" y2="158.5"/>
<line class="st0" x1="852.8" y1="159.4" x2="830.5" y2="159.3"/>
<line class="st0" x1="830.4" y1="175.3" x2="852.7" y2="175.6"/>
<polygon class="st1" points="830.6,159.5 830.5,175.1 852.5,175.3 852.5,159.6 "/>
<path class="st1" d="M828,162.5"/>
<path class="st3" d="M837.8,129.8l7.8,0l0,4l6.4,7c0.3,0.5,0.5,1,0.7,1.5c0.1,0.5-0.3,16.9-0.3,16.9l-22-0.1l0.1-12.9l-0.1-3.9
	l1.1-2.5l2.7-2.4l1.7-1.7l1.3-1.4l0.7-0.9L837.8,129.8z"/>
<path class="st3" d="M830.4,175.2l22,0.1l-0.1,20.8l-3.8-1.9l-4-0.7l-3.2-0.2c0,0-2.8-0.2-3.1,0c-0.4,0.3-0.7-0.1-0.7-0.1l-1.6,0.5
	l-2,0.4l-2,0.7l-0.8,0.5l-0.9,0.9"/>
<path class="st0" d="M844.1,169.9c-0.2,0.7-0.6,1.3-1.3,1.7c-1.3,0.7-2.8,0.2-3.6-1"/>
<path class="st0" d="M837.6,119.6l0,8.7c0,0,0.2,4.4,0,4.8c-0.2,0.5-1.9,2.3-1.9,2.3l-3.9,3.8c0,0-1.4,1.4-1.5,2.9
	c-0.1,1.5-0.1,16.3-0.1,16.3l-0.1,28.2l0,9.2"/>
<path class="st0" d="M852.4,196.2l0-9.2l0.1-28.2c0,0,0.2-14.8,0.1-16.3c-0.1-1.5-1.5-2.9-1.5-2.9l-3.8-3.8c0,0-1.6-1.8-1.8-2.3
	s0-4.8,0-4.8l0-8.7"/>
<ellipse transform="matrix(4.712313e-03 -1 1 4.712313e-03 640.6454 1036.5022)" class="st4" cx="841" cy="196.4" rx="3.5" ry="11.2"/>
<ellipse transform="matrix(4.712313e-03 -1 1 4.712313e-03 717.592 960.9865)" class="st2" cx="841.6" cy="120" rx="1.2" ry="3.8"/>
<line class="st0" x1="829.9" y1="157.9" x2="829.9" y2="157.9"/>
<line class="st0" x1="852.6" y1="158.9" x2="830.2" y2="158.8"/>
<line class="st0" x1="830.2" y1="174.8" x2="852.5" y2="175"/>
<polygon class="st1" points="830.3,158.9 830.3,174.5 852.2,174.7 852.3,159 "/>
<path class="st1" d="M827.8,161.9"/>
<path class="st3" d="M837.7,129.4l7.8,0l0,4l6.4,7c0.3,0.5,0.5,1,0.7,1.5c0.1,0.5-0.3,16.9-0.3,16.9l-22-0.1l0.1-12.9l-0.1-3.9
	l1.1-2.5l2.7-2.4l1.7-1.7l1.3-1.4l0.7-0.9L837.7,129.4z"/>
<path class="st3" d="M830.2,174.6l22,0.1l-0.1,20.8l-3.8-1.9l-4-0.7l-3.2-0.2c0,0-2.8-0.2-3.1,0c-0.4,0.3-0.7-0.1-0.7-0.1l-1.6,0.5
	l-2,0.4l-2,0.7l-0.8,0.5l-0.9,0.9"/>
<path class="st0" d="M843.2,168.5c-0.2,0.7-0.6,1.3-1.3,1.7c-1.3,0.7-2.8,0.2-3.6-1"/>
<ellipse transform="matrix(4.712313e-03 -1 1 4.712313e-03 669.6437 999.3946)" class="st5" cx="836.9" cy="163.3" rx="1.1" ry="1.1"/>
<ellipse transform="matrix(4.712313e-03 -1 1 4.712313e-03 677.2747 1007.1278)" class="st5" cx="844.6" cy="163.3" rx="1.1" ry="1.1"/>
<polyline class="st0" points="845.3,199.7 845.3,212 849.7,212 "/>
<polyline class="st0" points="837,199.7 837,212.1 832.6,212.1 "/>
<polyline class="st0" points="830.1,163.5 822.8,173.5 819.3,170.9 "/>
<polyline class="st0" points="852.9,164.1 860.2,174.1 863.8,171.5 "/>
<line class="st0" x1="934.6" y1="181" x2="934.6" y2="181"/>
<path class="st1" d="M932.5,185"/>
<line class="st0" x1="934.4" y1="180.4" x2="934.4" y2="180.4"/>
<path class="st1" d="M932.3,184.4"/>
<path class="st0" d="M942.4,116.7l0,8.7c0,0,0.2,4.4,0,4.8c-0.2,0.5-1.9,2.3-1.9,2.3l-3.9,3.8c0,0-1.4,1.4-1.5,2.9
	c-0.1,1.5-0.1,16.3-0.1,16.3l-0.1,28.2l0,9.2"/>
<ellipse transform="matrix(4.712313e-03 -1 1 4.712313e-03 824.6708 1062.9009)" class="st2" cx="946.3" cy="117.2" rx="1.2" ry="3.8"/>
<line class="st0" x1="934.6" y1="155.1" x2="934.6" y2="155.1"/>
<line class="st0" x1="957.3" y1="156" x2="935" y2="155.9"/>
<line class="st0" x1="934.9" y1="171.9" x2="957.2" y2="172.1"/>
<polygon class="st1" points="935.1,156 935,171.7 957,171.9 957.1,156.2 "/>
<path class="st1" d="M932.5,159.1"/>
<path class="st3" d="M942.3,126.4l7.8,0l0,4l6.4,7c0.3,0.5,0.5,1,0.7,1.5c0.1,0.5-0.3,16.9-0.3,16.9l-22-0.1l0.1-12.9l-0.1-3.9
	l1.1-2.5l2.7-2.4l1.7-1.7l1.3-1.4l0.7-0.9L942.3,126.4z"/>
<path class="st3" d="M935,171.7l22,0.1l-0.1,20.8l-3.8-1.9l-4-0.7l-3.2-0.2c0,0-2.8-0.2-3.1,0c-0.4,0.3-0.7-0.1-0.7-0.1l-1.6,0.5
	l-2,0.4l-2,0.7l-0.8,0.5l-0.9,0.9"/>
<path class="st0" d="M948.6,166.5c-0.2,0.7-0.6,1.3-1.3,1.7c-1.3,0.7-2.8,0.2-3.6-1"/>
<path class="st0" d="M942.1,116.2l0,8.7c0,0,0.2,4.4,0,4.8c-0.2,0.5-1.9,2.3-1.9,2.3l-3.9,3.8c0,0-1.4,1.4-1.5,2.9
	c-0.1,1.5-0.1,16.3-0.1,16.3l-0.1,28.2l0,9.2"/>
<path class="st0" d="M956.9,192.8l0-9.2l0.1-28.2c0,0,0.2-14.8,0.1-16.3c-0.1-1.5-1.5-2.9-1.5-2.9l-3.8-3.8c0,0-1.6-1.8-1.8-2.3
	c-0.2-0.5,0-4.8,0-4.8l0-8.7"/>
<ellipse transform="matrix(4.712313e-03 -1 1 4.712313e-03 748.071 1137.611)" class="st4" cx="945.5" cy="193" rx="3.5" ry="11.2"/>
<ellipse transform="matrix(4.712313e-03 -1 1 4.712313e-03 825.0178 1062.0953)" class="st2" cx="946.1" cy="116.6" rx="1.2" ry="3.8"/>
<line class="st0" x1="934.4" y1="154.5" x2="934.4" y2="154.5"/>
<line class="st0" x1="957.1" y1="155.5" x2="934.7" y2="155.4"/>
<line class="st0" x1="934.7" y1="171.3" x2="957" y2="171.6"/>
<polygon class="st1" points="934.9,155.5 934.8,171.1 956.8,171.3 956.8,155.6 "/>
<path class="st1" d="M932.3,158.5"/>
<path class="st3" d="M942.2,126l7.8,0l0,4l6.4,7c0.3,0.5,0.5,1,0.7,1.5c0.1,0.5-0.3,16.9-0.3,16.9l-22-0.1l0.1-12.9l-0.1-3.9
	l1.1-2.5l2.7-2.4l1.7-1.7l1.3-1.4l0.7-0.9L942.2,126z"/>
<path class="st3" d="M934.7,171.2l22,0.1l-0.1,20.8l-3.8-1.9l-4-0.7l-3.2-0.2c0,0-2.8-0.2-3.1,0c-0.4,0.3-0.7-0.1-0.7-0.1l-1.6,0.5
	l-2,0.4l-2,0.7l-0.8,0.5l-0.9,0.9"/>
<path class="st0" d="M947.7,165.1c-0.2,0.7-0.6,1.3-1.3,1.7c-1.3,0.7-2.8,0.2-3.6-1"/>
<ellipse transform="matrix(4.712313e-03 -1 1 4.712313e-03 777.0695 1100.5034)" class="st5" cx="941.4" cy="159.9" rx="1.1" ry="1.1"/>
<ellipse transform="matrix(4.712313e-03 -1 1 4.712313e-03 784.7004 1108.2367)" class="st5" cx="949.1" cy="159.9" rx="1.1" ry="1.1"/>
<polyline class="st0" points="949.8,196.3 949.8,208.6 954.2,208.6 "/>
<polyline class="st0" points="941.5,196.3 941.5,208.6 937.1,208.6 "/>
<polyline class="st0" points="934.6,166.4 925.2,158.3 928.1,155 "/>
<polyline class="st0" points="956.9,167.1 966,158.7 963,155.5 "/>
</svg>
