<svg id="Layer_1" data-name="Layer 1" xmlns="http://www.w3.org/2000/svg" viewBox="0 0 945.44 212.15"><defs><style>.cls-1{fill:none;}.cls-1,.cls-3,.cls-6{stroke:#000;}.cls-1,.cls-3,.cls-5,.cls-6{stroke-miterlimit:10;}.cls-1,.cls-3,.cls-5{stroke-width:3px;}.cls-2{fill:#ffd1fc;}.cls-4,.cls-5{fill:maroon;}.cls-5{stroke:maroon;}</style></defs><title>spritesheet wine</title><line class="cls-1" x1="0.2" y1="160.95" x2="0.2" y2="160.95"/><path class="cls-2" d="M24.8,168.3" transform="translate(-26.7 -3.35)"/><line class="cls-1" y1="160.35" y2="160.35"/><path class="cls-2" d="M24.6,167.7" transform="translate(-26.7 -3.35)"/><path class="cls-1" d="M44.5,125.7v8.7a38.2,38.2,0,0,1,0,4.8,18.57,18.57,0,0,1-1.8,2.3L39,145.2a5.62,5.62,0,0,0-1.4,2.8c-.1,1.5-.1,16.2-.1,16.2l-.1,27.9v9.1" transform="translate(-26.7 -3.35)"/><ellipse class="cls-3" cx="48.18" cy="126.17" rx="1.2" ry="3.6" transform="translate(-104.93 170.39) rotate(-89.72)"/><line class="cls-1" x1="31.7" y1="163.95" x2="31.7" y2="163.95"/><line class="cls-1" x1="31.9" y1="161.35" x2="10.8" y2="161.25"/><line class="cls-1" x1="10.7" y1="177.05" x2="31.9" y2="177.25"/><polygon class="cls-2" points="10.9 161.35 10.8 176.85 31.6 177.05 31.7 161.45 10.9 161.35"/><path class="cls-2" d="M38.9,167.7" transform="translate(-26.7 -3.35)"/><path class="cls-4" d="M44.4,135.3h7.3v4l6.1,6.9a10.09,10.09,0,0,1,.7,1.5c.1.5-.3,16.7-.3,16.7l-20.8-.1.1-12.8-.1-3.9,1-2.5,2.5-2.3,1.6-1.7,1.2-1.4.7-.9Z" transform="translate(-26.7 -3.35)"/><path class="cls-4" d="M37.4,180.2l20.8.1-.1,20.6L54.5,199l-3.8-.7-3-.2a14.89,14.89,0,0,0-3,0,.62.62,0,0,1-.7-.1l-1.5.5-1.9.4-1.9.7-.8.5-.8.9" transform="translate(-26.7 -3.35)"/><path class="cls-1" d="M50.4,175a2.48,2.48,0,0,1-1.2,1.6,2.41,2.41,0,0,1-3.3-.9v-.1" transform="translate(-26.7 -3.35)"/><path class="cls-1" d="M44.3,125.2v8.7a38.2,38.2,0,0,1,0,4.8,18.57,18.57,0,0,1-1.8,2.3l-3.7,3.7a5.62,5.62,0,0,0-1.4,2.8c-.1,1.5-.1,16.2-.1,16.2l-.1,27.9v9.1" transform="translate(-26.7 -3.35)"/><path class="cls-1" d="M58.3,201.1V192l.1-27.9s.2-14.7.1-16.2a5.63,5.63,0,0,0-1.4-2.9l-3.6-3.8s-1.5-1.8-1.8-2.3a38.2,38.2,0,0,1,0-4.8v-8.7" transform="translate(-26.7 -3.35)"/><path class="cls-5" d="M58.1,201.3c0,1.9-4.8,3.5-10.6,3.4s-10.6-1.5-10.6-3.5,4.8-3.5,10.6-3.4S58.1,199.4,58.1,201.3Z" transform="translate(-26.7 -3.35)"/><ellipse class="cls-3" cx="48.03" cy="125.59" rx="1.2" ry="3.6" transform="translate(-104.49 169.65) rotate(-89.72)"/><line class="cls-1" x1="31.5" y1="163.35" x2="31.5" y2="163.35"/><line class="cls-1" x1="31.7" y1="160.75" x2="10.5" y2="160.65"/><line class="cls-1" x1="10.5" y1="176.45" x2="31.6" y2="176.65"/><polygon class="cls-2" points="10.7 160.75 10.6 176.25 31.4 176.45 31.5 160.85 10.7 160.75"/><path class="cls-2" d="M38.7,167.1" transform="translate(-26.7 -3.35)"/><path class="cls-4" d="M44.3,134.9h7.3v4l6.1,6.9a10.09,10.09,0,0,1,.7,1.5c.1.5-.3,16.7-.3,16.7l-20.8-.1.1-12.8-.1-3.9,1-2.5,2.5-2.3,1.6-1.7,1.2-1.4.7-.9Z" transform="translate(-26.7 -3.35)"/><path class="cls-4" d="M37.2,179.7l20.8.1-.1,20.6-3.6-1.9-3.8-.7-3-.2a14.89,14.89,0,0,0-3,0c-.3.3-.7-.1-.7-.1l-1.5.5-1.9.4-1.9.7-.8.5-.8.9" transform="translate(-26.7 -3.35)"/><path class="cls-1" d="M49.5,173.7a2.48,2.48,0,0,1-1.2,1.6,2.41,2.41,0,0,1-3.3-.9v-.1" transform="translate(-26.7 -3.35)"/><ellipse class="cls-6" cx="43.6" cy="168.44" rx="1.1" ry="1" transform="translate(-151.75 207.86) rotate(-89.72)"/><ellipse class="cls-6" cx="50.87" cy="168.47" rx="1.1" ry="1" transform="translate(-144.55 215.17) rotate(-89.72)"/><polyline class="cls-1" points="12.1 210.55 16.8 210.55 12.6 205.35 17.3 201.25"/><polyline class="cls-1" points="28.3 210.65 23.6 210.65 27.8 205.45 23.1 201.25"/><line class="cls-1" x1="36.3" y1="145.65" x2="36.3" y2="145.65"/><path class="cls-2" d="M60.9,153" transform="translate(-26.7 -3.35)"/><line class="cls-1" x1="36.1" y1="145.05" x2="36.1" y2="145.05"/><path class="cls-2" d="M60.7,152.4" transform="translate(-26.7 -3.35)"/><line class="cls-1" x1="132.49" y1="75.67" x2="132.49" y2="75.67"/><line class="cls-1" x1="132.29" y1="75.17" x2="132.29" y2="75.17"/><path class="cls-1" d="M151.25,99.38v8.7a38.29,38.29,0,0,1,0,4.8,17.79,17.79,0,0,1-1.9,2.3l-3.9,3.8a5.46,5.46,0,0,0-1.5,2.9c-.1,1.5-.1,16.3-.1,16.3l-.1,28.2v9.2" transform="translate(-26.7 -3.35)"/><ellipse class="cls-3" cx="155.24" cy="99.79" rx="1.2" ry="3.8" transform="matrix(0, -1, 1, 0, 28.02, 251.21)"/><line class="cls-1" x1="172.76" y1="38.87" x2="172.76" y2="38.87"/><line class="cls-1" x1="139.45" y1="135.33" x2="117.15" y2="135.23"/><line class="cls-1" x1="117.05" y1="151.23" x2="139.45" y2="151.43"/><polygon class="cls-2" points="117.25 135.33 117.15 151.03 139.15 151.23 139.25 135.43 117.25 135.33"/><path class="cls-4" d="M151.15,109.08h7.8v4l6.4,7a10.09,10.09,0,0,1,.7,1.5c.1.5-.3,16.9-.3,16.9l-22-.1.1-12.9-.1-3.9,1.1-2.5,2.6-2.4,1.7-1.7,1.3-1.4.7-.9Z" transform="translate(-26.7 -3.35)"/><path class="cls-4" d="M143.85,154.38l22,.1-.1,20.8-3.8-1.9-4-.7-3.2-.2a16,16,0,0,0-3.1,0,.49.49,0,0,1-.7-.1l-1.6.5-2,.4-2,.7-.8.5-.9.9" transform="translate(-26.7 -3.35)"/><path class="cls-1" d="M157.45,149.18a2.67,2.67,0,0,1-4.9.7" transform="translate(-26.7 -3.35)"/><path class="cls-1" d="M151,98.88v8.7a38.29,38.29,0,0,1,0,4.8,17.79,17.79,0,0,1-1.9,2.3l-3.9,3.8a5.46,5.46,0,0,0-1.5,2.9c-.1,1.5-.1,16.3-.1,16.3l-.1,28.2v9.2" transform="translate(-26.7 -3.35)"/><path class="cls-1" d="M165.75,175.48v-9.2l.1-28.2s.2-14.8.1-16.3a5.46,5.46,0,0,0-1.5-2.9l-3.8-3.8a18.57,18.57,0,0,1-1.8-2.3,38.2,38.2,0,0,1,0-4.8v-8.7" transform="translate(-26.7 -3.35)"/><ellipse class="cls-5" cx="154.44" cy="175.66" rx="3.5" ry="11.2" transform="translate(-48.64 325.92) rotate(-89.73)"/><ellipse class="cls-3" cx="154.99" cy="99.28" rx="1.2" ry="3.8" transform="matrix(0, -1, 1, 0, 28.28, 250.45)"/><line class="cls-1" x1="172.56" y1="38.37" x2="172.56" y2="38.37"/><line class="cls-1" x1="139.25" y1="134.83" x2="116.95" y2="134.63"/><line class="cls-1" x1="116.85" y1="150.63" x2="139.15" y2="150.93"/><polygon class="cls-2" points="117.05 134.83 116.95 150.43 138.95 150.63 139.05 134.93 117.05 134.83"/><path class="cls-4" d="M151,108.68h7.8v4l6.4,7a10.09,10.09,0,0,1,.7,1.5c.1.5-.3,16.9-.3,16.9l-22-.1.1-12.9-.1-3.9,1.1-2.5,2.7-2.4,1.7-1.7,1.3-1.4.7-.9Z" transform="translate(-26.7 -3.35)"/><path class="cls-4" d="M143.65,153.88l22,.1-.1,20.8-3.8-1.9-4-.7-3.1-.2a16,16,0,0,0-3.1,0,.49.49,0,0,1-.7-.1l-1.6.5-2,.4-2,.7-.8.5-.9.9" transform="translate(-26.7 -3.35)"/><path class="cls-1" d="M156.55,147.78a2.67,2.67,0,0,1-4.9.7" transform="translate(-26.7 -3.35)"/><circle class="cls-6" cx="150.32" cy="142.59" r="1.1" transform="translate(-19.68 288.89) rotate(-89.73)"/><circle class="cls-6" cx="157.99" cy="142.63" r="1.1" transform="translate(-12.08 296.59) rotate(-89.73)"/><polyline class="cls-1" points="131.95 175.63 131.95 187.93 136.35 187.93"/><polyline class="cls-1" points="123.65 175.63 123.65 187.93 119.25 187.93"/><path class="cls-1" d="M276.62,57.48l-5.2,7s-2.4,3.7-2.9,3.9-2.9.7-2.9.7l-5.3.8a5.71,5.71,0,0,0-2.9,1.4c-1,1.1-9.7,13.2-9.7,13.2L231,107.18l-5.5,7.4" transform="translate(-26.7 -3.35)"/><ellipse class="cls-3" cx="279.63" cy="60.14" rx="1.2" ry="3.8" transform="translate(38.55 246.13) rotate(-53.59)"/><line class="cls-1" x1="221.12" y1="80.53" x2="221.12" y2="80.53"/><line class="cls-1" x1="238.82" y1="94.63" x2="220.82" y2="81.43"/><line class="cls-1" x1="211.42" y1="94.33" x2="229.32" y2="107.63"/><polygon class="cls-2" points="220.92 81.63 211.62 94.13 229.22 107.33 238.62 94.63 220.92 81.63"/><path class="cls-2" d="M243.72,85.88" transform="translate(-26.7 -3.35)"/><path class="cls-4" d="M270.92,65.28l6.2,4.6-2.4,3.2,1.1,9.4c-.1.6-.2,1.1-.3,1.7-.2.4-10.2,13.5-10.2,13.5l-17.7-13.1,7.6-10.4,2.2-3.1,2.3-1.4,3.5-.4,2.4-.4,1.8-.4,1.1-.3Z" transform="translate(-26.7 -3.35)"/><path class="cls-4" d="M238.22,97.58l17.7,13-12.4,16.8-1.9-3.8-2.8-2.9-2.4-2s-2.1-1.8-2.6-1.8a.49.49,0,0,1-.5-.5l-1.6-.6-1.9-.8-2-.6-1-.1-1.3.3" transform="translate(-26.7 -3.35)"/><path class="cls-1" d="M252.32,101.28a2.52,2.52,0,0,1-2,.6A2.74,2.74,0,0,1,248,99" transform="translate(-26.7 -3.35)"/><path class="cls-1" d="M276.82,56.88l-5.2,7s-2.4,3.7-2.9,3.9-2.9.7-2.9.7l-5.3.8a5.71,5.71,0,0,0-2.9,1.4c-1,1.1-9.7,13.2-9.7,13.2l-16.7,22.7-5.5,7.4" transform="translate(-26.7 -3.35)"/><path class="cls-1" d="M243.52,127.48l5.5-7.4,16.7-22.7s8.9-11.9,9.7-13.2a5.44,5.44,0,0,0,.5-3.2l-.8-5.3a24.51,24.51,0,0,1-.1-3,36,36,0,0,1,2.9-3.9l5.2-7" transform="translate(-26.7 -3.35)"/><ellipse class="cls-5" cx="234.26" cy="120.98" rx="3.5" ry="11.2" transform="translate(-28.85 234.35) rotate(-53.59)"/><ellipse class="cls-3" cx="279.75" cy="59.58" rx="1.2" ry="3.8" transform="translate(39.05 246) rotate(-53.59)"/><line class="cls-1" x1="221.22" y1="79.93" x2="221.22" y2="79.93"/><line class="cls-1" x1="239.02" y1="94.03" x2="221.02" y2="80.83"/><line class="cls-1" x1="211.52" y1="93.73" x2="229.42" y2="107.03"/><polygon class="cls-2" points="221.02 81.03 211.72 93.53 229.42 106.73 238.72 94.03 221.02 81.03"/><path class="cls-2" d="M243.92,85.28" transform="translate(-26.7 -3.35)"/><path class="cls-4" d="M271,64.88l6.2,4.6-2.4,3.2,1.1,9.4c-.1.6-.2,1.1-.3,1.7s-10.2,13.5-10.2,13.5l-17.7-13,7.6-10.4,2.2-3.2,2.3-1.4,3.5-.4,2.4-.4,1.8-.4,1.1-.3Z" transform="translate(-26.7 -3.35)"/><path class="cls-4" d="M238.42,97l17.7,13-12.4,16.8-1.9-3.8-2.8-2.9-2.4-2s-2.1-1.8-2.6-1.8a.49.49,0,0,1-.5-.5l-1.6-.6-1.9-.8-2-.6-1-.1-1.3.3" transform="translate(-26.7 -3.35)"/><path class="cls-1" d="M252.42,99.68a2.52,2.52,0,0,1-2,.6,2.74,2.74,0,0,1-2.3-2.9" transform="translate(-26.7 -3.35)"/><circle class="cls-6" cx="250.45" cy="91.77" r="1.1" transform="translate(1.23 235.5) rotate(-53.59)"/><circle class="cls-6" cx="256.59" cy="96.3" r="1.1" transform="translate(0.08 242.29) rotate(-53.59)"/><polyline class="cls-1" points="209.02 122.73 201.72 132.73 205.32 135.33"/><polyline class="cls-1" points="202.32 117.83 195.02 127.83 191.52 125.23"/><path class="cls-1" d="M454,96.85l-.1-8.7s-.3-4.4,0-4.8a18.57,18.57,0,0,1,1.8-2.3l3.8-3.8a5.46,5.46,0,0,0,1.5-2.9c.1-1.5-.1-16.3-.1-16.3l-.2-28.2-.1-9.2" transform="translate(-26.7 -3.35)"/><ellipse class="cls-3" cx="450.05" cy="96.45" rx="3.8" ry="1.2" transform="translate(-27.3 -0.52) rotate(-0.36)"/><line class="cls-1" x1="434.64" y1="55.1" x2="434.64" y2="55.1"/><line class="cls-1" x1="411.94" y1="54.4" x2="434.24" y2="54.2"/><line class="cls-1" x1="434.14" y1="38.2" x2="411.84" y2="38.3"/><polygon class="cls-2" points="434.14 54.1 434.04 38.5 412.14 38.5 412.24 54.3 434.14 54.1"/><path class="cls-2" d="M519.15,183.75" transform="translate(-26.7 -3.35)"/><path class="cls-4" d="M454,87.15h-7.8v-4l-6.5-6.9a10.09,10.09,0,0,1-.7-1.5c-.2-.5.1-16.9.1-16.9l22-.1.1,12.9.1,3.9-1,2.5-2.6,2.4-1.6,1.8-1.3,1.4-.7.9Z" transform="translate(-26.7 -3.35)"/><path class="cls-4" d="M460.84,41.75l-22,.1-.1-20.8,3.8,1.9,4,.6,3.2.2s2.8.2,3.1-.1.7.1.7.1l1.6-.5,2-.5L459,22l.8-.5.9-1" transform="translate(-26.7 -3.35)"/><path class="cls-1" d="M447.24,47.15a2.74,2.74,0,0,1,1.3-1.7,2.64,2.64,0,0,1,3.6,1" transform="translate(-26.7 -3.35)"/><path class="cls-1" d="M454.24,97.45l-.1-8.7s-.3-4.4,0-4.8,1.8-2.3,1.8-2.3l3.8-3.8a5.46,5.46,0,0,0,1.5-2.9c.1-1.5-.1-16.3-.1-16.3l-.2-28.2-.1-9.2" transform="translate(-26.7 -3.35)"/><path class="cls-1" d="M438.64,20.55l.1,9.2.2,28.2s0,14.8.1,16.3a5.46,5.46,0,0,0,1.5,2.9l3.9,3.8s1.6,1.8,1.9,2.3,0,4.8,0,4.8l.1,8.7" transform="translate(-26.7 -3.35)"/><ellipse class="cls-5" cx="450.05" cy="20.65" rx="11.2" ry="3.5" transform="translate(-26.82 -0.52) rotate(-0.36)"/><ellipse class="cls-3" cx="450.35" cy="97.05" rx="3.8" ry="1.2" transform="translate(-27.3 -0.52) rotate(-0.36)"/><line class="cls-1" x1="434.94" y1="55.7" x2="434.94" y2="55.7"/><line class="cls-1" x1="412.24" y1="54.9" x2="434.54" y2="54.8"/><line class="cls-1" x1="434.44" y1="38.8" x2="412.14" y2="38.8"/><polygon class="cls-2" points="434.44 54.7 434.34 39 412.34 39.1 412.44 54.8 434.44 54.7"/><path class="cls-2" d="M519.35,184.35" transform="translate(-26.7 -3.35)"/><path class="cls-4" d="M454,87.55h-7.8v-4l-6.5-6.9a10.09,10.09,0,0,1-.7-1.5c-.1-.5.1-16.9.1-16.9l22-.1.1,12.9.1,3.9-1,2.5-2.6,2.4-1.6,1.8-1.3,1.4-.7.8Z" transform="translate(-26.7 -3.35)"/><path class="cls-4" d="M461,42.35l-22,.1-.1-20.8,3.8,1.9,4,.6,3.2.2s2.8.2,3.1-.1.7.1.7.1l1.6-.5,2-.5,1.9-.7.8-.5.9-1" transform="translate(-26.7 -3.35)"/><path class="cls-1" d="M448.14,48.55a2.74,2.74,0,0,1,1.3-1.7,2.64,2.64,0,0,1,3.6,1" transform="translate(-26.7 -3.35)"/><circle class="cls-6" cx="454.55" cy="53.65" r="1.1" transform="translate(-27.03 -0.49) rotate(-0.36)"/><circle class="cls-6" cx="446.85" cy="53.75" r="1.1" transform="translate(-27.03 -0.54) rotate(-0.36)"/><polyline class="cls-1" points="419.04 14 418.94 1.7 414.54 1.7"/><polyline class="cls-1" points="427.34 13.9 427.14 1.6 431.64 1.5"/><path class="cls-1" d="M395.32,73.93l-8.1-3.4s-4.1-1.5-4.4-1.9-1.4-2.6-1.4-2.6l-2-5a5.24,5.24,0,0,0-2.1-2.5c-1.3-.7-15-6.3-15-6.3l-26-10.9-8.5-3.6" transform="translate(-26.7 -3.35)"/><ellipse class="cls-3" cx="393.4" cy="77.44" rx="3.8" ry="1.2" transform="translate(142.62 406.57) rotate(-67.16)"/><line class="cls-1" x1="336.22" y1="48.78" x2="336.22" y2="48.78"/><line class="cls-1" x1="326.62" y1="69.28" x2="335.32" y2="48.78"/><line class="cls-1" x1="320.52" y1="42.58" x2="311.72" y2="63.08"/><polygon class="cls-2" points="335.12 48.78 320.72 42.78 312.12 62.98 326.62 69.08 335.12 48.78"/><path class="cls-2" d="M360,48.63" transform="translate(-26.7 -3.35)"/><path class="cls-4" d="M386.42,70.13l-3,7.1-3.7-1.6-8.9,3.3a9.7,9.7,0,0,1-1.7.1c-.5-.1-15.5-6.8-15.5-6.8l8.5-20.2L374,57l3.6,1.4,1.9,1.9,1.2,3.4,1,2.2.8,1.7.6,1Z" transform="translate(-26.7 -3.35)"/><path class="cls-4" d="M347.42,46l-8.5,20.3-19.2-8.1,3.3-2.8,2.1-3.4,1.4-2.8a13.35,13.35,0,0,0,1.2-2.9.55.55,0,0,1,.3-.6l.2-1.7.4-2,.1-2.1-.1-.9-.5-1.2" transform="translate(-26.7 -3.35)"/><path class="cls-1" d="M347,60.63a2.23,2.23,0,0,1-1-1.8,2.74,2.74,0,0,1,2.3-2.9" transform="translate(-26.7 -3.35)"/><path class="cls-1" d="M395.92,74l-8.1-3.4s-4.1-1.5-4.4-1.9-1.4-2.6-1.4-2.6l-2-5a5.24,5.24,0,0,0-2.1-2.5c-1.3-.7-15-6.3-15-6.3l-26-10.9-8.5-3.6" transform="translate(-26.7 -3.35)"/><path class="cls-1" d="M319.52,58.23l8.5,3.6,26,10.9s13.6,5.9,15,6.3a5.08,5.08,0,0,0,3.2-.3l5-2.1a20.29,20.29,0,0,1,2.8-.8,38.47,38.47,0,0,1,4.4,1.9l8.1,3.4" transform="translate(-26.7 -3.35)"/><ellipse class="cls-5" cx="323.65" cy="47.69" rx="11.2" ry="3.5" transform="translate(127.36 324.09) rotate(-67.16)"/><ellipse class="cls-3" cx="394" cy="77.46" rx="3.8" ry="1.2" transform="translate(142.97 407.15) rotate(-67.16)"/><line class="cls-1" x1="336.82" y1="48.78" x2="336.82" y2="48.78"/><line class="cls-1" x1="327.22" y1="69.38" x2="335.92" y2="48.78"/><line class="cls-1" x1="321.12" y1="42.58" x2="312.42" y2="63.08"/><polygon class="cls-2" points="335.72 48.78 321.32 42.78 312.72 62.98 327.22 69.08 335.72 48.78"/><path class="cls-2" d="M360.62,48.63" transform="translate(-26.7 -3.35)"/><path class="cls-4" d="M386.82,70.23l-3,7.1-3.7-1.6-8.9,3.3a9.7,9.7,0,0,1-1.7.1c-.5-.1-15.5-6.8-15.5-6.8l8.5-20.2,11.9,5,3.6,1.4,1.9,1.9,1.2,3.4,1,2.2.8,1.7.6,1Z" transform="translate(-26.7 -3.35)"/><path class="cls-4" d="M348,46l-8.5,20.2-19.2-8.1,3.3-2.8,2.1-3.4,1.4-2.8a13.35,13.35,0,0,0,1.2-2.9.55.55,0,0,1,.3-.6l.2-1.7.4-2,.1-2.1-.1-.9-.5-1.2" transform="translate(-26.7 -3.35)"/><path class="cls-1" d="M348.62,60.33a2.23,2.23,0,0,1-1-1.8,2.74,2.74,0,0,1,2.3-2.9" transform="translate(-26.7 -3.35)"/><circle class="cls-6" cx="355.84" cy="56.56" r="1.1" transform="translate(138.89 359.19) rotate(-67.16)"/><circle class="cls-6" cx="352.86" cy="63.67" r="1.1" transform="translate(130.5 360.79) rotate(-67.16)"/><polyline class="cls-1" points="291.53 45.43 280.13 40.63 278.43 44.73"/><polyline class="cls-1" points="295.52 39.28 284.12 34.58 285.82 30.48"/><path class="cls-4" d="M449.64,105.49l-1.7,6.8s-.4,3.3,2.3,3.5,2.3-3.1,2.3-3.1Z" transform="translate(-26.7 -3.35)"/><path class="cls-4" d="M452.54,117.89l-1.7,6.8s-.4,3.3,2.3,3.5,2.3-3.1,2.3-3.1Z" transform="translate(-26.7 -3.35)"/><path class="cls-4" d="M445.64,119.39l-1.7,6.8s-.4,3.3,2.3,3.5,2.3-3.1,2.3-3.1Z" transform="translate(-26.7 -3.35)"/><path class="cls-4" d="M450.24,130.29l-1.7,6.8s-.4,3.3,2.3,3.5,2.3-3.1,2.3-3.1Z" transform="translate(-26.7 -3.35)"/><line class="cls-1" x1="513.18" y1="26.38" x2="513.18" y2="26.38"/><path class="cls-2" d="M538.38,25.53" transform="translate(-26.7 -3.35)"/><line class="cls-1" x1="513.78" y1="26.58" x2="513.78" y2="26.58"/><path class="cls-2" d="M538.88,25.73" transform="translate(-26.7 -3.35)"/><path class="cls-1" d="M582.18,78.73l-6.4-5.9a33.91,33.91,0,0,1-3.6-3.3,21.64,21.64,0,0,1-.4-2.9l-.2-5.4a5.79,5.79,0,0,0-1.1-3.1c-1-1.1-12-11.1-12-11.1l-20.8-19-6.8-6.2" transform="translate(-26.7 -3.35)"/><ellipse class="cls-3" cx="579.11" cy="81.34" rx="3.8" ry="1.2" transform="translate(100.62 449.31) rotate(-47.41)"/><line class="cls-1" x1="532.38" y1="43.88" x2="532.38" y2="43.88"/><line class="cls-1" x1="516.38" y1="59.98" x2="531.48" y2="43.58"/><line class="cls-1" x1="519.68" y1="32.78" x2="504.48" y2="49.08"/><polygon class="cls-2" points="531.28 43.58 519.78 32.98 504.88 49.08 516.48 59.78 531.28 43.58"/><path class="cls-2" d="M557.48,43" transform="translate(-26.7 -3.35)"/><path class="cls-4" d="M575.08,72.13l-5.2,5.7-2.9-2.7h-9.5a7.49,7.49,0,0,1-1.6-.5c-.4-.2-12.3-11.6-12.3-11.6l14.9-16.2,9.5,8.7,3,2.6,1.2,2.5v3.6l.2,2.4.2,1.9.2,1.1Z" transform="translate(-26.7 -3.35)"/><path class="cls-4" d="M546.48,36.23l-14.9,16.2-15.3-14.1,4-1.5,3.2-2.5,2.3-2.2s2.1-1.9,2.1-2.3.5-.5.5-.5l.7-1.5,1-1.8.8-1.9.2-.9-.1-1.3" transform="translate(-26.7 -3.35)"/><path class="cls-1" d="M541.18,49.83a3.08,3.08,0,0,1-.4-2.1,2.48,2.48,0,0,1,3.1-1.9" transform="translate(-26.7 -3.35)"/><path class="cls-1" d="M582.78,78.93l-6.4-5.9a33.91,33.91,0,0,1-3.6-3.3,21.64,21.64,0,0,1-.4-2.9l-.2-5.4a5.79,5.79,0,0,0-1.1-3.1c-1-1.1-12-11.1-12-11.1l-20.7-19.1-6.8-6.2" transform="translate(-26.7 -3.35)"/><path class="cls-1" d="M516.18,38.33l6.8,6.2,20.7,19.1s10.8,10.1,12,11.1a5.48,5.48,0,0,0,3.1.8l5.4-.3a17.86,17.86,0,0,1,3,.2,41.53,41.53,0,0,1,3.6,3.3l6.4,5.9" transform="translate(-26.7 -3.35)"/><ellipse class="cls-5" cx="523.55" cy="29.77" rx="11.2" ry="3.5" transform="translate(120.63 391.72) rotate(-47.41)"/><ellipse class="cls-3" cx="579.77" cy="81.6" rx="3.8" ry="1.2" transform="translate(100.64 449.87) rotate(-47.41)"/><line class="cls-1" x1="532.98" y1="44.08" x2="532.98" y2="44.08"/><line class="cls-1" x1="516.98" y1="60.18" x2="532.08" y2="43.78"/><line class="cls-1" x1="520.28" y1="32.98" x2="505.08" y2="49.28"/><polygon class="cls-2" points="531.88 43.78 520.38 33.18 505.38 49.28 516.98 59.98 531.88 43.78"/><path class="cls-2" d="M558.08,43.23" transform="translate(-26.7 -3.35)"/><path class="cls-4" d="M575.38,72.43l-5.2,5.7-2.9-2.7h-9.5a7.49,7.49,0,0,1-1.6-.5c-.4-.2-12.3-11.6-12.3-11.6l14.9-16.2,9.5,8.7,3,2.6,1.2,2.5v3.6l.2,2.4.2,1.9.2,1.1Z" transform="translate(-26.7 -3.35)"/><path class="cls-4" d="M547.08,36.43l-14.9,16.2-15.3-14.1,4-1.5,3.2-2.5,2.3-2.2s2.1-1.9,2.1-2.3a.49.49,0,0,1,.5-.5l.7-1.5,1-1.8.8-1.9.2-.9-.1-1.3" transform="translate(-26.7 -3.35)"/><path class="cls-1" d="M542.78,50.13a3.08,3.08,0,0,1-.4-2.1,2.48,2.48,0,0,1,3.1-1.9" transform="translate(-26.7 -3.35)"/><circle class="cls-6" cx="550.89" cy="49.03" r="1.1" transform="translate(115.29 418.08) rotate(-47.41)"/><circle class="cls-6" cx="545.63" cy="54.65" r="1.1" transform="translate(109.45 416.03) rotate(-47.41)"/><polyline class="cls-1" points="491.68 27.28 482.58 18.98 479.58 22.28"/><polyline class="cls-1" points="497.18 21.18 488.08 12.88 491.08 9.58"/><line class="cls-1" x1="605.65" y1="89.13" x2="605.65" y2="89.13"/><path class="cls-2" d="M627.95,93.38" transform="translate(-26.7 -3.35)"/><line class="cls-1" x1="605.95" y1="88.53" x2="605.95" y2="88.53"/><path class="cls-2" d="M628.25,92.78" transform="translate(-26.7 -3.35)"/><path class="cls-1" d="M687.25,58.28l-6.8,5.4a33.65,33.65,0,0,1-3.8,3,29.55,29.55,0,0,1-3,0l-5.4-.6a5.89,5.89,0,0,0-3.2.6c-1.3.8-12.7,10.1-12.7,10.1l-22,17.6-7.2,5.7" transform="translate(-26.7 -3.35)"/><ellipse class="cls-3" cx="689.39" cy="61.57" rx="1.2" ry="3.8" transform="translate(85.06 439.52) rotate(-38.53)"/><line class="cls-1" x1="625.85" y1="72.83" x2="625.85" y2="72.83"/><line class="cls-1" x1="639.25" y1="91.13" x2="625.35" y2="73.73"/><line class="cls-1" x1="612.85" y1="83.63" x2="626.65" y2="101.13"/><polygon class="cls-2" points="625.35 73.83 613.15 83.63 626.75 100.83 639.05 91.03 625.35 73.83"/><path class="cls-2" d="M648,77.08" transform="translate(-26.7 -3.35)"/><path class="cls-4" d="M679.65,64.28l4.8,6.1-3.2,2.5-1.4,9.4a10.93,10.93,0,0,1-.8,1.5c-.3.4-13.4,10.4-13.4,10.4L652,76.88l10.1-8,3-2.5,2.6-.8,3.5.6,2.4.2,1.9.1h1.2Z" transform="translate(-26.7 -3.35)"/><path class="cls-4" d="M639.75,87l13.7,17.2-16.3,13-.9-4.2-2-3.5-1.8-2.6a13.33,13.33,0,0,0-2-2.4c-.4-.1-.4-.6-.4-.6l-1.4-1-1.6-1.3-1.8-1.1-.9-.3-1.3-.1" transform="translate(-26.7 -3.35)"/><path class="cls-1" d="M652.35,94.28a2.56,2.56,0,0,1-2.1,0,2.61,2.61,0,0,1-1.4-3.4" transform="translate(-26.7 -3.35)"/><path class="cls-1" d="M687.55,57.68l-6.8,5.4a33.65,33.65,0,0,1-3.8,3,29.55,29.55,0,0,1-3,0l-5.4-.6a5.89,5.89,0,0,0-3.2.6c-1.2.8-12.8,10.2-12.8,10.2l-22,17.5-7.2,5.7" transform="translate(-26.7 -3.35)"/><path class="cls-1" d="M637,117.18l7.2-5.7,22-17.6s11.7-9.2,12.8-10.2a5.4,5.4,0,0,0,1.3-3l.6-5.4s.4-2.4.6-2.9,3.8-3,3.8-3l6.8-5.4" transform="translate(-26.7 -3.35)"/><ellipse class="cls-5" cx="629.85" cy="108.43" rx="3.5" ry="11.2" transform="translate(42.9 412.64) rotate(-38.53)"/><ellipse class="cls-3" cx="689.71" cy="61.07" rx="1.2" ry="3.8" transform="translate(85.44 439.61) rotate(-38.53)"/><line class="cls-1" x1="626.15" y1="72.33" x2="626.15" y2="72.33"/><line class="cls-1" x1="639.55" y1="90.63" x2="625.65" y2="73.13"/><line class="cls-1" x1="613.15" y1="83.13" x2="626.95" y2="100.63"/><polygon class="cls-2" points="625.65 73.33 613.45 83.03 627.05 100.33 639.35 90.53 625.65 73.33"/><path class="cls-2" d="M648.45,76.58" transform="translate(-26.7 -3.35)"/><path class="cls-4" d="M679.95,63.88l4.8,6.1-3.2,2.5-1.4,9.4a10.93,10.93,0,0,1-.8,1.5c-.2.4-13.3,10.4-13.3,10.4l-13.7-17.2,10.1-8,3-2.5,2.6-.8,3.5.6,2.4.2,1.9.1H677Z" transform="translate(-26.7 -3.35)"/><path class="cls-4" d="M640,86.38l13.7,17.2-16.3,13-.9-4.2-2-3.5-1.8-2.6a13.33,13.33,0,0,0-2-2.4c-.4-.1-.4-.6-.4-.6l-1.4-1-1.6-1.3-1.8-1.1-.9-.3-1.3-.1" transform="translate(-26.7 -3.35)"/><path class="cls-1" d="M652.85,92.68a2.56,2.56,0,0,1-2.1,0,2.61,2.61,0,0,1-1.4-3.4" transform="translate(-26.7 -3.35)"/><circle class="cls-6" cx="653.05" cy="84.44" r="1.1" transform="translate(62.89 421.86) rotate(-38.53)"/><circle class="cls-6" cx="657.9" cy="90.53" r="1.1" transform="translate(60.16 426.21) rotate(-38.53)"/><polyline class="cls-1" points="603.15 110.53 593.55 118.23 596.35 121.73"/><polyline class="cls-1" points="598.05 104.03 588.35 111.83 585.65 108.33"/><line class="cls-1" x1="670.25" y1="116.63" x2="670.25" y2="116.63"/><path class="cls-2" d="M739,161.4" transform="translate(-26.7 -3.35)"/><line class="cls-1" x1="669.95" y1="116.03" x2="669.95" y2="116.03"/><path class="cls-2" d="M738.81,160.8" transform="translate(-26.7 -3.35)"/><path class="cls-1" d="M748.62,119.39v8.7a38.29,38.29,0,0,1,0,4.8,17.79,17.79,0,0,1-1.9,2.3l-3.9,3.8a5.46,5.46,0,0,0-1.5,2.9c-.1,1.5-.1,16.3-.1,16.3l-.1,28.2v9.2" transform="translate(-26.7 -3.35)"/><ellipse class="cls-3" cx="752.52" cy="119.82" rx="1.2" ry="3.8" transform="matrix(0, -1, 1, 0, 602.45, 868.42)"/><line class="cls-1" x1="670.25" y1="90.63" x2="670.25" y2="90.63"/><line class="cls-1" x1="736.82" y1="155.34" x2="714.52" y2="155.24"/><line class="cls-1" x1="714.42" y1="171.24" x2="736.72" y2="171.44"/><polygon class="cls-2" points="714.62 155.34 714.52 170.94 736.52 171.24 736.62 155.44 714.62 155.34"/><path class="cls-2" d="M739,135.5" transform="translate(-26.7 -3.35)"/><path class="cls-4" d="M748.52,129.09h7.8v4l6.4,7a10.09,10.09,0,0,1,.7,1.5c.1.5-.3,16.9-.3,16.9l-22-.1.1-12.9-.2-3.8,1.1-2.5,2.7-2.4,1.7-1.7,1.3-1.4.7-.9Z" transform="translate(-26.7 -3.35)"/><path class="cls-4" d="M741.22,174.39l22,.1-.1,20.8-3.8-1.9-4-.7-3.2-.2a16,16,0,0,0-3.1,0,.49.49,0,0,1-.7-.1l-1.6.5-2,.4-2,.7-.8.5-.9.9" transform="translate(-26.7 -3.35)"/><path class="cls-1" d="M754.82,169.19a2.67,2.67,0,0,1-4.9.7" transform="translate(-26.7 -3.35)"/><path class="cls-1" d="M748.42,118.79v8.7a38.29,38.29,0,0,1,0,4.8,17.79,17.79,0,0,1-1.9,2.3l-3.9,3.8a5.46,5.46,0,0,0-1.5,2.9c-.1,1.5-.1,16.3-.1,16.3l-.1,28.2V195" transform="translate(-26.7 -3.35)"/><path class="cls-1" d="M763.12,195.49v-9.2l.1-28.2s.2-14.8.1-16.3a5.46,5.46,0,0,0-1.5-2.9l-3.8-3.8a18.57,18.57,0,0,1-1.8-2.3,38.2,38.2,0,0,1,0-4.8v-8.7" transform="translate(-26.7 -3.35)"/><ellipse class="cls-5" cx="751.81" cy="195.69" rx="3.5" ry="11.2" transform="translate(525.88 943.22) rotate(-89.73)"/><ellipse class="cls-3" cx="752.36" cy="119.21" rx="1.2" ry="3.8" transform="matrix(0, -1, 1, 0, 602.9, 867.66)"/><line class="cls-1" x1="669.95" y1="90.13" x2="669.95" y2="90.13"/><line class="cls-1" x1="736.62" y1="154.74" x2="714.32" y2="154.64"/><line class="cls-1" x1="714.22" y1="170.64" x2="736.52" y2="170.84"/><polygon class="cls-2" points="714.42 154.74 714.33 170.44 736.33 170.64 736.33 154.84 714.42 154.74"/><path class="cls-2" d="M738.81,134.9" transform="translate(-26.7 -3.35)"/><path class="cls-4" d="M748.42,128.69h7.8v4l6.4,7a10.09,10.09,0,0,1,.7,1.5c.1.5-.3,16.9-.3,16.9l-22-.1.1-12.9-.1-3.9,1.1-2.5,2.7-2.4,1.7-1.7,1.3-1.4.7-.9Z" transform="translate(-26.7 -3.35)"/><path class="cls-4" d="M740.92,173.79l22,.1-.1,20.8-3.8-1.9-4-.7-3.2-.2a16,16,0,0,0-3.1,0,.49.49,0,0,1-.7-.1l-1.6.5-2,.4-2,.7-.8.5-.9.9" transform="translate(-26.7 -3.35)"/><path class="cls-1" d="M753.92,167.79a2.67,2.67,0,0,1-4.9.7" transform="translate(-26.7 -3.35)"/><circle class="cls-6" cx="747.59" cy="162.53" r="1.1" transform="translate(554.84 905.99) rotate(-89.73)"/><circle class="cls-6" cx="755.36" cy="162.56" r="1.1" transform="translate(562.54 913.79) rotate(-89.73)"/><polyline class="cls-1" points="729.33 195.64 729.33 207.94 733.73 207.94"/><polyline class="cls-1" points="721.02 195.64 721.02 207.94 716.62 207.94"/><line class="cls-1" x1="811.72" y1="181.2" x2="811.72" y2="181.2"/><path class="cls-2" d="M836.32,188.55" transform="translate(-26.7 -3.35)"/><line class="cls-1" x1="811.52" y1="180.6" x2="811.52" y2="180.6"/><path class="cls-2" d="M836.12,188" transform="translate(-26.7 -3.35)"/><path class="cls-1" d="M846.22,120.35v8.7a38.29,38.29,0,0,1,0,4.8,17.79,17.79,0,0,1-1.9,2.3l-3.9,3.8a5.46,5.46,0,0,0-1.5,2.9c-.1,1.5-.1,16.3-.1,16.3l-.1,28.2v9.2" transform="translate(-26.7 -3.35)"/><ellipse class="cls-3" cx="850.14" cy="120.71" rx="1.2" ry="3.8" transform="matrix(0, -1, 1, 0, 698.72, 966.92)"/><line class="cls-1" x1="811.72" y1="155.3" x2="811.72" y2="155.3"/><line class="cls-1" x1="834.42" y1="156.2" x2="812.12" y2="156.1"/><line class="cls-1" x1="812.02" y1="172.1" x2="834.32" y2="172.4"/><polygon class="cls-2" points="812.22 156.3 812.12 171.9 834.12 172.1 834.12 156.4 812.22 156.3"/><path class="cls-2" d="M836.32,162.65" transform="translate(-26.7 -3.35)"/><path class="cls-4" d="M846.12,130h7.8v4l6.4,7a10.09,10.09,0,0,1,.7,1.5c.1.5-.3,16.9-.3,16.9l-22-.1.1-12.9-.1-3.9,1.1-2.5,2.7-2.4,1.7-1.7,1.3-1.4.7-.9Z" transform="translate(-26.7 -3.35)"/><path class="cls-4" d="M838.72,175.35l22,.1-.1,20.8-3.8-1.9-4-.7-3.2-.2a16,16,0,0,0-3.1,0,.49.49,0,0,1-.7-.1l-1.6.5-2,.4-2,.7-.8.5-.9.9" transform="translate(-26.7 -3.35)"/><path class="cls-1" d="M852.42,170.05a2.67,2.67,0,0,1-4.9.7" transform="translate(-26.7 -3.35)"/><path class="cls-1" d="M845.92,119.75v8.7a38.29,38.29,0,0,1,0,4.8,17.79,17.79,0,0,1-1.9,2.3l-3.9,3.8a5.46,5.46,0,0,0-1.5,2.9c-.1,1.5-.1,16.3-.1,16.3l-.1,28.2V196" transform="translate(-26.7 -3.35)"/><path class="cls-1" d="M860.72,196.35v-9.2l.1-28.2s.2-14.8.1-16.3a5.46,5.46,0,0,0-1.5-2.9l-3.8-3.8a18.57,18.57,0,0,1-1.8-2.3,38.2,38.2,0,0,1,0-4.8v-8.7" transform="translate(-26.7 -3.35)"/><ellipse class="cls-5" cx="849.33" cy="196.58" rx="3.5" ry="11.2" transform="translate(622.05 1041.63) rotate(-89.73)"/><ellipse class="cls-3" cx="849.88" cy="120.1" rx="1.2" ry="3.8" transform="matrix(0, -1, 1, 0, 699.07, 966.06)"/><line class="cls-1" x1="811.52" y1="154.7" x2="811.52" y2="154.7"/><line class="cls-1" x1="834.22" y1="155.7" x2="811.82" y2="155.6"/><line class="cls-1" x1="811.82" y1="171.6" x2="834.12" y2="171.8"/><polygon class="cls-2" points="811.92 155.7 811.92 171.3 833.82 171.5 833.92 155.8 811.92 155.7"/><path class="cls-2" d="M836.12,162.05" transform="translate(-26.7 -3.35)"/><path class="cls-4" d="M846,129.55h7.8v4l6.4,7a10.09,10.09,0,0,1,.7,1.5c.1.5-.3,16.9-.3,16.9l-22-.1.1-12.9-.1-3.9,1.1-2.5,2.7-2.4,1.7-1.7,1.3-1.4.7-.9Z" transform="translate(-26.7 -3.35)"/><path class="cls-4" d="M838.52,174.75l22,.1-.1,20.8-3.8-1.9-4-.7-3.2-.2a16,16,0,0,0-3.1,0,.49.49,0,0,1-.7-.1l-1.6.5-2,.4-2,.7-.8.5-.9.9" transform="translate(-26.7 -3.35)"/><path class="cls-1" d="M851.52,168.65a2.67,2.67,0,0,1-4.9.7" transform="translate(-26.7 -3.35)"/><circle class="cls-6" cx="845.21" cy="163.42" r="1.1" transform="translate(651.11 1004.5) rotate(-89.73)"/><circle class="cls-6" cx="852.88" cy="163.45" r="1.1" transform="translate(658.71 1012.2) rotate(-89.73)"/><polyline class="cls-1" points="826.92 196.5 826.92 208.8 831.32 208.8"/><polyline class="cls-1" points="818.62 196.5 818.62 208.9 814.22 208.9"/><polyline class="cls-1" points="811.72 160.3 804.42 170.3 800.92 167.7"/><polyline class="cls-1" points="834.52 160.9 841.82 170.9 845.42 168.3"/><line class="cls-1" x1="911.91" y1="181.71" x2="911.91" y2="181.71"/><path class="cls-2" d="M936.51,189.06" transform="translate(-26.7 -3.35)"/><line class="cls-1" x1="911.71" y1="181.11" x2="911.71" y2="181.11"/><path class="cls-2" d="M936.31,188.46" transform="translate(-26.7 -3.35)"/><path class="cls-1" d="M946.41,120.76v8.7a38.29,38.29,0,0,1,0,4.8,17.79,17.79,0,0,1-1.9,2.3l-3.9,3.8a5.46,5.46,0,0,0-1.5,2.9c-.1,1.5-.1,16.3-.1,16.3l-.1,28.2V197" transform="translate(-26.7 -3.35)"/><ellipse class="cls-3" cx="950.34" cy="121.22" rx="1.2" ry="3.8" transform="matrix(0, -1, 1, 0, 797.95, 1067.63)"/><line class="cls-1" x1="911.91" y1="155.81" x2="911.91" y2="155.81"/><line class="cls-1" x1="934.61" y1="156.71" x2="912.31" y2="156.61"/><line class="cls-1" x1="912.21" y1="172.61" x2="934.51" y2="172.81"/><polygon class="cls-2" points="912.41 156.71 912.31 172.41 934.31 172.61 934.41 156.91 912.41 156.71"/><path class="cls-2" d="M936.51,163.16" transform="translate(-26.7 -3.35)"/><path class="cls-4" d="M946.31,130.46h7.8v4l6.4,7a10.09,10.09,0,0,1,.7,1.5c.1.5-.3,16.9-.3,16.9l-22-.1.1-12.9-.1-3.9,1.1-2.5,2.7-2.4,1.7-1.7,1.3-1.4.7-.9Z" transform="translate(-26.7 -3.35)"/><path class="cls-4" d="M939,175.76l22,.1-.1,20.8-3.8-1.9-4-.7-3.2-.2a16,16,0,0,0-3.1,0,.49.49,0,0,1-.7-.1l-1.6.5-2,.4-2,.7-.8.5-.9.9" transform="translate(-26.7 -3.35)"/><path class="cls-1" d="M952.61,170.56a2.67,2.67,0,0,1-4.9.7" transform="translate(-26.7 -3.35)"/><path class="cls-1" d="M946.11,120.26V129a38.29,38.29,0,0,1,0,4.8,17.79,17.79,0,0,1-1.9,2.3l-3.9,3.8a5.46,5.46,0,0,0-1.5,2.9c-.1,1.5-.1,16.3-.1,16.3l-.1,28.2v9.2" transform="translate(-26.7 -3.35)"/><path class="cls-1" d="M960.91,196.86v-9.2l.1-28.2s.2-14.8.1-16.3a5.46,5.46,0,0,0-1.5-2.9l-3.8-3.8a18.57,18.57,0,0,1-1.8-2.3,38.2,38.2,0,0,1,0-4.8v-8.7" transform="translate(-26.7 -3.35)"/><ellipse class="cls-5" cx="949.54" cy="197.08" rx="3.5" ry="11.2" transform="translate(721.28 1142.33) rotate(-89.73)"/><ellipse class="cls-3" cx="950.09" cy="120.61" rx="1.2" ry="3.8" transform="matrix(0, -1, 1, 0, 798.3, 1066.77)"/><line class="cls-1" x1="911.71" y1="155.21" x2="911.71" y2="155.21"/><line class="cls-1" x1="934.41" y1="156.21" x2="912.01" y2="156.11"/><line class="cls-1" x1="912.01" y1="172.01" x2="934.31" y2="172.31"/><polygon class="cls-2" points="912.21 156.21 912.11 171.81 934.11 172.01 934.11 156.31 912.21 156.21"/><path class="cls-2" d="M936.31,162.56" transform="translate(-26.7 -3.35)"/><path class="cls-4" d="M946.21,130.06H954v4l6.4,7a10.09,10.09,0,0,1,.7,1.5c.1.5-.3,16.9-.3,16.9l-22-.1.1-12.9-.1-3.9,1.1-2.5,2.7-2.4,1.7-1.7,1.3-1.4.7-.9Z" transform="translate(-26.7 -3.35)"/><path class="cls-4" d="M938.71,175.26l22,.1-.1,20.8-3.8-1.9-4-.7-3.2-.2a16,16,0,0,0-3.1,0,.49.49,0,0,1-.7-.1l-1.6.5-2,.4-2,.7-.8.5-.9.9" transform="translate(-26.7 -3.35)"/><path class="cls-1" d="M951.71,169.16a2.67,2.67,0,0,1-4.9.7" transform="translate(-26.7 -3.35)"/><circle class="cls-6" cx="945.42" cy="163.92" r="1.1" transform="translate(750.34 1105.2) rotate(-89.73)"/><circle class="cls-6" cx="953.08" cy="163.95" r="1.1" transform="translate(757.94 1112.91) rotate(-89.73)"/><polyline class="cls-1" points="927.11 197.01 927.11 209.31 931.51 209.31"/><polyline class="cls-1" points="918.81 197.01 918.81 209.31 914.41 209.31"/><polyline class="cls-1" points="911.91 167.11 902.51 159.01 905.41 155.71"/><polyline class="cls-1" points="934.21 167.81 943.31 159.41 940.31 156.21"/></svg>